<?xml version="1.0" standalone="no"?>
<!DOCTYPE svg PUBLIC "-//W3C//DTD SVG 20010904//EN"
 "http://www.w3.org/TR/2001/REC-SVG-20010904/DTD/svg10.dtd">
<svg version="1.0" xmlns="http://www.w3.org/2000/svg"
 width="500.000000pt" height="500.000000pt" viewBox="0 0 500.000000 500.000000"
 preserveAspectRatio="xMidYMid meet">
<metadata>
Created by potrace 1.14, written by Peter Selinger 2001-2017
</metadata>
<g transform="translate(0.000000,500.000000) scale(0.100000,-0.100000)"
fill="#000000" stroke="none">
<path d="M0 2500 l0 -2500 2500 0 2500 0 0 2500 0 2500 -2500 0 -2500 0 0
-2500z m3720 945 c151 -40 316 -139 421 -253 53 -58 159 -211 159 -231 0 -5
-19 -15 -42 -22 -24 -6 -104 -28 -178 -49 -74 -21 -138 -36 -141 -34 -4 2 -9
23 -13 46 -12 76 -57 211 -94 282 -47 89 -124 169 -199 204 -51 24 -70 27
-158 27 -79 -1 -112 -5 -155 -23 -167 -66 -300 -258 -362 -521 -29 -124 -36
-439 -14 -571 34 -194 89 -331 180 -446 82 -105 177 -169 292 -198 78 -20 232
-21 307 -1 210 55 365 227 437 487 15 55 50 266 50 304 0 8 -180 4 -257 -7
-91 -12 -236 -58 -310 -98 l-52 -29 -59 82 c-32 44 -62 87 -66 94 -6 9 97 12
498 12 l506 0 0 -25 c0 -25 0 -25 -95 -25 l-95 0 0 -192 c1 -197 13 -509 26
-630 l7 -68 -68 0 -67 0 6 53 c11 88 26 347 25 437 l0 85 -25 -70 c-82 -237
-190 -379 -351 -463 -98 -50 -163 -70 -281 -83 -177 -20 -379 15 -537 91 -339
163 -535 532 -512 964 8 152 36 259 104 396 52 104 66 124 157 215 157 156
322 239 551 276 81 13 331 3 405 -16z m-2637 -30 c-12 -81 -24 -448 -21 -688
l3 -307 433 444 c238 244 454 471 480 505 l47 61 60 0 60 -1 -50 -40 c-83 -68
-646 -643 -641 -655 2 -6 170 -227 372 -490 267 -348 396 -507 471 -581 l103
-103 -284 0 -284 0 -40 68 c-40 65 -125 178 -462 609 l-165 211 -52 -51 -53
-51 0 -226 c0 -208 13 -485 25 -537 l5 -23 -226 0 -226 0 5 23 c4 12 11 103
18 202 12 205 6 1443 -9 1560 -5 39 -7 73 -5 78 7 12 438 4 436 -8z"/>
</g>
</svg>
