<?xml version="1.0" standalone="no"?>
<!DOCTYPE svg PUBLIC "-//W3C//DTD SVG 20010904//EN"
 "http://www.w3.org/TR/2001/REC-SVG-20010904/DTD/svg10.dtd">
<svg version="1.0" xmlns="http://www.w3.org/2000/svg"
 width="1920.000000pt" height="1080.000000pt" viewBox="0 0 1920.000000 1080.000000"
 preserveAspectRatio="xMidYMid meet">

<g transform="translate(0.000000,1080.000000) scale(0.100000,-0.100000)"
fill="#000000" stroke="none">
<path d="M8677 10083 c-4 -3 -7 -480 -7 -1060 l0 -1053 -700 0 -700 0 0 1005
0 1005 -2045 0 -2045 0 0 -3630 0 -3630 1185 0 1185 0 3 -197 c1 -109 2 -520
2 -913 l0 -715 1993 -3 1992 -2 -2 1237 -3 1238 -2 -1228 -3 -1227 -1980 0
-1980 0 0 3525 0 3525 1550 0 1550 0 0 -291 0 -292 -1480 8 c-1241 6 -1480 5
-1480 -6 0 -12 243 -14 1478 -16 l1477 -1 3 -161 2 -160 -1312 5 c-722 3
-1347 2 -1388 -3 -86 -10 1097 -23 2088 -23 l612 0 0 -110 0 -110 -157 0 c-87
0 -745 5 -1462 11 -717 5 -1307 7 -1312 2 -7 -7 -31 -1014 -24 -1021 5 -6 534
-11 1595 -17 608 -3 1162 -8 1233 -11 l127 -6 0 -85 0 -86 -1007 7 c-555 3
-1210 9 -1458 12 -247 3 -455 1 -462 -3 -8 -6 -14 -145 -21 -513 -6 -278 -8
-508 -6 -511 2 -3 560 -9 1241 -13 681 -3 1345 -9 1476 -12 l237 -7 0 -100 0
-100 -512 7 c-282 3 -944 9 -1470 12 l-958 7 -1 -89 c0 -49 -4 -278 -9 -509
-4 -231 -5 -423 -2 -427 7 -7 548 -13 2441 -28 634 -5 1158 -7 1162 -4 15 9
10 44 -5 44 -8 0 -16 -5 -18 -12 -3 -8 -430 -9 -1777 0 -975 5 -1775 13 -1778
15 -2 3 -1 226 3 496 l7 491 431 -5 c543 -6 1831 -15 2204 -15 l282 0 0 -480
0 -480 1280 0 1280 0 0 -1355 0 -1355 2045 0 2045 0 0 3635 0 3635 -1435 0
-1435 0 -2 1078 -3 1077 -1881 3 c-1034 1 -1884 -1 -1887 -5z m3763 -1078 l0
-1075 -104 0 c-63 0 -106 4 -108 10 -2 7 -97 13 -256 17 l-252 6 0 89 0 88
265 0 265 0 0 625 c0 492 -3 626 -12 629 -7 3 -770 7 -1695 10 l-1682 6 -3
-458 c-1 -251 -3 -533 -3 -627 l0 -170 208 -3 207 -2 0 -90 0 -90 -214 0 -214
0 -7 -442 c-3 -244 -5 -526 -3 -628 l3 -185 218 -3 217 -2 0 -75 0 -75 -217
-2 -218 -3 -8 -615 c-4 -338 -5 -620 -2 -627 3 -10 56 -13 223 -13 l220 0 6
-30 6 -30 292 -1 c161 -1 599 -5 973 -8 l680 -6 0 -65 0 -65 -1197 4 -1198 3
0 -299 c0 -165 -3 -442 -7 -616 l-6 -317 -69 0 -68 0 0 3098 c0 1704 3 3102 7
3105 3 4 849 7 1880 7 l1873 0 0 -1075z m-5185 -35 l0 -995 -98 0 -98 0 -2
400 -2 400 -895 6 c-492 3 -1323 10 -1846 14 l-952 7 -6 -253 c-3 -140 -7
-378 -8 -529 l-3 -275 1095 -8 c602 -4 1101 -9 1108 -12 9 -3 12 -28 10 -92
l-3 -88 -635 3 c-349 1 -837 5 -1085 8 -247 3 -456 1 -462 -3 -9 -7 -15 -138
-23 -523 -6 -282 -7 -517 -3 -521 5 -4 492 -10 1083 -14 591 -3 1087 -8 1103
-11 l27 -6 0 -100 0 -101 -1099 6 -1099 7 -6 -252 c-3 -139 -7 -377 -8 -528
l-3 -275 840 -7 c462 -4 959 -9 1105 -10 l265 -3 3 -99 3 -99 -1106 4 -1106 4
-4 -95 c-2 -52 -5 -288 -7 -525 l-3 -430 1100 -8 c605 -4 1106 -10 1113 -12
13 -5 18 -200 4 -209 -4 -2 -491 0 -1082 5 -591 5 -1082 6 -1091 4 -15 -5 -18
-36 -24 -250 -8 -273 -8 -260 4 -260 6 0 12 105 15 244 3 134 7 245 8 245 11
6 2159 -13 2167 -18 12 -8 16 -206 4 -206 -4 0 -27 19 -52 43 l-45 42 46 -52
c25 -29 48 -66 52 -84 10 -50 7 -280 -4 -318 -20 -69 -111 -141 -212 -167
-114 -30 -221 0 -312 86 -77 73 -99 129 -100 252 -1 101 -9 103 -21 5 l-8 -57
-216 2 -216 3 3 95 c2 52 -1 109 -7 125 -7 23 -9 1 -10 -93 -1 -89 -4 -124
-13 -127 -20 -6 -301 -13 -315 -8 -7 3 -13 17 -14 31 0 15 -4 36 -9 47 -6 15
-8 9 -8 -23 1 -23 -3 -47 -8 -52 -5 -5 -52 -11 -104 -13 -52 -1 136 -4 417 -5
l513 -2 6 -28 c23 -94 96 -182 190 -228 53 -26 69 -29 154 -29 84 0 101 4 150
28 30 16 73 46 95 68 23 21 44 39 48 39 4 0 7 -76 7 -169 0 -130 -3 -171 -14
-180 -10 -8 -327 -10 -1182 -9 l-1169 3 -3 3618 -2 3617 2032 -2 2033 -3 0
-995z m4683 404 l293 -6 -7 -597 c-3 -328 -9 -599 -13 -602 -3 -3 -115 -4
-248 -1 -238 4 -242 5 -245 26 -3 19 -11 21 -108 27 -58 3 -607 8 -1220 10
l-1115 4 -3 -27 -3 -28 -195 0 -194 0 6 593 c2 325 5 597 4 604 0 8 335 10
1378 7 757 -2 1509 -7 1670 -10z m-7118 -604 c668 -5 1439 -10 1712 -10 315
-1 500 -5 504 -11 3 -6 3 -183 -1 -395 l-8 -384 -733 0 -734 0 0 -110 0 -110
-587 1 c-324 1 -817 5 -1096 8 l-509 6 1 350 c1 193 4 421 7 508 l7 157 111 0
c61 0 658 -5 1326 -10z m6408 -576 l462 -6 0 -129 0 -129 -230 0 -230 0 0
-567 -1 -568 -22 -16 c-36 -26 -73 -31 -257 -35 -96 -2 -202 -6 -235 -10 -60
-6 -76 -6 -150 -5 -22 0 -51 0 -65 0 -14 -1 -40 4 -57 12 -29 12 -37 11 -63
-4 -30 -18 -41 -12 -19 10 7 7 9 19 5 29 -6 15 -10 13 -34 -15 -26 -32 -29
-32 -114 -33 -69 -1 -92 2 -106 15 -25 23 -54 21 -86 -4 l-26 -20 -26 20 c-36
28 -59 26 -115 -10 -27 -17 -53 -29 -58 -27 -5 1 0 24 11 51 21 47 16 80 -6
42 -10 -18 -34 -41 -96 -95 l-25 -22 38 21 c46 25 44 25 50 1 9 -34 34 -34 85
-1 54 34 83 39 102 16 7 -8 25 -15 40 -15 15 0 33 7 40 15 16 19 44 19 60 1
15 -19 263 -17 282 2 16 16 39 15 78 -5 26 -13 39 -14 62 -5 20 7 39 7 66 0
25 -7 51 -7 82 0 25 5 54 10 65 11 11 0 54 3 95 6 41 3 113 5 160 3 82 -2 126
-1 200 4 l35 3 0 -45 0 -45 -60 -13 c-48 -11 -70 -11 -112 -1 -34 8 -71 9
-110 4 -64 -9 -71 -9 -228 -7 -60 1 -128 1 -150 1 -22 -1 -52 2 -67 6 -19 5
-40 2 -65 -10 -20 -10 -38 -14 -40 -9 -12 35 -21 38 -60 21 -64 -29 -133 -37
-165 -21 -17 9 -35 11 -49 5 -15 -5 -40 -2 -70 7 -44 14 -48 14 -77 -6 -36
-26 -48 -27 -56 -7 -7 20 -36 18 -63 -4 -32 -27 -28 -33 7 -13 29 17 30 16 45
-5 20 -29 26 -29 70 2 35 23 39 23 73 10 20 -8 53 -14 72 -14 19 0 53 -3 75
-6 27 -4 61 0 105 14 56 18 66 18 73 6 10 -19 28 -19 71 1 32 16 37 16 75 1
28 -12 48 -14 64 -8 19 8 432 7 512 -1 11 -1 46 2 78 6 l57 8 0 -124 0 -125
-82 -6 c-46 -4 -227 -8 -403 -8 -176 -1 -484 -5 -685 -8 -310 -5 -365 -8 -365
-21 0 -17 -45 -17 853 -6 l682 8 0 -105 0 -104 -262 -6 c-145 -4 -491 -10
-770 -13 l-508 -7 -1 64 c0 35 -4 84 -8 109 -7 35 -9 17 -10 -78 l-1 -124 780
8 780 7 0 -408 0 -408 -662 6 c-364 4 -798 7 -965 7 l-303 0 0 1463 c0 805 2
1466 4 1468 6 6 1361 1 1924 -7z m-1958 -339 c0 -67 -3 -85 -14 -85 -8 0 -18
5 -21 10 -3 6 -17 10 -30 10 -13 0 -27 -4 -30 -10 -9 -15 -25 -12 -25 4 0 27
-29 25 -66 -5 -54 -43 -72 -37 -34 11 23 30 26 63 6 79 -19 16 -44 -19 -53
-72 -3 -20 -10 -40 -15 -43 -12 -7 22 -33 43 -34 9 0 33 11 53 25 43 29 46 30
46 10 0 -24 29 -29 51 -9 17 15 24 16 39 6 11 -7 27 -12 35 -12 12 0 15 -18
15 -108 0 -64 -4 -112 -11 -119 -8 -8 -8 -13 0 -17 7 -5 11 -70 11 -192 l0
-185 -22 6 c-45 14 -98 58 -118 99 -36 75 -23 159 34 226 16 20 14 19 -11 -4
-113 -102 -58 -311 90 -343 25 -5 27 -9 27 -53 l0 -48 -37 3 c-21 2 -46 6 -55
10 -21 8 -48 0 -48 -15 0 -5 9 -10 19 -10 11 0 21 -6 24 -12 3 -10 9 -10 24
-2 11 7 31 10 46 7 l27 -5 0 -124 0 -124 -62 0 c-35 0 -127 3 -205 7 l-143 6
0 598 0 598 23 3 c12 2 104 2 205 0 l182 -3 0 -84z m6040 -3560 l0 -3625
-2035 0 -2035 0 0 250 0 250 128 1 c70 0 136 4 147 9 18 8 17 9 -6 9 -15 1
-40 4 -57 7 l-31 6 4 642 c3 352 5 647 5 653 0 10 299 12 1468 8 807 -3 1621
-8 1810 -11 l342 -6 0 -198 c0 -108 -3 -400 -7 -648 l-6 -452 -266 -1 c-146
-1 -318 -4 -381 -8 -111 -6 -106 -6 115 -14 270 -9 772 -10 786 -2 23 15 4 25
-43 23 -29 -1 -82 -2 -117 0 l-64 2 3 588 c2 323 3 619 2 659 l-2 72 -42 5
c-24 3 -849 7 -1834 10 l-1791 5 -2 -337 c0 -185 -4 -484 -7 -664 l-7 -328
-73 0 -74 0 0 3360 0 3360 2035 0 2035 0 0 -3625z m-6269 3512 c-8 -8 -11 -7
-11 4 0 9 3 19 7 23 4 4 9 2 11 -4 3 -7 -1 -17 -7 -23z m-3925 -283 l442 -6 1
-504 2 -504 -818 1 c-450 1 -943 4 -1097 8 l-278 6 1 350 c1 193 4 420 7 505
l7 155 646 -2 c355 -1 845 -5 1087 -9z m3547 -751 c4 -2 7 -225 7 -495 l0
-490 -1262 6 c-695 4 -1355 9 -1467 12 l-204 6 6 316 c4 173 7 394 7 490 l0
175 1453 -8 c798 -4 1455 -9 1460 -12z m607 -268 c0 -33 -25 -82 -48 -93 -29
-16 -110 -24 -117 -12 -9 15 -36 12 -57 -7 -17 -15 -19 -15 -32 2 -9 13 -20
16 -39 11 -15 -3 -27 -11 -27 -17 0 -6 7 -8 17 -5 10 4 25 -2 39 -15 22 -21
24 -21 50 -4 22 14 30 15 50 5 17 -10 30 -10 51 -2 43 17 79 18 97 3 14 -12
16 -49 16 -327 0 -195 -4 -314 -10 -314 -18 0 -78 60 -94 94 -31 65 -16 168
28 205 9 8 16 18 16 23 0 20 -32 -17 -56 -64 -48 -95 -17 -213 71 -266 41 -25
44 -30 45 -68 0 -37 -3 -43 -25 -48 -14 -4 -30 -4 -36 0 -5 3 -21 -2 -34 -10
-29 -19 -34 -42 -7 -31 9 4 23 7 30 6 6 0 18 -2 25 -2 6 -1 20 2 30 6 16 7 17
-3 17 -125 l0 -133 -152 6 c-83 4 -178 7 -210 7 l-60 0 6 598 c3 328 5 598 6
600 0 1 92 2 205 2 l205 0 0 -25z m-3894 -251 l181 -6 -1 -502 -1 -501 -565
-2 c-311 -2 -803 1 -1093 5 l-529 7 1 350 c1 193 4 420 7 506 l7 157 906 -4
c498 -3 988 -7 1087 -10z m3287 -691 c4 -2 7 -225 7 -495 l0 -491 -1397 7
c-769 4 -1429 9 -1467 12 l-69 6 6 316 c4 173 7 394 7 490 l0 174 1453 -7
c798 -4 1455 -9 1460 -12z m2560 -500 c4 -2 7 -92 7 -200 l0 -195 -27 7 c-55
14 -125 17 -136 6 -8 -8 -2 -11 24 -11 46 0 105 -17 124 -36 12 -12 15 -43 15
-160 l0 -144 -40 -20 c-79 -40 -170 -16 -233 63 -24 29 -32 49 -35 96 -4 61
10 103 52 150 l21 24 -23 -14 c-32 -20 -72 -105 -72 -153 0 -60 41 -140 87
-170 72 -47 120 -51 221 -20 l22 6 -2 -213 -3 -214 -145 -5 c-115 -4 -135 -7
-96 -12 27 -5 93 -8 147 -8 l99 0 0 -230 0 -230 -1272 2 -1273 3 -3 228 -2
227 92 0 c51 0 125 3 163 7 67 7 68 7 30 14 -22 5 -57 8 -78 8 l-39 1 6 603
c3 331 5 604 6 605 0 5 2354 -10 2363 -15z m-6413 -64 c327 -1 629 -4 670 -6
l76 -5 -1 -501 0 -502 -330 -3 c-181 -2 -677 0 -1102 4 l-771 6 5 497 c2 273
7 502 9 510 4 12 68 13 427 8 232 -4 690 -8 1017 -8z"/>
<path d="M8962 9985 c114 -37 142 -166 52 -245 -63 -55 -171 -34 -210 41 -23
46 -15 130 17 167 l24 27 -27 -24 c-75 -65 -53 -203 39 -246 45 -22 124 -16
161 12 84 63 85 194 2 253 -16 12 -47 23 -67 26 -37 4 -36 4 9 -11z"/>
<path d="M12070 9962 c0 -8 16 -32 35 -55 19 -22 35 -45 35 -51 0 -6 -19 -27
-42 -47 -57 -49 -42 -62 16 -14 l45 37 39 -41 c21 -23 47 -41 57 -41 13 0 5
13 -30 51 l-48 52 51 44 c64 55 68 76 7 31 -25 -18 -52 -37 -59 -42 -11 -7
-26 3 -60 40 -25 27 -45 43 -46 36z"/>
<path d="M10365 9888 c-14 -29 -25 -71 -25 -94 0 -40 -22 -74 -48 -74 -7 0
-12 -4 -12 -10 0 -17 36 -11 55 10 10 11 28 20 40 20 12 0 39 13 60 30 39 31
55 31 55 0 0 -24 18 -29 52 -16 22 8 31 7 47 -8 15 -14 28 -17 48 -11 15 4 48
8 73 9 25 1 60 10 78 19 29 16 35 16 53 3 15 -10 28 -12 44 -6 13 5 33 6 45 3
17 -4 21 -2 18 8 -3 9 -21 14 -54 14 -27 0 -54 4 -61 8 -7 4 -30 -1 -52 -13
-51 -25 -56 -25 -37 2 22 31 21 68 -1 68 -15 0 -15 -2 -4 -9 12 -8 12 -13 -3
-36 -14 -22 -20 -25 -27 -14 -6 10 -9 10 -9 2 0 -7 -17 -20 -37 -29 -35 -14
-40 -14 -71 2 -25 14 -37 15 -56 6 -22 -10 -25 -8 -35 19 -13 37 -24 36 -71
-1 -43 -34 -62 -40 -36 -11 24 26 44 100 36 131 -11 45 -38 36 -65 -22z m45
-5 c0 -22 -10 -53 -22 -73 -22 -35 -23 -35 -26 -9 -3 24 31 119 43 119 3 0 5
-17 5 -37z"/>
<path d="M6958 9893 c7 -3 16 -2 19 1 4 3 -2 6 -13 5 -11 0 -14 -3 -6 -6z"/>
<path d="M3458 9883 c7 -3 16 -2 19 1 4 3 -2 6 -13 5 -11 0 -14 -3 -6 -6z"/>
<path d="M7075 9836 c10 -14 19 -26 22 -26 7 0 -17 39 -28 46 -6 3 -3 -5 6
-20z"/>
<path d="M3570 9833 c0 -6 8 -17 18 -24 16 -13 16 -13 2 6 -8 11 -16 22 -17
24 -2 2 -3 0 -3 -6z"/>
<path d="M5013 9773 c-16 -34 -27 -77 -28 -107 -1 -45 -5 -53 -33 -71 -17 -11
-31 -23 -32 -27 0 -14 22 -8 53 14 17 13 36 23 42 24 5 0 15 2 21 2 6 1 28 16
49 32 41 33 55 37 55 17 0 -7 6 -22 14 -32 12 -17 17 -17 45 -5 28 11 34 10
51 -5 14 -13 27 -16 52 -10 18 4 53 7 77 6 28 0 57 7 77 19 38 24 52 25 74 5
13 -12 24 -13 42 -6 13 5 37 6 54 3 27 -5 28 -4 15 12 -12 14 -24 16 -57 11
-27 -4 -50 -1 -62 6 -16 10 -27 8 -67 -14 -26 -15 -49 -27 -51 -27 -2 0 5 17
16 37 21 39 25 63 12 63 -4 0 -12 -14 -17 -32 -9 -26 -19 -34 -68 -52 -56 -19
-58 -19 -88 -2 -24 14 -36 16 -60 7 -28 -10 -31 -9 -41 19 -13 38 -33 38 -78
0 -48 -41 -55 -37 -25 13 37 64 32 157 -8 157 -4 0 -20 -26 -34 -57z m47 -9
c0 -20 -10 -54 -22 -75 -41 -73 -52 -37 -17 55 25 65 39 72 39 20z"/>
<path d="M5960 9791 c0 -4 9 -19 19 -33 20 -24 20 -25 -4 -54 -41 -50 -22 -65
20 -16 30 33 31 52 4 86 -20 26 -39 34 -39 17z"/>
<path d="M7107 9764 c7 -56 -11 -107 -52 -143 -94 -82 -233 -25 -254 105 l-9
49 -1 -43 c-1 -50 27 -112 62 -135 118 -77 267 -4 269 132 0 21 -4 47 -10 57
-8 15 -9 10 -5 -22z"/>
<path d="M3605 9730 c0 -66 -18 -99 -75 -137 -89 -61 -214 7 -231 125 l-6 47
-2 -51 c-2 -92 67 -159 164 -158 94 0 155 56 163 149 2 29 0 60 -4 68 -6 10
-9 -5 -9 -43z"/>
<path d="M4497 9750 c-21 -23 -37 -46 -34 -53 6 -18 76 -71 84 -63 5 4 -7 20
-25 34 -39 32 -39 38 -6 73 14 15 24 33 22 39 -2 7 -20 -6 -41 -30z"/>
<path d="M3711 9756 c-9 -11 62 -116 79 -116 12 0 60 103 52 111 -13 12 -122
16 -131 5z m119 -22 c0 -4 -10 -22 -21 -41 l-21 -34 -24 35 c-13 19 -24 37
-24 40 0 4 20 6 45 6 25 0 45 -3 45 -6z"/>
<path d="M3334 9371 c3 -5 15 -7 26 -4 28 7 25 13 -6 13 -14 0 -23 -4 -20 -9z"/>
<path d="M4008 9373 c338 -2 887 -2 1220 0 334 1 58 2 -613 2 -671 0 -944 -1
-607 -2z"/>
<path d="M5868 9373 c6 -2 18 -2 25 0 6 3 1 5 -13 5 -14 0 -19 -2 -12 -5z"/>
<path d="M7081 9188 l-1 -158 -1712 -2 c-1539 -1 -1639 -2 -983 -9 402 -5
1176 -8 1720 -6 l990 2 2 121 c1 67 -1 141 -6 165 -7 33 -9 4 -10 -113z"/>
<path d="M5240 3650 c0 -5 5 -10 10 -10 6 0 10 5 10 10 0 6 -4 10 -10 10 -5 0
-10 -4 -10 -10z"/>
<path d="M5400 3616 c0 -2 7 -7 16 -10 8 -3 12 -2 9 4 -6 10 -25 14 -25 6z"/>
<path d="M3695 3560 c-3 -5 3 -10 14 -10 11 0 23 5 26 10 3 6 -3 10 -14 10
-11 0 -23 -4 -26 -10z"/>
<path d="M3999 3484 c33 -30 63 -64 66 -75 4 -11 9 -18 12 -15 15 15 -100 146
-128 146 -5 0 17 -25 50 -56z"/>
<path d="M3485 3260 c-3 -5 1 -10 9 -10 9 0 16 5 16 10 0 6 -4 10 -9 10 -6 0
-13 -4 -16 -10z"/>
<path d="M3380 3180 c0 -12 64 -12 100 0 19 6 9 8 -37 9 -36 1 -63 -3 -63 -9z"/>
<path d="M4090 3172 c0 -5 10 -8 22 -8 14 1 23 -5 23 -14 0 -24 153 -22 166 3
12 21 35 22 43 2 3 -8 12 -15 21 -15 12 0 11 4 -5 20 -24 24 -65 26 -74 5 -4
-11 -22 -15 -70 -15 -47 0 -65 4 -70 15 -6 15 -56 21 -56 7z"/>
<path d="M4060 3128 c-7 -15 -7 -58 -1 -118 l8 -95 2 108 c1 88 4 107 16 107
8 0 15 5 15 10 0 19 -31 10 -40 -12z"/>
<path d="M3371 3113 c-1 -30 1 -32 43 -38 25 -4 78 -3 118 3 l73 9 -112 2
-112 1 -4 28 c-4 26 -4 25 -6 -5z"/>
<path d="M4187 3073 c18 -2 50 -2 70 0 21 2 7 4 -32 4 -38 0 -55 -2 -38 -4z"/>
<path d="M3398 3039 c-8 -5 15 -8 57 -8 76 1 77 5 3 12 -25 2 -52 1 -60 -4z"/>
<path d="M3383 2965 l2 -30 115 -1 115 0 -110 5 c-106 6 -109 7 -117 31 -6 23
-7 23 -5 -5z"/>
<path d="M4294 2975 c-4 -8 -4 -22 0 -30 6 -17 36 -21 36 -5 0 6 -6 9 -12 8
-8 -2 -12 6 -11 20 3 25 -5 29 -13 7z"/>
<path d="M4389 2940 c-4 -25 -6 -25 -129 -32 -200 -12 -205 -15 -32 -16 175
-2 178 -1 170 50 -4 23 -4 23 -9 -2z"/>
<path d="M3432 2861 c-34 -27 -35 -43 -3 -34 18 5 49 49 40 57 -2 3 -19 -8
-37 -23z"/>
<path d="M3476 2842 c-2 -4 -1 -14 4 -22 10 -16 109 -15 125 1 8 8 -3 10 -80
13 -11 1 -25 4 -32 9 -6 4 -14 4 -17 -1z"/>
<path d="M10175 9308 c-7 -19 -17 -47 -21 -64 -4 -16 -12 -35 -18 -43 -9 -12
-8 -13 6 -8 10 3 20 2 23 -3 11 -18 51 -11 89 15 43 29 52 31 60 9 5 -12 15
-14 44 -9 20 3 68 6 106 7 51 1 79 7 105 21 l34 21 15 -22 c17 -26 44 -28 63
-6 10 12 23 14 54 9 23 -3 61 -1 85 4 33 7 50 6 70 -4 29 -15 110 -9 110 8 0
5 -13 7 -31 3 -19 -4 -42 0 -61 10 -24 12 -44 14 -92 8 -33 -4 -65 -6 -71 -5
-26 8 -58 2 -76 -15 -19 -17 -20 -17 -35 4 -19 28 -37 28 -81 1 -35 -22 -60
-19 -30 4 21 16 39 64 27 72 -6 4 -10 -2 -10 -12 -1 -19 -22 -53 -34 -53 -3 0
-6 8 -6 18 -1 10 -6 4 -15 -15 -16 -37 -32 -43 -103 -39 -37 2 -56 8 -66 21
-13 18 -16 17 -65 -15 -38 -24 -55 -30 -63 -22 -8 8 -2 21 21 47 37 43 38 78
3 83 -17 3 -26 -4 -37 -30z m45 3 c0 -5 -9 -19 -20 -32 -17 -21 -19 -21 -13
-4 10 33 33 57 33 36z"/>
<path d="M9240 8973 c-97 -25 -154 -75 -185 -162 -69 -197 110 -387 312 -330
93 25 183 146 183 244 0 161 -157 287 -310 248z m148 -29 c44 -18 97 -67 120
-109 45 -86 30 -204 -35 -267 -58 -55 -99 -72 -173 -72 -204 0 -311 228 -177
380 23 26 59 55 82 65 49 23 133 24 183 3z"/>
<path d="M11640 8971 c-66 -23 -140 -97 -158 -158 -52 -172 63 -335 238 -337
117 -2 211 71 246 190 34 119 -24 245 -137 293 -72 31 -125 35 -189 12z m189
-31 c93 -47 136 -126 129 -234 -5 -82 -41 -138 -113 -178 -57 -31 -152 -38
-208 -15 -117 50 -177 191 -128 302 27 61 44 80 100 117 38 24 55 28 113 28
49 0 80 -6 107 -20z"/>
<path d="M9816 8956 c-104 -44 -155 -113 -164 -223 -4 -56 -1 -70 27 -127 24
-49 43 -72 78 -95 140 -93 296 -52 375 99 34 67 32 169 -5 233 -43 74 -114
119 -207 131 -35 5 -58 1 -104 -18z m206 -33 c30 -17 62 -45 81 -73 28 -40 32
-54 35 -125 3 -95 -16 -139 -85 -191 -173 -132 -427 31 -373 237 40 151 207
225 342 152z"/>
<path d="M11060 8959 c-180 -64 -233 -287 -99 -421 47 -47 118 -78 179 -78 59
0 132 31 175 75 60 60 91 156 74 230 -16 67 -24 83 -73 133 -31 32 -57 48
-104 62 -77 24 -82 24 -152 -1z m186 -28 c139 -63 179 -262 74 -369 -51 -53
-103 -76 -175 -75 -201 0 -308 231 -178 383 48 55 101 80 178 80 37 0 76 -8
101 -19z"/>
<path d="M10429 8955 c-88 -28 -158 -121 -167 -220 -12 -147 103 -276 247
-275 107 1 183 46 226 135 48 98 44 178 -15 266 -57 87 -184 128 -291 94z
m162 -17 c47 -14 113 -68 135 -111 25 -48 33 -135 18 -188 -15 -49 -66 -109
-115 -135 -79 -40 -190 -26 -259 33 -113 97 -113 260 -1 354 66 56 141 72 222
47z"/>
<path d="M4713 8628 c-15 -20 -25 -38 -20 -38 3 0 12 11 21 25 17 26 16 35 -1
13z"/>
<path d="M5445 8620 c-10 -11 -16 -22 -14 -24 2 -2 12 7 22 20 22 29 17 32 -8
4z"/>
<path d="M3785 8620 c-3 -5 1 -10 9 -10 8 0 18 5 21 10 3 6 -1 10 -9 10 -8 0
-18 -4 -21 -10z"/>
<path d="M5055 8610 c-10 -11 -16 -22 -14 -24 2 -2 12 7 22 20 22 29 17 32 -8
4z"/>
<path d="M5810 8608 c-12 -22 -12 -22 6 -6 10 10 15 20 12 24 -4 3 -12 -5 -18
-18z"/>
<path d="M4020 8596 c0 -2 18 -15 40 -30 22 -14 54 -45 70 -68 39 -53 39 -40
0 17 -31 45 -110 104 -110 81z"/>
<path d="M4517 8298 c-4 -139 -3 -269 1 -288 6 -24 10 30 15 164 9 265 9 376
-1 376 -5 0 -12 -114 -15 -252z"/>
<path d="M4171 8414 c0 -11 3 -14 6 -6 3 7 2 16 -1 19 -3 4 -6 -2 -5 -13z"/>
<path d="M4181 8330 c-2 -116 -62 -209 -166 -261 -60 -29 -71 -31 -142 -27
-52 3 -92 12 -118 25 -47 24 -110 86 -132 126 -8 16 -17 27 -19 24 -12 -11 38
-87 81 -125 115 -101 300 -96 413 11 66 62 113 196 93 262 -8 25 -9 20 -10
-35z"/>
<path d="M11559 8104 c-27 -33 -49 -37 -75 -13 -32 30 -44 16 -14 -16 l24 -25
-29 -30 c-37 -39 -27 -49 14 -14 l32 27 29 -22 c50 -37 71 -23 23 15 l-28 22
28 30 c16 16 24 33 19 36 -5 3 -15 -1 -23 -10z"/>
<path d="M9850 7218 c-11 -18 -23 -48 -26 -65 -7 -38 -61 -78 -89 -67 -13 5
-16 3 -13 -7 7 -20 44 -23 69 -6 18 13 24 13 48 -1 26 -14 31 -14 100 18 l72
33 32 -31 c37 -36 46 -38 87 -17 27 14 31 13 66 -10 43 -29 46 -29 82 -11 24
12 58 20 128 31 11 1 40 13 63 25 l43 21 22 -20 c27 -25 35 -26 80 -4 31 14
40 15 76 3 33 -11 50 -11 88 -1 40 10 58 9 107 -4 63 -16 230 -21 221 -6 -3 5
-49 12 -103 16 -53 4 -113 13 -132 20 -29 10 -46 10 -86 -1 -43 -11 -56 -11
-92 3 -40 14 -43 14 -81 -7 l-40 -23 -28 22 c-16 13 -35 19 -46 16 -13 -5 -18
-1 -18 13 0 25 -36 70 -46 59 -5 -4 -4 -11 2 -15 23 -15 23 -41 1 -57 -29 -20
-40 -19 -34 5 3 11 1 18 -4 14 -5 -3 -9 -13 -9 -23 0 -24 -20 -41 -47 -41 -12
0 -41 -7 -63 -16 -40 -16 -41 -16 -79 11 -39 27 -40 27 -77 9 l-37 -18 -21 26
c-34 41 -58 43 -128 9 -92 -45 -113 -38 -63 21 28 33 40 70 31 93 -9 25 -35
17 -56 -17z m25 -28 c-4 -12 -9 -19 -12 -17 -3 3 -2 15 2 27 4 12 9 19 12 17
3 -3 2 -15 -2 -27z"/>
<path d="M11150 7195 c0 -8 5 -15 10 -15 6 0 10 7 10 15 0 8 -4 15 -10 15 -5
0 -10 -7 -10 -15z"/>
<path d="M10874 6255 c-7 -30 2 -59 16 -50 13 8 13 75 0 75 -5 0 -12 -11 -16
-25z"/>
<path d="M10089 6223 c-8 -9 -29 -22 -46 -30 -18 -7 -33 -15 -33 -17 0 -11
129 -2 152 12 23 14 31 14 53 2 14 -7 27 -11 30 -8 3 3 -8 11 -25 18 -25 10
-36 10 -71 -4 -43 -17 -61 -14 -41 6 14 14 16 38 3 38 -5 0 -15 -7 -22 -17z"/>
<path d="M10662 6207 c-7 -8 -9 -17 -5 -20 11 -12 123 -8 123 4 0 8 -15 10
-45 7 -33 -4 -48 -2 -53 9 -7 12 -10 12 -20 0z"/>
<path d="M10450 6184 l-45 -14 45 6 c25 4 55 7 67 8 12 0 25 4 29 9 12 11 -47
6 -96 -9z"/>
<path d="M10474 5815 c-7 -19 -14 -39 -14 -44 0 -20 48 -23 78 -6 28 17 30 17
51 -4 25 -25 30 -26 59 -6 19 14 24 14 45 0 19 -12 30 -13 55 -4 23 8 41 8 63
0 39 -13 119 -15 119 -2 0 14 -55 24 -140 26 -41 1 -86 7 -98 14 -19 10 -28
10 -49 -4 -24 -16 -26 -16 -47 4 -27 26 -31 26 -66 1 -34 -24 -49 -10 -26 24
14 23 12 36 -6 36 -5 0 -16 -16 -24 -35z"/>
<path d="M10075 5796 c-28 -66 -1 -90 61 -57 34 19 40 19 61 6 28 -19 47 -19
63 0 10 12 7 14 -17 14 -15 0 -42 3 -59 6 -22 5 -40 2 -58 -10 -34 -22 -43
-13 -28 27 18 49 -4 61 -23 14z"/>
<path d="M11508 7833 c7 -3 16 -2 19 1 4 3 -2 6 -13 5 -11 0 -14 -3 -6 -6z"/>
<path d="M11620 7783 c0 -6 8 -17 18 -24 16 -13 16 -13 2 6 -8 11 -16 22 -17
24 -2 2 -3 0 -3 -6z"/>
<path d="M14920 7785 c0 -5 16 -30 35 -54 19 -24 35 -46 35 -49 0 -4 -17 -23
-37 -44 -44 -45 -32 -51 17 -9 l35 30 51 -51 c56 -55 83 -53 31 3 -66 70 -66
66 -16 109 57 49 46 61 -13 14 l-46 -35 -46 48 c-25 26 -46 44 -46 38z"/>
<path d="M13063 7715 c-14 -32 -26 -77 -27 -100 -1 -44 -27 -85 -53 -85 -7 0
-13 -4 -13 -10 0 -16 25 -11 53 10 14 11 34 20 45 20 11 0 42 16 68 36 36 28
49 33 55 22 5 -7 9 -18 9 -25 0 -20 20 -25 50 -13 25 10 32 9 57 -10 29 -20
31 -21 71 -5 29 12 46 14 58 7 13 -7 32 -3 71 16 50 25 53 25 72 8 14 -13 26
-16 43 -10 13 4 35 7 51 6 15 -1 27 2 27 8 0 15 -42 22 -70 12 -15 -5 -34 -5
-52 2 -22 8 -36 6 -73 -12 -58 -28 -61 -28 -36 4 22 27 29 74 11 74 -5 0 -7
-6 -4 -13 8 -23 -28 -55 -85 -76 -51 -19 -56 -19 -73 -5 -16 16 -37 18 -82 12
-14 -2 -21 5 -26 22 -9 37 -32 35 -80 -5 -43 -36 -67 -41 -37 -8 30 34 50 102
40 136 -15 53 -40 46 -70 -18z m52 -23 c-7 -36 -42 -92 -56 -92 -14 0 -4 50
23 110 17 39 21 43 29 27 6 -10 8 -30 4 -45z"/>
<path d="M11655 7678 c0 -51 -5 -69 -24 -95 -36 -48 -79 -67 -138 -61 -81 8
-131 60 -144 148 l-6 45 -2 -51 c-1 -62 26 -108 84 -141 66 -37 141 -26 203
30 32 30 53 107 41 152 -6 19 -11 35 -12 35 -1 0 -2 -28 -2 -62z"/>
<path d="M11436 7190 c-2 -3 -4 -307 -5 -676 l-3 -671 184 -6 c100 -4 928 -8
1838 -9 l1655 -3 0 675 0 675 -555 7 c-726 8 -3111 15 -3114 8z m2735 -27
l914 -6 -2 -401 c-2 -221 -6 -515 -9 -655 l-6 -254 -1802 8 c-990 4 -1802 8
-1803 9 -2 2 -5 1244 -3 1299 0 9 1485 9 2711 0z"/>
<path d="M12866 7098 c-8 -13 -20 -45 -27 -71 -10 -43 -10 -49 7 -62 29 -22
56 -18 102 16 l42 31 18 -23 c15 -18 22 -20 38 -11 18 11 18 11 -3 12 -13 0
-24 8 -28 20 -8 27 -19 25 -77 -10 -26 -16 -52 -30 -58 -30 -21 0 -20 24 3 48
36 40 47 65 36 85 -14 24 -36 21 -53 -5z m29 -39 c-13 -25 -35 -40 -35 -24 0
17 32 65 40 60 6 -4 4 -18 -5 -36z"/>
<path d="M13555 7038 c-22 -5 -60 -7 -84 -4 -34 5 -49 1 -73 -15 -25 -18 -32
-19 -39 -8 -5 8 -9 17 -9 22 0 15 -56 6 -85 -13 -36 -24 -55 -25 -55 -4 0 20
-24 13 -28 -8 -6 -29 45 -31 93 -3 l44 26 17 -25 c19 -30 37 -33 68 -8 18 14
41 17 122 15 54 -1 111 -4 127 -8 42 -11 33 11 -13 29 -22 9 -41 16 -43 15 -1
-1 -20 -5 -42 -11z"/>
<path d="M13728 7013 c7 -3 16 -2 19 1 4 3 -2 6 -13 5 -11 0 -14 -3 -6 -6z"/>
<path d="M11835 6721 c-74 -25 -121 -57 -155 -105 -92 -135 -51 -324 89 -400
83 -44 199 -45 256 -1 18 13 15 13 -30 0 -64 -19 -110 -19 -166 0 -92 32 -165
119 -176 213 -17 143 101 281 240 282 46 0 62 12 31 24 -22 8 -32 7 -89 -13z"/>
<path d="M14436 6715 c-76 -31 -131 -85 -156 -152 -70 -187 61 -378 255 -376
57 1 127 22 139 42 3 5 -11 3 -32 -5 -50 -18 -154 -17 -197 0 -57 24 -100 63
-131 118 -25 45 -29 64 -29 124 1 62 5 79 31 120 31 51 101 111 137 118 12 3
49 8 82 12 45 5 55 9 40 15 -35 14 -79 9 -139 -16z"/>
<path d="M12477 6706 c-76 -28 -121 -65 -154 -129 -37 -69 -40 -190 -6 -252
52 -98 171 -165 268 -151 52 7 125 35 125 47 0 5 -15 2 -32 -8 -50 -26 -160
-23 -221 6 -83 40 -147 141 -147 231 0 44 26 118 55 156 38 50 120 94 175 94
55 0 83 14 48 23 -33 9 -46 7 -111 -17z"/>
<path d="M13820 6709 c-118 -41 -181 -124 -188 -248 -4 -71 -2 -80 29 -140 59
-112 176 -168 294 -142 30 7 65 21 77 31 21 17 19 17 -37 -2 -180 -61 -361 82
-342 270 13 122 118 222 233 222 44 0 66 13 38 24 -24 9 -44 6 -104 -15z"/>
<path d="M13139 6704 c-56 -17 -132 -82 -161 -138 -17 -32 -22 -59 -22 -121
-1 -71 2 -86 29 -134 34 -62 98 -114 162 -132 54 -15 137 -8 186 16 48 23 43
28 -8 10 -142 -50 -300 30 -341 173 -28 95 -1 186 75 255 53 48 101 67 170 67
40 0 52 3 41 10 -21 14 -77 11 -131 -6z"/>
<path d="M11415 5629 c-3 -4 -4 -18 -3 -30 0 -13 -2 -315 -7 -670 l-8 -647 94
-6 c52 -3 879 -7 1839 -8 l1745 -3 3 676 2 677 -1072 6 c-1999 11 -2589 12
-2593 5z m3642 -32 c1 -1 -1 -296 -4 -655 l-6 -652 -511 0 c-281 0 -1095 3
-1808 7 l-1298 6 0 647 c0 356 3 650 8 655 5 6 3612 -2 3619 -8z"/>
<path d="M11618 5526 c-24 -23 -43 -123 -28 -141 18 -22 42 -18 85 11 37 25
37 25 52 5 18 -27 31 -26 60 1 21 20 24 20 41 5 22 -20 70 -22 107 -5 19 9 28
9 37 0 16 -16 43 -15 76 2 24 12 30 12 47 0 23 -17 49 -18 131 -2 44 8 64 16
64 26 0 8 -6 12 -15 9 -33 -13 -162 -19 -169 -8 -10 15 -38 14 -72 -4 -28 -15
-54 -20 -54 -10 0 2 11 21 25 41 18 27 22 41 15 48 -10 10 -17 5 -32 -24 -2
-3 -18 -17 -36 -32 -38 -32 -81 -36 -117 -12 -23 15 -27 15 -50 0 -25 -16 -27
-16 -45 6 l-18 23 -29 -23 c-38 -30 -72 -47 -80 -38 -4 3 -2 11 4 17 6 6 9 26
6 44 -3 20 -1 35 7 40 10 6 12 0 7 -26 -6 -32 -6 -33 8 -15 18 24 19 37 2 60
-12 17 -15 17 -29 2z"/>
<path d="M13813 5173 c-29 -11 -10 -23 35 -23 64 0 128 -34 167 -89 27 -38 30
-51 30 -114 0 -64 -3 -77 -30 -115 -42 -59 -118 -96 -185 -90 -103 10 -192
101 -195 199 -1 58 -15 60 -15 2 0 -69 42 -149 98 -187 34 -24 56 -31 108 -34
83 -6 140 16 188 68 115 128 59 326 -106 375 -53 15 -73 17 -95 8z"/>
<path d="M12527 5153 c-16 -15 -3 -21 58 -25 53 -3 71 -9 102 -34 132 -105 99
-307 -60 -360 -127 -42 -267 58 -267 191 0 32 -4 44 -11 39 -15 -9 -4 -105 15
-142 38 -72 122 -122 204 -122 105 0 199 78 223 184 24 108 -42 224 -148 260
-48 17 -105 21 -116 9z"/>
<path d="M13158 5154 c-17 -17 -5 -24 41 -24 85 0 142 -35 182 -112 21 -41 25
-120 8 -165 -17 -46 -78 -101 -132 -119 -127 -42 -267 59 -267 191 0 28 -4 44
-10 40 -13 -8 -13 -32 1 -96 14 -65 83 -141 144 -158 103 -28 206 7 262 91 98
147 7 337 -169 355 -29 3 -56 2 -60 -3z"/>
<path d="M14437 5153 c-16 -15 -3 -21 58 -25 53 -3 71 -9 102 -34 50 -40 83
-105 83 -165 0 -62 -11 -89 -55 -138 -50 -55 -119 -78 -189 -62 -94 21 -169
109 -169 198 0 23 -4 40 -9 37 -12 -8 -10 -55 7 -110 17 -57 70 -115 127 -139
84 -34 208 -3 261 67 31 40 57 108 57 147 0 88 -72 186 -157 215 -48 17 -105
21 -116 9z"/>
<path d="M11865 5140 c-7 -12 -12 -11 53 -15 114 -8 194 -91 193 -204 0 -66
-14 -101 -58 -145 -39 -40 -82 -56 -152 -56 -50 0 -66 5 -107 33 -59 39 -94
102 -94 165 0 25 -3 42 -7 38 -11 -11 -3 -97 13 -135 8 -20 25 -47 37 -60 33
-36 115 -71 167 -71 52 0 134 35 167 71 106 116 71 299 -71 365 -52 24 -130
32 -141 14z"/>
<path d="M12480 4610 l-21 -29 26 -7 c14 -3 39 -1 55 6 16 6 33 9 39 6 15 -9
92 5 85 16 -3 5 -22 8 -42 7 -66 -4 -92 0 -92 16 0 25 -27 17 -50 -15z"/>
<path d="M14408 4615 c-6 -14 -15 -25 -20 -25 -4 0 -8 -4 -8 -10 0 -15 43 -12
68 6 12 8 27 12 35 7 6 -4 30 -8 52 -9 22 -1 49 -4 59 -6 10 -1 21 2 23 8 6
17 -45 32 -112 32 -33 0 -61 5 -63 11 -6 19 -22 12 -34 -14z"/>
<path d="M13100 4611 c0 -4 13 -14 29 -24 24 -14 31 -14 47 -2 10 7 31 11 45
8 14 -3 30 1 36 9 9 11 -4 13 -73 14 -46 0 -84 -2 -84 -5z"/>
<path d="M13286 4605 c4 -8 13 -15 21 -15 13 0 13 3 3 15 -7 8 -16 15 -21 15
-5 0 -6 -7 -3 -15z"/>
<path d="M13745 4610 c-3 -5 -16 -10 -28 -10 -20 0 -20 -1 -4 -17 15 -16 18
-16 35 0 11 10 26 15 36 11 9 -3 24 -3 34 1 15 7 14 9 -8 15 -36 11 -58 11
-65 0z"/>
<path d="M11737 4603 c-12 -12 -7 -18 24 -32 24 -10 36 -11 49 -3 10 6 28 8
41 6 24 -5 24 -5 4 11 -12 10 -29 13 -46 10 -15 -4 -30 -1 -34 4 -7 12 -28 14
-38 4z"/>
<path d="M11935 4570 c3 -5 10 -10 16 -10 5 0 9 5 9 10 0 6 -7 10 -16 10 -8 0
-12 -4 -9 -10z"/>
<path d="M11407 4103 c-2 -5 -5 -150 -6 -323 0 -173 -4 -473 -7 -666 -5 -231
-3 -353 3 -357 15 -9 3655 -29 3664 -20 9 9 17 1339 8 1347 -11 11 -3656 30
-3662 19z m2602 -29 l1044 -6 -8 -652 c-4 -358 -8 -652 -9 -653 -1 -1 -814 1
-1807 5 l-1804 7 2 648 c2 357 5 652 7 655 4 8 901 6 2575 -4z"/>
<path d="M11887 4019 c-9 -6 -24 -23 -32 -39 -10 -18 -26 -32 -43 -35 -15 -3
-42 -10 -60 -16 -28 -9 -37 -8 -53 7 -20 18 -22 18 -51 1 -29 -16 -32 -16 -49
-1 -12 10 -25 14 -36 9 -15 -6 -15 -8 -3 -13 8 -3 21 -13 28 -24 16 -22 40
-23 64 -1 16 14 22 14 43 3 20 -11 34 -10 85 2 50 12 62 12 71 1 15 -18 41
-16 84 4 27 13 40 14 53 7 26 -16 175 -17 169 -1 -2 8 -28 12 -75 13 -39 0
-75 3 -78 7 -12 12 -57 7 -84 -8 -56 -32 -67 -10 -17 35 28 26 30 30 17 44
-11 11 -20 12 -33 5z m13 -19 c0 -5 -5 -10 -11 -10 -5 0 -7 5 -4 10 3 6 8 10
11 10 2 0 4 -4 4 -10z"/>
<path d="M13840 3640 c0 -5 19 -10 43 -10 61 0 142 -43 175 -92 34 -53 43
-148 17 -199 -40 -79 -104 -119 -188 -119 -113 0 -197 79 -205 191 -3 44 -7
57 -14 46 -16 -29 3 -116 36 -165 79 -118 243 -133 344 -32 145 145 46 390
-158 390 -27 0 -50 -4 -50 -10z"/>
<path d="M12568 3634 c-17 -17 -6 -24 37 -24 52 0 109 -21 143 -53 98 -91 76
-270 -41 -330 -88 -46 -186 -28 -252 44 -44 49 -55 76 -55 135 0 31 -4 43 -11
38 -14 -8 -4 -93 16 -138 45 -104 184 -156 293 -111 90 38 150 139 139 236
-10 81 -53 141 -130 181 -42 21 -127 35 -139 22z"/>
<path d="M13203 3634 c-28 -12 -11 -24 35 -24 201 -1 281 -257 116 -373 -47
-33 -124 -45 -178 -27 -83 27 -145 113 -146 200 0 36 -3 41 -11 27 -12 -20 4
-120 23 -146 62 -82 113 -111 198 -111 233 0 316 308 114 421 -49 28 -126 44
-151 33z"/>
<path d="M14478 3634 c-17 -17 -6 -24 37 -24 121 0 205 -86 205 -207 -1 -176
-204 -266 -336 -150 -48 41 -74 96 -74 154 0 31 -3 43 -9 34 -5 -7 -7 -32 -4
-55 14 -127 100 -206 223 -206 74 0 124 23 173 80 99 115 63 281 -76 352 -42
21 -127 35 -139 22z"/>
<path d="M11912 3624 c-24 -11 0 -24 45 -24 178 0 266 -218 139 -345 -70 -69
-149 -82 -237 -37 -68 34 -106 89 -119 169 l-9 58 2 -66 c2 -53 8 -75 30 -108
40 -61 97 -94 168 -99 139 -10 248 89 249 226 0 88 -45 164 -122 203 -40 20
-122 33 -146 23z"/>
<path d="M14433 3098 c-31 -49 -32 -56 -4 -61 14 -3 36 1 47 8 12 8 25 10 30
5 14 -13 191 -24 198 -12 10 17 -7 22 -90 26 -44 2 -87 7 -98 12 -10 4 -27 2
-37 -4 -25 -16 -28 -15 -22 7 6 22 -12 37 -24 19z"/>
<path d="M11975 3088 c-27 -6 -81 -11 -120 -12 -77 -3 -105 -11 -105 -32 0
-16 16 -19 25 -4 4 6 21 8 40 4 20 -3 35 -1 40 6 5 8 11 8 22 -1 11 -10 22
-10 50 0 19 7 62 13 94 14 58 0 75 9 42 21 -10 3 -22 8 -28 10 -5 2 -32 -1
-60 -6z"/>
<path d="M12493 3070 c-13 -10 -23 -20 -23 -23 0 -11 64 -16 82 -6 14 8 27 8
42 1 24 -12 113 -22 121 -14 13 14 -22 32 -62 32 -24 0 -53 5 -64 10 -12 7
-25 7 -36 1 -12 -6 -20 -5 -28 4 -8 12 -14 11 -32 -5z"/>
<path d="M13190 3080 c-8 -5 -25 -7 -37 -3 -14 3 -23 1 -23 -6 0 -13 -1 -12
88 -17 37 -2 80 -5 96 -6 57 -6 35 18 -29 30 -77 14 -76 14 -95 2z"/>
<path d="M13706 3063 c-7 -25 5 -43 29 -43 6 0 4 4 -3 9 -9 5 -11 17 -6 34 3
16 2 27 -4 27 -5 0 -13 -12 -16 -27z"/>
<path d="M13892 3041 c18 -15 35 -20 48 -16 30 9 24 25 -9 25 -16 0 -38 3 -48
7 -11 4 -7 -3 9 -16z"/>
<path d="M11630 2410 c-11 -11 -23 -34 -27 -51 -3 -17 -18 -40 -34 -51 -34
-25 -28 -46 7 -23 18 12 29 13 44 5 23 -12 45 -3 74 29 25 27 44 27 48 0 5
-38 31 -45 67 -20 l31 22 26 -20 c32 -26 47 -26 86 -3 23 13 32 14 35 5 6 -18
40 -16 74 4 27 16 29 16 48 -1 15 -14 28 -17 53 -12 18 4 44 8 58 10 14 1 26
7 28 12 4 13 -45 17 -78 6 -23 -9 -31 -7 -46 9 -22 24 -42 24 -74 -1 -47 -37
-55 -18 -13 36 20 27 23 38 14 47 -9 9 -22 0 -59 -39 -71 -77 -77 -80 -108
-55 -31 25 -53 26 -80 6 -27 -20 -31 -19 -43 15 -13 38 -33 38 -83 -1 -21 -17
-42 -29 -45 -25 -3 3 6 15 20 26 32 25 43 56 27 75 -17 20 -26 19 -50 -5z m30
-30 c-6 -10 -15 -22 -20 -25 -14 -9 -13 28 2 43 17 17 30 4 18 -18z"/>
<path d="M13827 2084 c-14 -14 6 -24 49 -24 176 0 266 -219 141 -344 -79 -79
-184 -86 -274 -20 -45 34 -75 88 -83 152 l-7 57 -1 -55 c-3 -126 91 -220 218
-220 203 0 307 244 165 386 -24 24 -61 48 -90 57 -49 17 -106 22 -118 11z"/>
<path d="M12545 2060 c-3 -5 -3 -10 2 -10 117 -7 162 -25 204 -83 16 -22 34
-57 39 -79 22 -81 -20 -180 -96 -224 -39 -23 -53 -26 -113 -22 -54 3 -77 9
-108 31 -48 33 -83 92 -94 161 l-8 51 2 -65 c3 -85 42 -146 119 -184 92 -46
184 -30 260 45 50 50 68 95 68 169 -1 118 -109 220 -233 220 -20 0 -39 -4 -42
-10z"/>
<path d="M13175 2060 c-6 -10 7 -14 34 -10 42 5 117 -25 155 -64 66 -65 82
-145 45 -226 -38 -84 -93 -120 -184 -120 -118 0 -193 67 -214 192 l-9 53 -1
-51 c-1 -39 6 -65 27 -105 66 -128 231 -157 343 -61 158 135 62 402 -145 402
-25 0 -48 -4 -51 -10z"/>
<path d="M14463 2058 c2 -7 13 -12 25 -10 11 2 40 -2 64 -8 172 -46 209 -276
61 -371 -80 -50 -192 -38 -256 27 -39 39 -58 79 -67 139 l-8 50 -1 -52 c-2
-88 41 -157 122 -198 85 -42 174 -30 248 34 161 137 60 401 -153 401 -27 0
-38 -4 -35 -12z"/>
<path d="M11890 2050 c0 -5 15 -10 33 -10 128 0 227 -106 215 -231 -16 -163
-222 -238 -346 -125 -36 32 -65 96 -66 143 -1 53 -16 58 -16 6 0 -131 96 -227
225 -227 105 0 189 64 220 166 31 105 -19 218 -118 264 -53 24 -147 33 -147
14z"/>
<path d="M14470 1546 c-8 -21 -17 -25 -57 -28 -26 -2 -48 -7 -48 -13 0 -13
145 -19 158 -6 6 6 30 8 56 4 36 -4 44 -3 35 7 -7 6 -35 13 -63 13 -46 2 -51
4 -51 25 0 29 -18 28 -30 -2z"/>
<path d="M13731 1534 c-6 -14 -9 -30 -6 -35 9 -14 41 -11 55 6 12 14 15 14 31
-1 12 -11 24 -13 41 -8 13 5 42 9 65 9 23 0 43 5 44 10 0 6 -13 8 -31 7 -28
-3 -31 -1 -25 17 8 27 -9 27 -35 1 -21 -21 -50 -27 -50 -10 0 6 -9 10 -19 10
-11 0 -23 -4 -26 -10 -11 -18 -26 -10 -20 10 9 29 -10 25 -24 -6z"/>
<path d="M11790 1524 c-14 -36 -13 -41 10 -47 11 -3 31 4 46 16 21 16 30 18
45 9 23 -14 119 -16 119 -2 0 14 -44 23 -70 15 -14 -5 -28 -1 -41 11 -19 17
-22 18 -50 2 -28 -16 -29 -16 -29 2 0 28 -19 25 -30 -6z"/>
<path d="M13150 1531 c-24 -46 -17 -49 105 -48 63 1 115 5 115 9 0 11 -38 20
-73 17 -18 -2 -38 1 -45 5 -7 4 -24 5 -38 2 -19 -5 -24 -3 -24 14 0 26 -26 26
-40 1z"/>
<path d="M12512 1524 c5 -27 35 -41 56 -28 12 8 41 9 86 5 37 -4 69 -3 72 1 8
13 -23 21 -58 16 -18 -3 -41 0 -50 6 -13 8 -23 8 -38 -2 -26 -16 -40 -15 -40
3 0 8 -7 15 -16 15 -9 0 -14 -7 -12 -16z"/>
<path d="M12858 1033 c-9 -10 -26 -46 -38 -79 -16 -45 -29 -65 -48 -74 -17 -8
-22 -14 -14 -17 7 -3 19 1 28 8 11 9 18 9 26 1 18 -18 54 -14 98 8 55 28 82
26 108 -10 27 -37 42 -37 80 -5 37 31 41 31 68 -2 21 -27 24 -27 56 -14 74 30
108 36 129 23 16 -10 27 -10 55 0 29 10 38 10 63 -5 38 -22 56 -21 97 4 23 14
41 18 56 13 13 -4 52 -9 88 -10 36 -2 75 -5 87 -6 32 -4 28 16 -5 25 -15 4
-69 9 -121 11 -79 3 -99 1 -127 -16 -31 -18 -34 -19 -59 -2 -23 15 -33 16 -71
6 -24 -7 -49 -12 -54 -12 -19 0 -10 17 16 30 14 8 30 23 36 35 10 17 9 18 -4
7 -9 -7 -60 -30 -114 -52 l-99 -40 -20 25 c-26 31 -37 31 -83 0 l-37 -26 -27
32 c-32 38 -66 41 -127 10 -71 -37 -83 -21 -25 34 30 29 35 39 32 72 -3 43
-25 54 -50 26z m32 -32 c0 -20 -35 -69 -43 -61 -7 7 24 80 34 80 5 0 9 -9 9
-19z"/>
<path d="M4655 7380 c-10 -11 -16 -22 -14 -24 2 -2 12 7 22 20 22 29 17 32 -8
4z"/>
<path d="M3763 7383 c-21 -8 -15 -22 7 -16 11 3 20 9 20 14 0 10 -8 10 -27 2z"/>
<path d="M5385 7370 c-10 -11 -16 -22 -14 -24 2 -2 12 7 22 20 22 29 17 32 -8
4z"/>
<path d="M4994 7358 l-19 -23 23 19 c12 11 22 21 22 23 0 8 -8 2 -26 -19z"/>
<path d="M4020 7333 c44 -35 59 -50 88 -88 l23 -30 -15 30 c-17 35 -82 99
-111 109 -12 4 -6 -5 15 -21z"/>
<path d="M4508 7291 c-5 -18 -7 -151 -7 -295 2 -243 2 -252 10 -136 11 148 8
481 -3 431z"/>
<path d="M4138 7190 c4 -14 7 -61 7 -105 0 -95 -25 -155 -88 -212 -89 -80
-219 -101 -322 -52 -56 26 -123 90 -148 141 -12 23 -17 27 -17 14 0 -30 57
-111 98 -139 64 -45 113 -60 187 -61 171 -1 308 136 308 309 0 35 -7 75 -16
95 -9 19 -13 24 -9 10z"/>
<path d="M7081 6677 c-61 -31 -84 -116 -47 -173 35 -52 134 -68 167 -27 13 15
12 15 -8 5 -35 -19 -96 -15 -122 9 -29 27 -44 67 -36 99 9 35 54 80 82 80 13
0 23 5 23 10 0 14 -30 12 -59 -3z"/>
<path d="M7805 6676 c-66 -29 -91 -95 -60 -160 29 -60 115 -87 161 -50 18 15
18 15 -3 5 -42 -21 -83 -13 -119 23 -26 26 -34 42 -34 71 0 29 8 45 34 71 19
19 44 34 56 34 11 0 18 5 15 10 -8 13 -13 12 -50 -4z"/>
<path d="M8163 6675 c-49 -21 -68 -59 -64 -133 1 -13 17 -40 36 -59 33 -33 39
-35 86 -31 28 3 56 11 62 18 10 10 8 11 -8 5 -65 -26 -123 -8 -151 47 -13 26
-14 38 -5 70 12 40 58 78 94 78 10 0 15 5 12 10 -8 13 -23 12 -62 -5z"/>
<path d="M7413 6668 c-22 -10 -63 -81 -63 -107 0 -6 9 -30 21 -52 27 -53 76
-76 131 -60 20 6 40 16 44 22 4 8 0 8 -14 0 -58 -31 -143 7 -157 69 -12 57 25
104 105 133 8 3 2 5 -15 6 -16 0 -40 -5 -52 -11z"/>
<path d="M6868 6650 c-10 -38 -18 -689 -8 -695 4 -3 11 37 15 87 8 118 2 641
-7 608z"/>
<path d="M6153 6650 c-13 -5 -23 -14 -23 -20 0 -8 8 -8 23 -3 12 4 58 8 102 8
69 0 86 -4 126 -27 53 -31 90 -71 122 -132 31 -60 31 -174 -1 -236 -56 -106
-141 -160 -257 -160 -89 0 -155 29 -212 94 -73 82 -92 194 -53 298 14 38 15
47 4 33 -8 -11 -22 -44 -31 -74 -40 -139 32 -293 166 -354 67 -31 188 -31 253
1 185 91 235 326 102 481 -55 64 -122 94 -219 98 -44 1 -90 -1 -102 -7z"/>
<path d="M4650 6125 c-7 -9 -11 -17 -9 -20 3 -2 10 5 17 15 14 24 10 26 -8 5z"/>
<path d="M5004 6118 l-19 -23 23 19 c21 18 27 26 19 26 -2 0 -12 -10 -23 -22z"/>
<path d="M5385 6120 c-10 -11 -16 -22 -14 -24 2 -2 12 7 22 20 22 29 17 32 -8
4z"/>
<path d="M3740 6120 c-12 -8 -11 -10 8 -10 12 0 22 5 22 10 0 13 -11 13 -30 0z"/>
<path d="M4015 6064 c26 -20 60 -57 76 -82 16 -25 29 -41 29 -36 0 22 -64 106
-99 130 -55 37 -60 29 -6 -12z"/>
<path d="M4488 5946 c-5 -43 -7 -178 -7 -300 1 -179 3 -208 10 -151 5 38 8
173 7 300 -2 179 -5 212 -10 151z"/>
<path d="M4129 5849 c4 -99 -14 -154 -73 -217 -59 -65 -123 -92 -216 -92 -117
0 -199 49 -266 157 -28 46 -32 28 -5 -26 21 -41 83 -101 128 -124 15 -8 54
-20 86 -27 138 -28 282 51 344 190 18 40 23 176 8 202 -7 12 -9 -7 -6 -63z"/>
<path d="M7034 5466 c-47 -21 -74 -62 -74 -112 0 -82 83 -140 156 -109 41 17
46 28 6 13 -72 -28 -142 20 -142 97 0 49 33 90 81 100 16 4 27 11 23 16 -7 12
-12 11 -50 -5z"/>
<path d="M7362 5453 c-101 -49 -68 -223 43 -223 35 0 91 17 83 25 -2 3 -18 0
-34 -7 -38 -14 -79 -4 -110 27 -53 53 -19 157 56 171 16 4 27 10 24 15 -8 13
-25 11 -62 -8z"/>
<path d="M7721 5444 c-43 -36 -58 -89 -38 -137 30 -70 130 -100 176 -52 15 16
14 16 -9 4 -31 -16 -85 -13 -115 7 -30 20 -49 67 -40 101 8 35 53 83 76 83 10
0 21 5 24 10 13 21 -45 9 -74 -16z"/>
<path d="M8103 5460 c-13 -5 -32 -24 -43 -42 -38 -63 -17 -143 46 -173 38 -18
59 -18 99 -1 28 12 27 13 -27 8 -53 -4 -59 -2 -88 26 -42 42 -42 101 -1 143
16 16 39 29 50 29 11 0 23 5 26 10 8 12 -32 12 -62 0z"/>
<path d="M6847 5377 c-10 -127 -8 -642 2 -631 13 13 26 700 14 707 -6 4 -13
-27 -16 -76z"/>
<path d="M8414 5426 c-29 -29 -34 -41 -34 -80 0 -39 6 -52 33 -83 29 -31 40
-36 80 -37 34 -1 51 4 64 19 10 11 11 14 4 7 -8 -6 -35 -12 -59 -12 -59 0
-102 41 -102 97 0 49 22 80 74 104 l41 19 -33 0 c-25 0 -43 -9 -68 -34z"/>
<path d="M6131 5442 c-14 -4 -27 -14 -29 -21 -4 -11 1 -12 19 -7 49 15 131 18
173 6 64 -18 136 -77 171 -140 26 -49 30 -64 29 -135 0 -92 -18 -136 -80 -197
-116 -116 -298 -110 -409 14 -78 87 -96 215 -46 319 21 43 21 43 2 19 -33 -39
-54 -125 -48 -188 26 -253 338 -362 517 -182 146 145 106 397 -76 486 -58 28
-172 41 -223 26z"/>
<path d="M9048 5000 c-9 -6 -22 -27 -28 -48 -7 -20 -24 -47 -38 -59 -29 -25
-25 -41 7 -24 11 7 31 9 43 6 16 -4 34 3 57 20 43 31 45 31 59 0 13 -28 43
-33 62 -10 7 8 18 15 25 15 7 0 18 -7 25 -15 16 -20 54 -19 85 1 14 9 25 12
25 6 0 -20 33 -22 63 -3 30 19 31 19 57 -1 22 -16 32 -18 48 -9 11 6 34 11 51
11 17 0 31 5 31 10 0 18 -30 23 -68 12 -29 -9 -39 -9 -52 3 -21 19 -45 19 -76
-1 -35 -24 -41 -10 -10 26 27 33 34 60 15 60 -12 0 -69 -57 -69 -69 0 -4 -13
-15 -30 -24 -29 -17 -30 -17 -60 5 -30 22 -32 22 -62 5 -17 -10 -31 -16 -32
-15 -21 51 -46 58 -87 24 -42 -36 -58 -33 -20 3 33 31 38 50 19 69 -14 14 -18
14 -40 2z m22 -29 c0 -5 -7 -14 -15 -21 -16 -14 -18 -10 -9 14 6 17 24 22 24
7z"/>
<path d="M9893 4674 c-28 -12 -10 -22 46 -26 78 -5 123 -36 158 -106 21 -43
25 -61 19 -100 -13 -99 -91 -165 -193 -164 -148 1 -233 168 -152 298 23 36 26
44 10 30 -57 -51 -76 -157 -42 -231 65 -139 241 -167 348 -54 40 43 53 77 53
140 0 86 -39 153 -112 190 -39 20 -114 33 -135 23z"/>
<path d="M10477 4673 c-16 -15 -4 -23 35 -23 159 0 244 -188 141 -311 -36 -42
-77 -60 -138 -60 -69 0 -127 29 -162 83 -24 35 -28 52 -28 109 0 61 3 71 33
108 18 23 28 41 22 41 -16 0 -69 -88 -76 -126 -9 -48 13 -126 47 -167 63 -76
162 -96 256 -52 135 62 161 244 48 343 -53 47 -155 78 -178 55z"/>
<path d="M9288 4664 c-17 -16 -6 -22 52 -26 47 -3 67 -10 96 -34 50 -40 74
-88 74 -149 0 -161 -191 -246 -310 -139 -73 66 -89 177 -36 249 36 48 42 62
17 40 -69 -60 -85 -177 -37 -259 80 -137 282 -136 363 2 59 100 26 230 -73
288 -45 27 -132 43 -146 28z"/>
<path d="M10980 4184 c-6 -14 -8 -30 -4 -35 7 -13 38 -11 52 3 8 8 15 8 24 1
11 -9 43 -10 136 -4 27 2 10 21 -19 21 -26 0 -29 3 -24 20 9 27 -12 26 -35 -2
-16 -21 -20 -21 -44 -9 -20 11 -28 12 -41 1 -13 -10 -15 -9 -15 9 0 29 -18 26
-30 -5z"/>
<path d="M10442 4175 c-7 -14 -12 -30 -12 -34 0 -15 41 -20 66 -9 17 8 27 8
38 -1 10 -8 21 -9 33 -3 10 5 34 7 53 4 32 -5 34 -4 21 12 -9 11 -28 17 -55
16 -68 -1 -90 4 -104 23 -18 23 -27 22 -40 -8z"/>
<path d="M9183 4161 c-9 -26 -8 -30 11 -35 13 -4 32 2 49 15 21 15 32 18 40
10 13 -13 117 -15 117 -2 0 13 -46 22 -74 15 -13 -3 -27 -1 -30 5 -9 15 -49
14 -64 -1 -9 -9 -12 -8 -12 5 0 28 -25 19 -37 -12z"/>
<path d="M9850 4171 c-8 -17 -6 -20 19 -26 17 -3 38 -2 49 4 11 6 22 7 26 4
12 -12 117 -11 113 1 -2 6 -21 11 -43 12 -21 0 -50 4 -63 8 -13 5 -27 4 -34
-3 -16 -16 -37 -14 -37 4 0 21 -17 19 -30 -4z"/>
<path d="M10177 3722 c-10 -10 -25 -43 -35 -73 -15 -44 -26 -58 -58 -76 -39
-22 -24 -34 16 -13 13 7 27 7 43 -1 21 -9 35 -6 87 17 l62 28 27 -32 c31 -39
44 -40 87 -7 l32 25 16 -25 c20 -31 39 -31 102 -4 38 17 51 19 66 10 12 -7 37
-9 67 -5 31 4 51 2 55 -5 10 -15 58 -14 81 3 20 13 118 13 208 0 23 -4 37 -2
37 4 0 19 -20 25 -96 28 -41 1 -83 6 -94 9 -10 3 -37 -3 -59 -15 -38 -19 -43
-19 -72 -5 -25 13 -37 14 -65 5 -48 -16 -64 -7 -26 15 34 21 68 78 56 97 -4 6
-12 -3 -18 -23 -7 -21 -22 -39 -41 -48 -16 -8 -38 -18 -47 -23 -10 -4 -41 -17
-70 -28 l-53 -20 -18 25 c-23 31 -30 31 -73 -1 l-34 -26 -29 31 c-34 36 -51
38 -106 11 -41 -20 -65 -25 -65 -14 0 4 16 24 35 45 36 40 44 76 23 97 -16 16
-22 15 -41 -6z m3 -76 l-21 -21 11 29 c17 45 24 53 28 32 2 -10 -6 -28 -18
-40z"/>
<path d="M4633 4828 c-15 -20 -25 -38 -20 -38 3 0 12 11 21 25 17 26 16 35 -1
13z"/>
<path d="M5365 4820 c-10 -11 -16 -22 -14 -24 2 -2 12 7 22 20 22 29 17 32 -8
4z"/>
<path d="M3715 4820 c-3 -5 1 -10 9 -10 8 0 18 5 21 10 3 6 -1 10 -9 10 -8 0
-18 -4 -21 -10z"/>
<path d="M4979 4813 c-13 -16 -12 -17 4 -4 9 7 17 15 17 17 0 8 -8 3 -21 -13z"/>
<path d="M3965 4788 c69 -53 95 -82 119 -130 14 -29 26 -46 26 -40 0 20 -36
86 -66 121 -14 18 -45 41 -68 52 l-41 20 30 -23z"/>
<path d="M4468 4701 c-5 -35 -7 -172 -7 -305 2 -205 3 -228 10 -151 11 113 8
551 -3 456z"/>
<path d="M4111 4532 c-1 -91 -33 -165 -93 -216 -69 -59 -103 -71 -203 -71 -80
0 -95 3 -135 27 -50 29 -85 64 -124 122 -36 53 -33 21 3 -35 58 -90 130 -132
238 -137 86 -5 146 13 209 60 83 64 139 199 116 285 -9 36 -10 34 -11 -35z"/>
<path d="M5820 7870 c8 -5 23 -10 34 -10 10 0 34 -9 53 -21 119 -74 60 -269
-82 -269 -137 0 -198 183 -89 269 15 12 22 21 16 21 -19 0 -70 -59 -82 -96
-24 -71 0 -141 64 -188 39 -30 143 -30 182 0 53 39 69 70 69 137 0 74 -25 116
-85 147 -40 21 -110 29 -80 10z"/>
<path d="M7363 7808 c-20 -25 -54 -132 -51 -159 3 -29 -25 -69 -49 -69 -7 0
-13 -4 -13 -10 0 -15 36 -12 50 5 7 8 30 20 51 25 22 6 55 25 74 41 29 26 36
28 40 15 3 -9 7 -23 10 -32 4 -13 13 -14 46 -9 31 5 45 3 60 -11 19 -17 23
-17 62 -2 32 11 46 12 60 4 13 -9 26 -6 60 12 44 23 68 27 81 15 13 -13 116
-9 116 3 0 17 -38 24 -68 13 -17 -7 -29 -6 -36 1 -16 16 -58 12 -91 -10 -41
-27 -50 -25 -26 6 12 15 21 38 21 51 0 36 -31 26 -52 -17 -12 -24 -31 -41 -59
-53 -38 -16 -43 -16 -59 -2 -19 17 -43 20 -77 10 -18 -6 -22 -2 -28 24 -8 39
-28 39 -72 1 -43 -38 -60 -39 -32 -1 26 36 38 124 19 146 -15 18 -24 19 -37 3z
m27 -48 c0 -33 -32 -104 -51 -116 -15 -9 -6 41 18 104 18 49 33 55 33 12z
m339 -92 c-7 -13 -14 -18 -16 -11 -3 7 1 22 8 35 7 13 14 18 16 11 3 -7 -1
-22 -8 -35z"/>
<path d="M8266 7792 c-3 -5 4 -22 15 -37 l22 -27 -22 -28 c-22 -31 -27 -50
-12 -50 17 0 62 70 56 89 -8 25 -52 65 -59 53z"/>
<path d="M6842 7747 c-18 -18 -32 -40 -32 -49 0 -21 73 -83 79 -67 2 7 -11 24
-29 39 l-32 26 31 36 c17 20 31 38 31 42 0 14 -18 4 -48 -27z"/>
<path d="M6074 7746 c-6 -15 61 -116 77 -116 5 0 21 25 36 55 24 48 25 57 13
65 -24 16 -120 12 -126 -4z m99 -52 c-9 -19 -19 -34 -22 -34 -5 0 -51 65 -51
72 0 2 20 2 44 0 l45 -4 -16 -34z"/>
<path d="M5714 7165 c0 -66 1 -92 3 -57 2 34 2 88 0 120 -2 31 -3 3 -3 -63z"/>
<path d="M7029 4244 c-69 -28 -93 -124 -44 -183 36 -42 83 -56 129 -37 44 18
48 29 6 14 -74 -25 -140 20 -140 97 0 49 33 90 84 103 20 5 26 10 16 14 -9 3
-31 -1 -51 -8z"/>
<path d="M7363 4235 c-71 -30 -84 -143 -24 -197 37 -33 104 -39 137 -12 19 15
19 16 -1 8 -43 -15 -74 -15 -103 0 -39 20 -52 44 -52 94 0 47 34 89 80 98 16
4 27 10 24 15 -7 12 -23 11 -61 -6z"/>
<path d="M7721 4224 c-17 -14 -36 -42 -42 -63 -23 -77 44 -157 125 -147 21 2
43 9 48 14 6 6 -7 8 -37 5 -29 -4 -55 -1 -71 8 -35 18 -57 65 -50 103 7 36 52
86 77 86 10 0 21 5 24 10 13 21 -45 9 -74 -16z"/>
<path d="M6101 4209 c-17 -7 -21 -13 -14 -20 8 -8 17 -8 31 0 11 6 49 11 84
11 80 0 148 -31 204 -92 57 -62 77 -120 72 -205 -5 -79 -27 -132 -78 -183 -58
-58 -103 -75 -200 -75 -64 0 -95 5 -125 20 -54 26 -113 88 -137 142 -25 56
-27 172 -4 226 19 43 13 50 -7 10 -75 -150 -8 -335 146 -403 137 -61 296 -16
379 105 108 159 38 389 -138 455 -59 22 -170 26 -213 9z"/>
<path d="M6827 3973 c-9 -299 -9 -503 1 -503 5 0 12 68 15 152 10 214 9 568
-1 568 -5 0 -12 -98 -15 -217z"/>
<path d="M5716 2969 c-3 -96 -7 -327 -8 -514 l-3 -340 227 -3 227 -2 3 -68 3
-67 140 -6 c77 -4 476 -7 888 -8 l747 -1 10 -26 c6 -14 10 -30 10 -35 0 -7
-362 -8 -1115 -3 l-1115 7 0 -110 c0 -60 -3 -171 -7 -246 l-6 -136 -56 -4
c-54 -3 950 -9 1306 -7 95 0 194 -2 222 -6 47 -6 50 -8 65 -49 29 -75 77 -136
137 -175 176 -114 406 -53 499 132 16 34 30 67 30 75 0 11 137 13 795 13 523
0 795 3 795 10 0 6 -35 10 -85 10 l-85 0 0 235 0 235 -422 0 c-233 0 -508 3
-611 7 l-188 6 27 28 28 29 400 2 401 3 3 69 3 69 157 -7 c86 -4 162 -3 169 1
8 6 12 142 15 518 l3 510 -580 6 c-319 3 -1130 10 -1801 14 l-1222 8 -6 -174z
m2694 132 l895 -6 -3 -210 c-1 -115 -5 -337 -8 -492 l-7 -283 -154 0 -155 0 8
403 c4 222 4 420 0 439 l-6 36 -43 -10 c-27 -6 -328 -8 -832 -4 -1353 11
-1913 8 -1938 -9 -12 -8 -36 -15 -53 -15 -17 0 -38 -7 -45 -17 -15 -18 -20
-18 69 2 l32 8 -2 -284 -3 -284 -35 3 c-76 6 -164 72 -208 157 -34 67 -36 178
-4 245 20 42 20 43 2 22 -49 -58 -57 -188 -18 -274 14 -29 37 -67 52 -85 32
-38 137 -93 178 -93 l28 0 0 -110 0 -110 -215 0 -215 0 0 218 c0 119 3 342 7
495 l6 278 886 -7 c487 -3 1289 -9 1781 -13z m-442 -157 l992 -6 0 -133 c0
-72 -3 -288 -7 -479 l-6 -347 -400 1 c-321 1 -402 -1 -407 -12 -13 -22 -115
-147 -121 -147 -3 -1 -13 25 -23 57 -10 31 -25 69 -32 85 l-15 27 -879 0 -880
0 1 223 c1 122 5 337 8 477 l6 254 23 6 c24 5 113 5 1740 -6z m-608 -1075
c311 0 577 -3 592 -6 22 -4 29 -12 34 -39 11 -58 28 -60 70 -9 l39 45 610 -2
610 -3 -3 -220 c-2 -121 -5 -220 -5 -221 -1 0 -311 1 -689 4 l-688 4 0 32 c0
122 -78 253 -184 307 -48 26 -165 51 -184 40 -9 -5 8 -10 46 -13 78 -8 140
-36 200 -92 76 -71 97 -122 97 -236 0 -79 -4 -103 -23 -142 -31 -62 -89 -121
-154 -155 -46 -24 -64 -28 -143 -28 -78 0 -97 4 -147 28 -139 68 -216 237
-173 382 20 69 35 95 89 154 39 42 39 43 9 22 -65 -44 -122 -157 -124 -244
l-2 -57 -213 0 -214 0 0 168 c0 111 -4 162 -10 152 -5 -8 -10 -84 -10 -167 l0
-153 -159 0 -159 0 -7 47 c-15 101 -79 189 -171 233 -41 20 -64 24 -137 24
-52 -1 -93 -6 -99 -12 -18 -18 -1 -26 27 -14 77 35 208 -2 280 -79 50 -53 69
-90 80 -156 l6 -41 -63 -7 c-35 -3 -162 -5 -283 -3 l-220 3 -3 36 c-2 20 6 59
17 88 10 28 17 51 15 51 -10 0 -39 -71 -49 -120 l-11 -55 -52 -3 -52 -3 0 237
0 237 523 -6 c287 -4 776 -7 1087 -8z"/>
<path d="M8930 3025 c-17 -21 -9 -27 13 -10 10 7 14 16 9 19 -5 3 -15 -1 -22
-9z"/>
<path d="M9050 3030 c-20 -12 -10 -19 14 -10 11 3 15 9 10 13 -6 3 -16 2 -24
-3z"/>
<path d="M9166 3024 c-19 -18 -21 -31 -3 -17 6 6 19 12 27 15 9 3 10 7 3 11
-6 4 -19 0 -27 -9z"/>
<path d="M9060 2980 c-22 -6 -23 -8 -7 -15 12 -5 24 -2 35 9 17 17 12 18 -28
6z"/>
<path d="M9180 2980 c-22 -6 -23 -8 -7 -15 11 -4 23 -3 30 4 15 15 7 19 -23
11z"/>
<path d="M6945 2860 c-20 -39 -20 -99 1 -107 9 -3 32 2 51 11 29 14 38 15 44
4 10 -15 56 -20 152 -16 15 0 27 5 27 10 0 15 -26 19 -54 8 -20 -7 -32 -7 -42
1 -7 6 -21 9 -32 7 -10 -2 -27 3 -36 11 -14 12 -24 13 -49 3 -17 -6 -32 -10
-34 -8 -2 1 4 19 12 39 20 49 19 67 -5 67 -11 0 -26 -12 -35 -30z m24 -42 c-7
-13 -14 -18 -16 -11 -3 7 1 22 8 35 7 13 14 18 16 11 3 -7 -1 -22 -8 -35z"/>
<path d="M8165 2871 c3 -11 1 -22 -5 -26 -13 -8 -13 -35 0 -35 16 0 41 46 34
64 -9 24 -37 21 -29 -3z"/>
<path d="M7490 2817 c-8 -12 -18 -27 -23 -34 -4 -6 -3 -14 3 -18 5 -3 16 11
25 31 18 43 15 52 -5 21z"/>
<path d="M7931 2802 c-7 -13 -7 -22 1 -30 15 -15 68 -16 68 -2 0 6 -11 10 -25
10 -17 0 -23 4 -19 14 8 22 -14 29 -25 8z"/>
<path d="M7563 2775 c2 -5 24 -11 48 -12 24 -1 56 -4 72 -8 21 -6 27 -4 27 9
0 16 -8 18 -103 20 -28 1 -46 -3 -44 -9z"/>
<path d="M6508 2623 c6 -2 18 -2 25 0 6 3 1 5 -13 5 -14 0 -19 -2 -12 -5z"/>
<path d="M7054 2619 c-3 -5 9 -9 26 -9 17 0 48 -9 70 -20 104 -53 133 -190 58
-276 -41 -46 -77 -64 -133 -64 -172 0 -245 182 -126 314 l26 30 -25 -16 c-61
-37 -93 -134 -71 -209 15 -49 65 -108 108 -125 73 -31 177 -10 230 48 85 91
60 247 -48 304 -38 19 -108 34 -115 23z"/>
<path d="M7583 2623 c9 -2 23 -2 30 0 6 3 -1 5 -18 5 -16 0 -22 -2 -12 -5z"/>
<path d="M6602 2600 c92 -49 126 -165 74 -255 -34 -57 -86 -85 -158 -85 -159
0 -233 183 -124 308 l31 36 -31 -22 c-57 -40 -87 -137 -64 -207 15 -45 62
-100 104 -122 40 -21 132 -21 171 -1 98 51 140 159 100 256 -25 58 -87 113
-127 112 -7 -1 4 -10 24 -20z"/>
<path d="M7668 2603 c132 -65 144 -238 22 -320 -47 -32 -143 -32 -191 0 -99
66 -114 194 -34 282 42 45 30 46 -14 1 -75 -78 -74 -194 3 -271 93 -92 237
-77 307 32 32 51 39 124 18 180 -18 50 -93 113 -131 113 -7 0 2 -8 20 -17z"/>
<path d="M8145 2613 c59 -7 75 -14 110 -45 48 -42 65 -77 65 -138 0 -70 -29
-123 -85 -156 -92 -54 -212 -16 -256 80 -33 72 -21 136 37 205 25 30 26 33 6
22 -54 -29 -90 -129 -72 -200 23 -93 96 -151 190 -151 63 0 106 18 147 61 39
42 53 77 53 134 0 56 -11 84 -51 129 -38 43 -87 67 -138 65 -33 -2 -33 -2 -6
-6z"/>
<path d="M8618 2613 c6 -2 18 -2 25 0 6 3 1 5 -13 5 -14 0 -19 -2 -12 -5z"/>
<path d="M8695 2593 c46 -24 76 -54 96 -98 23 -51 23 -89 0 -140 -54 -116
-186 -148 -281 -69 -44 37 -60 75 -60 139 0 63 9 85 54 134 21 23 25 30 11 23
-86 -44 -114 -194 -51 -277 53 -69 133 -97 214 -75 48 12 106 59 129 103 20
40 20 134 0 172 -25 50 -95 106 -129 105 -7 -1 1 -8 17 -17z"/>
<path d="M7524 2175 c-9 -14 -25 -25 -36 -25 -10 0 -17 -4 -14 -9 6 -9 90 -6
106 4 5 3 20 -1 33 -10 24 -15 57 -12 57 6 0 5 -9 9 -19 9 -11 0 -23 5 -26 10
-3 6 -19 10 -36 10 -19 0 -29 5 -29 15 0 23 -18 18 -36 -10z"/>
<path d="M6951 2166 l-22 -24 28 -7 c15 -5 33 -7 38 -5 6 2 33 5 60 6 79 5 95
8 93 19 -2 6 -14 9 -28 8 -26 -3 -37 -3 -67 -2 -10 1 -29 -2 -42 -6 -21 -7
-22 -5 -16 14 9 29 -15 28 -44 -3z"/>
<path d="M6346 2158 c-9 -12 -16 -25 -16 -29 0 -14 44 -17 63 -4 15 11 24 11
38 2 14 -9 21 -9 30 0 9 9 18 7 39 -9 18 -13 35 -18 49 -13 33 10 25 25 -13
25 -19 0 -38 5 -42 11 -3 6 -17 8 -29 5 -13 -3 -27 -1 -30 5 -4 6 -18 8 -31 5
-17 -5 -24 -2 -24 9 0 22 -16 18 -34 -7z"/>
<path d="M8128 2155 c-3 -3 -31 -6 -62 -6 -31 -1 -56 -5 -56 -9 0 -14 44 -19
85 -10 22 5 55 10 73 10 17 0 32 5 32 10 0 10 -62 14 -72 5z"/>
<path d="M8552 2140 c-6 -11 -12 -22 -12 -24 0 -8 95 1 120 12 29 12 28 13
-20 16 -19 2 -44 6 -55 9 -14 5 -24 1 -33 -13z"/>
<path d="M8922 1808 c-20 -20 -14 -27 12 -15 13 7 22 15 20 19 -7 11 -18 10
-32 -4z"/>
<path d="M9040 1810 c-20 -12 -10 -19 14 -10 11 3 15 9 10 13 -6 3 -16 2 -24
-3z"/>
<path d="M9160 1810 c-20 -12 -10 -19 14 -10 11 3 15 9 10 13 -6 3 -16 2 -24
-3z"/>
<path d="M8960 1772 c0 -7 -9 -12 -20 -12 -11 0 -20 -4 -20 -10 0 -16 40 -11
47 5 3 9 3 19 -1 22 -3 4 -6 1 -6 -5z"/>
<path d="M9075 1771 c-3 -6 -15 -11 -26 -11 -11 0 -17 -4 -14 -10 10 -16 42
-12 49 6 8 20 1 30 -9 15z"/>
<path d="M9194 1771 c-5 -5 -18 -11 -29 -13 -19 -5 -19 -5 -2 -13 12 -5 24 -2
35 8 16 17 13 34 -4 18z"/>
<path d="M5744 1336 c-3 -7 -4 -33 -2 -57 3 -41 5 -44 33 -47 17 -2 85 -1 153
3 102 6 122 10 122 23 0 12 -3 13 -12 4 -8 -8 -55 -12 -145 -12 -120 0 -133 2
-133 18 0 9 -3 27 -6 40 -6 21 -3 22 47 23 30 0 72 4 94 8 33 7 24 9 -53 10
-70 1 -94 -2 -98 -13z"/>
<path d="M6440 1326 c0 -8 -7 -16 -15 -20 -12 -4 -15 -25 -15 -99 0 -52 3
-109 7 -127 l6 -33 154 5 c85 3 159 10 164 15 6 6 6 33 1 74 l-10 64 -1 -61
-1 -61 -82 -6 c-46 -4 -113 -7 -150 -7 l-67 0 -3 103 c-2 63 1 106 8 112 5 6
13 18 17 28 9 23 28 22 34 -3 5 -18 14 -20 84 -20 62 0 79 3 79 14 0 23 22 31
35 13 7 -10 20 -17 29 -17 14 0 13 3 -4 20 -24 24 -65 26 -74 5 -4 -11 -22
-15 -71 -15 -51 0 -65 3 -65 15 0 10 -10 15 -30 15 -19 0 -30 -5 -30 -14z"/>
<path d="M9018 1313 l-48 -4 0 -135 0 -135 128 3 127 3 3 124 c2 82 -1 128 -9
137 -11 14 -81 16 -201 7z m182 -133 l0 -111 -102 3 -103 3 -3 45 c-3 58 8 76
37 61 31 -17 41 -6 41 49 l0 49 48 4 c26 2 55 4 65 5 15 2 17 -9 17 -108z
m-155 68 c-9 -41 -7 -38 -33 -31 -16 4 -22 13 -22 34 0 26 4 29 31 29 29 0 30
-1 24 -32z"/>
<path d="M8307 1304 c-4 -4 -7 -62 -7 -130 0 -134 0 -134 63 -126 l38 4 -3
127 -3 126 -40 3 c-23 2 -44 0 -48 -4z m73 -86 c0 -98 -9 -138 -31 -138 -13 0
-19 7 -19 23 0 13 -3 58 -6 100 l-7 77 32 0 31 0 0 -62z"/>
<path d="M6500 1240 c-24 -5 -1 -8 70 -8 58 0 114 3 125 8 25 11 -144 11 -195
0z"/>
<path d="M6725 1240 c3 -5 8 -10 11 -10 2 0 4 5 4 10 0 6 -5 10 -11 10 -5 0
-7 -4 -4 -10z"/>
<path d="M8182 1218 c-15 -15 -16 -154 -1 -163 6 -4 26 -4 45 -1 34 7 34 7 33
59 l-1 52 -11 -42 c-8 -34 -14 -43 -32 -43 -20 0 -21 5 -21 58 l1 57 33 3 c28
3 31 6 21 18 -14 17 -51 18 -67 2z"/>
<path d="M5755 1176 c-4 -18 -5 -44 -3 -57 l3 -24 149 0 c91 0 151 4 153 10 2
6 -48 9 -142 7 l-145 -3 0 40 0 41 70 0 c40 0 70 4 70 10 0 6 -32 10 -75 10
l-74 0 -6 -34z"/>
<path d="M8452 1182 c-9 -6 -12 -28 -10 -68 l3 -59 40 0 40 0 0 65 c0 65 0 65
-30 68 -16 1 -36 -2 -43 -6z m54 -38 c-3 -9 -6 -27 -6 -40 0 -36 -27 -30 -33
9 -6 39 -2 47 25 47 14 0 18 -5 14 -16z"/>
<path d="M6635 1140 c-8 -13 13 -50 28 -50 7 0 19 5 27 10 12 8 9 10 -12 10
-34 0 -37 17 -5 30 21 8 21 9 -5 9 -15 1 -30 -3 -33 -9z"/>
<path d="M5820 1051 c0 -5 -16 -19 -35 -31 -47 -29 -44 -38 10 -30 31 5 48 3
55 -5 6 -8 30 -12 58 -10 26 1 60 3 77 3 50 3 14 21 -50 25 -76 5 -94 13 -88
38 4 13 0 19 -11 19 -9 0 -16 -4 -16 -9z"/>
</g>
</svg>
