<?xml version="1.0" standalone="no"?>
<!DOCTYPE svg PUBLIC "-//W3C//DTD SVG 20010904//EN"
 "http://www.w3.org/TR/2001/REC-SVG-20010904/DTD/svg10.dtd">
<svg version="1.0" xmlns="http://www.w3.org/2000/svg"
 width="1920.000000pt" height="1080.000000pt" viewBox="0 0 1920.000000 1080.000000"
 preserveAspectRatio="xMidYMid meet">

<g transform="translate(0.000000,1080.000000) scale(0.100000,-0.100000)"
fill="#000000" stroke="none">
<path d="M7798 9401 c-52 -17 -98 -53 -122 -94 -35 -59 -50 -159 -37 -233 19
-102 54 -156 176 -278 129 -128 155 -170 155 -251 0 -71 -28 -105 -88 -105
-58 0 -83 32 -89 114 l-6 66 -78 0 -79 0 0 -63 c0 -134 60 -236 157 -265 68
-20 171 -15 228 12 60 28 77 46 107 111 18 40 22 68 23 140 0 83 -3 96 -34
160 -28 56 -58 93 -148 182 -126 124 -152 168 -153 251 0 67 29 102 85 102 55
0 85 -35 85 -100 l0 -50 86 0 87 0 -7 68 c-9 95 -47 168 -109 206 -42 26 -60
30 -130 33 -45 1 -94 -2 -109 -6z"/>
<path d="M8398 9396 c-52 -19 -83 -40 -111 -78 -50 -67 -52 -88 -52 -468 0
-400 3 -422 66 -494 48 -54 106 -76 203 -76 110 1 184 41 229 125 21 37 22 57
25 282 l3 242 -28 15 c-44 22 -79 65 -112 136 l-31 65 0 -311 c0 -321 -5 -365
-40 -384 -35 -19 -89 -12 -115 15 l-25 24 0 356 0 356 25 24 c32 33 96 34 126
4 19 -19 20 -19 16 -2 -3 10 -9 55 -13 101 l-7 82 -61 0 c-33 -1 -78 -7 -98
-14z"/>
<path d="M11210 9401 c-82 -27 -132 -76 -156 -157 -22 -73 -20 -729 2 -805 19
-65 80 -129 141 -147 68 -20 171 -15 228 12 60 28 77 46 107 111 21 46 23 66
26 273 l4 223 -124 -3 -123 -3 -3 -77 -3 -78 41 0 40 0 0 -130 c0 -126 -1
-132 -25 -155 -34 -35 -93 -34 -126 1 l-24 26 0 353 0 353 24 26 c30 32 87 35
122 7 21 -17 25 -30 29 -113 l5 -93 80 0 80 0 -1 102 c0 92 -3 107 -30 159
-43 85 -98 117 -207 121 -45 1 -93 -1 -107 -6z"/>
<path d="M8600 9353 c1 -138 55 -299 119 -355 l36 -32 3 115 c2 67 -2 132 -9
157 -16 59 -61 118 -109 142 l-40 20 0 -47z"/>
<path d="M8880 9190 c0 -115 2 -210 5 -210 17 0 74 38 117 77 l48 46 0 68 0
69 58 0 57 0 43 65 c23 36 42 69 42 74 0 14 -68 21 -222 21 l-148 0 0 -210z"/>
<path d="M9460 9320 l0 -80 90 0 90 0 0 -475 0 -475 90 0 90 0 0 475 0 475 90
0 90 0 0 80 0 80 -270 0 -270 0 0 -80z"/>
<path d="M10080 9348 l0 -52 36 35 c20 18 40 42 45 52 9 15 5 17 -36 17 l-45
0 0 -52z"/>
<path d="M10191 9364 c-14 -19 -44 -53 -68 -73 l-43 -39 0 -481 0 -481 85 0
85 0 0 555 c0 522 -1 555 -17 555 -10 0 -29 -16 -42 -36z"/>
<path d="M10370 8845 l0 -555 80 0 80 0 0 331 c0 292 -2 330 -15 319 -8 -7
-22 -10 -30 -6 -22 8 -19 81 10 281 14 94 25 173 25 178 0 4 -34 7 -75 7 l-75
0 0 -555z"/>
<path d="M10556 9373 c-12 -57 -46 -309 -46 -345 0 -21 5 -38 10 -38 6 0 10
19 11 43 0 23 3 35 7 27 3 -8 51 -184 107 -390 l101 -375 92 -3 92 -3 0 556 0
555 -80 0 -80 0 -2 -320 -3 -321 -85 318 c-65 240 -90 319 -102 321 -11 2 -18
-6 -22 -25z"/>
<path d="M9245 9299 c-42 -65 -45 -74 -36 -102 6 -16 11 -77 11 -134 0 -102
-1 -105 -29 -134 -26 -25 -37 -29 -85 -29 l-56 0 0 75 0 75 -53 -43 c-29 -23
-67 -49 -85 -56 l-32 -13 0 -324 0 -324 85 0 85 0 0 225 0 225 54 0 c44 0 61
-5 83 -24 l28 -24 6 -184 c4 -100 10 -191 14 -200 6 -15 21 -18 97 -18 69 0
87 3 81 13 -4 6 -10 98 -13 202 -7 212 -19 262 -78 305 l-30 22 33 30 c54 46
70 103 70 243 0 111 -2 124 -28 177 -15 31 -38 63 -52 72 -24 16 -24 15 -70
-55z"/>
<path d="M1080 8910 c0 -7 1030 -10 3070 -10 2040 0 3070 3 3070 10 0 7 -1030
10 -3070 10 -2040 0 -3070 -3 -3070 -10z"/>
<path d="M11980 8900 c0 -7 1030 -10 3070 -10 2040 0 3070 3 3070 10 0 7
-1030 10 -3070 10 -2040 0 -3070 -3 -3070 -10z"/>
<path d="M1153 7929 c-69 -20 -63 174 -63 -2222 l0 -2169 29 -29 29 -29 8456
0 8456 0 30 28 30 27 0 2168 c0 1542 -3 2174 -11 2188 -6 12 -26 27 -44 35
-30 12 -1215 14 -8457 13 -5139 0 -8435 -4 -8455 -10z m16911 -61 c14 -20 16
-107 16 -740 l0 -718 -617 0 c-340 0 -1080 3 -1645 7 l-1027 6 -3 61 -3 61
-130 3 c-149 3 -155 0 -155 -78 l0 -47 -1342 -6 c-1703 -9 -2689 -9 -3091 0
l-317 6 0 51 c0 28 -4 57 -8 64 -7 9 -42 12 -143 10 l-134 -3 -3 -62 -3 -63
-2604 0 -2604 0 -3 63 -3 62 -134 3 c-101 2 -136 -1 -143 -10 -4 -7 -8 -37 -8
-66 l0 -52 -1413 2 -1412 3 0 718 c0 700 1 719 19 733 17 12 1187 14 8457 14
l8438 0 15 -22z m-13834 -1458 l0 -121 -122 3 -123 3 -3 104 c-1 58 0 111 2
118 4 10 35 13 126 13 l120 0 0 -120z m5498 -2 l3 -118 -126 0 -125 0 0 120 0
121 123 -3 122 -3 3 -117z m5042 2 l0 -121 -122 3 -123 3 -3 104 c-1 58 0 111
2 118 4 10 35 13 126 13 l120 0 0 -120z m-10810 -62 c0 -29 4 -59 8 -66 7 -9
42 -12 143 -10 l134 3 3 63 3 62 2604 0 2604 0 3 -62 3 -63 140 0 140 0 3 63
3 62 2253 0 c1239 0 2308 -3 2374 -7 l122 -6 0 -36 c0 -84 -4 -82 149 -79
l136 3 3 58 3 57 1644 0 1645 0 0 -1414 c0 -1273 -2 -1416 -16 -1430 -14 -15
-796 -16 -8458 -16 -7842 0 -8445 1 -8457 17 -12 13 -14 250 -17 1435 l-2
1418 1415 0 1415 0 0 -52z"/>
<path d="M3313 7240 c-48 -19 -55 -47 -51 -205 3 -140 4 -148 27 -166 25 -21
90 -26 121 -9 29 16 40 66 40 185 0 136 -11 172 -56 191 -38 16 -50 16 -81 4z
m68 -77 c6 -16 9 -76 7 -135 -3 -114 -14 -142 -46 -122 -14 9 -17 31 -20 134
-3 123 3 150 34 150 8 0 19 -12 25 -27z"/>
<path d="M9454 7236 c-40 -18 -45 -32 -51 -142 -11 -186 11 -244 91 -244 65 0
88 23 94 93 l4 57 -31 0 c-29 0 -31 -2 -31 -39 0 -42 -20 -67 -45 -57 -13 5
-15 27 -13 143 l3 138 25 0 c22 0 25 -5 28 -37 3 -35 6 -38 34 -38 30 0 31 0
25 46 -3 26 -13 54 -23 65 -26 25 -73 32 -110 15z"/>
<path d="M10653 7236 c-23 -11 -34 -24 -42 -50 -14 -54 3 -101 60 -161 38 -40
49 -59 49 -84 0 -35 -22 -50 -45 -31 -8 7 -15 23 -15 36 0 20 -5 24 -30 24
-34 0 -38 -15 -19 -69 13 -38 35 -51 84 -51 50 0 71 14 85 54 17 52 -1 99 -60
162 -43 46 -51 59 -48 87 2 24 8 32 23 32 11 0 24 -10 30 -22 7 -16 18 -23 38
-23 25 0 27 3 21 28 -9 36 -32 72 -47 72 -6 0 -21 2 -32 5 -11 3 -34 -2 -52
-9z"/>
<path d="M13864 7240 c-48 -20 -69 -92 -42 -143 6 -12 33 -46 60 -75 50 -55
60 -90 33 -112 -23 -19 -45 -4 -45 30 0 27 -3 30 -30 30 -27 0 -30 -3 -30 -34
0 -19 9 -45 21 -60 17 -22 28 -26 69 -26 41 0 52 4 69 26 22 28 27 77 11 118
-5 13 -32 50 -60 80 -49 55 -58 78 -41 104 13 21 46 10 49 -16 3 -17 10 -22
33 -22 24 0 29 4 29 24 0 54 -74 99 -126 76z"/>
<path d="M3474 7218 c6 -25 56 -352 56 -363 0 -3 21 -5 47 -3 l48 3 27 170
c35 222 35 217 1 213 -28 -3 -28 -3 -47 -140 -10 -76 -22 -138 -25 -138 -4 0
-16 62 -26 138 l-20 137 -33 3 c-30 3 -32 1 -28 -20z"/>
<path d="M3710 7045 l0 -195 85 0 85 0 0 30 c0 30 -1 30 -55 30 l-55 0 0 55 0
55 45 0 c43 0 45 1 45 30 0 29 -2 30 -46 30 l-45 0 3 53 3 52 53 3 c48 3 52 5
52 28 0 24 -1 24 -85 24 l-85 0 0 -195z"/>
<path d="M3920 7045 l0 -195 30 0 30 0 0 80 c0 70 2 80 18 80 33 0 41 -15 44
-85 l3 -70 32 -3 32 -3 -6 78 c-3 43 -11 88 -19 100 -11 18 -11 23 1 33 10 9
15 32 15 76 0 89 -16 104 -110 104 l-70 0 0 -195z m108 136 c9 -5 12 -25 10
-57 -3 -45 -5 -49 -30 -52 -27 -3 -28 -2 -28 51 0 66 12 81 48 58z"/>
<path d="M4130 7233 c0 -12 49 -324 56 -355 5 -25 10 -28 49 -28 39 0 44 3 49
28 6 31 56 346 56 356 0 3 -13 6 -29 6 l-28 0 -18 -132 c-10 -73 -21 -141 -24
-151 -4 -10 -15 40 -25 111 -23 174 -23 172 -57 172 -16 0 -29 -3 -29 -7z"/>
<path d="M4370 7045 l0 -195 30 0 30 0 0 195 0 195 -30 0 -30 0 0 -195z"/>
<path d="M4470 7045 l0 -195 85 0 85 0 0 30 c0 29 -1 30 -50 30 l-50 0 0 55 0
55 40 0 c38 0 40 2 40 30 0 28 -2 30 -40 30 l-40 0 0 55 0 55 50 0 c47 0 50 2
50 25 0 25 -1 25 -85 25 l-85 0 0 -195z"/>
<path d="M4670 7228 c0 -7 9 -89 20 -183 11 -93 20 -176 20 -182 0 -9 16 -13
44 -13 l44 0 8 88 c8 98 19 90 29 -20 l7 -68 39 0 c46 0 42 -12 64 190 8 80
17 157 20 173 4 24 2 27 -24 27 l-29 0 -13 -136 c-14 -146 -22 -149 -33 -14
-11 141 -14 150 -46 150 -31 0 -33 -8 -46 -179 -8 -105 -18 -102 -28 9 -14
165 -15 170 -47 170 -17 0 -29 -5 -29 -12z"/>
<path d="M8440 7045 l0 -195 30 0 30 0 0 75 0 75 34 0 c19 0 44 9 57 19 22 17
24 27 24 101 0 104 -14 120 -111 120 l-64 0 0 -195z m101 135 c15 -8 19 -21
19 -58 0 -51 -12 -72 -42 -72 -16 0 -18 9 -18 70 0 72 5 79 41 60z"/>
<path d="M8695 7228 c-2 -7 -17 -95 -33 -195 l-28 -183 27 0 c24 0 29 5 35 35
6 33 9 35 44 35 36 0 39 -2 42 -32 3 -29 7 -33 37 -36 31 -3 33 -1 28 20 -3
13 -18 101 -33 196 l-27 172 -44 0 c-26 0 -45 -5 -48 -12z m60 -168 c6 -44 9
-82 7 -85 -3 -3 -16 -5 -30 -5 -23 0 -24 3 -18 38 3 20 9 61 12 90 4 29 9 50
12 47 3 -3 11 -41 17 -85z"/>
<path d="M8880 7045 l0 -195 30 0 30 0 0 80 c0 70 2 80 18 80 32 0 42 -22 42
-92 l0 -68 33 0 32 0 -3 77 c-3 52 -9 84 -19 95 -13 15 -13 19 1 40 24 34 21
119 -5 152 -19 24 -27 26 -90 26 l-69 0 0 -195z m104 132 c13 -10 17 -24 14
-57 -3 -41 -6 -45 -30 -48 -28 -3 -28 -3 -28 57 0 64 9 74 44 48z"/>
<path d="M9080 7215 c0 -22 4 -25 35 -25 l35 0 0 -170 0 -170 30 0 30 0 0 170
0 170 35 0 c31 0 35 3 35 25 l0 25 -100 0 -100 0 0 -25z"/>
<path d="M9300 7045 l0 -195 30 0 30 0 0 195 0 195 -30 0 -30 0 0 -195z"/>
<path d="M9620 7045 l0 -195 35 0 35 0 0 195 0 195 -35 0 -35 0 0 -195z"/>
<path d="M9730 7045 l0 -195 30 0 29 0 3 73 3 72 36 3 c23 2 45 12 60 28 20
21 23 35 23 94 0 59 -3 73 -24 95 -21 22 -32 25 -92 25 l-68 0 0 -195z m104
139 c12 -5 16 -20 16 -64 0 -50 -3 -60 -20 -65 -32 -10 -40 3 -40 64 0 70 6
79 44 65z"/>
<path d="M9990 7236 c0 -3 -13 -88 -30 -189 -16 -102 -30 -188 -30 -191 0 -3
13 -6 29 -6 26 0 30 4 33 33 3 28 7 32 37 35 37 4 51 -9 51 -45 0 -19 6 -23
30 -23 20 0 30 5 30 15 0 16 -47 318 -55 353 -5 19 -12 22 -50 22 -25 0 -45
-2 -45 -4z m69 -243 c1 -18 -4 -23 -25 -23 l-27 0 7 65 c4 36 10 80 13 98 6
28 8 23 19 -43 7 -41 13 -85 13 -97z"/>
<path d="M10170 7045 l0 -195 30 0 29 0 3 128 3 127 34 -127 34 -128 33 0 34
0 0 195 0 195 -30 0 -30 0 -1 -102 -1 -103 -15 50 c-8 28 -21 74 -30 103 -14
51 -15 52 -54 52 l-39 0 0 -195z"/>
<path d="M10390 7215 c0 -22 4 -25 35 -25 l35 0 0 -170 0 -170 30 0 30 0 0
170 0 170 35 0 c31 0 35 3 35 25 l0 25 -100 0 -100 0 0 -25z"/>
<path d="M14020 7080 c0 -206 10 -230 96 -230 81 0 94 33 94 243 l0 147 -30 0
-30 0 -2 -161 c-3 -144 -5 -163 -21 -173 -15 -9 -21 -7 -33 8 -11 15 -14 55
-14 173 l0 153 -30 0 -30 0 0 -160z"/>
<path d="M14250 7045 l0 -195 25 0 24 0 3 128 3 127 18 -110 c25 -147 24 -145
56 -145 l28 0 17 118 c10 64 19 122 21 127 2 6 4 -47 4 -117 l1 -128 30 0 30
0 0 195 0 195 -44 0 -44 0 -18 -120 c-10 -66 -20 -120 -24 -120 -4 0 -15 54
-25 120 l-18 120 -44 0 -43 0 0 -195z"/>
<path d="M14550 7045 l0 -195 30 0 30 0 1 113 c1 117 3 115 29 -40 11 -71 13
-73 40 -73 32 0 28 -12 54 150 l14 85 1 -117 1 -118 30 0 30 0 0 195 0 195
-43 0 -44 0 -18 -130 c-10 -71 -20 -128 -22 -126 -4 3 -42 230 -43 249 0 4
-20 7 -45 7 l-45 0 0 -195z"/>
<path d="M14900 7236 c0 -3 -13 -88 -30 -189 -16 -102 -30 -188 -30 -191 0 -3
13 -6 29 -6 26 0 30 4 33 33 3 28 7 32 37 35 37 4 51 -9 51 -45 0 -19 6 -23
30 -23 20 0 30 5 30 15 0 16 -47 318 -55 353 -5 19 -12 22 -50 22 -25 0 -45
-2 -45 -4z m69 -243 c1 -18 -4 -23 -25 -23 l-27 0 7 65 c4 36 10 80 13 98 6
28 8 23 19 -43 7 -41 13 -85 13 -97z"/>
<path d="M15080 7045 l0 -195 30 0 30 0 0 80 c0 79 0 80 25 80 32 0 45 -31 45
-106 0 -54 0 -54 31 -54 l31 0 -3 79 c-3 57 -9 84 -21 98 -17 18 -17 20 0 36
12 13 17 34 17 79 -1 82 -20 98 -116 98 l-69 0 0 -195z m108 136 c9 -5 12 -25
10 -57 -3 -45 -5 -49 -30 -52 -27 -3 -28 -2 -28 51 0 66 12 81 48 58z"/>
<path d="M15290 7237 c0 -2 16 -57 35 -123 26 -88 35 -138 35 -191 l0 -73 35
0 35 0 0 70 c0 51 10 103 35 189 19 65 35 121 35 124 0 4 -13 7 -28 7 -26 0
-29 -4 -46 -72 -10 -40 -21 -77 -24 -83 -3 -5 -16 26 -27 70 -21 77 -23 80
-53 83 -18 2 -32 1 -32 -1z"/>
<path d="M3200 5790 c0 -53 4 -90 10 -90 6 0 10 37 10 90 0 53 -4 90 -10 90
-6 0 -10 -37 -10 -90z"/>
<path d="M3750 5851 c0 -28 -1 -28 -45 -23 -43 4 -45 3 -59 -29 -15 -35 -7
-76 17 -91 18 -12 62 -9 75 4 9 9 12 9 12 0 0 -7 5 -12 10 -12 6 0 10 37 10
90 0 53 -4 90 -10 90 -5 0 -10 -13 -10 -29z m-11 -63 c12 -31 -2 -62 -28 -66
-28 -4 -51 14 -51 42 0 47 63 66 79 24z"/>
<path d="M5057 5874 c-8 -8 1 -24 14 -24 5 0 9 7 9 15 0 15 -12 20 -23 9z"/>
<path d="M5120 5790 c0 -53 4 -90 10 -90 6 0 10 37 10 90 0 53 -4 90 -10 90
-6 0 -10 -37 -10 -90z"/>
<path d="M5250 5860 c-24 -24 -26 -40 -5 -40 8 0 15 6 15 14 0 19 30 29 46 15
25 -20 15 -48 -31 -92 -25 -24 -45 -47 -45 -50 0 -4 27 -7 60 -7 33 0 60 4 60
10 0 6 -18 10 -40 10 l-41 0 36 35 c24 25 35 45 35 65 0 55 -52 78 -90 40z"/>
<path d="M5404 5865 c-45 -31 -37 -149 11 -161 40 -10 64 4 75 45 17 65 -10
131 -55 131 -6 0 -20 -7 -31 -15z m61 -74 c0 -39 -4 -57 -17 -64 -28 -18 -48
9 -48 63 0 54 5 62 40 58 23 -3 25 -7 25 -57z"/>
<path d="M5540 5860 c-24 -24 -26 -40 -5 -40 8 0 15 6 15 14 0 19 30 29 46 15
25 -20 15 -48 -31 -92 -25 -24 -45 -47 -45 -50 0 -4 27 -7 60 -7 33 0 60 4 60
10 0 6 -18 10 -40 10 l-41 0 36 35 c24 25 35 45 35 65 0 55 -52 78 -90 40z"/>
<path d="M5682 5864 c-22 -15 -30 -44 -13 -44 5 0 15 10 24 23 12 18 18 20 34
11 31 -19 26 -42 -21 -92 -25 -27 -46 -52 -46 -56 0 -3 27 -6 60 -6 33 0 60 4
60 10 0 6 -19 10 -41 10 l-41 0 36 40 c21 23 36 50 36 64 0 24 -32 56 -55 56
-6 0 -21 -7 -33 -16z"/>
<path d="M8372 5868 c6 -18 28 -21 28 -4 0 9 -7 16 -16 16 -9 0 -14 -5 -12
-12z"/>
<path d="M8580 5865 c0 -9 5 -15 11 -13 6 2 11 8 11 13 0 5 -5 11 -11 13 -6 2
-11 -4 -11 -13z"/>
<path d="M9560 5790 c0 -53 4 -90 10 -90 6 0 10 37 10 90 0 53 -4 90 -10 90
-6 0 -10 -37 -10 -90z"/>
<path d="M9610 5791 c0 -75 3 -91 15 -91 13 0 15 14 13 87 -2 58 -7 88 -15 91
-10 3 -13 -19 -13 -87z"/>
<path d="M10550 5852 c0 -26 -2 -27 -39 -24 -31 3 -42 0 -55 -19 -40 -58 -5
-109 74 -108 l50 2 0 88 c0 72 -3 89 -15 89 -10 0 -15 -10 -15 -28z m-4 -69
c12 -45 -28 -80 -61 -53 -15 13 -20 61 -8 73 3 4 19 7 34 7 23 0 30 -6 35 -27z"/>
<path d="M10760 5791 c0 -73 3 -91 14 -91 11 0 16 15 18 53 3 46 6 52 27 55
30 5 41 -12 41 -65 0 -24 5 -43 10 -43 6 0 10 24 10 54 0 62 -15 80 -59 74
-26 -4 -30 -1 -33 21 -2 13 -9 26 -15 29 -10 3 -13 -19 -13 -87z"/>
<path d="M13242 5868 c6 -18 28 -21 28 -4 0 9 -7 16 -16 16 -9 0 -14 -5 -12
-12z"/>
<path d="M13447 5874 c-8 -8 1 -24 14 -24 5 0 9 7 9 15 0 15 -12 20 -23 9z"/>
<path d="M15200 5790 c0 -53 4 -90 10 -90 6 0 10 12 10 27 l0 27 28 -27 c41
-39 63 -34 24 6 l-32 33 32 32 c26 25 29 32 15 32 -10 0 -29 -12 -42 -27 l-24
-28 -1 53 c0 28 -4 52 -10 52 -6 0 -10 -37 -10 -90z"/>
<path d="M15570 5852 c0 -26 -2 -27 -39 -24 -31 3 -42 0 -55 -19 -40 -58 -5
-109 74 -108 l50 2 0 88 c0 72 -3 89 -15 89 -10 0 -15 -10 -15 -28z m-4 -69
c12 -45 -28 -80 -61 -53 -15 13 -20 61 -8 73 3 4 19 7 34 7 23 0 30 -6 35 -27z"/>
<path d="M16536 5864 c-16 -15 -22 -44 -10 -44 3 0 13 9 22 21 22 27 52 16 52
-19 0 -17 -15 -39 -45 -69 -25 -23 -45 -45 -45 -48 0 -3 27 -5 60 -5 33 0 60
4 60 10 0 6 -18 10 -39 10 l-39 0 34 34 c42 42 49 88 16 114 -22 16 -47 15
-66 -4z"/>
<path d="M16684 5865 c-45 -31 -37 -149 11 -161 40 -10 64 4 75 45 17 65 -10
131 -55 131 -6 0 -20 -7 -31 -15z m61 -74 c0 -39 -4 -57 -17 -64 -28 -18 -48
9 -48 63 0 54 5 62 40 58 23 -3 25 -7 25 -57z"/>
<path d="M2469 5841 c-40 -40 -36 -93 10 -128 32 -25 121 -5 121 28 0 14 -20
11 -36 -6 -20 -20 -58 -19 -78 1 -22 21 -20 77 2 97 23 21 56 22 72 2 14 -17
40 -20 40 -6 0 17 -43 41 -73 41 -18 0 -39 -11 -58 -29z"/>
<path d="M3410 5850 c0 -11 -5 -20 -11 -20 -8 0 -8 -4 -1 -13 6 -7 12 -35 14
-62 3 -46 5 -50 31 -53 31 -4 37 13 7 21 -16 4 -20 14 -20 46 0 34 3 41 20 41
11 0 20 5 20 10 0 6 -9 10 -20 10 -13 0 -20 7 -20 20 0 11 -4 20 -10 20 -5 0
-10 -9 -10 -20z"/>
<path d="M4280 5860 c0 -5 5 -10 10 -10 6 0 10 -32 10 -75 0 -60 3 -75 15 -75
12 0 15 16 15 85 0 84 0 85 -25 85 -14 0 -25 -4 -25 -10z"/>
<path d="M4500 5851 c0 -11 -6 -22 -12 -25 -10 -5 -10 -7 0 -12 7 -3 12 -25
12 -55 0 -52 11 -65 47 -56 16 4 15 6 -4 12 -19 6 -23 15 -23 50 0 35 4 44 23
50 l22 8 -22 4 c-15 3 -23 12 -23 24 0 10 -4 19 -10 19 -5 0 -10 -9 -10 -19z"/>
<path d="M4679 5833 c-6 -21 -20 -59 -30 -85 -15 -39 -16 -48 -5 -48 8 0 18 9
21 20 5 15 15 20 42 20 26 0 36 -5 40 -20 3 -11 12 -20 19 -20 10 0 6 20 -16
82 -17 45 -30 83 -30 85 0 2 -6 3 -14 3 -8 0 -20 -17 -27 -37z m45 -50 c6 -20
4 -23 -18 -23 -30 0 -29 -2 -15 40 12 34 19 30 33 -17z"/>
<path d="M7660 5827 c0 -53 6 -61 34 -42 29 21 45 19 58 -10 20 -45 -25 -73
-64 -38 -25 22 -36 8 -13 -17 37 -41 105 -14 105 43 0 34 -38 60 -74 51 -22
-5 -26 -3 -26 15 0 18 6 21 45 21 25 0 45 5 45 10 0 6 -25 10 -55 10 l-55 0 0
-43z"/>
<path d="M8294 5858 c-11 -18 -5 -129 8 -145 12 -15 48 -18 48 -3 0 6 -7 10
-15 10 -11 0 -15 12 -15 45 0 33 4 45 15 45 8 0 15 5 15 10 0 6 -7 10 -15 10
-8 0 -15 6 -15 14 0 20 -17 29 -26 14z"/>
<path d="M9120 5850 c0 -11 -5 -20 -11 -20 -8 0 -8 -4 -1 -13 6 -7 12 -35 14
-62 3 -46 5 -50 31 -53 31 -4 37 13 7 21 -16 4 -20 14 -20 46 0 34 3 41 20 41
11 0 20 5 20 10 0 6 -9 10 -20 10 -13 0 -20 7 -20 20 0 11 -4 20 -10 20 -5 0
-10 -9 -10 -20z"/>
<path d="M10680 5850 c0 -11 -5 -20 -11 -20 -8 0 -8 -4 -1 -13 6 -7 12 -35 14
-62 3 -46 5 -50 31 -53 31 -4 37 13 7 21 -16 4 -20 14 -20 46 0 34 3 41 20 41
11 0 20 5 20 10 0 6 -9 10 -20 10 -13 0 -20 7 -20 20 0 11 -4 20 -10 20 -5 0
-10 -9 -10 -20z"/>
<path d="M12530 5827 c0 -52 8 -62 31 -41 11 10 25 13 39 9 17 -5 20 -13 18
-38 -3 -36 -36 -49 -58 -22 -16 19 -30 19 -30 0 0 -18 31 -35 64 -35 27 0 56
32 56 62 0 32 -38 61 -71 54 -24 -5 -29 -2 -29 14 0 17 7 20 39 20 22 0 43 5
46 10 4 6 -15 10 -49 10 l-56 0 0 -43z"/>
<path d="M13164 5858 c-11 -18 -5 -129 8 -145 12 -15 48 -18 48 -3 0 6 -7 10
-15 10 -11 0 -15 12 -15 45 0 33 4 45 15 45 8 0 15 5 15 10 0 6 -7 10 -15 10
-8 0 -15 6 -15 14 0 20 -17 29 -26 14z"/>
<path d="M13990 5850 c0 -11 -5 -20 -11 -20 -8 0 -8 -4 -1 -13 6 -7 12 -35 14
-62 3 -46 5 -50 31 -53 31 -4 37 13 7 21 -16 4 -20 14 -20 46 0 34 3 41 20 41
11 0 20 5 20 10 0 6 -9 10 -20 10 -13 0 -20 7 -20 20 0 11 -4 20 -10 20 -5 0
-10 -9 -10 -20z"/>
<path d="M15700 5850 c0 -11 -5 -20 -11 -20 -8 0 -8 -4 -1 -13 6 -7 12 -35 14
-62 3 -46 5 -50 31 -53 31 -4 37 13 7 21 -16 4 -20 14 -20 46 0 34 3 41 20 41
11 0 20 5 20 10 0 6 -9 10 -20 10 -13 0 -20 7 -20 20 0 11 -4 20 -10 20 -5 0
-10 -9 -10 -20z"/>
<path d="M16374 5858 c-11 -18 -5 -129 8 -145 12 -15 48 -18 48 -3 0 6 -7 10
-15 10 -11 0 -15 12 -15 45 0 33 4 45 15 45 8 0 15 5 15 10 0 6 -7 10 -15 10
-8 0 -15 6 -15 14 0 20 -17 29 -26 14z"/>
<path d="M2647 5812 c-22 -25 -21 -75 1 -95 45 -41 112 -8 112 54 0 53 -77 81
-113 41z m84 -23 c16 -30 -3 -69 -34 -69 -29 0 -47 17 -47 45 0 45 60 63 81
24z"/>
<path d="M2790 5763 c0 -35 4 -63 10 -63 6 0 10 19 10 43 0 53 11 70 41 65 21
-3 24 -9 27 -55 2 -37 7 -53 17 -53 10 0 15 16 17 53 3 46 6 52 27 55 30 5 41
-12 41 -65 0 -24 5 -43 10 -43 13 0 13 86 0 111 -12 21 -59 26 -78 7 -8 -8
-15 -8 -25 0 -8 7 -33 11 -56 10 l-41 -1 0 -64z"/>
<path d="M3040 5733 c0 -55 4 -93 10 -93 6 0 10 15 10 34 0 34 0 34 39 29 32
-4 41 -2 55 18 20 29 20 58 0 87 -13 18 -24 22 -65 21 l-49 -2 0 -94z m100 58
c15 -30 -4 -71 -33 -71 -29 0 -47 17 -47 45 0 44 60 63 80 26z"/>
<path d="M3266 5808 c-34 -48 -7 -108 48 -108 19 0 39 7 46 15 16 20 5 32 -14
16 -20 -17 -60 -10 -64 12 -3 14 4 17 47 17 55 0 62 9 35 48 -10 15 -25 22
-49 22 -24 0 -39 -7 -49 -22z m82 -15 c2 -9 -8 -13 -32 -13 -34 0 -44 8 -29
24 11 11 56 2 61 -11z"/>
<path d="M3508 5818 c-16 -12 -22 -34 -19 -70 2 -26 30 -48 61 -48 31 0 72 31
50 38 -6 2 -17 -1 -23 -7 -24 -24 -67 -8 -67 25 0 2 23 4 50 4 43 0 50 3 50
19 0 43 -65 68 -102 39z m76 -23 c4 -12 -3 -15 -34 -15 -31 0 -38 3 -34 15 4
8 18 15 34 15 16 0 30 -7 34 -15z"/>
<path d="M3876 5808 c-34 -48 -7 -108 48 -108 19 0 40 8 49 18 22 25 21 75 -1
95 -27 25 -78 22 -96 -5z m82 -10 c7 -7 12 -21 12 -33 0 -47 -62 -63 -81 -21
-22 47 33 90 69 54z"/>
<path d="M4020 5763 c0 -35 4 -63 10 -63 6 0 10 19 10 43 0 48 13 67 46 67 24
0 34 -23 34 -77 0 -18 5 -33 10 -33 13 0 13 86 0 111 -9 16 -20 19 -60 18
l-50 -2 0 -64z"/>
<path d="M4170 5815 c0 -9 5 -15 11 -13 6 2 11 8 11 13 0 5 -5 11 -11 13 -6 2
-11 -4 -11 -13z"/>
<path d="M4371 5816 c-18 -22 2 -53 39 -61 37 -8 41 -35 5 -35 -14 0 -25 5
-25 10 0 6 -7 10 -15 10 -8 0 -15 -4 -15 -9 0 -18 30 -32 62 -29 27 2 34 8 36
30 3 22 -2 28 -32 39 -20 7 -36 19 -36 26 0 16 32 17 48 1 17 -17 28 -2 12 17
-16 19 -64 20 -79 1z"/>
<path d="M4810 5733 c0 -55 4 -93 10 -93 6 0 10 15 10 34 0 34 0 34 39 29 32
-4 41 -2 55 18 20 29 20 58 0 87 -13 18 -24 22 -65 21 l-49 -2 0 -94z m100 58
c15 -30 -4 -71 -33 -71 -29 0 -47 17 -47 45 0 44 60 63 80 26z"/>
<path d="M4970 5763 c0 -35 4 -63 10 -63 6 0 10 20 10 45 0 34 5 48 20 57 28
18 25 27 -10 26 l-30 -1 0 -64z"/>
<path d="M5060 5765 c0 -37 4 -65 10 -65 6 0 10 28 10 65 0 37 -4 65 -10 65
-6 0 -10 -28 -10 -65z"/>
<path d="M7870 5734 c0 -77 3 -94 15 -94 10 0 15 10 15 33 0 31 2 33 29 29 16
-2 38 1 49 7 29 15 38 66 18 96 -14 22 -23 25 -71 24 l-55 -2 0 -93z m105 37
c0 -60 -65 -70 -73 -12 -6 39 5 53 40 49 30 -3 33 -6 33 -37z"/>
<path d="M8046 5812 c-21 -25 -20 -75 2 -95 22 -20 63 -22 80 -5 9 9 12 9 12
0 0 -7 5 -12 10 -12 6 0 10 28 10 63 l0 63 -49 2 c-36 1 -52 -3 -65 -16z m85
-23 c18 -34 -4 -71 -38 -67 -34 4 -54 48 -33 72 18 23 57 20 71 -5z"/>
<path d="M8200 5763 c0 -35 4 -63 10 -63 6 0 10 20 10 45 0 34 5 48 20 57 28
18 25 27 -10 26 l-30 -1 0 -64z"/>
<path d="M8380 5765 c0 -37 4 -65 10 -65 6 0 10 28 10 65 0 37 -4 65 -10 65
-6 0 -10 -28 -10 -65z"/>
<path d="M8453 5822 c-32 -20 -32 -94 0 -114 21 -13 65 -9 82 8 22 22 11 30
-19 14 -43 -23 -74 5 -62 55 5 20 13 25 36 25 17 0 30 -4 30 -10 0 -5 7 -10
15 -10 13 0 14 4 5 20 -11 21 -62 28 -87 12z"/>
<path d="M8580 5765 c0 -37 4 -65 10 -65 6 0 10 28 10 65 0 37 -4 65 -10 65
-6 0 -10 -28 -10 -65z"/>
<path d="M8640 5735 c0 -57 4 -95 10 -95 6 0 10 19 10 42 0 33 3 39 12 30 18
-18 63 -14 81 6 22 25 21 75 -1 95 -22 20 -63 22 -80 5 -9 -9 -12 -9 -12 0 0
7 -4 12 -10 12 -6 0 -10 -38 -10 -95z m100 59 c10 -11 11 -23 4 -42 -7 -21
-16 -27 -39 -27 -23 0 -32 6 -39 27 -11 33 6 58 39 58 12 0 28 -7 35 -16z"/>
<path d="M8806 5808 c-40 -57 -4 -108 74 -107 l50 2 0 62 0 62 -54 2 c-46 1
-57 -3 -70 -21z m90 -25 c12 -45 -28 -80 -61 -53 -15 13 -20 61 -8 73 3 4 19
7 34 7 23 0 30 -6 35 -27z"/>
<path d="M8960 5764 c0 -49 3 -64 14 -64 11 0 16 15 18 53 3 46 6 52 27 55 30
5 41 -12 41 -65 0 -24 5 -43 10 -43 15 0 12 106 -3 118 -7 6 -34 11 -60 10
l-47 -1 0 -63z"/>
<path d="M9204 5815 c-10 -25 3 -44 41 -59 20 -9 34 -20 30 -26 -8 -14 -38
-13 -53 2 -17 17 -28 2 -12 -17 16 -19 64 -19 80 0 18 22 6 42 -35 59 -41 17
-46 36 -10 36 14 0 25 -4 25 -10 0 -5 7 -10 15 -10 18 0 19 12 3 28 -17 17
-77 15 -84 -3z"/>
<path d="M9396 5798 c-15 -34 -7 -75 17 -90 18 -12 62 -9 75 4 9 9 12 9 12 0
0 -7 5 -12 10 -12 6 0 10 28 10 63 l0 63 -55 2 c-54 2 -56 1 -69 -30z m93 -10
c12 -31 -2 -62 -28 -66 -28 -4 -51 14 -51 42 0 47 63 66 79 24z"/>
<path d="M9746 5808 c-20 -28 -20 -57 0 -86 17 -24 62 -30 82 -10 9 9 12 9 12
0 0 -7 5 -12 10 -12 6 0 10 28 10 63 l0 64 -49 2 c-41 1 -52 -3 -65 -21z m82
-10 c7 -7 12 -21 12 -33 0 -47 -62 -63 -81 -21 -22 47 33 90 69 54z"/>
<path d="M9900 5763 c0 -35 4 -63 10 -63 6 0 10 16 10 36 0 42 15 74 35 74 8
0 15 4 15 10 0 5 -16 9 -35 8 l-35 -1 0 -64z"/>
<path d="M9996 5808 c-34 -48 -7 -108 48 -108 19 0 40 8 49 18 22 25 21 75 -1
95 -27 25 -78 22 -96 -5z m82 -10 c7 -7 12 -21 12 -33 0 -47 -62 -63 -81 -21
-22 47 33 90 69 54z"/>
<path d="M10140 5781 c0 -64 17 -81 75 -79 l45 2 0 63 c0 35 -4 63 -10 63 -5
0 -10 -19 -10 -43 0 -46 -13 -67 -42 -67 -21 0 -38 36 -38 81 0 16 -4 29 -10
29 -5 0 -10 -22 -10 -49z"/>
<path d="M10300 5763 c0 -76 18 -85 22 -10 3 50 4 52 33 52 29 0 30 -2 33 -52
4 -69 22 -68 22 1 0 64 -12 77 -69 74 l-41 -1 0 -64z"/>
<path d="M10927 5812 c-22 -25 -21 -75 1 -95 23 -21 75 -22 92 -2 16 19 5 34
-12 17 -15 -15 -51 -15 -66 0 -22 22 -13 28 43 28 60 0 67 9 39 48 -19 28 -74
30 -97 4z m81 -19 c2 -9 -9 -13 -38 -13 -37 0 -41 2 -30 16 15 17 61 15 68 -3z"/>
<path d="M11136 5808 c-20 -28 -20 -57 0 -86 17 -24 62 -30 82 -10 9 9 12 9
12 0 0 -7 5 -12 10 -12 6 0 10 28 10 63 l0 64 -49 2 c-41 1 -52 -3 -65 -21z
m82 -10 c7 -7 12 -21 12 -33 0 -47 -62 -63 -81 -21 -22 47 33 90 69 54z"/>
<path d="M11296 5808 c-37 -53 -1 -115 61 -105 31 5 34 4 31 -16 -2 -17 -11
-23 -35 -25 -19 -2 -33 1 -33 7 0 6 -7 11 -15 11 -19 0 -19 -14 1 -30 25 -21
75 -16 96 9 14 18 18 40 18 96 l0 72 -54 2 c-46 1 -57 -3 -70 -21z m90 -25
c12 -45 -28 -80 -61 -53 -15 13 -20 61 -8 73 3 4 19 7 34 7 23 0 30 -6 35 -27z"/>
<path d="M11468 5818 c-16 -12 -22 -34 -19 -70 2 -26 30 -48 61 -48 31 0 72
31 50 38 -6 2 -17 -1 -23 -7 -24 -24 -67 -8 -67 25 0 2 23 4 50 4 43 0 50 3
50 19 0 43 -65 68 -102 39z m76 -23 c4 -12 -3 -15 -34 -15 -31 0 -38 3 -34 15
4 8 18 15 34 15 16 0 30 -7 34 -15z"/>
<path d="M12740 5734 c0 -77 3 -94 15 -94 10 0 15 10 15 33 0 31 2 33 29 29
16 -2 38 1 49 7 29 15 38 66 18 96 -14 22 -23 25 -71 24 l-55 -2 0 -93z m105
37 c0 -60 -65 -70 -73 -12 -6 39 5 53 40 49 30 -3 33 -6 33 -37z"/>
<path d="M12916 5812 c-21 -25 -20 -75 2 -95 22 -20 63 -22 80 -5 9 9 12 9 12
0 0 -7 5 -12 10 -12 6 0 10 28 10 63 l0 63 -49 2 c-36 1 -52 -3 -65 -16z m85
-23 c18 -34 -4 -71 -38 -67 -34 4 -54 48 -33 72 18 23 57 20 71 -5z"/>
<path d="M13070 5763 c0 -35 4 -63 10 -63 6 0 10 20 10 45 0 34 5 48 20 57 28
18 25 27 -10 26 l-30 -1 0 -64z"/>
<path d="M13250 5765 c0 -37 4 -65 10 -65 6 0 10 28 10 65 0 37 -4 65 -10 65
-6 0 -10 -28 -10 -65z"/>
<path d="M13323 5822 c-32 -20 -32 -94 0 -114 21 -13 65 -9 82 8 22 22 11 30
-19 14 -43 -23 -74 5 -62 55 5 20 13 25 36 25 17 0 30 -4 30 -10 0 -5 7 -10
15 -10 13 0 14 4 5 20 -11 21 -62 28 -87 12z"/>
<path d="M13450 5765 c0 -37 4 -65 10 -65 6 0 10 28 10 65 0 37 -4 65 -10 65
-6 0 -10 -28 -10 -65z"/>
<path d="M13510 5735 c0 -57 4 -95 10 -95 6 0 10 19 10 42 0 33 3 39 12 30 18
-18 63 -14 81 6 22 25 21 75 -1 95 -22 20 -63 22 -80 5 -9 -9 -12 -9 -12 0 0
7 -4 12 -10 12 -6 0 -10 -38 -10 -95z m100 59 c10 -11 11 -23 4 -42 -7 -21
-16 -27 -39 -27 -23 0 -32 6 -39 27 -11 33 6 58 39 58 12 0 28 -7 35 -16z"/>
<path d="M13676 5808 c-40 -57 -4 -108 74 -107 l50 2 0 62 0 62 -54 2 c-46 1
-57 -3 -70 -21z m90 -25 c12 -45 -28 -80 -61 -53 -15 13 -20 61 -8 73 3 4 19
7 34 7 23 0 30 -6 35 -27z"/>
<path d="M13830 5764 c0 -49 3 -64 14 -64 11 0 16 15 18 53 3 46 6 52 27 55
30 5 41 -12 41 -65 0 -24 5 -43 10 -43 15 0 12 106 -3 118 -7 6 -34 11 -60 10
l-47 -1 0 -63z"/>
<path d="M14074 5815 c-10 -25 3 -44 41 -59 20 -9 34 -20 30 -26 -8 -14 -38
-13 -53 2 -17 17 -28 2 -12 -17 16 -19 64 -19 80 0 18 22 6 42 -35 59 -41 17
-46 36 -10 36 14 0 25 -4 25 -10 0 -5 7 -10 15 -10 18 0 19 12 3 28 -17 17
-77 15 -84 -3z"/>
<path d="M14256 5803 c27 -108 49 -124 73 -53 l15 45 15 -47 c8 -27 20 -48 27
-48 8 0 21 26 30 58 9 31 18 60 21 65 2 4 -2 7 -11 7 -9 0 -17 -14 -21 -38
-10 -63 -20 -66 -34 -12 -16 63 -37 65 -52 5 -6 -25 -15 -45 -19 -45 -4 0 -11
19 -16 42 -5 23 -15 43 -22 46 -10 3 -11 -3 -6 -25z"/>
<path d="M14466 5808 c-34 -48 -7 -108 48 -108 19 0 39 7 46 15 16 20 5 32
-14 16 -20 -17 -60 -10 -64 12 -3 14 4 17 47 17 55 0 62 9 35 48 -10 15 -25
22 -49 22 -24 0 -39 -7 -49 -22z m82 -15 c2 -9 -8 -13 -32 -13 -34 0 -44 8
-29 24 11 11 56 2 61 -11z"/>
<path d="M14610 5763 c0 -35 4 -63 10 -63 6 0 10 20 10 45 0 34 5 48 20 57 28
18 25 27 -10 26 l-30 -1 0 -64z"/>
<path d="M14706 5808 c-34 -48 -7 -108 48 -108 19 0 39 7 46 15 16 20 5 32
-14 16 -20 -17 -60 -10 -64 12 -3 14 4 17 47 17 55 0 62 9 35 48 -10 15 -25
22 -49 22 -24 0 -39 -7 -49 -22z m82 -15 c2 -9 -8 -13 -32 -13 -34 0 -44 8
-29 24 11 11 56 2 61 -11z"/>
<path d="M14916 5808 c-40 -57 -4 -108 74 -107 l50 2 0 62 0 62 -54 2 c-46 1
-57 -3 -70 -21z m90 -25 c12 -45 -28 -80 -61 -53 -15 13 -20 61 -8 73 3 4 19
7 34 7 23 0 30 -6 35 -27z"/>
<path d="M15074 5815 c-10 -25 3 -44 41 -59 20 -9 34 -20 30 -26 -8 -14 -38
-13 -53 2 -17 17 -28 2 -12 -17 16 -19 64 -19 80 0 18 22 6 42 -35 59 -41 17
-46 36 -10 36 14 0 25 -4 25 -10 0 -5 7 -10 15 -10 18 0 19 12 3 28 -17 17
-77 15 -84 -3z"/>
<path d="M15326 5808 c-34 -48 -4 -108 52 -108 16 0 37 9 47 20 14 16 15 20 4
20 -8 0 -20 -5 -26 -11 -16 -16 -57 -7 -61 14 -3 14 4 17 47 17 43 0 51 3 51
18 0 49 -85 71 -114 30z m84 -13 c11 -13 7 -15 -29 -15 -38 0 -50 8 -34 23 12
12 50 7 63 -8z"/>
<path d="M15796 5814 c-40 -40 -11 -114 46 -114 56 0 86 60 52 108 -18 26 -74
30 -98 6z m82 -46 c3 -33 0 -38 -23 -44 -31 -8 -55 10 -55 40 0 30 20 47 50
44 21 -3 25 -9 28 -40z"/>
<path d="M16007 5823 c-4 -3 -7 -16 -7 -29 0 -17 9 -25 35 -34 40 -13 47 -40
11 -40 -13 0 -26 5 -28 12 -2 6 -10 9 -17 7 -23 -8 17 -39 49 -39 30 0 51 24
43 48 -3 7 -20 19 -39 27 -19 8 -34 19 -34 24 0 15 47 14 53 -1 2 -7 8 -10 12
-6 4 4 5 14 2 23 -6 15 -67 22 -80 8z"/>
<path d="M16137 5812 c-22 -25 -21 -75 1 -95 45 -41 112 -8 112 54 0 53 -77
81 -113 41z m84 -23 c16 -30 -3 -69 -34 -69 -29 0 -47 17 -47 45 0 45 60 63
81 24z"/>
<path d="M16280 5763 c0 -35 4 -63 10 -63 6 0 10 16 10 36 0 42 15 74 35 74 8
0 15 4 15 10 0 5 -16 9 -35 8 l-35 -1 0 -64z"/>
<path d="M4170 5715 c0 -9 5 -15 11 -13 6 2 11 8 11 13 0 5 -5 11 -11 13 -6 2
-11 -4 -11 -13z"/>
<path d="M2790 5311 c0 -73 3 -91 14 -91 11 0 16 15 18 53 3 46 6 52 27 55 30
5 41 -12 41 -65 0 -24 5 -43 10 -43 6 0 10 24 10 54 0 62 -15 80 -59 74 -26
-4 -30 -1 -33 21 -2 13 -9 26 -15 29 -10 3 -13 -19 -13 -87z"/>
<path d="M4297 5393 c-4 -3 -7 -14 -7 -24 0 -9 -6 -20 -12 -23 -10 -5 -10 -7
0 -12 7 -3 12 -26 12 -60 0 -30 5 -54 10 -54 6 0 10 25 10 55 0 42 3 55 15 55
8 0 15 5 15 10 0 6 -7 10 -15 10 -8 0 -15 5 -15 10 0 6 7 13 15 16 8 4 15 10
15 15 0 10 -33 12 -43 2z"/>
<path d="M4446 5384 c-16 -15 -22 -44 -10 -44 3 0 13 9 22 21 22 27 52 16 52
-19 0 -17 -15 -39 -45 -69 -25 -23 -45 -45 -45 -48 0 -3 27 -5 60 -5 33 0 60
4 60 10 0 6 -18 10 -39 10 l-39 0 34 34 c42 42 49 88 16 114 -22 16 -47 15
-66 -4z"/>
<path d="M4877 5394 c-8 -8 1 -24 14 -24 5 0 9 7 9 15 0 15 -12 20 -23 9z"/>
<path d="M7907 5393 c-4 -3 -7 -14 -7 -24 0 -9 -6 -20 -12 -23 -10 -5 -10 -7
0 -12 7 -3 12 -26 12 -60 0 -30 5 -54 10 -54 6 0 10 25 10 55 0 42 3 55 15 55
8 0 15 5 15 10 0 6 -7 10 -15 10 -20 0 -19 20 3 36 16 12 16 13 -4 14 -11 0
-24 -3 -27 -7z"/>
<path d="M8052 5384 c-22 -15 -30 -44 -13 -44 5 0 15 10 24 23 12 18 18 20 34
11 31 -19 26 -42 -21 -92 -25 -27 -46 -52 -46 -56 0 -3 27 -6 60 -6 33 0 60 4
60 10 0 6 -19 10 -41 10 l-41 0 36 40 c21 23 36 50 36 64 0 24 -32 56 -55 56
-6 0 -21 -7 -33 -16z"/>
<path d="M8402 5384 c-12 -8 -22 -22 -22 -30 0 -20 9 -18 29 8 24 28 51 18 51
-20 0 -19 -12 -40 -40 -67 -22 -21 -40 -43 -40 -47 0 -4 25 -8 55 -8 30 0 55
5 55 10 0 6 -16 10 -36 10 l-36 0 36 40 c21 23 36 50 36 64 0 24 -32 56 -55
56 -6 0 -21 -7 -33 -16z"/>
<path d="M9840 5310 c0 -53 4 -90 10 -90 6 0 10 37 10 90 0 53 -4 90 -10 90
-6 0 -10 -37 -10 -90z"/>
<path d="M10390 5371 c0 -28 -1 -28 -45 -23 -43 4 -45 3 -59 -29 -15 -35 -7
-76 17 -91 18 -12 62 -9 75 4 9 9 12 9 12 0 0 -7 5 -12 10 -12 6 0 10 37 10
90 0 53 -4 90 -10 90 -5 0 -10 -13 -10 -29z m-11 -63 c12 -31 -2 -62 -28 -66
-28 -4 -51 14 -51 42 0 47 63 66 79 24z"/>
<path d="M10600 5310 c0 -96 17 -125 22 -37 3 50 4 52 33 52 29 0 30 -2 33
-52 4 -69 22 -68 22 1 0 62 -15 80 -60 74 -27 -4 -30 -2 -30 24 0 15 -4 28
-10 28 -6 0 -10 -37 -10 -90z"/>
<path d="M11460 5371 c0 -28 -1 -29 -39 -24 -32 4 -41 2 -55 -18 -20 -29 -20
-58 0 -87 17 -24 62 -30 82 -10 9 9 12 9 12 0 0 -7 5 -12 10 -12 6 0 10 37 10
90 0 53 -4 90 -10 90 -5 0 -10 -13 -10 -29z m-12 -53 c7 -7 12 -21 12 -33 0
-47 -62 -63 -81 -21 -22 47 33 90 69 54z"/>
<path d="M13012 5389 c2 -6 8 -10 13 -10 5 0 11 4 13 10 2 6 -4 11 -13 11 -9
0 -15 -5 -13 -11z"/>
<path d="M13780 5372 c0 -26 -2 -27 -39 -24 -31 3 -42 0 -55 -19 -40 -58 -5
-109 74 -108 l50 2 0 88 c0 72 -3 89 -15 89 -10 0 -15 -10 -15 -28z m-4 -69
c12 -45 -28 -80 -61 -53 -15 13 -20 61 -8 73 3 4 19 7 34 7 23 0 30 -6 35 -27z"/>
<path d="M14030 5385 c0 -9 5 -15 11 -13 6 2 11 8 11 13 0 5 -5 11 -11 13 -6
2 -11 -4 -11 -13z"/>
<path d="M15712 5389 c2 -6 8 -10 13 -10 5 0 11 4 13 10 2 6 -4 11 -13 11 -9
0 -15 -5 -13 -11z"/>
<path d="M16290 5310 c0 -53 4 -90 10 -90 6 0 10 19 10 43 0 53 11 70 41 65
21 -3 24 -9 27 -55 2 -40 7 -53 19 -53 13 0 15 10 11 56 -5 63 -18 76 -65 71
-30 -3 -33 -1 -33 25 0 15 -4 28 -10 28 -6 0 -10 -37 -10 -90z"/>
<path d="M2140 5305 l0 -85 40 0 c22 0 40 5 40 10 0 6 -13 10 -30 10 l-30 0 0
75 c0 43 -4 75 -10 75 -6 0 -10 -35 -10 -85z"/>
<path d="M2710 5370 c0 -11 -5 -20 -11 -20 -8 0 -8 -4 -1 -13 6 -7 12 -35 14
-62 3 -46 5 -50 31 -53 31 -4 37 13 7 21 -16 4 -20 14 -20 46 0 34 3 41 20 41
11 0 20 5 20 10 0 6 -9 10 -20 10 -13 0 -20 7 -20 20 0 11 -4 20 -10 20 -5 0
-10 -9 -10 -20z"/>
<path d="M5270 5380 c0 -5 5 -10 10 -10 6 0 10 -32 10 -75 0 -60 3 -75 15 -75
12 0 15 16 15 85 0 84 0 85 -25 85 -14 0 -25 -4 -25 -10z"/>
<path d="M5360 5347 c0 -52 8 -62 31 -41 11 10 25 13 39 9 17 -5 20 -13 18
-38 -3 -36 -36 -49 -58 -22 -16 19 -30 19 -30 0 0 -18 31 -35 64 -35 27 0 56
32 56 62 0 32 -38 61 -71 54 -24 -5 -29 -2 -29 14 0 17 7 20 39 20 22 0 43 5
46 10 4 6 -15 10 -49 10 l-56 0 0 -43z"/>
<path d="M8170 5380 c0 -5 5 -10 10 -10 6 0 10 -32 10 -75 0 -43 4 -75 10 -75
6 0 10 35 10 85 0 78 -2 85 -20 85 -11 0 -20 -4 -20 -10z"/>
<path d="M8510 5380 c0 -5 20 -10 45 -10 l44 0 -29 -69 c-33 -76 -34 -81 -21
-81 9 0 71 135 71 156 0 10 -15 14 -55 14 -30 0 -55 -4 -55 -10z"/>
<path d="M10050 5370 c0 -11 -5 -20 -11 -20 -8 0 -8 -4 -1 -13 6 -7 12 -35 14
-62 3 -46 5 -50 31 -53 31 -4 37 13 7 21 -16 4 -20 14 -20 46 0 34 3 41 20 41
11 0 20 5 20 10 0 6 -9 10 -20 10 -13 0 -20 7 -20 20 0 11 -4 20 -10 20 -5 0
-10 -9 -10 -20z"/>
<path d="M10514 5378 c-11 -18 -5 -129 8 -145 12 -15 48 -18 48 -3 0 6 -7 10
-15 10 -11 0 -15 12 -15 45 0 33 4 45 15 45 8 0 15 5 15 10 0 6 -7 10 -15 10
-8 0 -15 6 -15 14 0 20 -17 29 -26 14z"/>
<path d="M12611 5368 c-8 -23 1 -117 14 -138 8 -13 45 -13 45 0 0 6 -7 10 -15
10 -11 0 -15 12 -15 45 0 33 4 45 15 45 8 0 15 5 15 10 0 6 -7 10 -15 10 -8 0
-15 6 -15 14 0 26 -20 28 -29 4z"/>
<path d="M14250 5371 c0 -11 -6 -22 -12 -25 -10 -5 -10 -7 0 -12 7 -3 12 -25
12 -55 0 -52 11 -65 47 -56 16 4 15 6 -4 12 -19 6 -23 15 -23 50 0 35 4 44 23
50 l22 8 -22 4 c-15 3 -23 12 -23 24 0 10 -4 19 -10 19 -5 0 -10 -9 -10 -19z"/>
<path d="M14550 5347 c0 -52 8 -62 31 -41 11 10 25 13 39 9 17 -5 20 -13 18
-38 -3 -36 -36 -49 -58 -22 -16 19 -30 19 -30 0 0 -18 31 -35 64 -35 27 0 56
32 56 62 0 32 -38 61 -71 54 -24 -5 -29 -2 -29 14 0 17 7 20 39 20 22 0 43 5
46 10 4 6 -15 10 -49 10 l-56 0 0 -43z"/>
<path d="M15071 5368 c-8 -23 1 -117 14 -138 8 -13 45 -13 45 0 0 6 -7 10 -15
10 -11 0 -15 12 -15 45 0 33 4 45 15 45 8 0 15 5 15 10 0 6 -7 10 -15 10 -8 0
-15 6 -15 14 0 26 -20 28 -29 4z"/>
<path d="M16150 5380 c0 -5 11 -10 25 -10 24 0 25 -2 25 -75 0 -43 4 -75 10
-75 6 0 10 32 10 75 0 68 2 75 20 75 11 0 20 5 20 10 0 6 -25 10 -55 10 -30 0
-55 -4 -55 -10z"/>
<path d="M2246 5328 c-34 -48 -4 -108 52 -108 16 0 37 9 47 20 14 16 15 20 4
20 -8 0 -20 -5 -26 -11 -16 -16 -57 -7 -61 14 -3 14 4 17 47 17 43 0 51 3 51
18 0 49 -85 71 -114 30z m84 -13 c11 -13 7 -15 -29 -15 -38 0 -50 8 -34 23 12
12 50 7 63 -8z"/>
<path d="M2390 5283 c0 -35 4 -63 10 -63 6 0 10 19 10 43 0 48 13 67 46 67 24
0 34 -23 34 -77 0 -18 5 -33 10 -33 13 0 13 86 0 111 -9 16 -20 19 -60 18
l-50 -2 0 -64z"/>
<path d="M2546 5318 c-15 -34 -7 -75 17 -90 18 -12 62 -9 75 4 16 16 17 -5 2
-33 -11 -20 -54 -26 -65 -9 -10 16 -35 12 -29 -5 7 -16 49 -31 74 -26 39 8 50
32 50 110 l0 77 -55 2 c-54 2 -56 1 -69 -30z m93 -10 c12 -31 -2 -62 -28 -66
-28 -4 -51 14 -51 42 0 47 63 66 79 24z"/>
<path d="M2940 5335 c0 -9 5 -15 11 -13 6 2 11 8 11 13 0 5 -5 11 -11 13 -6 2
-11 -4 -11 -13z"/>
<path d="M3066 5328 c-40 -57 -4 -108 74 -107 l50 2 0 62 0 62 -54 2 c-46 1
-57 -3 -70 -21z m90 -25 c12 -45 -28 -80 -61 -53 -15 13 -20 61 -8 73 3 4 19
7 34 7 23 0 30 -6 35 -27z"/>
<path d="M3210 5347 c0 -1 10 -30 23 -62 31 -79 48 -81 75 -10 24 62 26 75 13
75 -4 0 -17 -24 -29 -52 -17 -44 -21 -50 -27 -33 -25 65 -35 85 -44 85 -6 0
-11 -1 -11 -3z"/>
<path d="M3366 5328 c-34 -48 -7 -108 48 -108 19 0 39 7 46 15 16 20 5 32 -14
16 -20 -17 -60 -10 -64 12 -3 14 4 17 47 17 55 0 62 9 35 48 -10 15 -25 22
-49 22 -24 0 -39 -7 -49 -22z m82 -15 c2 -9 -8 -13 -32 -13 -34 0 -44 8 -29
24 11 11 56 2 61 -11z"/>
<path d="M3510 5283 c0 -35 4 -63 10 -63 6 0 10 23 10 51 0 42 3 52 20 56 30
8 24 22 -10 21 l-30 -1 0 -64z"/>
<path d="M3606 5332 c-21 -25 -20 -75 2 -95 22 -20 63 -22 80 -5 9 9 12 9 12
0 0 -7 5 -12 10 -12 6 0 10 28 10 63 l0 63 -49 2 c-36 1 -52 -3 -65 -16z m85
-23 c18 -34 -4 -71 -38 -67 -34 4 -54 48 -33 72 18 23 57 20 71 -5z"/>
<path d="M3766 5328 c-20 -28 -20 -58 0 -86 17 -25 62 -30 83 -9 10 10 12 6 9
-18 -2 -24 -8 -31 -31 -33 -16 -2 -35 2 -43 9 -21 17 -31 2 -11 -18 19 -20 70
-21 91 -3 12 9 16 32 16 94 l0 82 -49 2 c-42 2 -53 -2 -65 -20z m82 -10 c7 -7
12 -21 12 -33 0 -47 -62 -63 -81 -21 -22 47 33 90 69 54z"/>
<path d="M3926 5328 c-34 -48 -4 -108 52 -108 16 0 37 9 47 20 14 16 15 20 4
20 -8 0 -20 -5 -26 -11 -16 -16 -57 -7 -61 14 -3 14 4 17 47 17 43 0 51 3 51
18 0 49 -85 71 -114 30z m84 -13 c11 -13 7 -15 -29 -15 -38 0 -50 8 -34 23 12
12 50 7 63 -8z"/>
<path d="M4146 5334 c-40 -40 -11 -114 46 -114 56 0 86 60 52 108 -18 26 -74
30 -98 6z m82 -46 c3 -33 0 -38 -23 -44 -31 -8 -55 10 -55 40 0 30 20 47 50
44 21 -3 25 -9 28 -40z"/>
<path d="M4630 5283 c0 -35 4 -63 10 -63 6 0 10 16 10 36 0 46 16 74 41 74 22
0 39 -35 39 -81 0 -51 19 -31 22 24 3 50 4 52 33 52 29 0 30 -2 33 -52 2 -29
7 -53 13 -53 13 0 11 104 -3 118 -15 15 -64 16 -73 2 -5 -8 -11 -8 -20 0 -7 5
-33 9 -59 9 l-46 -2 0 -64z"/>
<path d="M4880 5285 c0 -37 4 -65 10 -65 6 0 10 28 10 65 0 37 -4 65 -10 65
-6 0 -10 -28 -10 -65z"/>
<path d="M4940 5283 c0 -35 4 -63 10 -63 6 0 10 19 10 43 0 53 11 70 41 65 21
-3 24 -9 27 -55 2 -38 7 -53 18 -53 10 0 14 12 14 46 0 71 -12 85 -70 83 l-50
-2 0 -64z"/>
<path d="M5097 5343 c-4 -3 -7 -16 -7 -29 0 -17 9 -25 35 -34 40 -13 47 -40
11 -40 -13 0 -26 5 -28 12 -2 6 -10 9 -17 7 -23 -8 17 -39 49 -39 30 0 51 24
43 48 -3 7 -20 19 -39 27 -19 8 -34 19 -34 24 0 15 47 14 53 -1 2 -7 8 -10 12
-6 4 4 5 14 2 23 -6 15 -67 22 -80 8z"/>
<path d="M5577 5343 c-4 -3 -7 -16 -7 -29 0 -17 9 -25 35 -34 40 -13 47 -40
11 -40 -13 0 -26 5 -28 12 -2 6 -10 9 -17 7 -23 -8 17 -39 49 -39 30 0 51 24
43 48 -3 7 -20 19 -39 27 -19 8 -34 19 -34 24 0 15 47 14 53 -1 2 -7 8 -10 12
-6 4 4 5 14 2 23 -6 15 -67 22 -80 8z"/>
<path d="M5706 5328 c-34 -48 -7 -108 48 -108 19 0 39 7 46 15 16 20 5 32 -14
16 -20 -17 -60 -10 -64 12 -3 14 4 17 47 17 55 0 62 9 35 48 -10 15 -25 22
-49 22 -24 0 -39 -7 -49 -22z m82 -15 c2 -9 -8 -13 -32 -13 -34 0 -44 8 -29
24 11 11 56 2 61 -11z"/>
<path d="M5857 5332 c-10 -10 -17 -32 -17 -49 0 -52 52 -79 101 -53 23 13 25
30 4 30 -8 0 -15 -4 -15 -10 0 -14 -43 -13 -58 2 -7 7 -12 21 -12 33 0 40 50
61 78 33 17 -17 28 -2 12 17 -17 21 -73 19 -93 -3z"/>
<path d="M5997 5343 c-4 -3 -7 -16 -7 -29 0 -17 9 -25 35 -34 40 -13 47 -40
11 -40 -13 0 -26 5 -28 12 -2 6 -10 9 -17 7 -23 -8 17 -39 49 -39 30 0 51 24
43 48 -3 7 -20 19 -39 27 -19 8 -34 19 -34 24 0 15 47 14 53 -1 2 -7 8 -10 12
-6 4 4 5 14 2 23 -6 15 -67 22 -80 8z"/>
<path d="M7746 5328 c-52 -74 48 -151 104 -81 38 48 8 103 -56 103 -23 0 -38
-7 -48 -22z m90 -25 c9 -35 -7 -58 -42 -58 -24 0 -30 5 -32 28 -5 43 4 57 37
57 25 0 32 -5 37 -27z"/>
<path d="M8722 5298 c23 -56 27 -91 13 -122 -6 -14 -5 -18 5 -14 12 4 36 54
81 166 6 17 5 22 -6 22 -8 0 -15 -6 -16 -12 0 -7 -8 -31 -18 -53 l-18 -40 -17
53 c-10 30 -24 52 -32 52 -11 0 -9 -11 8 -52z"/>
<path d="M8850 5283 c0 -35 4 -63 10 -63 6 0 10 16 10 36 0 42 15 74 35 74 8
0 15 4 15 10 0 5 -16 9 -35 8 l-35 -1 0 -64z"/>
<path d="M8947 5343 c-4 -3 -7 -16 -7 -29 0 -17 9 -25 35 -34 40 -13 47 -40
11 -40 -13 0 -26 5 -28 12 -2 6 -10 9 -17 7 -23 -8 17 -39 49 -39 30 0 51 24
43 48 -3 7 -20 19 -39 27 -19 8 -34 19 -34 24 0 15 47 14 53 -1 2 -7 8 -10 12
-6 4 4 5 14 2 23 -6 15 -67 22 -80 8z"/>
<path d="M9136 5328 c-34 -48 -4 -108 52 -108 16 0 37 9 47 20 14 16 15 20 4
20 -8 0 -20 -5 -26 -11 -6 -6 -21 -9 -34 -7 -21 3 -24 9 -24 43 0 34 3 40 24
43 13 2 28 -1 34 -7 6 -6 18 -11 26 -11 11 0 10 4 -4 20 -25 28 -79 27 -99 -2z"/>
<path d="M9287 5332 c-22 -25 -21 -75 1 -95 45 -41 112 -8 112 54 0 53 -77 81
-113 41z m84 -23 c16 -30 -3 -69 -34 -69 -29 0 -47 17 -47 45 0 45 60 63 81
24z"/>
<path d="M9430 5283 c0 -35 4 -63 10 -63 6 0 10 16 10 36 0 46 16 74 41 74 22
0 39 -35 39 -81 0 -51 19 -31 22 24 3 50 4 52 33 52 29 0 30 -2 33 -52 2 -29
7 -53 13 -53 13 0 11 104 -3 118 -15 15 -64 16 -73 2 -5 -8 -11 -8 -20 0 -7 5
-33 9 -59 9 l-46 -2 0 -64z"/>
<path d="M9680 5253 c0 -55 4 -93 10 -93 6 0 10 15 10 34 0 34 0 34 39 29 32
-4 41 -2 55 18 20 29 20 58 0 87 -13 18 -24 22 -65 21 l-49 -2 0 -94z m100 58
c15 -30 -4 -71 -33 -71 -29 0 -47 17 -47 45 0 44 60 63 80 26z"/>
<path d="M9906 5328 c-34 -48 -7 -108 48 -108 19 0 39 7 46 15 16 20 5 32 -14
16 -20 -17 -60 -10 -64 12 -3 14 4 17 47 17 55 0 62 9 35 48 -10 15 -25 22
-49 22 -24 0 -39 -7 -49 -22z m82 -15 c2 -9 -8 -13 -32 -13 -34 0 -44 8 -29
24 11 11 56 2 61 -11z"/>
<path d="M10148 5338 c-16 -12 -22 -34 -19 -70 2 -26 30 -48 61 -48 31 0 72
31 50 38 -6 2 -17 -1 -23 -7 -24 -24 -67 -8 -67 25 0 2 23 4 50 4 43 0 50 3
50 19 0 43 -65 68 -102 39z m76 -23 c4 -12 -3 -15 -34 -15 -31 0 -38 3 -34 15
4 8 18 15 34 15 16 0 30 -7 34 -15z"/>
<path d="M10756 5328 c-34 -48 -7 -108 48 -108 19 0 39 7 46 15 16 20 5 32
-14 16 -20 -17 -60 -10 -64 12 -3 14 4 17 47 17 55 0 62 9 35 48 -10 15 -25
22 -49 22 -24 0 -39 -7 -49 -22z m82 -15 c2 -9 -8 -13 -32 -13 -34 0 -44 8
-29 24 11 11 56 2 61 -11z"/>
<path d="M10983 5342 c-32 -20 -32 -94 0 -114 21 -13 65 -9 82 8 22 22 11 30
-19 14 -43 -23 -74 5 -62 55 5 20 13 25 36 25 17 0 30 -4 30 -10 0 -5 7 -10
15 -10 13 0 14 4 5 20 -11 21 -62 28 -87 12z"/>
<path d="M11116 5328 c-20 -28 -20 -57 0 -86 17 -24 62 -30 82 -10 9 9 12 9
12 0 0 -7 5 -12 10 -12 6 0 10 28 10 63 l0 64 -49 2 c-41 1 -52 -3 -65 -21z
m82 -10 c7 -7 12 -21 12 -33 0 -47 -62 -63 -81 -21 -22 47 33 90 69 54z"/>
<path d="M11270 5283 c0 -35 4 -63 10 -63 6 0 10 16 10 36 0 42 15 74 35 74 8
0 15 4 15 10 0 5 -16 9 -35 8 l-35 -1 0 -64z"/>
<path d="M12706 5328 c-34 -48 -7 -108 48 -108 19 0 40 8 49 18 22 25 21 75
-1 95 -27 25 -78 22 -96 -5z m82 -10 c7 -7 12 -21 12 -33 0 -47 -62 -63 -81
-21 -22 47 33 90 69 54z"/>
<path d="M12850 5254 c0 -77 3 -94 15 -94 10 0 15 10 15 33 0 31 2 33 29 29
16 -2 38 1 49 7 29 15 38 66 18 96 -14 22 -23 25 -71 24 l-55 -2 0 -93z m105
37 c0 -60 -65 -70 -73 -12 -6 39 5 53 40 49 30 -3 33 -6 33 -37z"/>
<path d="M13010 5285 c0 -51 3 -65 15 -65 12 0 15 14 15 65 0 51 -3 65 -15 65
-12 0 -15 -14 -15 -65z"/>
<path d="M13093 5342 c-32 -20 -32 -94 0 -114 21 -13 65 -9 82 8 22 22 11 30
-19 14 -43 -23 -74 5 -62 55 5 20 13 25 36 25 17 0 30 -4 30 -10 0 -5 7 -10
15 -10 13 0 14 4 5 20 -11 21 -62 28 -87 12z"/>
<path d="M13303 5342 c-32 -20 -32 -94 0 -114 21 -13 65 -9 82 8 22 22 11 30
-19 14 -43 -23 -74 5 -62 55 5 20 13 25 36 25 17 0 30 -4 30 -10 0 -5 7 -10
15 -10 13 0 14 4 5 20 -11 21 -62 28 -87 12z"/>
<path d="M13436 5328 c-20 -28 -20 -57 0 -86 17 -24 62 -30 82 -10 9 9 12 9
12 0 0 -7 5 -12 10 -12 6 0 10 28 10 63 l0 64 -49 2 c-41 1 -52 -3 -65 -21z
m82 -10 c7 -7 12 -21 12 -33 0 -47 -62 -63 -81 -21 -22 47 33 90 69 54z"/>
<path d="M13590 5283 c0 -35 4 -63 10 -63 6 0 10 16 10 36 0 42 15 74 35 74 8
0 15 4 15 10 0 5 -16 9 -35 8 l-35 -1 0 -64z"/>
<path d="M13844 5335 c-10 -25 3 -44 41 -59 20 -9 34 -20 30 -26 -8 -14 -38
-13 -53 2 -17 17 -28 2 -12 -17 16 -19 64 -19 80 0 18 22 6 42 -35 59 -41 17
-46 36 -10 36 14 0 25 -4 25 -10 0 -5 7 -10 15 -10 18 0 19 12 3 28 -17 17
-77 15 -84 -3z"/>
<path d="M14030 5285 c0 -37 4 -65 10 -65 6 0 10 28 10 65 0 37 -4 65 -10 65
-6 0 -10 -28 -10 -65z"/>
<path d="M14090 5283 c0 -35 4 -63 10 -63 6 0 10 19 10 43 0 48 13 67 46 67
24 0 34 -23 34 -77 0 -18 5 -33 10 -33 13 0 13 86 0 111 -9 16 -20 19 -60 18
l-50 -2 0 -64z"/>
<path d="M14336 5328 c-52 -74 48 -151 104 -81 38 48 8 103 -56 103 -23 0 -38
-7 -48 -22z m90 -25 c9 -35 -7 -58 -42 -58 -24 0 -30 5 -32 28 -5 43 4 57 37
57 25 0 32 -5 37 -27z"/>
<path d="M14783 5342 c-32 -20 -32 -94 0 -114 21 -13 65 -9 82 8 22 22 11 30
-19 14 -43 -23 -74 5 -62 55 5 20 13 25 36 25 17 0 30 -4 30 -10 0 -5 7 -10
15 -10 13 0 14 4 5 20 -11 21 -62 28 -87 12z"/>
<path d="M14916 5328 c-20 -28 -20 -57 0 -86 17 -24 62 -30 82 -10 9 9 12 9
12 0 0 -7 5 -12 10 -12 6 0 10 28 10 63 l0 64 -49 2 c-41 1 -52 -3 -65 -21z
m82 -10 c7 -7 12 -21 12 -33 0 -47 -62 -63 -81 -21 -22 47 33 90 69 54z"/>
<path d="M15166 5328 c-34 -48 -7 -108 48 -108 19 0 39 7 46 15 16 20 5 32
-14 16 -20 -17 -60 -10 -64 12 -3 14 4 17 47 17 55 0 62 9 35 48 -10 15 -25
22 -49 22 -24 0 -39 -7 -49 -22z m82 -15 c2 -9 -8 -13 -32 -13 -34 0 -44 8
-29 24 11 11 56 2 61 -11z"/>
<path d="M15316 5328 c-20 -28 -20 -58 0 -86 17 -25 62 -30 83 -9 10 10 12 6
9 -18 -2 -24 -8 -31 -31 -33 -16 -2 -35 2 -43 9 -21 17 -31 2 -11 -18 19 -20
70 -21 91 -3 12 9 16 32 16 94 l0 82 -49 2 c-42 2 -53 -2 -65 -20z m82 -10 c7
-7 12 -21 12 -33 0 -47 -62 -63 -81 -21 -22 47 33 90 69 54z"/>
<path d="M15476 5328 c-34 -48 -7 -108 48 -108 19 0 40 8 49 18 22 25 21 75
-1 95 -27 25 -78 22 -96 -5z m82 -10 c7 -7 12 -21 12 -33 0 -47 -62 -63 -81
-21 -22 47 33 90 69 54z"/>
<path d="M15620 5284 c0 -50 3 -64 15 -64 11 0 15 12 15 51 0 42 3 52 20 56
32 8 23 21 -15 21 l-35 0 0 -64z"/>
<path d="M15710 5285 c0 -51 3 -65 15 -65 12 0 15 14 15 65 0 51 -3 65 -15 65
-12 0 -15 -14 -15 -65z"/>
<path d="M15776 5328 c-34 -48 -4 -108 52 -108 16 0 37 9 47 20 14 16 15 20 4
20 -8 0 -20 -5 -26 -11 -16 -16 -57 -7 -61 14 -3 14 4 17 47 17 43 0 51 3 51
18 0 49 -85 71 -114 30z m84 -13 c11 -13 7 -15 -29 -15 -38 0 -50 8 -34 23 12
12 50 7 63 -8z"/>
<path d="M15927 5343 c-4 -3 -7 -16 -7 -29 0 -17 9 -25 35 -34 40 -13 47 -40
11 -40 -13 0 -26 5 -28 12 -2 6 -10 9 -17 7 -23 -8 17 -39 49 -39 30 0 51 24
43 48 -3 7 -20 19 -39 27 -19 8 -34 19 -34 24 0 15 47 14 53 -1 2 -7 8 -10 12
-6 4 4 5 14 2 23 -6 15 -67 22 -80 8z"/>
<path d="M16458 5338 c-16 -12 -22 -34 -19 -70 2 -26 30 -48 61 -48 31 0 72
31 50 38 -6 2 -17 -1 -23 -7 -24 -24 -67 -8 -67 25 0 2 23 4 50 4 43 0 50 3
50 19 0 43 -65 68 -102 39z m76 -23 c4 -12 -3 -15 -34 -15 -31 0 -38 3 -34 15
4 8 18 15 34 15 16 0 30 -7 34 -15z"/>
<path d="M16580 5346 c0 -4 11 -33 24 -65 21 -52 22 -61 10 -90 -11 -26 -11
-31 0 -31 15 0 91 178 81 188 -9 9 -22 -10 -35 -50 -6 -21 -15 -38 -19 -38 -4
0 -14 19 -22 42 -9 23 -21 44 -27 46 -7 2 -12 1 -12 -2z"/>
<path d="M8250 5310 c0 -5 20 -10 45 -10 25 0 45 5 45 10 0 6 -20 10 -45 10
-25 0 -45 -4 -45 -10z"/>
<path d="M2940 5235 c0 -9 5 -15 11 -13 6 2 11 8 11 13 0 5 -5 11 -11 13 -6 2
-11 -4 -11 -13z"/>
<path d="M16040 5235 c0 -9 5 -15 11 -13 6 2 11 8 11 13 0 5 -5 11 -11 13 -6
2 -11 -4 -11 -13z"/>
<path d="M2690 4831 c0 -73 3 -91 14 -91 11 0 16 15 18 53 3 46 6 52 27 55 30
5 41 -12 41 -65 0 -24 5 -43 10 -43 6 0 10 24 10 54 0 62 -15 80 -59 74 -26
-4 -30 -1 -33 21 -2 13 -9 26 -15 29 -10 3 -13 -19 -13 -87z"/>
<path d="M3100 4891 c0 -28 -1 -29 -39 -24 -32 4 -41 2 -55 -18 -20 -29 -20
-58 0 -87 17 -24 62 -30 82 -10 9 9 12 9 12 0 0 -7 5 -12 10 -12 6 0 10 37 10
90 0 53 -4 90 -10 90 -5 0 -10 -13 -10 -29z m-12 -53 c7 -7 12 -21 12 -33 0
-47 -62 -63 -81 -21 -22 47 33 90 69 54z"/>
<path d="M3580 4831 c0 -75 3 -91 15 -91 13 0 15 14 13 87 -2 58 -7 88 -15 91
-10 3 -13 -19 -13 -87z"/>
<path d="M3642 4909 c2 -6 8 -10 13 -10 5 0 11 4 13 10 2 6 -4 11 -13 11 -9 0
-15 -5 -13 -11z"/>
<path d="M4210 4831 c0 -75 3 -91 15 -91 13 0 15 14 13 87 -2 58 -7 88 -15 91
-10 3 -13 -19 -13 -87z"/>
<path d="M4800 4892 c0 -26 -2 -27 -39 -24 -31 3 -42 0 -55 -19 -40 -58 -5
-109 74 -108 l50 2 0 88 c0 72 -3 89 -15 89 -10 0 -15 -10 -15 -28z m-4 -69
c12 -45 -28 -80 -61 -53 -15 13 -20 61 -8 73 3 4 19 7 34 7 23 0 30 -6 35 -27z"/>
<path d="M5430 4891 c0 -28 -1 -28 -45 -23 -43 4 -45 3 -59 -29 -15 -35 -7
-76 17 -91 18 -12 62 -9 75 4 9 9 12 9 12 0 0 -7 5 -12 10 -12 6 0 10 37 10
90 0 53 -4 90 -10 90 -5 0 -10 -13 -10 -29z m-11 -63 c12 -31 -2 -62 -28 -66
-28 -4 -51 14 -51 42 0 47 63 66 79 24z"/>
<path d="M8642 4908 c6 -18 28 -21 28 -4 0 9 -7 16 -16 16 -9 0 -14 -5 -12
-12z"/>
<path d="M9220 4905 c0 -9 5 -15 11 -13 6 2 11 8 11 13 0 5 -5 11 -11 13 -6 2
-11 -4 -11 -13z"/>
<path d="M10190 4830 c0 -53 4 -90 10 -90 6 0 10 37 10 90 0 53 -4 90 -10 90
-6 0 -10 -37 -10 -90z"/>
<path d="M10250 4905 c0 -9 5 -15 11 -13 6 2 11 8 11 13 0 5 -5 11 -11 13 -6
2 -11 -4 -11 -13z"/>
<path d="M10680 4830 c0 -53 4 -90 10 -90 6 0 10 37 10 90 0 53 -4 90 -10 90
-6 0 -10 -37 -10 -90z"/>
<path d="M10732 4908 c6 -18 28 -21 28 -4 0 9 -7 16 -16 16 -9 0 -14 -5 -12
-12z"/>
<path d="M10950 4830 c0 -53 4 -90 10 -90 6 0 10 12 10 27 l0 27 28 -27 c41
-39 63 -34 24 6 l-32 33 32 32 c26 25 29 32 15 32 -10 0 -29 -12 -42 -27 l-24
-28 -1 53 c0 28 -4 52 -10 52 -6 0 -10 -37 -10 -90z"/>
<path d="M12930 4830 c0 -53 4 -90 10 -90 6 0 10 37 10 90 0 53 -4 90 -10 90
-6 0 -10 -37 -10 -90z"/>
<path d="M13330 4830 c0 -53 4 -90 10 -90 6 0 10 19 10 43 0 53 11 70 41 65
21 -3 24 -9 27 -55 2 -40 7 -53 19 -53 13 0 15 10 11 56 -5 63 -18 76 -65 71
-30 -3 -33 -1 -33 25 0 15 -4 28 -10 28 -6 0 -10 -37 -10 -90z"/>
<path d="M13750 4891 c0 -28 -1 -28 -45 -23 -43 4 -45 3 -59 -29 -15 -35 -7
-76 17 -91 18 -12 62 -9 75 4 9 9 12 9 12 0 0 -7 5 -12 10 -12 6 0 10 37 10
90 0 53 -4 90 -10 90 -5 0 -10 -13 -10 -29z m-11 -63 c12 -31 -2 -62 -28 -66
-28 -4 -51 14 -51 42 0 47 63 66 79 24z"/>
<path d="M13960 4830 c0 -96 17 -125 22 -37 3 50 4 52 33 52 29 0 30 -2 33
-52 4 -69 22 -68 22 1 0 62 -15 80 -60 74 -27 -4 -30 -2 -30 24 0 15 -4 28
-10 28 -6 0 -10 -37 -10 -90z"/>
<path d="M15437 4914 c-8 -8 1 -24 14 -24 5 0 9 7 9 15 0 15 -12 20 -23 9z"/>
<path d="M16350 4892 c0 -26 -2 -27 -39 -24 -31 3 -42 0 -55 -19 -40 -58 -5
-109 74 -108 l50 2 0 88 c0 72 -3 89 -15 89 -10 0 -15 -10 -15 -28z m-4 -69
c12 -45 -28 -80 -61 -53 -15 13 -20 61 -8 73 3 4 19 7 34 7 23 0 30 -6 35 -27z"/>
<path d="M16520 4891 c0 -28 -1 -28 -45 -23 -43 4 -45 3 -59 -29 -15 -35 -7
-76 17 -91 18 -12 62 -9 75 4 9 9 12 9 12 0 0 -7 5 -12 10 -12 6 0 10 37 10
90 0 53 -4 90 -10 90 -5 0 -10 -13 -10 -29z m-11 -63 c12 -31 -2 -62 -28 -66
-28 -4 -51 14 -51 42 0 47 63 66 79 24z"/>
<path d="M2250 4825 c0 -50 4 -85 10 -85 6 0 10 26 10 58 l1 57 30 -57 c16
-32 33 -58 37 -58 4 0 19 26 34 58 l26 57 1 -57 c1 -32 6 -58 11 -58 6 0 10
35 10 85 0 53 -4 85 -11 85 -5 0 -24 -30 -41 -67 l-30 -68 -34 68 c-19 37 -39
67 -44 67 -6 0 -10 -36 -10 -85z"/>
<path d="M2610 4890 c0 -11 -5 -20 -11 -20 -8 0 -8 -4 -1 -13 6 -7 12 -35 14
-62 3 -46 5 -50 31 -53 31 -4 37 13 7 21 -16 4 -20 14 -20 46 0 34 3 41 20 41
11 0 20 5 20 10 0 6 -9 10 -20 10 -13 0 -20 7 -20 20 0 11 -4 20 -10 20 -5 0
-10 -9 -10 -20z"/>
<path d="M5924 4898 c-11 -18 -5 -129 8 -145 12 -15 48 -18 48 -3 0 6 -7 10
-15 10 -11 0 -15 12 -15 45 0 33 4 45 15 45 8 0 15 5 15 10 0 6 -7 10 -15 10
-8 0 -15 6 -15 14 0 20 -17 29 -26 14z"/>
<path d="M8564 4898 c-11 -18 -5 -129 8 -145 12 -15 48 -18 48 -3 0 6 -7 10
-15 10 -11 0 -15 12 -15 45 0 33 4 45 15 45 8 0 15 5 15 10 0 6 -7 10 -15 10
-8 0 -15 6 -15 14 0 20 -17 29 -26 14z"/>
<path d="M13874 4898 c-11 -18 -5 -129 8 -145 12 -15 48 -18 48 -3 0 6 -7 10
-15 10 -11 0 -15 12 -15 45 0 33 4 45 15 45 8 0 15 5 15 10 0 6 -7 10 -15 10
-8 0 -15 6 -15 14 0 20 -17 29 -26 14z"/>
<path d="M15050 4891 c0 -11 -6 -22 -12 -25 -10 -5 -10 -7 0 -12 7 -3 12 -25
12 -55 0 -52 11 -65 47 -56 16 4 15 6 -4 12 -19 6 -23 15 -23 50 0 35 4 44 23
50 l22 8 -22 4 c-15 3 -23 12 -23 24 0 10 -4 19 -10 19 -5 0 -10 -9 -10 -19z"/>
<path d="M15500 4890 c0 -11 -5 -20 -11 -20 -8 0 -8 -4 -1 -13 6 -7 12 -35 14
-62 3 -46 5 -50 31 -53 31 -4 37 13 7 21 -16 4 -20 14 -20 46 0 34 3 41 20 41
11 0 20 5 20 10 0 6 -9 10 -20 10 -13 0 -20 7 -20 20 0 11 -4 20 -10 20 -5 0
-10 -9 -10 -20z"/>
<path d="M15790 4891 c0 -11 -6 -22 -12 -25 -10 -5 -10 -7 0 -12 7 -3 12 -25
12 -55 0 -52 11 -65 47 -56 16 4 15 6 -4 12 -19 6 -23 15 -23 50 0 35 4 44 23
50 l22 8 -22 4 c-15 3 -23 12 -23 24 0 10 -4 19 -10 19 -5 0 -10 -9 -10 -19z"/>
<path d="M2467 4852 c-22 -25 -21 -75 1 -95 23 -21 75 -22 92 -2 16 19 5 34
-12 17 -15 -15 -51 -15 -66 0 -22 22 -13 28 43 28 60 0 67 9 39 48 -19 28 -74
30 -97 4z m81 -19 c2 -9 -9 -13 -38 -13 -37 0 -41 2 -30 16 15 17 61 15 68 -3z"/>
<path d="M2857 4852 c-22 -25 -21 -75 1 -95 45 -41 112 -8 112 54 0 53 -77 81
-113 41z m84 -23 c16 -30 -3 -69 -34 -69 -29 0 -47 17 -47 45 0 45 60 63 81
24z"/>
<path d="M3157 4864 c-8 -8 1 -24 14 -24 5 0 9 7 9 15 0 15 -12 20 -23 9z"/>
<path d="M3287 4852 c-22 -25 -21 -75 1 -95 45 -41 112 -8 112 54 0 53 -77 81
-113 41z m84 -23 c16 -30 -3 -69 -34 -69 -29 0 -47 17 -47 45 0 45 60 63 81
24z"/>
<path d="M3430 4803 c0 -35 4 -63 10 -63 6 0 10 19 10 43 0 48 13 67 46 67 24
0 34 -23 34 -77 0 -18 5 -33 10 -33 13 0 13 86 0 111 -9 16 -20 19 -60 18
l-50 -2 0 -64z"/>
<path d="M3640 4805 c0 -51 3 -65 15 -65 12 0 15 14 15 65 0 51 -3 65 -15 65
-12 0 -15 -14 -15 -65z"/>
<path d="M3700 4803 c0 -35 4 -63 10 -63 6 0 10 19 10 43 0 48 13 67 46 67 24
0 34 -23 34 -77 0 -18 5 -33 10 -33 13 0 13 86 0 111 -9 16 -20 19 -60 18
l-50 -2 0 -64z"/>
<path d="M3867 4852 c-22 -25 -21 -75 1 -95 23 -21 75 -22 92 -2 16 19 5 34
-12 17 -15 -15 -51 -15 -66 0 -22 22 -13 28 43 28 60 0 67 9 39 48 -19 28 -74
30 -97 4z m81 -19 c2 -9 -9 -13 -38 -13 -37 0 -41 2 -30 16 15 17 61 15 68 -3z"/>
<path d="M4076 4848 c-34 -48 -7 -108 48 -108 19 0 39 7 46 15 16 19 5 34 -12
17 -19 -19 -56 -14 -69 9 -24 46 33 93 69 57 17 -17 28 -2 12 17 -19 23 -76
19 -94 -7z"/>
<path d="M4286 4854 c-40 -40 -11 -114 46 -114 56 0 86 60 52 108 -18 26 -74
30 -98 6z m82 -46 c3 -33 0 -38 -23 -44 -31 -8 -55 10 -55 40 0 30 20 47 50
44 21 -3 25 -9 28 -40z"/>
<path d="M4430 4855 c-18 -22 -6 -42 35 -59 20 -9 34 -20 30 -26 -8 -14 -38
-13 -53 2 -17 17 -28 2 -12 -17 16 -19 64 -19 80 0 18 22 6 42 -35 59 -20 9
-34 20 -30 26 8 14 38 13 53 -2 17 -17 28 -2 12 17 -16 19 -64 19 -80 0z"/>
<path d="M4556 4848 c-34 -48 -4 -108 52 -108 16 0 37 9 47 20 14 16 15 20 4
20 -8 0 -20 -5 -26 -11 -16 -16 -57 -7 -61 14 -3 14 4 17 47 17 43 0 51 3 51
18 0 49 -85 71 -114 30z m84 -13 c11 -13 7 -15 -29 -15 -38 0 -50 8 -34 23 12
12 50 7 63 -8z"/>
<path d="M4937 4852 c-10 -10 -17 -32 -17 -49 0 -52 52 -79 101 -53 23 13 25
30 4 30 -8 0 -15 -4 -15 -10 0 -14 -43 -13 -58 2 -7 7 -12 21 -12 33 0 40 50
61 78 33 17 -17 28 -2 12 17 -17 21 -73 19 -93 -3z"/>
<path d="M5076 4848 c-40 -57 -4 -108 74 -107 l50 2 0 62 0 62 -54 2 c-46 1
-57 -3 -70 -21z m90 -25 c12 -45 -28 -80 -61 -53 -15 13 -20 61 -8 73 3 4 19
7 34 7 23 0 30 -6 35 -27z"/>
<path d="M5230 4804 c0 -50 3 -64 15 -64 11 0 15 12 15 51 0 42 3 52 20 56 32
8 23 21 -15 21 l-35 0 0 -64z"/>
<path d="M5551 4856 c-18 -22 2 -53 39 -61 37 -8 41 -35 5 -35 -14 0 -25 5
-25 10 0 6 -7 10 -15 10 -8 0 -15 -4 -15 -9 0 -18 30 -32 62 -29 27 2 34 8 36
30 3 22 -2 28 -32 39 -20 7 -36 19 -36 26 0 16 32 17 48 1 17 -17 28 -2 12 17
-16 19 -64 20 -79 1z"/>
<path d="M5686 4854 c-40 -40 -11 -114 46 -114 56 0 86 60 52 108 -18 26 -74
30 -98 6z m82 -46 c3 -33 0 -38 -23 -44 -31 -8 -55 10 -55 40 0 30 20 47 50
44 21 -3 25 -9 28 -40z"/>
<path d="M5830 4803 c0 -35 4 -63 10 -63 6 0 10 20 10 45 0 34 5 48 20 57 28
18 25 27 -10 26 l-30 -1 0 -64z"/>
<path d="M8197 4863 c-4 -3 -7 -16 -7 -29 0 -17 9 -25 35 -34 40 -13 47 -40
11 -40 -13 0 -26 5 -28 12 -2 6 -10 9 -17 7 -23 -8 17 -39 49 -39 30 0 51 24
43 48 -3 7 -20 19 -39 27 -19 8 -34 19 -34 24 0 15 47 14 53 -1 2 -7 8 -10 12
-6 4 4 5 14 2 23 -6 15 -67 22 -80 8z"/>
<path d="M8327 4852 c-22 -25 -21 -75 1 -95 45 -41 112 -8 112 54 0 53 -77 81
-113 41z m84 -23 c16 -30 -3 -69 -34 -69 -29 0 -47 17 -47 45 0 45 60 63 81
24z"/>
<path d="M8470 4803 c0 -35 4 -63 10 -63 6 0 10 16 10 36 0 42 15 74 35 74 8
0 15 4 15 10 0 5 -16 9 -35 8 l-35 -1 0 -64z"/>
<path d="M8650 4805 c0 -37 4 -65 10 -65 6 0 10 28 10 65 0 37 -4 65 -10 65
-6 0 -10 -28 -10 -65z"/>
<path d="M8710 4803 c0 -76 18 -85 22 -10 3 50 4 52 33 52 29 0 30 -2 33 -52
4 -69 22 -68 22 1 0 64 -12 77 -69 74 l-41 -1 0 -64z"/>
<path d="M8866 4848 c-20 -28 -20 -58 0 -86 17 -25 62 -30 83 -9 10 10 12 6 9
-18 -2 -24 -8 -31 -31 -33 -16 -2 -35 2 -43 9 -21 17 -31 2 -11 -18 19 -20 70
-21 91 -3 12 9 16 32 16 94 l0 82 -49 2 c-42 2 -53 -2 -65 -20z m82 -10 c7 -7
12 -21 12 -33 0 -47 -62 -63 -81 -21 -22 47 33 90 69 54z"/>
<path d="M9091 4818 c12 -29 23 -59 26 -65 3 -7 11 -13 18 -13 7 0 15 6 18 13
46 115 47 117 32 117 -8 0 -15 -6 -16 -12 0 -7 -8 -31 -18 -53 l-17 -39 -19
52 c-11 29 -25 52 -32 52 -9 0 -7 -14 8 -52z"/>
<path d="M9220 4805 c0 -37 4 -65 10 -65 6 0 10 28 10 65 0 37 -4 65 -10 65
-6 0 -10 -28 -10 -65z"/>
<path d="M9286 4848 c-20 -28 -20 -57 0 -86 17 -24 62 -30 82 -10 9 9 12 9 12
0 0 -7 5 -12 10 -12 6 0 10 28 10 63 l0 64 -49 2 c-41 1 -52 -3 -65 -21z m82
-10 c7 -7 12 -21 12 -33 0 -47 -62 -63 -81 -21 -22 47 33 90 69 54z"/>
<path d="M9516 4852 c-21 -25 -20 -75 2 -95 22 -20 63 -22 80 -5 9 9 12 9 12
0 0 -7 5 -12 10 -12 6 0 10 28 10 63 l0 63 -49 2 c-36 1 -52 -3 -65 -16z m85
-23 c18 -34 -4 -71 -38 -67 -34 4 -54 48 -33 72 18 23 57 20 71 -5z"/>
<path d="M9670 4803 c0 -35 4 -63 10 -63 6 0 10 19 10 43 0 53 11 70 41 65 21
-3 24 -9 27 -55 2 -38 7 -53 18 -53 10 0 14 12 14 46 0 71 -12 85 -70 83 l-50
-2 0 -64z"/>
<path d="M9897 4852 c-22 -25 -21 -75 1 -95 45 -41 112 -8 112 54 0 53 -77 81
-113 41z m84 -23 c16 -30 -3 -69 -34 -69 -29 0 -47 17 -47 45 0 45 60 63 81
24z"/>
<path d="M10040 4803 c0 -35 4 -63 10 -63 6 0 10 19 10 43 0 53 11 70 41 65
21 -3 24 -9 27 -55 2 -38 7 -53 18 -53 10 0 14 12 14 46 0 71 -12 85 -70 83
l-50 -2 0 -64z"/>
<path d="M10250 4805 c0 -37 4 -65 10 -65 6 0 10 28 10 65 0 37 -4 65 -10 65
-6 0 -10 -28 -10 -65z"/>
<path d="M10310 4803 c0 -35 4 -63 10 -63 6 0 10 19 10 43 0 48 13 67 46 67
24 0 34 -23 34 -77 0 -18 5 -33 10 -33 13 0 13 86 0 111 -9 16 -20 19 -60 18
l-50 -2 0 -64z"/>
<path d="M10478 4858 c-16 -12 -22 -34 -19 -70 2 -26 30 -48 61 -48 31 0 72
31 50 38 -6 2 -17 -1 -23 -7 -24 -24 -67 -8 -67 25 0 2 23 4 50 4 43 0 50 3
50 19 0 43 -65 68 -102 39z m76 -23 c4 -12 -3 -15 -34 -15 -31 0 -38 3 -34 15
4 8 18 15 34 15 16 0 30 -7 34 -15z"/>
<path d="M10740 4805 c0 -37 4 -65 10 -65 6 0 10 28 10 65 0 37 -4 65 -10 65
-6 0 -10 -28 -10 -65z"/>
<path d="M10790 4804 c0 -49 3 -64 14 -64 11 0 16 15 18 53 3 46 6 52 27 55
30 5 41 -12 41 -65 0 -24 5 -43 10 -43 15 0 12 106 -3 118 -7 6 -34 11 -60 10
l-47 -1 0 -63z"/>
<path d="M12766 4838 c-15 -34 -7 -75 17 -90 18 -12 62 -9 75 4 9 9 12 9 12 0
0 -7 5 -12 10 -12 6 0 10 28 10 63 l0 63 -55 2 c-54 2 -56 1 -69 -30z m93 -10
c12 -31 -2 -62 -28 -66 -28 -4 -51 14 -51 42 0 47 63 66 79 24z"/>
<path d="M12990 4855 c-18 -22 -6 -42 35 -59 20 -9 34 -20 30 -26 -8 -14 -38
-13 -53 2 -17 17 -28 2 -12 -17 16 -19 64 -19 80 0 18 22 6 42 -35 59 -20 9
-34 20 -30 26 8 14 38 13 53 -2 17 -17 28 -2 12 17 -16 19 -64 19 -80 0z"/>
<path d="M13116 4848 c-52 -74 48 -151 104 -81 38 48 8 103 -56 103 -23 0 -38
-7 -48 -22z m90 -25 c9 -35 -7 -58 -42 -58 -24 0 -30 5 -32 28 -5 43 4 57 37
57 25 0 32 -5 37 -27z"/>
<path d="M13486 4848 c-40 -57 -4 -108 74 -107 l50 2 0 62 0 62 -54 2 c-46 1
-57 -3 -70 -21z m90 -25 c12 -45 -28 -80 -61 -53 -15 13 -20 61 -8 73 3 4 19
7 34 7 23 0 30 -6 35 -27z"/>
<path d="M14116 4848 c-34 -48 -4 -108 52 -108 16 0 37 9 47 20 14 16 15 20 4
20 -8 0 -20 -5 -26 -11 -16 -16 -57 -7 -61 14 -3 14 4 17 47 17 43 0 51 3 51
18 0 49 -85 71 -114 30z m84 -13 c11 -13 7 -15 -29 -15 -38 0 -50 8 -34 23 12
12 50 7 63 -8z"/>
<path d="M14336 4854 c-40 -40 -11 -114 46 -114 56 0 86 60 52 108 -18 26 -74
30 -98 6z m82 -46 c3 -33 0 -38 -23 -44 -31 -8 -55 10 -55 40 0 30 20 47 50
44 21 -3 25 -9 28 -40z"/>
<path d="M14480 4773 c0 -55 4 -93 10 -93 6 0 10 15 10 34 0 34 0 34 39 29 32
-4 41 -2 55 18 20 29 20 58 0 87 -13 18 -24 22 -65 21 l-49 -2 0 -94z m100 58
c15 -30 -4 -71 -33 -71 -29 0 -47 17 -47 45 0 44 60 63 80 26z"/>
<path d="M14640 4775 c0 -57 4 -95 10 -95 6 0 10 19 10 42 0 33 3 39 12 30 18
-18 63 -14 81 6 22 25 21 75 -1 95 -22 20 -63 22 -80 5 -9 -9 -12 -9 -12 0 0
7 -4 12 -10 12 -6 0 -10 -38 -10 -95z m100 59 c10 -11 11 -23 4 -42 -7 -21
-16 -27 -39 -27 -23 0 -32 6 -39 27 -11 33 6 58 39 58 12 0 28 -7 35 -16z"/>
<path d="M14806 4848 c-52 -74 48 -151 104 -81 38 48 8 103 -56 103 -23 0 -38
-7 -48 -22z m90 -25 c9 -35 -7 -58 -42 -58 -24 0 -30 5 -32 28 -5 43 4 57 37
57 25 0 32 -5 37 -27z"/>
<path d="M14950 4804 c0 -50 3 -64 15 -64 11 0 15 12 15 51 0 42 3 52 20 56
32 8 23 21 -15 21 l-35 0 0 -64z"/>
<path d="M15130 4824 c0 -70 12 -84 70 -83 l50 2 0 63 c0 50 -3 64 -15 64 -11
0 -15 -12 -15 -50 0 -38 -4 -52 -16 -57 -30 -11 -49 11 -52 61 -4 60 -22 60
-22 0z"/>
<path d="M15280 4804 c0 -49 3 -64 14 -64 11 0 16 15 18 53 3 46 6 52 27 55
30 5 41 -12 41 -65 0 -24 5 -43 10 -43 15 0 12 106 -3 118 -7 6 -34 11 -60 10
l-47 -1 0 -63z"/>
<path d="M15440 4805 c0 -37 4 -65 10 -65 6 0 10 28 10 65 0 37 -4 65 -10 65
-6 0 -10 -28 -10 -65z"/>
<path d="M15570 4867 c0 -2 11 -31 25 -65 20 -49 23 -66 15 -88 -11 -28 -6
-44 9 -28 15 17 74 175 67 181 -9 9 -12 4 -34 -52 l-20 -50 -18 53 c-10 28
-24 52 -31 52 -7 0 -13 -1 -13 -3z"/>
<path d="M15876 4848 c-52 -74 48 -151 104 -81 38 48 8 103 -56 103 -23 0 -38
-7 -48 -22z m90 -25 c9 -35 -7 -58 -42 -58 -24 0 -30 5 -32 28 -5 43 4 57 37
57 25 0 32 -5 37 -27z"/>
<path d="M16096 4848 c-20 -28 -20 -57 0 -86 17 -24 62 -30 82 -10 9 9 12 9
12 0 0 -7 5 -12 10 -12 6 0 10 28 10 63 l0 64 -49 2 c-41 1 -52 -3 -65 -21z
m82 -10 c7 -7 12 -21 12 -33 0 -47 -62 -63 -81 -21 -22 47 33 90 69 54z"/>
<path d="M3157 4764 c-8 -8 1 -24 14 -24 5 0 9 7 9 15 0 15 -12 20 -23 9z"/>
<path d="M3045 4478 c-2 -7 -17 -68 -33 -135 -19 -82 -25 -123 -18 -123 7 0
25 53 41 118 15 64 30 125 33 135 5 19 -16 24 -23 5z"/>
<path d="M3131 4358 c-28 -119 -32 -152 -15 -135 7 7 63 226 64 250 0 9 -4 17
-9 17 -5 0 -23 -59 -40 -132z"/>
<path d="M2150 4350 c0 -53 4 -90 10 -90 6 0 10 37 10 90 0 53 -4 90 -10 90
-6 0 -10 -37 -10 -90z"/>
<path d="M2320 4351 c0 -73 3 -91 14 -91 11 0 16 15 18 53 3 46 6 52 27 55 30
5 41 -12 41 -65 0 -24 5 -43 10 -43 6 0 10 24 10 54 0 62 -15 80 -59 74 -26
-4 -30 -1 -33 21 -2 13 -9 26 -15 29 -10 3 -13 -19 -13 -87z"/>
<path d="M4260 4425 c0 -9 5 -15 11 -13 6 2 11 8 11 13 0 5 -5 11 -11 13 -6 2
-11 -4 -11 -13z"/>
<path d="M4730 4350 c0 -53 4 -90 10 -90 6 0 10 37 10 90 0 53 -4 90 -10 90
-6 0 -10 -37 -10 -90z"/>
<path d="M5230 4350 c0 -53 4 -90 10 -90 6 0 10 12 10 27 l0 27 28 -27 c41
-39 63 -34 24 6 l-32 33 32 32 c26 25 29 32 15 32 -10 0 -29 -12 -42 -27 l-24
-28 -1 53 c0 28 -4 52 -10 52 -6 0 -10 -37 -10 -90z"/>
<path d="M5480 4350 c0 -96 17 -125 22 -37 3 50 4 52 33 52 29 0 30 -2 33 -52
4 -69 22 -68 22 1 0 62 -15 80 -60 74 -27 -4 -30 -2 -30 24 0 15 -4 28 -10 28
-6 0 -10 -37 -10 -90z"/>
<path d="M12980 4411 c0 -28 -1 -29 -39 -24 -32 4 -41 2 -55 -18 -20 -29 -20
-58 0 -87 17 -24 62 -30 82 -10 9 9 12 9 12 0 0 -7 5 -12 10 -12 6 0 10 37 10
90 0 53 -4 90 -10 90 -5 0 -10 -13 -10 -29z m-12 -53 c7 -7 12 -21 12 -33 0
-47 -62 -63 -81 -21 -22 47 33 90 69 54z"/>
<path d="M13140 4412 c0 -26 -2 -27 -39 -24 -31 3 -42 0 -55 -19 -40 -58 -5
-109 74 -108 l50 2 0 88 c0 72 -3 89 -15 89 -10 0 -15 -10 -15 -28z m-4 -69
c12 -45 -28 -80 -61 -53 -15 13 -20 61 -8 73 3 4 19 7 34 7 23 0 30 -6 35 -27z"/>
<path d="M13202 4429 c2 -6 8 -10 13 -10 5 0 11 4 13 10 2 6 -4 11 -13 11 -9
0 -15 -5 -13 -11z"/>
<path d="M13350 4425 c0 -9 5 -15 11 -13 6 2 11 8 11 13 0 5 -5 11 -11 13 -6
2 -11 -4 -11 -13z"/>
<path d="M13880 4350 c0 -53 4 -90 10 -90 6 0 10 37 10 90 0 53 -4 90 -10 90
-6 0 -10 -37 -10 -90z"/>
<path d="M14402 4429 c2 -6 8 -10 13 -10 5 0 11 4 13 10 2 6 -4 11 -13 11 -9
0 -15 -5 -13 -11z"/>
<path d="M15220 4411 c0 -28 -1 -28 -45 -23 -43 4 -45 3 -59 -29 -15 -35 -7
-76 17 -91 18 -12 62 -9 75 4 9 9 12 9 12 0 0 -7 5 -12 10 -12 6 0 10 37 10
90 0 53 -4 90 -10 90 -5 0 -10 -13 -10 -29z m-11 -63 c12 -31 -2 -62 -28 -66
-28 -4 -51 14 -51 42 0 47 63 66 79 24z"/>
<path d="M16287 4434 c-8 -8 1 -24 14 -24 5 0 9 7 9 15 0 15 -12 20 -23 9z"/>
<path d="M1700 4420 c0 -5 11 -10 25 -10 24 0 25 -2 25 -75 0 -43 4 -75 10
-75 6 0 10 32 10 75 0 73 1 75 25 75 14 0 25 5 25 10 0 6 -27 10 -60 10 -33 0
-60 -4 -60 -10z"/>
<path d="M2480 4410 c0 -11 -5 -20 -11 -20 -8 0 -8 -4 -1 -13 6 -7 12 -35 14
-62 3 -46 5 -50 31 -53 31 -4 37 13 7 21 -16 4 -20 14 -20 46 0 34 3 41 20 41
11 0 20 5 20 10 0 6 -9 10 -20 10 -13 0 -20 7 -20 20 0 11 -4 20 -10 20 -5 0
-10 -9 -10 -20z"/>
<path d="M2570 4411 c0 -11 -6 -22 -12 -25 -10 -5 -10 -7 0 -12 7 -3 12 -25
12 -55 0 -52 11 -65 47 -56 16 4 15 6 -4 12 -19 6 -23 15 -23 50 0 35 4 44 23
50 l22 8 -22 4 c-15 3 -23 12 -23 24 0 10 -4 19 -10 19 -5 0 -10 -9 -10 -19z"/>
<path d="M4180 4411 c0 -11 -6 -22 -12 -25 -10 -5 -10 -7 0 -12 7 -3 12 -25
12 -55 0 -52 11 -65 47 -56 16 4 15 6 -4 12 -19 6 -23 15 -23 50 0 35 4 44 23
50 l22 8 -22 4 c-15 3 -23 12 -23 24 0 10 -4 19 -10 19 -5 0 -10 -9 -10 -19z"/>
<path d="M13270 4411 c0 -11 -6 -22 -12 -25 -10 -5 -10 -7 0 -12 7 -3 12 -25
12 -55 0 -52 11 -65 47 -56 16 4 15 6 -4 12 -19 6 -23 15 -23 50 0 35 4 44 23
50 l22 8 -22 4 c-15 3 -23 12 -23 24 0 10 -4 19 -10 19 -5 0 -10 -9 -10 -19z"/>
<path d="M14001 4408 c-8 -23 1 -117 14 -138 8 -13 45 -13 45 0 0 6 -7 10 -15
10 -11 0 -15 12 -15 45 0 33 4 45 15 45 8 0 15 5 15 10 0 6 -7 10 -15 10 -8 0
-15 6 -15 14 0 26 -20 28 -29 4z"/>
<path d="M15654 4418 c-11 -18 -5 -129 8 -145 12 -15 48 -18 48 -3 0 6 -7 10
-15 10 -11 0 -15 12 -15 45 0 33 4 45 15 45 8 0 15 5 15 10 0 6 -7 10 -15 10
-8 0 -15 6 -15 14 0 20 -17 29 -26 14z"/>
<path d="M1846 4368 c-52 -74 48 -151 104 -81 38 48 8 103 -56 103 -23 0 -38
-7 -48 -22z m90 -25 c9 -35 -7 -58 -42 -58 -24 0 -30 5 -32 28 -5 43 4 57 37
57 25 0 32 -5 37 -27z"/>
<path d="M2007 4372 c-22 -25 -21 -75 1 -95 45 -41 112 -8 112 54 0 53 -77 81
-113 41z m84 -23 c16 -30 -3 -69 -34 -69 -29 0 -47 17 -47 45 0 45 60 63 81
24z"/>
<path d="M2202 4378 c6 -18 28 -21 28 -4 0 9 -7 16 -16 16 -9 0 -14 -5 -12
-12z"/>
<path d="M2650 4293 c0 -55 4 -93 10 -93 6 0 10 19 10 42 0 33 3 39 12 30 18
-18 63 -14 81 6 21 23 22 76 1 96 -10 11 -31 15 -65 14 l-49 -2 0 -93z m98 65
c7 -7 12 -21 12 -33 0 -47 -62 -63 -81 -21 -22 47 33 90 69 54z"/>
<path d="M2814 4375 c-10 -25 3 -44 41 -59 20 -9 34 -20 30 -26 -8 -14 -38
-13 -53 2 -17 17 -28 2 -12 -17 16 -19 64 -19 80 0 18 22 6 42 -35 59 -41 17
-46 36 -10 36 14 0 25 -4 25 -10 0 -5 7 -10 15 -10 18 0 19 12 3 28 -17 17
-77 15 -84 -3z"/>
<path d="M2932 4378 c6 -18 28 -21 28 -4 0 9 -7 16 -16 16 -9 0 -14 -5 -12
-12z"/>
<path d="M3223 4325 c12 -36 27 -65 34 -65 7 0 18 21 24 46 13 49 23 48 36 -6
5 -19 15 -35 23 -35 14 0 56 112 46 122 -10 10 -17 -2 -30 -54 l-13 -48 -15
50 c-8 28 -21 50 -28 50 -7 0 -21 -22 -30 -50 l-17 -50 -12 53 c-8 30 -19 52
-26 52 -10 0 -8 -16 8 -65z"/>
<path d="M3406 4363 c27 -108 49 -124 73 -53 l15 45 15 -47 c8 -27 20 -48 27
-48 8 0 21 26 30 58 9 31 18 60 21 65 2 4 -2 7 -11 7 -9 0 -17 -14 -21 -38
-10 -63 -20 -66 -34 -12 -16 63 -37 65 -52 5 -6 -25 -15 -45 -19 -45 -4 0 -11
19 -16 42 -5 23 -15 43 -22 46 -10 3 -11 -3 -6 -25z"/>
<path d="M3600 4385 c0 -27 36 -125 46 -125 7 0 18 17 25 38 18 58 21 59 36 9
7 -26 19 -47 26 -47 12 0 47 89 47 118 0 31 -19 7 -32 -40 l-14 -53 -14 53
c-16 62 -39 67 -53 12 -13 -54 -23 -55 -36 -6 -6 25 -16 46 -21 46 -6 0 -10
-2 -10 -5z"/>
<path d="M3866 4368 c-34 -48 -7 -108 48 -108 19 0 40 8 49 18 22 25 21 75 -1
95 -27 25 -78 22 -96 -5z m82 -10 c7 -7 12 -21 12 -33 0 -47 -62 -63 -81 -21
-22 47 33 90 69 54z"/>
<path d="M4010 4293 c0 -55 4 -93 10 -93 6 0 10 19 10 42 0 33 3 39 12 30 18
-18 63 -14 81 6 21 23 22 76 1 96 -10 11 -31 15 -65 14 l-49 -2 0 -93z m98 65
c7 -7 12 -21 12 -33 0 -47 -62 -63 -81 -21 -22 47 33 90 69 54z"/>
<path d="M4260 4325 c0 -37 4 -65 10 -65 6 0 10 28 10 65 0 37 -4 65 -10 65
-6 0 -10 -28 -10 -65z"/>
<path d="M4320 4323 c0 -35 4 -63 10 -63 6 0 10 16 10 36 0 46 16 74 41 74 22
0 39 -35 39 -81 0 -51 19 -31 22 24 3 50 4 52 33 52 29 0 30 -2 33 -52 2 -29
7 -53 13 -53 13 0 11 104 -3 118 -15 15 -64 16 -73 2 -5 -8 -11 -8 -20 0 -7 5
-33 9 -59 9 l-46 -2 0 -64z"/>
<path d="M4576 4368 c-20 -28 -20 -57 0 -86 17 -24 62 -30 82 -10 9 9 12 9 12
0 0 -7 5 -12 10 -12 6 0 10 28 10 63 l0 64 -49 2 c-41 1 -52 -3 -65 -21z m82
-10 c7 -7 12 -21 12 -33 0 -47 -62 -63 -81 -21 -22 47 33 90 69 54z"/>
<path d="M4793 4325 c12 -36 27 -65 34 -65 7 0 18 21 24 46 13 49 23 48 36 -6
5 -19 15 -35 23 -35 14 0 56 112 46 122 -10 10 -17 -2 -30 -54 l-13 -48 -15
50 c-8 28 -21 50 -28 50 -7 0 -21 -22 -30 -50 l-17 -50 -12 53 c-8 30 -19 52
-26 52 -10 0 -8 -16 8 -65z"/>
<path d="M4997 4372 c-22 -25 -21 -75 1 -95 45 -41 112 -8 112 54 0 53 -77 81
-113 41z m84 -23 c16 -30 -3 -69 -34 -69 -29 0 -47 17 -47 45 0 45 60 63 81
24z"/>
<path d="M5140 4323 c0 -35 4 -63 10 -63 6 0 10 20 10 45 0 34 5 48 20 57 28
18 25 27 -10 26 l-30 -1 0 -64z"/>
<path d="M5357 4383 c-4 -3 -7 -16 -7 -29 0 -17 9 -25 35 -34 40 -13 47 -40
11 -40 -13 0 -26 5 -28 12 -2 6 -10 9 -17 7 -23 -8 17 -39 49 -39 30 0 51 24
43 48 -3 7 -20 19 -39 27 -19 8 -34 19 -34 24 0 15 47 14 53 -1 2 -7 8 -10 12
-6 4 4 5 14 2 23 -6 15 -67 22 -80 8z"/>
<path d="M5636 4368 c-52 -74 48 -151 104 -81 38 48 8 103 -56 103 -23 0 -38
-7 -48 -22z m90 -25 c9 -35 -7 -58 -42 -58 -24 0 -30 5 -32 28 -5 43 4 57 37
57 25 0 32 -5 37 -27z"/>
<path d="M5780 4294 c0 -77 3 -94 15 -94 10 0 15 10 15 33 0 31 2 33 29 29 16
-2 38 1 49 7 29 15 38 66 18 96 -14 22 -23 25 -71 24 l-55 -2 0 -93z m105 37
c0 -60 -65 -70 -73 -12 -6 39 5 53 40 49 30 -3 33 -6 33 -37z"/>
<path d="M6007 4372 c-10 -10 -17 -32 -17 -49 0 -52 52 -79 101 -53 23 13 25
30 4 30 -8 0 -15 -4 -15 -10 0 -14 -43 -13 -58 2 -7 7 -12 21 -12 33 0 40 50
61 78 33 17 -17 28 -2 12 17 -17 21 -73 19 -93 -3z"/>
<path d="M6146 4368 c-52 -74 48 -151 104 -81 38 48 8 103 -56 103 -23 0 -38
-7 -48 -22z m90 -25 c9 -35 -7 -58 -42 -58 -24 0 -30 5 -32 28 -5 43 4 57 37
57 25 0 32 -5 37 -27z"/>
<path d="M6300 4323 c0 -76 18 -85 22 -10 3 50 4 52 33 52 29 0 30 -2 33 -52
3 -60 22 -73 22 -15 0 46 19 76 46 70 15 -2 20 -13 22 -56 2 -37 7 -52 18 -52
17 0 20 80 4 111 -12 21 -74 27 -85 9 -5 -8 -11 -8 -19 0 -7 5 -32 9 -55 8
l-41 -1 0 -64z"/>
<path d="M12726 4372 c-21 -25 -20 -75 2 -95 22 -20 63 -22 80 -5 9 9 12 9 12
0 0 -7 5 -12 10 -12 6 0 10 28 10 63 l0 63 -49 2 c-36 1 -52 -3 -65 -16z m85
-23 c18 -34 -4 -71 -38 -67 -34 4 -54 48 -33 72 18 23 57 20 71 -5z"/>
<path d="M13200 4325 c0 -51 3 -65 15 -65 12 0 15 14 15 65 0 51 -3 65 -15 65
-12 0 -15 -14 -15 -65z"/>
<path d="M13350 4325 c0 -37 4 -65 10 -65 6 0 10 28 10 65 0 37 -4 65 -10 65
-6 0 -10 -28 -10 -65z"/>
<path d="M13416 4368 c-34 -48 -7 -108 48 -108 19 0 40 8 49 18 22 25 21 75
-1 95 -27 25 -78 22 -96 -5z m82 -10 c7 -7 12 -21 12 -33 0 -47 -62 -63 -81
-21 -22 47 33 90 69 54z"/>
<path d="M13560 4324 c0 -49 3 -64 14 -64 11 0 16 15 18 53 3 46 6 52 27 55
30 5 41 -12 41 -65 0 -24 5 -43 10 -43 15 0 12 106 -3 118 -7 6 -34 11 -60 10
l-47 -1 0 -63z"/>
<path d="M13726 4372 c-21 -25 -20 -75 2 -95 22 -20 63 -22 80 -5 9 9 12 9 12
0 0 -7 5 -12 10 -12 6 0 10 28 10 63 l0 63 -49 2 c-36 1 -52 -3 -65 -16z m85
-23 c18 -34 -4 -71 -38 -67 -34 4 -54 48 -33 72 18 23 57 20 71 -5z"/>
<path d="M14096 4368 c-34 -48 -7 -108 48 -108 19 0 40 8 49 18 22 25 21 75
-1 95 -27 25 -78 22 -96 -5z m82 -10 c7 -7 12 -21 12 -33 0 -47 -62 -63 -81
-21 -22 47 33 90 69 54z"/>
<path d="M14240 4293 c0 -55 4 -93 10 -93 6 0 10 19 10 42 0 33 3 39 12 30 18
-18 63 -14 81 6 21 23 22 76 1 96 -10 11 -31 15 -65 14 l-49 -2 0 -93z m98 65
c7 -7 12 -21 12 -33 0 -47 -62 -63 -81 -21 -22 47 33 90 69 54z"/>
<path d="M14400 4325 c0 -51 3 -65 15 -65 12 0 15 14 15 65 0 51 -3 65 -15 65
-12 0 -15 -14 -15 -65z"/>
<path d="M14483 4382 c-32 -20 -32 -94 0 -114 21 -13 65 -9 82 8 22 22 11 30
-19 14 -43 -23 -74 5 -62 55 5 20 13 25 36 25 17 0 30 -4 30 -10 0 -5 7 -10
15 -10 13 0 14 4 5 20 -11 21 -62 28 -87 12z"/>
<path d="M14611 4376 c-18 -22 2 -53 39 -61 37 -8 41 -35 5 -35 -14 0 -25 5
-25 10 0 6 -7 10 -15 10 -8 0 -15 -4 -15 -9 0 -18 30 -32 62 -29 27 2 34 8 36
30 3 22 -2 28 -32 39 -20 7 -36 19 -36 26 0 16 32 17 48 1 17 -17 28 -2 12 17
-16 19 -64 20 -79 1z"/>
<path d="M14806 4368 c-20 -28 -20 -57 0 -86 17 -24 62 -30 82 -10 9 9 12 9
12 0 0 -7 5 -12 10 -12 6 0 10 28 10 63 l0 64 -49 2 c-41 1 -52 -3 -65 -21z
m82 -10 c7 -7 12 -21 12 -33 0 -47 -62 -63 -81 -21 -22 47 33 90 69 54z"/>
<path d="M14960 4323 c0 -35 4 -63 10 -63 6 0 10 19 10 43 0 48 13 67 46 67
24 0 34 -23 34 -77 0 -18 5 -33 10 -33 13 0 13 86 0 111 -9 16 -20 19 -60 18
l-50 -2 0 -64z"/>
<path d="M15346 4368 c-34 -48 -7 -108 48 -108 19 0 39 7 46 15 16 19 5 34
-12 17 -19 -19 -56 -14 -69 9 -24 46 33 93 69 57 17 -17 28 -2 12 17 -19 23
-76 19 -94 -7z"/>
<path d="M15496 4372 c-21 -25 -20 -75 2 -95 22 -20 63 -22 80 -5 9 9 12 9 12
0 0 -7 5 -12 10 -12 6 0 10 28 10 63 l0 63 -49 2 c-36 1 -52 -3 -65 -16z m85
-23 c18 -34 -4 -71 -38 -67 -34 4 -54 48 -33 72 18 23 57 20 71 -5z"/>
<path d="M15748 4378 c-16 -12 -22 -34 -19 -70 2 -26 30 -48 61 -48 31 0 72
31 50 38 -6 2 -17 -1 -23 -7 -24 -24 -67 -8 -67 25 0 2 23 4 50 4 43 0 50 3
50 19 0 43 -65 68 -102 39z m76 -23 c4 -12 -3 -15 -34 -15 -31 0 -38 3 -34 15
4 8 18 15 34 15 16 0 30 -7 34 -15z"/>
<path d="M15886 4358 c-15 -34 -7 -75 17 -90 18 -12 62 -9 75 4 16 16 17 -5 2
-33 -11 -20 -54 -26 -65 -9 -10 16 -35 12 -29 -5 7 -16 49 -31 74 -26 39 8 50
32 50 110 l0 77 -55 2 c-54 2 -56 1 -69 -30z m93 -10 c12 -31 -2 -62 -28 -66
-28 -4 -51 14 -51 42 0 47 63 66 79 24z"/>
<path d="M16057 4372 c-22 -25 -21 -75 1 -95 45 -41 112 -8 112 54 0 53 -77
81 -113 41z m84 -23 c16 -30 -3 -69 -34 -69 -29 0 -47 17 -47 45 0 45 60 63
81 24z"/>
<path d="M16200 4323 c0 -35 4 -63 10 -63 6 0 10 20 10 45 0 34 5 48 20 57 28
18 25 27 -10 26 l-30 -1 0 -64z"/>
<path d="M16290 4325 c0 -37 4 -65 10 -65 6 0 10 28 10 65 0 37 -4 65 -10 65
-6 0 -10 -28 -10 -65z"/>
<path d="M16356 4368 c-34 -48 -7 -108 48 -108 19 0 39 7 46 15 16 20 5 32
-14 16 -20 -17 -60 -10 -64 12 -3 14 4 17 47 17 55 0 62 9 35 48 -10 15 -25
22 -49 22 -24 0 -39 -7 -49 -22z m82 -15 c2 -9 -8 -13 -32 -13 -34 0 -44 8
-29 24 11 11 56 2 61 -11z"/>
<path d="M16500 4375 c-18 -22 -6 -42 35 -59 20 -9 34 -20 30 -26 -8 -14 -38
-13 -53 2 -17 17 -28 2 -12 -17 16 -19 64 -19 80 0 18 22 6 42 -35 59 -20 9
-34 20 -30 26 8 14 38 13 53 -2 17 -17 28 -2 12 17 -16 19 -64 19 -80 0z"/>
<path d="M2206 4283 c-11 -11 -6 -23 9 -23 8 0 15 4 15 9 0 13 -16 22 -24 14z"/>
<path d="M2936 4283 c-11 -11 -6 -23 9 -23 8 0 15 4 15 9 0 13 -16 22 -24 14z"/>
<path d="M3806 4283 c-11 -11 -6 -23 9 -23 8 0 15 4 15 9 0 13 -16 22 -24 14z"/>
<path d="M5940 4275 c0 -9 5 -15 11 -13 6 2 11 8 11 13 0 5 -5 11 -11 13 -6 2
-11 -4 -11 -13z"/>
<path d="M12940 3870 c0 -53 4 -90 10 -90 6 0 10 19 10 43 0 53 11 70 41 65
21 -3 24 -9 27 -55 2 -40 7 -53 19 -53 13 0 15 10 11 56 -5 63 -18 76 -65 71
-30 -3 -33 -1 -33 25 0 15 -4 28 -10 28 -6 0 -10 -37 -10 -90z"/>
<path d="M13490 3871 c0 -73 3 -91 14 -91 11 0 16 15 18 53 3 46 6 52 27 55
30 5 41 -12 41 -65 0 -24 5 -43 10 -43 6 0 10 24 10 54 0 62 -15 80 -59 74
-26 -4 -30 -1 -33 21 -2 13 -9 26 -15 29 -10 3 -13 -19 -13 -87z"/>
<path d="M14080 3870 c0 -53 4 -90 10 -90 6 0 10 19 10 43 0 48 13 67 46 67
24 0 34 -23 34 -77 0 -18 5 -33 10 -33 15 0 12 93 -3 114 -10 14 -23 17 -50
14 -35 -4 -37 -2 -37 24 0 15 -4 28 -10 28 -6 0 -10 -37 -10 -90z"/>
<path d="M14700 3871 c0 -73 3 -91 14 -91 11 0 16 15 18 53 3 46 6 52 27 55
30 5 41 -12 41 -65 0 -24 5 -43 10 -43 6 0 10 24 10 54 0 62 -15 80 -59 74
-26 -4 -30 -1 -33 21 -2 13 -9 26 -15 29 -10 3 -13 -19 -13 -87z"/>
<path d="M15802 3949 c2 -6 8 -10 13 -10 5 0 11 4 13 10 2 6 -4 11 -13 11 -9
0 -15 -5 -13 -11z"/>
<path d="M16112 3949 c2 -6 8 -10 13 -10 5 0 11 4 13 10 2 6 -4 11 -13 11 -9
0 -15 -5 -13 -11z"/>
<path d="M12851 3928 c-8 -23 1 -117 14 -138 8 -13 45 -13 45 0 0 6 -7 10 -15
10 -11 0 -15 12 -15 45 0 33 4 45 15 45 8 0 15 5 15 10 0 6 -7 10 -15 10 -8 0
-15 6 -15 14 0 26 -20 28 -29 4z"/>
<path d="M13260 3931 c0 -11 -6 -22 -12 -25 -10 -5 -10 -7 0 -12 7 -3 12 -25
12 -55 0 -52 11 -65 47 -56 16 4 15 6 -4 12 -19 6 -23 15 -23 50 0 35 4 44 23
50 l22 8 -22 4 c-15 3 -23 12 -23 24 0 10 -4 19 -10 19 -5 0 -10 -9 -10 -19z"/>
<path d="M13410 3930 c0 -11 -5 -20 -11 -20 -8 0 -8 -4 -1 -13 6 -7 12 -35 14
-62 3 -46 5 -50 31 -53 31 -4 37 13 7 21 -16 4 -20 14 -20 46 0 34 3 41 20 41
11 0 20 5 20 10 0 6 -9 10 -20 10 -13 0 -20 7 -20 20 0 11 -4 20 -10 20 -5 0
-10 -9 -10 -20z"/>
<path d="M14000 3931 c0 -11 -6 -22 -12 -25 -10 -5 -10 -7 0 -12 7 -3 12 -25
12 -55 0 -52 11 -65 47 -56 16 4 15 6 -4 12 -19 6 -23 15 -23 50 0 35 4 44 23
50 l22 8 -22 4 c-15 3 -23 12 -23 24 0 10 -4 19 -10 19 -5 0 -10 -9 -10 -19z"/>
<path d="M14860 3930 c0 -11 -5 -20 -11 -20 -8 0 -8 -4 -1 -13 6 -7 12 -35 14
-62 3 -46 5 -50 31 -53 31 -4 37 13 7 21 -16 4 -20 14 -20 46 0 34 3 41 20 41
11 0 20 5 20 10 0 6 -9 10 -20 10 -13 0 -20 7 -20 20 0 11 -4 20 -10 20 -5 0
-10 -9 -10 -20z"/>
<path d="M13096 3888 c-40 -57 -4 -108 74 -107 l50 2 0 62 0 62 -54 2 c-46 1
-57 -3 -70 -21z m90 -25 c12 -45 -28 -80 -61 -53 -15 13 -20 61 -8 73 3 4 19
7 34 7 23 0 30 -6 35 -27z"/>
<path d="M13657 3892 c-22 -25 -21 -75 1 -95 23 -21 75 -22 92 -2 16 19 5 34
-12 17 -15 -15 -51 -15 -66 0 -22 22 -13 28 43 28 60 0 67 9 39 48 -19 28 -74
30 -97 4z m81 -19 c2 -9 -9 -13 -38 -13 -37 0 -41 2 -30 16 15 17 61 15 68 -3z"/>
<path d="M13780 3907 c0 -2 11 -31 25 -65 20 -49 23 -66 15 -88 -11 -28 -6
-44 9 -28 15 17 74 175 67 181 -9 9 -12 4 -34 -52 l-20 -50 -18 53 c-10 28
-24 52 -31 52 -7 0 -13 -1 -13 -3z"/>
<path d="M14246 3894 c-40 -40 -11 -114 46 -114 56 0 86 60 52 108 -18 26 -74
30 -98 6z m82 -46 c3 -33 0 -38 -23 -44 -31 -8 -55 10 -55 40 0 30 20 47 50
44 21 -3 25 -9 28 -40z"/>
<path d="M14390 3856 c0 -65 11 -76 73 -74 l47 1 0 63 c0 49 -3 64 -14 64 -11
0 -16 -15 -18 -52 -3 -47 -6 -53 -27 -56 -30 -5 -41 12 -41 66 0 23 -4 42 -10
42 -5 0 -10 -24 -10 -54z"/>
<path d="M14546 3888 c-37 -53 -1 -115 61 -105 31 5 34 4 31 -16 -2 -17 -11
-23 -35 -25 -19 -2 -33 1 -33 7 0 6 -7 11 -15 11 -19 0 -19 -14 1 -30 25 -21
75 -16 96 9 14 18 18 40 18 96 l0 72 -54 2 c-46 1 -57 -3 -70 -21z m90 -25
c12 -45 -28 -80 -61 -53 -15 13 -20 61 -8 73 3 4 19 7 34 7 23 0 30 -6 35 -27z"/>
<path d="M15013 3845 c12 -36 27 -65 34 -65 7 0 18 21 24 46 13 49 23 48 36
-6 5 -19 15 -35 23 -35 14 0 56 112 46 122 -10 10 -17 -2 -30 -54 l-13 -48
-15 50 c-8 28 -21 50 -28 50 -7 0 -21 -22 -30 -50 l-17 -50 -12 53 c-8 30 -19
52 -26 52 -10 0 -8 -16 8 -65z"/>
<path d="M15216 3892 c-21 -25 -20 -75 2 -95 22 -20 63 -22 80 -5 9 9 12 9 12
0 0 -7 5 -12 10 -12 6 0 10 28 10 63 l0 63 -49 2 c-36 1 -52 -3 -65 -16z m85
-23 c18 -34 -4 -71 -38 -67 -34 4 -54 48 -33 72 18 23 57 20 71 -5z"/>
<path d="M15370 3895 c-18 -22 -6 -42 35 -59 20 -9 34 -20 30 -26 -8 -14 -38
-13 -53 2 -17 17 -28 2 -12 -17 16 -19 64 -19 80 0 18 22 6 42 -35 59 -20 9
-34 20 -30 26 8 14 38 13 53 -2 17 -17 28 -2 12 17 -16 19 -64 19 -80 0z"/>
<path d="M15560 3843 c0 -76 18 -85 22 -10 3 50 4 52 33 52 29 0 30 -2 33 -52
3 -60 22 -73 22 -15 0 46 19 76 46 70 15 -2 20 -13 22 -56 2 -37 7 -52 18 -52
17 0 20 80 4 111 -12 21 -74 27 -85 9 -5 -8 -11 -8 -19 0 -7 5 -32 9 -55 8
l-41 -1 0 -64z"/>
<path d="M15800 3845 c0 -51 3 -65 15 -65 12 0 15 14 15 65 0 51 -3 65 -15 65
-12 0 -15 -14 -15 -65z"/>
<path d="M15864 3895 c-10 -25 3 -44 41 -59 20 -9 34 -20 30 -26 -8 -14 -38
-13 -53 2 -17 17 -28 2 -12 -17 16 -19 64 -19 80 0 18 22 6 42 -35 59 -41 17
-46 36 -10 36 14 0 25 -4 25 -10 0 -5 7 -10 15 -10 18 0 19 12 3 28 -17 17
-77 15 -84 -3z"/>
<path d="M15991 3896 c-18 -22 2 -53 39 -61 37 -8 41 -35 5 -35 -14 0 -25 5
-25 10 0 6 -7 10 -15 10 -8 0 -15 -4 -15 -9 0 -18 30 -32 62 -29 27 2 34 8 36
30 3 22 -2 28 -32 39 -20 7 -36 19 -36 26 0 16 32 17 48 1 17 -17 28 -2 12 17
-16 19 -64 20 -79 1z"/>
<path d="M16110 3845 c0 -51 3 -65 15 -65 12 0 15 14 15 65 0 51 -3 65 -15 65
-12 0 -15 -14 -15 -65z"/>
<path d="M16170 3843 c0 -35 4 -63 10 -63 6 0 10 19 10 43 0 48 13 67 46 67
24 0 34 -23 34 -77 0 -18 5 -33 10 -33 13 0 13 86 0 111 -9 16 -20 19 -60 18
l-50 -2 0 -64z"/>
<path d="M16336 3892 c-21 -25 -20 -75 2 -95 22 -20 63 -22 80 -5 9 9 12 8 12
-4 0 -33 -12 -48 -39 -48 -15 0 -32 5 -39 12 -6 6 -15 8 -19 5 -13 -14 26 -40
59 -39 46 1 58 23 58 112 l0 76 -49 2 c-36 1 -52 -3 -65 -16z m85 -23 c18 -34
-4 -71 -38 -67 -34 4 -54 48 -33 72 18 23 57 20 71 -5z"/>
<path d="M7783 3043 c14 -4 17 -16 17 -64 0 -33 4 -59 10 -59 6 0 10 26 10 59
0 48 3 60 18 64 9 3 -3 5 -28 5 -25 0 -37 -2 -27 -5z"/>
<path d="M7883 2985 c0 -38 2 -55 4 -37 4 29 7 32 39 32 31 0 34 -2 34 -30 0
-16 5 -30 10 -30 6 0 10 28 10 65 0 37 -4 65 -10 65 -5 0 -10 -14 -10 -31 0
-28 -2 -30 -32 -27 -27 2 -34 8 -39 33 -4 19 -6 4 -6 -40z"/>
<path d="M8000 2985 l0 -65 38 1 c32 1 33 2 12 8 -15 4 -26 15 -28 28 -3 17 3
22 25 26 l28 4 -27 2 c-23 1 -28 6 -28 25 0 19 6 26 28 29 22 3 20 4 -10 6
l-38 1 0 -65z"/>
<path d="M8150 2985 c0 -37 4 -65 10 -65 6 0 10 13 10 29 0 23 5 31 23 34 l22
4 -22 2 c-17 1 -23 7 -23 25 0 20 6 25 33 29 28 3 26 4 -10 5 l-43 2 0 -65z"/>
<path d="M8257 3032 c-25 -27 -22 -78 5 -96 46 -33 108 -4 108 49 0 55 -77 87
-113 47z m71 -8 c30 -20 29 -59 -2 -79 -19 -13 -29 -14 -45 -5 -27 14 -29 74
-3 89 23 14 24 14 50 -5z"/>
<path d="M8390 2985 l0 -65 33 1 c23 1 26 3 10 6 -21 4 -23 10 -23 64 0 33 -4
59 -10 59 -6 0 -10 -28 -10 -65z"/>
<path d="M8470 2985 l0 -65 33 1 c23 1 26 3 10 6 -21 4 -23 10 -23 64 0 33 -4
59 -10 59 -6 0 -10 -28 -10 -65z"/>
<path d="M8567 3032 c-38 -42 -9 -112 46 -112 26 0 67 40 67 65 0 7 -9 24 -21
39 -24 31 -68 35 -92 8z m71 -8 c12 -8 22 -24 22 -35 0 -20 -33 -59 -50 -59
-15 0 -50 38 -50 55 0 16 34 55 48 55 4 0 18 -7 30 -16z"/>
<path d="M8693 3038 c2 -7 10 -37 17 -65 8 -29 19 -53 25 -53 7 0 19 24 27 53
l14 52 14 -52 c8 -29 19 -53 25 -53 7 0 19 27 28 60 20 69 20 70 9 70 -5 0
-14 -24 -22 -52 l-14 -53 -15 53 c-8 29 -19 51 -25 49 -6 -2 -17 -26 -25 -53
l-15 -49 -14 53 c-8 28 -19 52 -25 52 -5 0 -7 -6 -4 -12z"/>
<path d="M8880 2985 c0 -37 4 -65 10 -65 6 0 10 28 10 65 0 37 -4 65 -10 65
-6 0 -10 -28 -10 -65z"/>
<path d="M8932 2983 c1 -57 2 -60 5 -20 2 26 7 47 11 47 4 0 20 -20 35 -45 16
-25 33 -45 38 -45 5 0 9 29 9 65 0 75 -17 89 -22 18 l-3 -48 -30 47 c-16 27
-33 48 -37 48 -5 0 -7 -30 -6 -67z"/>
<path d="M9076 3035 c-31 -31 -27 -84 8 -107 34 -23 96 6 96 45 0 13 -9 17
-37 16 -31 -2 -33 -3 -10 -6 32 -5 36 -28 6 -43 -16 -9 -26 -8 -45 5 -32 21
-32 59 1 81 23 15 27 15 50 0 26 -17 34 -9 13 12 -17 17 -64 15 -82 -3z"/>
<path d="M9250 2985 l0 -65 33 0 c48 0 77 24 77 65 0 41 -29 65 -77 65 l-33 0
0 -65z m80 35 c11 -11 20 -26 20 -33 0 -23 -24 -47 -50 -49 -24 -3 -25 0 -28
50 -3 47 -1 52 17 52 12 0 30 -9 41 -20z"/>
<path d="M9380 2985 c0 -37 4 -65 10 -65 6 0 10 28 10 65 0 37 -4 65 -10 65
-6 0 -10 -28 -10 -65z"/>
<path d="M9451 2995 c-24 -64 -27 -88 -7 -62 16 21 62 23 70 2 3 -8 9 -15 14
-15 12 0 -32 123 -46 128 -6 2 -20 -22 -31 -53z m43 -1 c10 -26 7 -34 -15 -34
-15 0 -19 4 -15 16 3 9 6 20 6 25 0 15 17 10 24 -7z"/>
<path d="M9570 3030 c-40 -40 -11 -110 45 -110 28 0 65 32 65 55 0 11 -10 15
-37 14 -31 -2 -33 -3 -10 -6 28 -4 32 -10 19 -29 -23 -34 -82 -12 -82 31 0 43
59 65 82 31 4 -6 10 -7 14 -3 13 12 -18 37 -47 37 -16 0 -38 -9 -49 -20z"/>
<path d="M9700 2985 c0 -37 4 -65 10 -65 6 0 10 11 10 25 0 14 4 25 10 25 5 0
17 -11 26 -25 9 -14 21 -25 26 -25 6 0 3 12 -7 26 -16 25 -16 28 -1 36 19 11
21 39 4 56 -7 7 -27 12 -45 12 l-33 0 0 -65z m59 46 c19 -12 6 -41 -19 -41
-15 0 -20 7 -20 25 0 26 14 31 39 16z"/>
<path d="M9831 2992 c-24 -67 -25 -72 -11 -72 6 0 10 7 10 15 0 10 10 15 30
15 18 0 33 -6 36 -15 4 -8 10 -15 15 -15 12 0 -33 123 -47 127 -6 2 -21 -23
-33 -55z m48 -19 c1 -7 -8 -13 -19 -13 -23 0 -23 0 -9 37 10 26 12 27 19 8 5
-11 9 -26 9 -32z"/>
<path d="M9940 2985 c0 -71 19 -92 21 -22 l1 42 19 -42 c11 -24 23 -43 28 -43
4 0 16 19 26 43 l18 42 7 -45 c7 -42 7 -41 8 23 1 37 -2 67 -6 67 -4 0 -18
-24 -31 -52 l-23 -53 -24 53 c-13 28 -28 52 -34 52 -6 0 -10 -28 -10 -65z"/>
<path d="M10150 2985 l0 -65 33 0 c48 0 77 24 77 65 0 41 -29 65 -77 65 l-33
0 0 -65z m64 45 c21 -8 26 -16 26 -45 0 -29 -5 -37 -26 -45 -41 -16 -44 -13
-44 45 0 58 3 61 44 45z"/>
<path d="M10280 2985 c0 -37 4 -65 10 -65 6 0 10 28 10 65 0 37 -4 65 -10 65
-6 0 -10 -28 -10 -65z"/>
<path d="M10337 3043 c-4 -3 -7 -17 -7 -29 0 -17 7 -25 25 -30 35 -9 49 -28
30 -44 -12 -10 -18 -10 -30 0 -18 15 -34 5 -18 -11 6 -6 23 -9 39 -7 23 2 30
9 32 30 3 23 -2 30 -34 43 -35 14 -37 17 -21 32 13 14 19 14 32 3 8 -7 19 -10
22 -6 4 4 1 11 -7 16 -17 11 -54 13 -63 3z"/>
<path d="M10440 2985 c0 -37 4 -65 10 -65 6 0 10 11 10 25 0 15 6 25 14 25 8
0 24 8 36 18 19 16 21 22 11 40 -9 16 -21 22 -46 22 l-35 0 0 -65z m59 46 c19
-12 6 -41 -19 -41 -15 0 -20 7 -20 25 0 26 14 31 39 16z"/>
<path d="M10552 2988 l-2 -68 33 1 c29 1 30 2 7 8 -22 6 -26 14 -31 66 l-6 60
-1 -67z"/>
<path d="M10643 2988 c-22 -58 -23 -93 -2 -55 6 9 21 17 34 17 13 0 28 -8 34
-17 5 -10 12 -15 15 -12 9 9 -36 129 -48 129 -6 0 -21 -28 -33 -62z m40 -26
c-22 -5 -26 4 -18 35 l8 28 12 -30 c11 -26 11 -30 -2 -33z"/>
<path d="M10750 3045 c0 -3 9 -23 20 -45 11 -22 20 -50 21 -62 1 -19 2 -17 8
7 4 17 15 44 24 62 19 36 21 43 9 43 -5 0 -15 -15 -24 -32 l-15 -33 -17 33
c-15 29 -26 40 -26 27z"/>
<path d="M10872 3041 c-23 -14 -9 -45 26 -60 17 -8 32 -20 32 -27 0 -17 -31
-27 -44 -14 -16 16 -30 12 -16 -5 18 -22 57 -19 70 6 14 25 1 44 -35 53 -25 6
-33 30 -15 41 6 4 18 1 26 -6 16 -13 30 -6 19 10 -7 13 -45 14 -63 2z"/>
<path d="M11020 2985 c0 -37 4 -65 10 -65 6 0 10 14 10 30 0 27 3 30 30 30 27
0 30 -3 30 -30 0 -16 5 -30 10 -30 6 0 10 28 10 65 0 37 -4 65 -10 65 -5 0
-10 -13 -10 -30 0 -27 -3 -30 -30 -30 -27 0 -30 3 -30 30 0 17 -4 30 -10 30
-6 0 -10 -28 -10 -65z"/>
<path d="M11166 3035 c-23 -23 -28 -52 -15 -77 16 -30 28 -38 60 -38 53 0 80
77 41 113 -23 21 -66 22 -86 2z m66 -7 c29 -22 27 -72 -3 -88 -16 -9 -26 -8
-45 5 -31 20 -32 59 -2 79 27 19 30 19 50 4z"/>
<path d="M11290 3043 c0 -27 35 -123 44 -120 6 2 17 26 25 53 l14 49 15 -53
c8 -29 20 -51 26 -49 6 2 16 23 23 47 7 23 15 51 18 61 4 11 2 19 -3 19 -6 0
-16 -23 -23 -50 -14 -54 -24 -51 -34 12 -9 54 -31 48 -45 -13 -14 -56 -24 -52
-35 13 -4 21 -11 38 -16 38 -5 0 -9 -3 -9 -7z"/>
<path d="M7743 2673 c14 -4 17 -16 17 -64 0 -33 4 -59 10 -59 6 0 10 26 10 59
0 54 2 60 23 64 12 2 0 4 -28 4 -27 1 -42 -1 -32 -4z"/>
<path d="M7843 2615 c0 -38 2 -55 4 -37 4 29 7 32 39 32 31 0 34 -2 34 -30 0
-16 5 -30 10 -30 6 0 10 28 10 65 0 37 -4 65 -10 65 -5 0 -10 -14 -10 -31 0
-28 -2 -30 -32 -27 -27 2 -34 8 -39 33 -4 19 -6 4 -6 -40z"/>
<path d="M7970 2615 l0 -65 38 1 c36 1 36 2 7 8 -21 4 -31 13 -33 29 -3 18 2
22 25 23 28 1 28 1 3 8 -37 10 -33 44 5 52 29 6 29 7 -7 8 l-38 1 0 -65z"/>
<path d="M8110 2615 c0 -37 4 -65 10 -65 6 0 10 11 10 24 0 18 7 25 29 29 33
7 49 40 31 62 -7 8 -28 15 -46 15 l-34 0 0 -65z m59 46 c19 -12 6 -41 -19 -41
-15 0 -20 7 -20 25 0 26 14 31 39 16z"/>
<path d="M8249 2653 c-29 -74 -37 -103 -30 -103 5 0 11 7 15 15 3 9 18 15 36
15 20 0 30 -5 30 -15 0 -8 5 -15 10 -15 14 0 13 5 -11 71 -12 33 -26 59 -31
59 -4 0 -13 -12 -19 -27z m36 -40 c5 -19 2 -23 -14 -23 -23 0 -24 3 -15 38 7
26 18 20 29 -15z"/>
<path d="M8351 2613 c1 -38 4 -56 6 -40 5 34 25 35 43 2 7 -14 17 -25 22 -25
12 0 10 14 -4 28 -10 10 -10 17 0 32 27 44 10 70 -44 70 -23 0 -24 -2 -23 -67z
m59 42 c16 -19 4 -35 -26 -35 -17 0 -24 6 -24 18 0 34 28 43 50 17z"/>
<path d="M8468 2670 c19 -8 22 -17 24 -67 l1 -58 6 59 c5 47 10 61 26 67 14 5
4 8 -30 8 -40 0 -45 -2 -27 -9z"/>
<path d="M8560 2615 c0 -37 4 -65 10 -65 6 0 10 28 10 65 0 37 -4 65 -10 65
-6 0 -10 -28 -10 -65z"/>
<path d="M8620 2660 c-41 -41 -10 -110 49 -110 16 0 34 7 41 15 18 22 4 31
-16 11 -17 -17 -52 -13 -66 8 -13 19 -9 54 8 70 20 20 38 20 59 0 20 -20 33
-11 15 11 -18 21 -66 19 -90 -5z"/>
<path d="M8750 2615 c0 -37 4 -65 10 -65 6 0 10 11 10 25 0 15 6 25 14 25 8 0
24 8 36 18 19 16 21 22 11 40 -9 16 -21 22 -46 22 l-35 0 0 -65z m59 46 c19
-12 6 -41 -19 -41 -15 0 -20 7 -20 25 0 26 14 31 39 16z"/>
<path d="M8873 2618 c-22 -58 -23 -93 -2 -55 6 9 21 17 34 17 13 0 28 -8 34
-17 5 -10 12 -15 15 -12 9 9 -36 129 -48 129 -6 0 -21 -28 -33 -62z m40 -26
c-22 -5 -26 4 -18 35 l8 28 12 -30 c11 -26 11 -30 -2 -33z"/>
<path d="M8980 2615 c0 -37 4 -65 10 -65 6 0 10 24 10 52 l0 53 35 -53 c20
-28 40 -52 45 -52 6 0 10 29 10 65 0 37 -4 65 -10 65 -5 0 -10 -24 -10 -52 l0
-53 -35 53 c-20 28 -40 52 -45 52 -6 0 -10 -29 -10 -65z"/>
<path d="M9123 2673 c14 -4 17 -16 17 -64 0 -33 4 -59 10 -59 6 0 10 26 10 59
0 48 3 60 18 64 9 3 -3 5 -28 5 -25 0 -37 -2 -27 -5z"/>
<path d="M9221 2662 c-12 -23 4 -52 30 -52 23 0 36 -27 20 -43 -8 -8 -14 -8
-23 1 -7 7 -18 12 -26 12 -12 0 -12 -3 -2 -15 15 -18 51 -20 68 -3 21 21 13
44 -20 59 -17 8 -33 19 -35 25 -5 16 28 27 41 14 16 -16 30 -12 16 5 -17 21
-57 19 -69 -3z"/>
<path d="M9386 2661 c-11 -12 -16 -31 -14 -52 6 -63 91 -80 116 -24 16 36 17
35 -25 34 -32 -2 -33 -3 -10 -6 31 -5 31 -20 1 -39 -33 -21 -64 -1 -64 40 0
47 30 65 67 41 29 -20 47 -10 19 11 -28 20 -70 17 -90 -5z"/>
<path d="M9520 2615 c0 -37 4 -65 10 -65 6 0 10 11 10 25 0 14 5 25 10 25 6 0
16 -11 22 -25 6 -14 17 -25 25 -25 11 0 10 5 -3 25 -15 22 -15 26 0 40 19 19
19 21 6 46 -8 13 -21 19 -45 19 l-35 0 0 -65z m60 40 c15 -18 5 -35 -21 -35
-14 0 -19 7 -19 25 0 28 21 33 40 10z"/>
<path d="M9647 2662 c-25 -27 -22 -78 5 -96 46 -33 108 -4 108 49 0 55 -77 87
-113 47z m71 -8 c30 -20 29 -59 -2 -79 -19 -13 -29 -14 -45 -5 -27 14 -29 74
-3 89 23 14 24 14 50 -5z"/>
<path d="M9780 2627 c0 -58 12 -77 46 -77 37 0 54 26 54 81 0 27 -4 49 -10 49
-5 0 -10 -22 -10 -49 0 -52 -16 -76 -44 -65 -12 5 -16 19 -16 60 0 30 -4 54
-10 54 -5 0 -10 -24 -10 -53z"/>
<path d="M9911 2613 c1 -38 4 -56 6 -42 3 18 13 28 36 35 23 6 33 16 35 33 4
28 -12 41 -50 41 -28 0 -28 0 -27 -67z m56 46 c17 -17 4 -39 -23 -39 -17 0
-24 6 -24 18 0 32 25 43 47 21z"/>
<path d="M10010 2615 l0 -65 38 1 c32 1 33 2 12 8 -15 4 -26 15 -28 28 -3 17
3 22 25 26 l28 4 -27 2 c-23 1 -28 6 -28 25 0 19 6 26 28 29 22 3 20 4 -10 6
l-38 1 0 -65z"/>
<path d="M10110 2615 l0 -65 35 0 c22 0 43 8 55 20 43 43 10 110 -55 110 l-35
0 0 -65z m68 39 c12 -8 22 -26 22 -39 0 -13 -10 -31 -22 -39 -39 -28 -48 -21
-48 39 0 60 9 67 48 39z"/>
<path d="M10298 2673 c20 -4 22 -10 22 -64 0 -33 4 -59 10 -59 6 0 10 26 10
59 0 48 3 60 18 64 9 3 -5 5 -33 4 -27 0 -40 -2 -27 -4z"/>
<path d="M10390 2615 c0 -37 4 -65 10 -65 6 0 10 14 10 30 0 27 3 30 30 30 27
0 30 -3 30 -30 0 -16 5 -30 10 -30 6 0 10 28 10 65 0 37 -4 65 -10 65 -5 0
-10 -13 -10 -30 0 -27 -3 -30 -30 -30 -27 0 -30 3 -30 30 0 17 -4 30 -10 30
-6 0 -10 -28 -10 -65z"/>
<path d="M10520 2615 l0 -65 38 1 c30 2 32 3 10 6 -22 3 -28 10 -28 28 0 18 6
25 28 28 l27 4 -27 2 c-23 1 -28 6 -28 25 0 19 6 26 28 29 22 3 20 4 -10 6
l-38 1 0 -65z"/>
<path d="M10680 2660 c-41 -41 -10 -110 49 -110 16 0 34 7 41 15 18 22 4 31
-16 11 -17 -17 -52 -13 -66 8 -13 19 -9 54 8 70 20 20 38 20 59 0 20 -20 33
-11 15 11 -18 21 -66 19 -90 -5z"/>
<path d="M10827 2662 c-38 -42 -9 -112 46 -112 26 0 67 40 67 65 0 7 -9 24
-21 39 -24 31 -68 35 -92 8z m71 -8 c12 -8 22 -24 22 -35 0 -20 -33 -59 -50
-59 -15 0 -50 38 -50 55 0 16 34 55 48 55 4 0 18 -7 30 -16z"/>
<path d="M10962 2613 c1 -57 2 -60 5 -20 2 26 7 47 11 47 4 0 20 -20 35 -45
16 -25 33 -45 38 -45 5 0 9 29 9 65 0 75 -17 89 -22 18 l-3 -48 -30 47 c-16
27 -33 48 -37 48 -5 0 -7 -30 -6 -67z"/>
<path d="M11098 2670 c19 -8 22 -17 24 -67 l1 -58 6 59 c5 47 10 61 26 67 14
5 4 8 -30 8 -40 0 -45 -2 -27 -9z"/>
<path d="M11190 2615 l0 -65 38 1 c30 2 32 3 10 6 -36 6 -40 49 -5 56 l22 4
-22 2 c-17 1 -23 7 -23 25 0 19 6 26 28 29 22 3 20 4 -10 6 l-38 1 0 -65z"/>
<path d="M11292 2613 c1 -57 2 -60 5 -20 2 26 7 47 11 47 4 0 20 -20 35 -45
16 -25 33 -45 38 -45 5 0 9 29 9 65 0 75 -17 89 -22 18 l-3 -48 -30 47 c-16
27 -33 48 -37 48 -5 0 -7 -30 -6 -67z"/>
<path d="M11423 2673 c14 -4 17 -16 17 -64 0 -33 4 -59 10 -59 6 0 10 26 10
59 0 54 2 60 23 64 12 2 0 4 -28 4 -27 1 -42 -1 -32 -4z"/>
<path d="M1080 1953 c0 -10 17028 -28 17038 -18 3 3 3 7 0 10 -10 11 -17038
19 -17038 8z"/>
</g>
</svg>
