<?xml version="1.0" standalone="no"?>
<!DOCTYPE svg PUBLIC "-//W3C//DTD SVG 20010904//EN"
 "http://www.w3.org/TR/2001/REC-SVG-20010904/DTD/svg10.dtd">
<svg version="1.0" xmlns="http://www.w3.org/2000/svg"
 width="400.000000pt" height="225.000000pt" viewBox="0 0 400.000000 225.000000"
 preserveAspectRatio="xMidYMid meet">

<g transform="translate(0.000000,225.000000) scale(0.100000,-0.100000)"
fill="#000000" stroke="none">
<path d="M2071 2074 c0 -11 3 -14 6 -6 3 7 2 16 -1 19 -3 4 -6 -2 -5 -13z"/>
<path d="M1940 2061 c0 -11 4 -22 9 -25 4 -3 6 6 3 19 -5 30 -12 33 -12 6z"/>
<path d="M1885 2050 c-3 -6 1 -7 9 -4 18 7 21 14 7 14 -6 0 -13 -4 -16 -10z"/>
<path d="M2110 2056 c0 -2 8 -10 18 -17 15 -13 16 -12 3 4 -13 16 -21 21 -21
13z"/>
<path d="M1980 2040 c8 -5 24 -10 34 -10 26 0 18 6 -19 14 -22 5 -26 4 -15 -4z"/>
<path d="M2079 2033 c-13 -16 -12 -17 4 -4 9 7 17 15 17 17 0 8 -8 3 -21 -13z"/>
<path d="M2045 2031 c-3 -5 -2 -12 3 -15 5 -3 9 1 9 9 0 17 -3 19 -12 6z"/>
<path d="M1870 2024 c0 -20 29 -37 47 -28 10 4 21 8 25 8 3 1 10 5 15 10 5 5
3 6 -4 2 -8 -4 -13 -2 -13 6 0 8 -5 6 -11 -4 -5 -10 -16 -18 -24 -18 -8 0 -19
8 -24 18 -6 9 -11 12 -11 6z"/>
<path d="M2115 2009 c-4 -6 -13 -8 -21 -5 -16 6 -25 -6 -16 -21 4 -6 16 -1 32
13 13 13 22 24 18 24 -4 0 -10 -5 -13 -11z"/>
<path d="M1963 1983 c-3 -10 -8 -22 -11 -27 -3 -5 0 -6 6 -2 7 4 12 3 12 -2 0
-12 72 -4 85 9 6 6 2 15 -10 27 -11 9 -14 10 -7 3 6 -8 12 -19 12 -23 0 -13
-38 -9 -43 5 -4 10 -6 10 -6 0 -1 -18 -31 -16 -31 1 0 8 6 17 13 19 9 4 9 6
-1 6 -7 1 -15 -7 -19 -16z"/>
<path d="M1921 1963 c0 -6 -4 -20 -7 -30 -5 -14 -4 -15 5 -7 7 7 11 20 8 30
-3 11 -5 14 -6 7z"/>
<path d="M2098 1938 c2 -10 6 -18 7 -18 1 0 5 8 7 18 3 11 0 19 -7 19 -7 0
-10 -8 -7 -19z"/>
<path d="M2047 1925 c-4 -8 -11 -15 -17 -15 -6 0 -8 5 -4 11 5 8 1 8 -14 0
-25 -13 -35 -14 -28 -3 3 5 -1 9 -9 9 -10 0 -12 -4 -5 -12 13 -16 65 -14 81 2
7 7 10 15 7 18 -3 3 -8 -1 -11 -10z"/>
<path d="M2160 1931 c0 -6 -10 -16 -22 -21 -16 -6 -18 -9 -7 -9 19 -1 45 26
35 36 -3 3 -6 1 -6 -6z"/>
<path d="M2058 1898 c-15 -15 -23 -28 -19 -28 9 0 56 49 50 53 -2 1 -16 -10
-31 -25z"/>
<path d="M1905 1890 c-4 -6 1 -7 11 -3 14 5 16 3 10 -13 -5 -14 -4 -16 5 -7
12 12 5 33 -11 33 -5 0 -12 -4 -15 -10z"/>
<path d="M1967 1879 c7 -7 15 -10 18 -7 3 3 -2 9 -12 12 -14 6 -15 5 -6 -5z"/>
<path d="M1965 1849 c-4 -6 -5 -12 -2 -15 2 -3 7 2 10 11 7 17 1 20 -8 4z"/>
<path d="M1900 1836 c7 -7 13 -7 20 0 6 6 3 10 -10 10 -13 0 -16 -4 -10 -10z"/>
<path d="M1991 1834 c0 -11 3 -14 6 -6 3 7 2 16 -1 19 -3 4 -6 -2 -5 -13z"/>
<path d="M1622 1745 c7 -7 799 -7 806 0 3 3 -178 5 -403 5 -225 0 -406 -2
-403 -5z"/>
<path d="M1525 1726 c-37 -17 -90 -72 -104 -107 -16 -43 -25 -269 -11 -269 9
0 11 17 8 63 -3 34 -1 87 2 117 4 30 8 -302 9 -737 1 -783 1 -793 21 -793 19
0 20 11 22 794 3 786 3 795 24 823 34 46 79 64 159 61 66 -3 70 -4 73 -28 2
-14 11 -33 19 -42 15 -16 41 -18 278 -18 237 0 263 2 278 18 8 9 17 28 19 42
3 24 5 25 85 25 67 0 87 -4 110 -21 60 -45 58 -6 61 -866 3 -777 3 -788 22
-788 20 0 20 11 20 784 0 558 -3 793 -11 817 -7 19 -23 47 -38 63 -51 56 -51
56 -549 56 l-459 0 -44 -23 c-30 -16 -50 -36 -64 -65 -21 -43 -37 -56 -28 -22
11 40 67 91 123 110 35 13 46 19 30 19 -14 0 -38 -6 -55 -13z"/>
<path d="M2498 1722 c88 -32 117 -71 132 -175 l9 -62 -3 68 c-3 58 -8 74 -33
105 -42 51 -73 72 -118 78 -39 5 -38 4 13 -14z"/>
<path d="M2255 1550 c4 -6 11 -8 16 -5 14 9 11 15 -7 15 -8 0 -12 -5 -9 -10z"/>
<path d="M2490 1550 c0 -5 5 -10 10 -10 6 0 10 5 10 10 0 6 -4 10 -10 10 -5 0
-10 -4 -10 -10z"/>
<path d="M2634 1285 c0 -99 2 -138 3 -87 2 51 2 132 0 180 -1 48 -3 6 -3 -93z"/>
<path d="M1657 1414 c-8 -8 1 -24 14 -24 5 0 9 7 9 15 0 15 -12 20 -23 9z"/>
<path d="M1392 1295 c-2 -33 13 -64 25 -52 4 5 2 11 -4 15 -6 4 -13 21 -16 37
l-4 30 -1 -30z"/>
<path d="M2182 1235 c-9 -19 -9 -25 1 -25 6 0 13 11 13 25 2 31 0 31 -14 0z"/>
<path d="M1931 1234 c0 -11 3 -14 6 -6 3 7 2 16 -1 19 -3 4 -6 -2 -5 -13z"/>
<path d="M1902 1224 c-7 -8 -8 -14 -3 -14 10 0 25 19 20 25 -2 1 -10 -3 -17
-11z"/>
<path d="M1970 1231 c0 -10 19 -25 25 -20 1 2 -3 10 -11 17 -8 7 -14 8 -14 3z"/>
<path d="M2047 1233 c-13 -12 -7 -23 11 -22 10 0 12 3 4 6 -6 2 -10 9 -6 14 6
10 0 12 -9 2z"/>
<path d="M2137 1233 c-10 -9 -9 -23 1 -23 5 0 9 7 9 15 0 17 -1 18 -10 8z"/>
<path d="M1400 1185 c0 -25 5 -45 10 -45 6 0 10 20 10 45 0 25 -4 45 -10 45
-5 0 -10 -20 -10 -45z"/>
<path d="M2086 1218 c3 -5 10 -6 15 -3 13 9 11 12 -6 12 -8 0 -12 -4 -9 -9z"/>
<path d="M2515 1065 c0 -35 3 -61 8 -58 4 2 7 28 7 58 0 30 -3 56 -7 58 -5 3
-8 -23 -8 -58z"/>
<path d="M1638 1104 c28 -20 28 -58 0 -78 -12 -9 -18 -16 -12 -16 17 0 44 35
44 57 0 20 -28 53 -46 53 -4 0 2 -7 14 -16z"/>
<path d="M2630 1084 c0 -8 5 -12 10 -9 6 3 10 10 10 16 0 5 -4 9 -10 9 -5 0
-10 -7 -10 -16z"/>
<path d="M1758 1083 c7 -3 16 -2 19 1 4 3 -2 6 -13 5 -11 0 -14 -3 -6 -6z"/>
<path d="M2230 1076 c0 -2 7 -7 16 -10 8 -3 12 -2 9 4 -6 10 -25 14 -25 6z"/>
<path d="M2654 945 c0 -71 1 -99 3 -62 2 37 2 96 0 130 -2 34 -3 4 -3 -68z"/>
<path d="M1400 975 c0 -8 5 -15 10 -15 6 0 10 7 10 15 0 8 -4 15 -10 15 -5 0
-10 -7 -10 -15z"/>
<path d="M1400 915 c0 -8 5 -15 10 -15 6 0 10 7 10 15 0 8 -4 15 -10 15 -5 0
-10 -7 -10 -15z"/>
<path d="M1393 825 c0 -27 2 -38 4 -22 2 15 2 37 0 50 -2 12 -4 0 -4 -28z"/>
<path d="M1642 854 c-12 -8 -22 -20 -22 -26 0 -7 6 -4 13 5 6 9 23 21 37 26
14 5 18 10 10 10 -9 1 -26 -6 -38 -15z"/>
<path d="M1713 844 c9 -11 17 -29 17 -39 0 -10 -8 -28 -17 -39 -18 -21 -18
-21 5 -2 12 11 22 29 22 41 0 12 -10 30 -22 41 -23 19 -23 19 -5 -2z"/>
<path d="M1650 819 c0 -5 5 -7 10 -4 6 3 10 8 10 11 0 2 -4 4 -10 4 -5 0 -10
-5 -10 -11z"/>
<path d="M2632 410 l3 -415 5 405 c3 223 2 409 -2 415 -5 5 -7 -178 -6 -405z"/>
<path d="M1620 780 c0 -14 47 -43 62 -37 8 4 6 6 -4 6 -10 1 -27 10 -38 21
-11 11 -20 16 -20 10z"/>
<path d="M1400 740 c0 -5 5 -10 10 -10 6 0 10 5 10 10 0 6 -4 10 -10 10 -5 0
-10 -4 -10 -10z"/>
<path d="M1400 358 c0 -230 4 -358 10 -348 12 20 12 710 0 710 -6 0 -10 -138
-10 -362z"/>
</g>
</svg>
