<?xml version="1.0" standalone="no"?>
<!DOCTYPE svg PUBLIC "-//W3C//DTD SVG 20010904//EN"
 "http://www.w3.org/TR/2001/REC-SVG-20010904/DTD/svg10.dtd">
<svg version="1.0" xmlns="http://www.w3.org/2000/svg"
 width="1920.000000pt" height="1080.000000pt" viewBox="0 0 1920.000000 1080.000000"
 preserveAspectRatio="xMidYMid meet">

<g transform="translate(0.000000,1080.000000) scale(0.100000,-0.100000)"
fill="#000000" stroke="none">
<path d="M9891 9834 c0 -11 3 -14 6 -6 3 7 2 16 -1 19 -3 4 -6 -2 -5 -13z"/>
<path d="M9041 9714 c0 -11 3 -14 6 -6 3 7 2 16 -1 19 -3 4 -6 -2 -5 -13z"/>
<path d="M7680 8329 c-277 -26 -478 -113 -630 -275 -77 -82 -102 -117 -149
-209 -56 -112 -72 -163 -97 -315 -15 -93 -19 -410 -5 -410 4 0 11 89 14 198 4
141 12 224 26 293 80 372 336 613 731 686 88 16 232 18 1958 20 1191 3 1862 7
1862 13 0 12 -3584 11 -3710 -1z"/>
<path d="M11470 8330 c0 -6 30 -10 69 -10 127 0 325 -22 421 -46 174 -44 312
-124 424 -245 167 -180 228 -367 242 -736 4 -104 11 -173 17 -173 15 0 0 347
-19 450 -73 392 -320 651 -701 735 -133 29 -453 47 -453 25z"/>
<path d="M7740 8260 c-283 -16 -456 -82 -619 -235 -87 -81 -172 -220 -205
-336 -51 -175 -48 68 -53 -3956 l-5 -3733 106 0 106 0 0 3699 c0 2566 3 3724
11 3778 23 173 77 292 179 393 105 105 229 158 425 180 125 14 527 13 559 -1
31 -15 43 -47 49 -130 5 -77 32 -142 80 -196 56 -62 114 -85 237 -95 58 -5
596 -7 1195 -4 1189 4 1128 1 1215 61 46 32 96 103 109 154 5 20 12 67 16 105
6 57 12 73 33 93 l27 25 290 -5 c305 -5 371 -13 485 -59 175 -69 305 -220 355
-413 9 -33 20 -114 25 -180 6 -73 10 -1556 10 -3762 l0 -3643 100 0 100 0 -1
3717 c0 2273 -4 3745 -10 3788 -51 380 -268 632 -619 721 -66 17 -144 27 -260
34 -190 11 -3751 11 -3940 0z"/>
<path d="M7344 7514 c-16 -13 -16 -15 -1 -10 15 5 17 -2 17 -44 0 -38 -4 -50
-17 -53 -10 -3 2 -5 27 -5 25 0 37 2 28 5 -15 4 -18 16 -18 64 0 63 -5 68 -36
43z"/>
<path d="M7446 7522 c-3 -5 8 -7 23 -4 43 6 45 -20 5 -72 l-35 -46 43 2 c38 1
39 2 10 5 l-33 4 31 35 c32 36 34 43 24 68 -6 17 -59 23 -68 8z"/>
<path d="M7605 7520 c-4 -7 3 -8 20 -4 18 4 30 2 36 -7 10 -16 -7 -39 -30 -40
-9 -1 -5 -4 9 -8 16 -4 25 -14 25 -26 0 -16 -7 -20 -32 -20 -18 0 -33 -3 -33
-8 0 -5 17 -7 38 -5 32 3 37 7 40 31 2 15 -2 27 -7 27 -8 0 -7 6 0 19 18 28 4
51 -30 51 -16 0 -33 -5 -36 -10z"/>
<path d="M7720 7511 c-24 -46 -5 -111 33 -111 34 0 47 19 47 65 0 23 -5 46
-12 53 -18 18 -56 14 -68 -7z m58 -3 c25 -25 11 -98 -18 -98 -24 0 -32 14 -32
55 0 53 22 71 50 43z"/>
<path d="M11500 7490 c0 -38 1 -40 21 -30 29 16 51 5 47 -22 -2 -19 -9 -23
-35 -23 -18 0 -28 -4 -24 -8 5 -5 21 -7 37 -5 26 3 29 7 29 38 0 33 -2 35 -32
35 -27 0 -33 4 -33 22 0 18 7 22 38 26 l37 4 -42 1 -43 2 0 -40z"/>
<path d="M11620 7511 c-14 -27 -13 -84 2 -99 7 -7 21 -12 33 -12 30 0 45 19
45 58 0 46 -16 72 -45 72 -14 0 -29 -8 -35 -19z m61 -12 c6 -12 8 -36 4 -55
-5 -27 -11 -34 -29 -34 -25 0 -36 17 -36 55 0 55 38 76 61 34z"/>
<path d="M11736 7521 c-4 -5 2 -7 13 -4 23 6 34 -10 26 -37 -7 -21 -30 -27
-38 -10 -3 6 -4 5 -3 -2 4 -22 34 -20 46 2 6 11 8 30 5 40 -6 20 -39 27 -49
11z"/>
<path d="M11816 7497 c-11 -18 -28 -47 -38 -64 -11 -18 -17 -33 -14 -33 7 0
78 121 73 126 -2 2 -11 -11 -21 -29z"/>
<path d="M10821 7484 l-35 -15 45 -47 c24 -25 45 -48 46 -50 3 -7 83 84 83 95
0 13 -52 33 -84 33 -12 -1 -36 -7 -55 -16z"/>
<path d="M7550 7480 c0 -5 5 -10 10 -10 6 0 10 5 10 10 0 6 -4 10 -10 10 -5 0
-10 -4 -10 -10z"/>
<path d="M11953 7473 c-2 -6 -3 -24 -1 -40 3 -27 6 -28 61 -31 l57 -3 0 40 0
39 -56 4 c-37 2 -58 -1 -61 -9z"/>
<path d="M11832 7468 c-13 -13 -16 -54 -4 -61 4 -3 7 9 7 26 0 22 5 32 15 32
19 0 26 -45 8 -57 -10 -8 -10 -9 2 -5 19 5 25 44 10 63 -15 17 -22 18 -38 2z"/>
<path d="M11195 7410 l-39 -40 42 0 42 0 0 40 c0 22 -1 40 -3 40 -2 0 -21 -18
-42 -40z"/>
<path d="M6790 6730 c0 -300 -1 -310 -19 -310 -11 0 -22 -4 -25 -9 -3 -4 7 -6
22 -4 25 3 25 3 5 -6 -22 -10 -22 -15 -25 -208 -2 -109 -1 -204 1 -210 2 -7
12 -13 22 -13 18 0 19 -11 19 -205 0 -169 -2 -205 -14 -205 -13 0 -26 -20 -26
-42 0 -6 6 -5 15 2 9 7 18 10 22 6 4 -3 -2 -13 -13 -21 -18 -14 -18 -16 -1
-26 16 -9 17 -38 17 -374 0 -332 -1 -364 -17 -367 -15 -3 -15 -4 1 -21 10 -10
15 -21 11 -25 -3 -4 -13 2 -21 12 -11 16 -14 17 -14 4 0 -27 11 -48 26 -48 11
0 14 -24 14 -116 0 -106 -2 -117 -21 -133 -17 -14 -20 -23 -14 -49 3 -17 12
-30 18 -29 9 1 13 -90 15 -365 2 -314 0 -368 -12 -368 -16 0 -32 -53 -21 -70
3 -5 13 -10 21 -10 12 0 14 -234 14 -1760 0 -1167 3 -1760 10 -1760 7 0 10
1180 10 3520 0 2340 -3 3520 -10 3520 -6 0 -10 -110 -10 -310z m0 -530 c0
-153 -2 -180 -15 -180 -13 0 -15 27 -15 180 0 153 2 180 15 180 13 0 15 -27
15 -180z m-7 -207 c-7 -2 -19 -2 -25 0 -7 3 -2 5 12 5 14 0 19 -2 13 -5z m7
-1618 c0 -8 -7 -15 -15 -15 -16 0 -20 12 -8 23 11 12 23 8 23 -8z m0 -821 c0
-2 -7 -4 -15 -4 -8 0 -15 4 -15 10 0 5 7 7 15 4 8 -4 15 -8 15 -10z"/>
<path d="M12630 3520 c0 -2340 3 -3520 10 -3520 7 0 10 643 10 1909 0 1688 2
1910 15 1915 8 3 15 16 15 30 0 14 -7 31 -15 40 -13 13 -15 98 -15 649 0 499
3 636 13 640 9 3 8 8 -3 22 -14 17 -13 18 3 12 12 -5 17 -1 17 13 0 11 -7 20
-15 20 -13 0 -15 106 -15 895 0 590 -3 895 -10 895 -7 0 -10 -1180 -10 -3520z
m40 340 c0 -5 -5 -10 -11 -10 -5 0 -7 5 -4 10 3 6 8 10 11 10 2 0 4 -4 4 -10z"/>
<path d="M11447 6872 c-13 -14 -17 -39 -17 -104 0 -110 8 -118 113 -118 106 0
117 12 117 120 0 109 -11 120 -118 120 -64 0 -82 -4 -95 -18z m183 -21 c5 -11
10 -47 10 -81 0 -93 -7 -100 -93 -100 -44 0 -78 5 -85 12 -7 7 -12 42 -12 88
0 46 5 81 12 88 7 7 41 12 85 12 61 0 74 -3 83 -19z"/>
<path d="M11520 6810 c-13 -8 -13 -10 2 -10 13 0 18 -11 21 -47 3 -47 3 -47 5
10 2 58 -2 64 -28 47z"/>
<path d="M12034 6876 c-9 -24 4 -48 23 -44 12 2 18 12 18 28 0 29 -32 41 -41
16z"/>
<path d="M7337 6827 c-59 -54 -68 -67 -43 -67 11 0 16 -15 18 -52 l3 -53 78
-3 c94 -3 107 4 107 64 0 35 4 44 17 44 12 0 -2 20 -42 60 -33 33 -64 60 -70
60 -5 -1 -36 -24 -68 -53z m107 -6 c24 -25 27 -34 24 -87 l-3 -59 -65 0 -65 0
-3 54 c-3 49 0 57 29 87 18 19 38 34 44 34 6 0 24 -13 39 -29z"/>
<path d="M7982 6854 c-12 -8 -22 -23 -22 -33 0 -11 -7 -21 -15 -25 -20 -7 -21
-99 -1 -116 14 -11 94 -12 124 -2 19 7 17 122 -3 122 -8 0 -15 9 -15 19 0 19
-24 51 -38 51 -4 0 -18 -7 -30 -16z m47 -23 c12 -22 5 -31 -26 -31 -16 0 -23
6 -23 18 0 36 33 44 49 13z"/>
<path d="M9645 6790 c-15 -45 -25 -84 -22 -87 3 -2 17 32 32 77 14 46 24 85
21 87 -2 2 -16 -32 -31 -77z"/>
<path d="M8770 6791 c0 -49 4 -72 15 -81 9 -7 19 -9 23 -5 4 4 1 10 -5 12 -9
3 -13 28 -13 74 0 39 -4 69 -10 69 -6 0 -10 -30 -10 -69z"/>
<path d="M8835 6850 c-3 -5 -1 -10 4 -10 6 0 11 5 11 10 0 6 -2 10 -4 10 -3 0
-8 -4 -11 -10z"/>
<path d="M9010 6850 c0 -5 5 -10 10 -10 6 0 10 5 10 10 0 6 -4 10 -10 10 -5 0
-10 -4 -10 -10z"/>
<path d="M8250 6791 c-22 -41 2 -91 43 -91 28 0 28 19 0 22 -25 3 -28 7 -28
38 0 33 2 35 32 34 18 -1 30 2 27 7 -10 17 -63 10 -74 -10z"/>
<path d="M8356 6802 c-3 -6 8 -9 25 -8 45 2 49 -21 5 -29 -61 -12 -54 -58 9
-60 l36 -2 -3 51 c-3 49 -4 51 -35 54 -17 2 -34 -1 -37 -6z m60 -54 c9 -14
-23 -38 -42 -31 -20 7 -17 31 4 36 29 8 31 7 38 -5z"/>
<path d="M8471 6750 c1 -30 3 -44 6 -30 9 58 15 71 36 80 19 7 18 8 -10 7
l-33 -2 1 -55z"/>
<path d="M8550 6791 c-26 -49 13 -102 62 -85 21 8 20 9 -11 14 -48 7 -53 30
-7 30 41 0 51 12 36 40 -14 27 -65 27 -80 1z m68 -13 c3 -14 -3 -18 -27 -18
-29 0 -41 17 -24 34 13 13 48 1 51 -16z"/>
<path d="M8672 6798 c-18 -18 -14 -63 6 -81 21 -19 48 -22 57 -7 3 6 -5 10
-19 10 -31 0 -47 27 -35 59 7 18 15 22 34 19 14 -3 25 -1 25 3 0 13 -54 11
-68 -3z"/>
<path d="M8843 6755 c0 -33 2 -45 4 -27 2 18 2 45 0 60 -2 15 -4 0 -4 -33z"/>
<path d="M8892 6750 c1 -49 2 -50 5 -13 7 75 63 88 63 14 0 -22 5 -43 10 -46
12 -7 14 74 2 93 -5 7 -24 11 -45 10 l-37 -3 2 -55z"/>
<path d="M9010 6761 c0 -28 5 -53 10 -56 6 -4 10 15 10 49 0 31 -4 56 -10 56
-5 0 -10 -22 -10 -49z"/>
<path d="M9072 6798 c-29 -29 -1 -98 41 -98 28 0 28 19 0 22 -25 3 -28 7 -28
38 0 32 3 35 28 35 15 -1 27 3 27 7 0 13 -55 9 -68 -4z"/>
<path d="M9220 6791 c-22 -41 2 -91 43 -91 28 0 28 19 0 22 -22 2 -29 9 -31
32 -4 34 13 49 46 41 15 -4 21 -2 17 5 -11 18 -63 12 -75 -9z"/>
<path d="M9318 6784 c-24 -52 37 -108 76 -69 19 19 21 66 4 83 -22 22 -67 14
-80 -14z m72 -4 c18 -33 3 -62 -28 -58 -21 2 -28 9 -30 32 -5 45 38 64 58 26z"/>
<path d="M9440 6759 c0 -63 18 -73 22 -12 3 40 6 48 23 48 16 0 21 -8 23 -42
2 -24 7 -43 12 -43 5 0 10 19 12 43 2 34 7 42 23 42 16 0 21 -8 23 -40 5 -58
22 -69 22 -14 0 24 -4 49 -8 55 -4 7 -36 12 -79 11 l-73 0 0 -48z"/>
<path d="M9883 6760 c0 -25 2 -35 4 -22 2 12 2 32 0 45 -2 12 -4 2 -4 -23z"/>
<path d="M12034 6786 c-9 -24 4 -48 23 -44 12 2 18 12 18 28 0 29 -32 41 -41
16z"/>
<path d="M9832 6760 c0 -14 2 -19 5 -12 2 6 2 18 0 25 -3 6 -5 1 -5 -13z"/>
<path d="M10163 6745 c0 -22 2 -30 4 -17 2 12 2 30 0 40 -3 9 -5 -1 -4 -23z"/>
<path d="M9170 6709 c0 -5 5 -7 10 -4 6 3 10 8 10 11 0 2 -4 4 -10 4 -5 0 -10
-5 -10 -11z"/>
<path d="M12034 6696 c-9 -24 4 -48 23 -44 12 2 18 12 18 28 0 29 -32 41 -41
16z"/>
<path d="M7602 6064 c-12 -8 -22 -26 -22 -39 0 -14 -9 -29 -20 -35 -14 -8 -20
-21 -20 -45 0 -24 6 -37 20 -45 13 -7 20 -21 20 -38 0 -38 48 -67 83 -51 18 8
30 8 46 0 32 -18 81 11 81 47 0 16 8 32 20 40 14 8 20 23 20 47 0 24 -6 37
-20 45 -12 6 -20 21 -20 35 0 36 -43 62 -80 48 -16 -6 -34 -7 -41 -2 -21 13
-42 11 -67 -7z m161 -13 c4 0 7 -12 7 -25 0 -12 11 -35 25 -50 14 -15 25 -31
25 -37 0 -5 -11 -19 -25 -31 -14 -12 -25 -32 -25 -44 0 -31 -33 -49 -59 -32
-15 9 -25 9 -46 0 -34 -16 -65 0 -65 33 0 14 -9 33 -20 42 -11 10 -20 27 -20
38 0 11 9 26 20 33 11 7 20 22 20 35 0 13 5 28 10 33 9 9 112 12 153 5z"/>
<path d="M7640 5985 c-20 -24 -15 -67 10 -87 30 -25 58 -20 84 15 19 26 19 30
5 55 -18 33 -77 43 -99 17z m88 -37 c4 -18 -23 -48 -43 -48 -15 0 -45 27 -45
41 0 5 9 18 21 30 18 18 23 19 42 6 12 -8 23 -21 25 -29z"/>
<path d="M8372 6059 c-114 -74 -62 -249 75 -249 50 0 82 18 110 59 27 40 30
98 8 141 -34 65 -129 89 -193 49z m154 -33 c62 -62 42 -159 -39 -191 -78 -31
-157 26 -157 112 0 38 5 50 34 79 29 29 41 34 81 34 40 0 52 -5 81 -34z"/>
<path d="M8430 5973 l-31 -28 30 -29 c35 -34 55 -28 23 7 l-22 23 22 22 c33
33 14 37 -22 5z"/>
<path d="M11748 6064 c-53 -28 -73 -105 -43 -164 27 -53 101 -75 160 -48 22
10 29 8 55 -17 16 -16 33 -25 37 -21 5 4 -5 18 -22 31 -28 23 -29 26 -17 58
16 46 15 84 -4 117 -34 56 -108 76 -166 44z m133 -33 c64 -65 20 -171 -71
-171 -33 0 -48 6 -71 29 -64 65 -20 171 71 171 33 0 48 -6 71 -29z"/>
<path d="M8967 6064 c-4 -4 -7 -48 -7 -99 0 -94 -8 -115 -42 -115 -10 0 -18
-7 -18 -15 0 -10 11 -15 35 -15 55 0 66 27 63 146 -3 90 -11 117 -31 98z"/>
<path d="M9783 6058 c-37 -18 -30 -41 10 -33 35 8 35 8 59 6 23 -1 32 -35 17
-63 -6 -13 -34 -47 -61 -76 -27 -28 -46 -57 -43 -62 3 -6 42 -10 86 -10 64 0
79 3 79 15 0 11 -12 15 -50 15 -52 0 -61 8 -33 31 34 28 73 93 73 121 0 57
-73 87 -137 56z"/>
<path d="M9999 6041 c-26 -26 -29 -36 -29 -91 0 -64 18 -113 45 -124 66 -25
119 10 130 88 19 124 -71 202 -146 127z m85 -16 c30 -30 32 -127 4 -162 -14
-18 -43 -16 -62 3 -25 24 -22 128 4 154 24 24 34 25 54 5z"/>
<path d="M10213 6060 c-13 -5 -23 -16 -23 -25 0 -18 4 -18 47 -6 26 8 37 6 55
-9 28 -23 20 -43 -52 -122 -28 -32 -49 -62 -45 -68 3 -5 42 -10 86 -10 64 0
79 3 79 15 0 11 -12 15 -50 15 -27 0 -50 3 -50 8 0 4 18 27 40 51 23 25 42 59
46 79 6 31 3 39 -20 59 -28 24 -73 29 -113 13z"/>
<path d="M10428 6058 c-16 -5 -28 -16 -28 -24 0 -16 5 -17 45 -5 43 12 75 -2
75 -34 0 -18 -17 -44 -55 -84 -77 -81 -75 -91 25 -91 64 0 80 3 80 15 0 11
-12 15 -50 15 -27 0 -50 3 -50 6 0 3 20 29 45 56 37 41 45 57 45 89 0 61 -56
85 -132 57z"/>
<path d="M9057 5983 c-12 -11 -7 -107 6 -133 14 -28 68 -40 93 -19 10 8 14 8
14 0 0 -6 9 -11 20 -11 18 0 20 7 20 85 0 78 -2 85 -20 85 -18 0 -20 -7 -20
-58 0 -62 -11 -82 -46 -82 -27 0 -34 17 -34 86 0 38 -4 54 -13 54 -8 0 -17 -3
-20 -7z"/>
<path d="M9267 5983 c-4 -3 -7 -42 -7 -85 0 -71 2 -78 20 -78 17 0 20 7 20 53
0 63 16 90 51 85 22 -3 24 -7 27 -70 3 -60 5 -68 22 -68 18 0 20 7 20 66 0 36
-5 74 -10 85 -12 21 -59 26 -91 9 -13 -7 -19 -7 -19 0 0 11 -23 14 -33 3z"/>
<path d="M9489 5971 c-19 -15 -24 -29 -24 -66 0 -37 5 -51 24 -66 35 -29 131
-25 131 6 0 8 -14 11 -48 7 -35 -3 -51 0 -61 11 -21 26 -4 37 55 37 50 0 54 2
54 23 0 12 -7 33 -16 45 -20 29 -82 30 -115 3z m82 -11 c36 -20 23 -40 -26
-40 -49 0 -53 4 -28 32 19 21 27 22 54 8z"/>
<path d="M12164 5120 c0 -124 2 -174 3 -112 2 61 2 163 0 225 -1 61 -3 11 -3
-113z"/>
<path d="M8572 5165 c0 -16 2 -22 5 -12 2 9 2 23 0 30 -3 6 -5 -1 -5 -18z"/>
<path d="M9841 5164 c0 -11 3 -14 6 -6 3 7 2 16 -1 19 -3 4 -6 -2 -5 -13z"/>
<path d="M8573 5095 c0 -22 2 -30 4 -17 2 12 2 30 0 40 -3 9 -5 -1 -4 -23z"/>
<path d="M7678 5113 c12 -2 30 -2 40 0 9 3 -1 5 -23 4 -22 0 -30 -2 -17 -4z"/>
<path d="M7768 5113 c12 -2 30 -2 40 0 9 3 -1 5 -23 4 -22 0 -30 -2 -17 -4z"/>
<path d="M8372 5095 c0 -16 2 -22 5 -12 2 9 2 23 0 30 -3 6 -5 -1 -5 -18z"/>
<path d="M8542 5095 c0 -16 2 -22 5 -12 2 9 2 23 0 30 -3 6 -5 -1 -5 -18z"/>
<path d="M8802 5100 c0 -14 2 -19 5 -12 2 6 2 18 0 25 -3 6 -5 1 -5 -13z"/>
<path d="M9643 5105 c-3 -9 -3 -18 -1 -21 3 -3 8 4 11 16 6 23 -1 27 -10 5z"/>
<path d="M9844 5106 c-3 -8 -4 -25 -2 -38 3 -17 5 -13 9 15 5 38 2 47 -7 23z"/>
<path d="M10031 5104 c0 -11 3 -14 6 -6 3 7 2 16 -1 19 -3 4 -6 -2 -5 -13z"/>
<path d="M10074 5106 c-3 -8 -4 -27 -1 -43 3 -24 4 -23 6 9 0 20 7 39 14 41 9
4 9 6 -1 6 -7 1 -15 -5 -18 -13z"/>
<path d="M10312 5095 c0 -16 2 -22 5 -12 2 9 2 23 0 30 -3 6 -5 -1 -5 -18z"/>
<path d="M11124 5105 c-3 -8 -4 -20 -2 -27 3 -7 7 -1 10 15 6 29 1 36 -8 12z"/>
<path d="M8252 5080 c0 -19 2 -27 5 -17 2 9 2 25 0 35 -3 9 -5 1 -5 -18z"/>
<path d="M10951 5094 c0 -11 3 -14 6 -6 3 7 2 16 -1 19 -3 4 -6 -2 -5 -13z"/>
<path d="M9872 5075 c0 -16 2 -22 5 -12 2 9 2 23 0 30 -3 6 -5 -1 -5 -18z"/>
<path d="M8301 5074 c0 -11 3 -14 6 -6 3 7 2 16 -1 19 -3 4 -6 -2 -5 -13z"/>
<path d="M11780 4385 c-6 -8 -9 -23 -5 -35 8 -25 51 -27 64 -2 20 38 -31 71
-59 37z"/>
<path d="M11884 4386 c-12 -31 0 -51 31 -51 24 0 31 5 33 24 6 36 -51 60 -64
27z"/>
<path d="M11989 4384 c-17 -21 0 -48 34 -52 18 -2 27 2 32 18 13 41 -38 68
-66 34z"/>
<path d="M9230 4175 c0 -14 5 -25 10 -25 6 0 10 11 10 25 0 14 -4 25 -10 25
-5 0 -10 -11 -10 -25z"/>
<path d="M11355 4156 c-43 -18 -92 -78 -105 -127 -14 -50 0 -118 31 -158 102
-130 325 -69 332 91 2 42 1 43 -32 48 -33 5 -43 15 -55 53 -3 9 -14 17 -25 17
-20 0 -53 38 -50 56 6 37 -37 46 -96 20z m85 -30 c0 -27 20 -51 50 -61 11 -3
20 -13 20 -21 0 -22 38 -54 65 -54 28 0 30 -9 15 -59 -35 -121 -211 -155 -289
-55 -29 37 -45 95 -37 137 13 72 84 137 148 137 23 0 28 -4 28 -24z"/>
<path d="M11337 4033 c-12 -11 -8 -23 8 -23 8 0 15 7 15 15 0 16 -12 20 -23 8z"/>
<path d="M11436 4003 c-11 -11 -6 -23 9 -23 8 0 15 4 15 9 0 13 -16 22 -24 14z"/>
<path d="M11350 3915 c0 -8 7 -15 15 -15 8 0 15 7 15 15 0 8 -7 15 -15 15 -8
0 -15 -7 -15 -15z"/>
<path d="M11470 3906 c0 -9 7 -16 16 -16 9 0 14 5 12 12 -6 18 -28 21 -28 4z"/>
<path d="M7936 4140 c-61 -24 -119 -79 -154 -145 -22 -42 -26 -63 -26 -130 0
-67 4 -88 26 -131 31 -59 93 -118 152 -145 62 -28 176 -26 241 5 182 86 231
318 97 467 -63 70 -109 92 -207 96 -62 3 -91 -1 -129 -17z m210 -36 c87 -36
148 -115 160 -207 33 -237 -265 -385 -434 -216 -55 55 -76 104 -76 184 0 147
104 253 250 254 35 1 78 -6 100 -15z"/>
<path d="M7904 3976 c-3 -8 -4 -25 -2 -38 2 -19 10 -23 45 -26 34 -3 44 1 53
17 18 35 -3 61 -51 61 -25 0 -42 -5 -45 -14z"/>
<path d="M8104 3976 c-3 -8 -4 -25 -2 -38 2 -19 10 -23 45 -26 34 -3 44 1 53
17 18 35 -3 61 -51 61 -25 0 -42 -5 -45 -14z"/>
<path d="M7962 3824 c5 -26 51 -55 87 -56 35 -1 84 29 89 56 4 21 -31 22 -48
1 -7 -8 -25 -15 -40 -15 -15 0 -33 7 -40 15 -17 21 -52 20 -48 -1z"/>
<path d="M9090 4133 c0 -13 29 -38 35 -31 3 3 -4 13 -15 23 -11 10 -20 13 -20
8z"/>
<path d="M9365 4120 c-14 -15 -15 -20 -4 -20 8 0 20 9 27 20 7 11 8 20 4 20
-5 0 -17 -9 -27 -20z"/>
<path d="M10488 4134 c-12 -12 -10 -304 2 -304 6 0 10 16 10 35 l0 35 200 0
200 0 0 -35 c0 -19 5 -35 11 -35 7 0 10 36 7 111 -3 96 -6 113 -22 125 -16 11
-61 14 -207 14 l-188 0 -3 31 c-2 17 -6 27 -10 23z m162 -144 l0 -70 -75 0
-75 0 0 70 0 70 75 0 75 0 0 -70z m238 58 c7 -7 12 -38 12 -70 l0 -59 -116 3
-116 3 0 63 c1 34 1 64 1 67 2 11 207 5 219 -7z"/>
<path d="M9845 4116 c-42 -19 -54 -44 -75 -155 -19 -93 -19 -97 -1 -121 31
-43 60 -37 121 25 72 73 91 73 161 0 57 -60 86 -68 119 -35 24 24 24 32 1 140
-21 102 -32 125 -71 145 -38 19 -212 20 -255 1z m266 -35 c36 -37 38 -79 5
-118 -23 -26 -31 -28 -110 -32 l-86 -3 -41 -49 c-44 -53 -80 -64 -99 -30 -11
22 22 204 42 229 21 25 50 31 156 31 101 1 104 0 133 -28z m54 -171 c12 -87
-29 -106 -89 -42 -43 45 -44 52 -8 52 17 0 39 10 53 23 13 13 27 22 31 20 3
-2 9 -26 13 -53z"/>
<path d="M9890 4047 c0 -9 -7 -17 -15 -17 -8 0 -15 -4 -15 -10 0 -5 7 -10 15
-10 8 0 15 -8 15 -17 0 -14 3 -13 20 5 l21 22 -21 22 c-17 18 -20 19 -20 5z"/>
<path d="M10010 4020 c0 -5 16 -10 35 -10 19 0 35 5 35 10 0 6 -16 10 -35 10
-19 0 -35 -4 -35 -10z"/>
<path d="M9174 4081 c-53 -32 -68 -103 -34 -159 63 -104 220 -58 220 64 0 39
-5 51 -34 80 -28 28 -41 34 -77 34 -26 0 -57 -8 -75 -19z m138 -28 c21 -20 28
-36 28 -66 0 -49 -13 -73 -52 -93 -93 -48 -191 68 -127 150 42 53 102 56 151
9z"/>
<path d="M9043 3983 c9 -2 23 -2 30 0 6 3 -1 5 -18 5 -16 0 -22 -2 -12 -5z"/>
<path d="M9410 3986 c0 -9 40 -13 46 -5 3 5 -6 9 -20 9 -14 0 -26 -2 -26 -4z"/>
<path d="M9102 3858 c-19 -19 -14 -30 8 -18 11 6 20 15 20 20 0 14 -14 12 -28
-2z"/>
<path d="M9365 3850 c10 -11 23 -20 28 -20 6 0 2 9 -8 20 -10 11 -23 20 -28
20 -6 0 -2 -9 8 -20z"/>
<path d="M9230 3795 c0 -14 5 -25 10 -25 6 0 10 11 10 25 0 14 -4 25 -10 25
-5 0 -10 -11 -10 -25z"/>
<path d="M9920 3580 c0 -5 9 -10 20 -10 14 0 20 -7 20 -23 0 -19 -8 -25 -37
-33 -29 -7 -40 -16 -48 -39 -5 -16 -21 -40 -35 -51 -21 -19 -25 -32 -28 -98
-2 -42 -1 -87 2 -101 l7 -26 152 3 152 3 3 85 c4 103 -2 128 -31 141 -13 6
-28 25 -33 42 -7 26 -16 34 -46 41 -30 8 -38 14 -38 33 0 20 5 23 40 23 26 0
42 -6 50 -17 9 -16 10 -15 8 7 -3 24 -6 25 -80 28 -49 2 -78 -1 -78 -8z m118
-92 c7 -7 12 -20 12 -30 0 -16 -10 -18 -80 -18 -70 0 -80 2 -80 18 0 10 5 23
12 30 16 16 120 16 136 0z m60 -80 c8 -8 12 -45 12 -100 l0 -88 -140 0 -140 0
0 81 c0 120 -2 119 138 119 79 0 122 -4 130 -12z"/>
<path d="M9093 3540 c-55 -33 -58 -121 -5 -194 44 -61 135 -130 164 -123 35 9
136 104 160 150 52 104 0 199 -101 183 -18 -3 -42 -13 -52 -22 -17 -15 -20
-15 -45 5 -33 26 -79 27 -121 1z m120 -26 l26 -26 32 26 c44 37 89 35 123 -5
14 -17 26 -42 26 -55 0 -53 -54 -129 -133 -189 l-39 -29 -35 19 c-52 28 -129
117 -140 163 -12 45 3 93 34 111 33 19 78 13 106 -15z"/>
<path d="M8158 3273 c-30 -8 -20 -20 12 -15 40 6 40 -18 -1 -69 l-31 -39 44 1
c23 0 36 3 28 6 -8 2 -21 6 -28 9 -10 3 -7 12 12 35 31 36 33 55 7 69 -11 5
-21 9 -23 9 -2 -1 -11 -3 -20 -6z"/>
<path d="M7782 3263 c25 -4 27 -8 31 -61 l3 -57 2 57 c2 50 5 57 25 61 12 2
-3 4 -33 4 -30 0 -43 -2 -28 -4z"/>
<path d="M7892 3210 c0 -65 1 -68 12 -17 4 18 13 27 26 27 14 0 20 -8 22 -37
3 -31 6 -34 12 -19 5 10 5 29 0 45 -8 20 -16 26 -36 24 -20 -1 -28 4 -31 20
-2 12 -5 -7 -5 -43z"/>
<path d="M8265 3260 c-3 -5 1 -10 9 -10 24 0 22 -76 -1 -89 -14 -8 -10 -10 22
-10 32 0 36 2 23 10 -13 7 -18 23 -18 59 0 37 -4 50 -14 50 -8 0 -18 -4 -21
-10z"/>
<path d="M8048 3203 c-4 -49 -32 -53 -36 -5 -4 39 -22 43 -22 5 0 -40 11 -52
48 -51 30 1 32 3 32 39 0 50 -18 60 -22 12z"/>
<path d="M11798 2513 c7 -3 16 -2 19 1 4 3 -2 6 -13 5 -11 0 -14 -3 -6 -6z"/>
<path d="M11908 2513 c7 -3 16 -2 19 1 4 3 -2 6 -13 5 -11 0 -14 -3 -6 -6z"/>
<path d="M12018 2513 c7 -3 16 -2 19 1 4 3 -2 6 -13 5 -11 0 -14 -3 -6 -6z"/>
<path d="M11412 2270 c0 -19 2 -27 5 -17 2 9 2 25 0 35 -3 9 -5 1 -5 -18z"/>
<path d="M9878 2283 c7 -3 16 -2 19 1 4 3 -2 6 -13 5 -11 0 -14 -3 -6 -6z"/>
<path d="M10048 2283 c6 -2 18 -2 25 0 6 3 1 5 -13 5 -14 0 -19 -2 -12 -5z"/>
<path d="M10673 2283 c15 -2 39 -2 55 0 15 2 2 4 -28 4 -30 0 -43 -2 -27 -4z"/>
<path d="M8043 2273 c9 -2 23 -2 30 0 6 3 -1 5 -18 5 -16 0 -22 -2 -12 -5z"/>
<path d="M10658 2223 c7 -3 16 -2 19 1 4 3 -2 6 -13 5 -11 0 -14 -3 -6 -6z"/>
<path d="M10728 2223 c7 -3 16 -2 19 1 4 3 -2 6 -13 5 -11 0 -14 -3 -6 -6z"/>
<path d="M10608 2133 c6 -2 18 -2 25 0 6 3 1 5 -13 5 -14 0 -19 -2 -12 -5z"/>
<path d="M9062 2025 c0 -16 2 -22 5 -12 2 9 2 23 0 30 -3 6 -5 -1 -5 -18z"/>
<path d="M8342 1985 c0 -16 2 -22 5 -12 2 9 2 23 0 30 -3 6 -5 -1 -5 -18z"/>
<path d="M9163 1943 c31 -2 83 -2 115 0 31 2 5 3 -58 3 -63 0 -89 -1 -57 -3z"/>
<path d="M11263 1943 c9 -2 25 -2 35 0 9 3 1 5 -18 5 -19 0 -27 -2 -17 -5z"/>
<path d="M11373 1943 c26 -2 67 -2 90 0 23 2 2 3 -48 3 -49 0 -68 -1 -42 -3z"/>
<path d="M11533 1943 c9 -2 25 -2 35 0 9 3 1 5 -18 5 -19 0 -27 -2 -17 -5z"/>
<path d="M9833 1635 c-3 -9 -3 -18 -1 -21 3 -3 8 4 11 16 6 23 -1 27 -10 5z"/>
<path d="M10163 1560 c0 -25 2 -35 4 -22 2 12 2 32 0 45 -2 12 -4 2 -4 -23z"/>
<path d="M9833 1510 c0 -47 2 -66 4 -42 2 23 2 61 0 85 -2 23 -4 4 -4 -43z"/>
<path d="M10163 1460 c0 -25 2 -35 4 -22 2 12 2 32 0 45 -2 12 -4 2 -4 -23z"/>
<path d="M9830 1396 c0 -8 4 -17 9 -20 5 -4 7 3 4 14 -6 23 -13 26 -13 6z"/>
<path d="M9868 1373 c6 -2 18 -2 25 0 6 3 1 5 -13 5 -14 0 -19 -2 -12 -5z"/>
<path d="M10053 1373 c9 -2 25 -2 35 0 9 3 1 5 -18 5 -19 0 -27 -2 -17 -5z"/>
</g>
</svg>
