<?xml version="1.0" standalone="no"?>
<!DOCTYPE svg PUBLIC "-//W3C//DTD SVG 20010904//EN"
 "http://www.w3.org/TR/2001/REC-SVG-20010904/DTD/svg10.dtd">
<svg version="1.0" xmlns="http://www.w3.org/2000/svg"
 width="1920.000000pt" height="1080.000000pt" viewBox="0 0 1920.000000 1080.000000"
 preserveAspectRatio="xMidYMid meet">

<g transform="translate(0.000000,1080.000000) scale(0.100000,-0.100000)"
fill="#000000" stroke="none">
<path d="M8033 9485 c0 -27 2 -38 4 -22 2 15 2 37 0 50 -2 12 -4 0 -4 -28z"/>
<path d="M8407 9523 c-4 -3 -6 -25 -6 -47 1 -23 3 -33 6 -23 2 9 10 17 18 17
7 0 18 7 25 15 20 24 -21 61 -43 38z m39 -14 c10 -17 -13 -36 -27 -22 -12 12
-4 33 11 33 5 0 12 -5 16 -11z"/>
<path d="M7847 9495 c3 -16 9 -37 14 -45 6 -12 9 -12 14 5 17 49 18 50 28 18
5 -18 13 -33 17 -33 10 0 23 70 16 78 -3 3 -6 -4 -6 -16 0 -31 -17 -36 -24 -7
-8 33 -22 32 -31 -2 l-7 -28 -13 30 -14 30 6 -30z"/>
<path d="M7971 9501 c-20 -13 -10 -56 14 -57 15 -1 16 0 3 3 -24 6 -23 23 2
23 11 0 20 4 20 9 0 16 -25 30 -39 22z m24 -11 c3 -5 -1 -10 -10 -10 -9 0 -13
5 -10 10 3 6 8 10 10 10 2 0 7 -4 10 -10z"/>
<path d="M8066 9494 c-19 -19 -5 -54 22 -53 14 0 14 2 2 6 -25 10 -30 27 -13
45 20 22 10 24 -11 2z"/>
<path d="M8125 9497 c-25 -19 -12 -59 18 -55 26 4 35 39 14 56 -10 9 -18 8
-32 -1z m35 -28 c0 -20 -24 -26 -35 -9 -8 13 14 42 26 34 5 -3 9 -14 9 -25z"/>
<path d="M8310 9495 c-17 -20 -8 -50 15 -51 15 -1 16 0 3 3 -24 6 -23 23 2 23
11 0 20 6 20 14 0 20 -27 27 -40 11z m25 -5 c3 -5 -1 -10 -10 -10 -9 0 -13 5
-10 10 3 6 8 10 10 10 2 0 7 -4 10 -10z"/>
<path d="M8553 9502 c-6 -4 -11 -18 -11 -32 0 -14 -1 -32 -3 -40 -3 -10 4 -15
21 -15 33 0 42 35 8 36 l-23 0 23 9 c12 5 22 16 22 24 0 16 -22 27 -37 18z
m18 -25 c-13 -13 -26 -3 -16 12 3 6 11 8 17 5 6 -4 6 -10 -1 -17z m9 -47 c0
-5 -7 -10 -15 -10 -8 0 -15 5 -15 10 0 6 7 10 15 10 8 0 15 -4 15 -10z"/>
<path d="M8621 9501 c-20 -13 -10 -56 14 -57 15 -1 16 0 3 3 -24 6 -23 23 2
23 11 0 20 4 20 9 0 16 -25 30 -39 22z m24 -11 c3 -5 -1 -10 -10 -10 -9 0 -13
5 -10 10 3 6 8 10 10 10 2 0 7 -4 10 -10z"/>
<path d="M8190 9470 c0 -16 2 -30 4 -30 2 0 6 14 8 30 3 17 1 30 -4 30 -4 0
-8 -13 -8 -30z"/>
<path d="M8228 9470 c2 -16 5 -30 7 -30 2 0 5 14 7 30 3 19 0 30 -7 30 -7 0
-10 -11 -7 -30z"/>
<path d="M8268 9470 c2 -16 6 -30 8 -30 2 0 4 14 4 30 0 17 -4 30 -8 30 -5 0
-7 -13 -4 -30z"/>
<path d="M8504 9491 c3 -5 -3 -11 -14 -14 -30 -8 -25 -37 5 -37 21 0 25 5 25
30 0 17 -5 30 -11 30 -5 0 -8 -4 -5 -9z m6 -31 c0 -5 -7 -10 -16 -10 -8 0 -12
5 -9 10 3 6 10 10 16 10 5 0 9 -4 9 -10z"/>
<path d="M1843 8835 c0 -27 2 -38 4 -22 2 15 2 37 0 50 -2 12 -4 0 -4 -28z"/>
<path d="M2990 8865 c0 -8 -9 -15 -19 -15 -26 0 -38 -38 -19 -56 26 -26 48 -6
48 42 0 24 -2 44 -5 44 -3 0 -5 -7 -5 -15z m0 -44 c0 -11 -5 -23 -11 -27 -15
-9 -33 12 -26 30 9 23 37 20 37 -3z"/>
<path d="M1472 8823 c-1 -30 -7 -53 -14 -56 -10 -4 -10 -6 0 -6 18 -1 24 20
19 70 l-4 44 -1 -52z"/>
<path d="M2637 8863 c-11 -11 -8 -58 5 -71 7 -7 19 -12 28 -11 9 0 6 4 -8 10
-33 13 -27 60 8 70 l25 7 -26 1 c-14 1 -29 -2 -32 -6z"/>
<path d="M2773 8830 c0 -25 2 -35 4 -22 2 12 2 32 0 45 -2 12 -4 2 -4 -23z"/>
<path d="M5010 8851 c0 -11 9 -23 20 -26 26 -8 25 -23 -2 -35 -13 -5 -18 -9
-11 -9 41 -3 57 31 23 49 -25 13 -26 27 -2 33 13 4 11 5 -5 6 -16 1 -23 -5
-23 -18z"/>
<path d="M9264 8828 c1 -33 5 -43 19 -44 11 -1 12 0 3 3 -9 2 -17 21 -19 44
l-4 39 1 -42z"/>
<path d="M9350 8834 c0 -45 21 -64 47 -43 20 17 12 53 -12 58 -11 2 -23 8 -27
15 -4 6 -8 -8 -8 -30z m50 -13 c0 -11 -5 -23 -11 -27 -15 -9 -33 12 -26 30 9
23 37 20 37 -3z"/>
<path d="M13414 8858 c-4 -6 5 -21 21 -34 l29 -23 -24 -10 c-16 -6 -19 -10 -9
-10 28 -1 42 24 24 43 -9 9 -21 16 -26 16 -19 0 -8 19 14 23 22 4 22 4 0 6
-12 0 -25 -4 -29 -11z"/>
<path d="M5079 8854 c-3 -20 3 -59 9 -66 4 -4 7 9 6 28 -1 31 -12 60 -15 38z"/>
<path d="M5189 8854 c-3 -20 3 -59 9 -66 4 -4 7 9 6 28 -1 31 -12 60 -15 38z"/>
<path d="M5319 8854 c-3 -20 3 -59 9 -66 4 -4 7 9 6 28 -1 31 -12 60 -15 38z"/>
<path d="M13552 8823 c2 -22 9 -38 18 -41 12 -4 13 -2 3 9 -16 17 -17 46 -1
51 7 3 5 7 -6 11 -15 6 -17 2 -14 -30z"/>
<path d="M13590 8836 c0 -33 10 -56 23 -56 7 0 7 4 -1 12 -15 15 -15 45 0 50
7 3 6 7 -5 11 -13 5 -17 1 -17 -17z"/>
<path d="M1507 8844 c-12 -12 -8 -41 8 -54 20 -17 47 5 43 34 -3 21 -37 34
-51 20z m40 -20 c8 -21 -13 -42 -28 -27 -13 13 -5 43 11 43 6 0 13 -7 17 -16z"/>
<path d="M1582 8823 c-2 -35 8 -46 32 -37 10 4 16 17 15 38 l-1 31 -7 -29 c-9
-42 -29 -44 -34 -4 l-4 33 -1 -32z"/>
<path d="M1651 8818 c1 -21 3 -26 6 -13 3 11 12 26 21 33 14 11 13 12 -6 12
-18 0 -22 -5 -21 -32z"/>
<path d="M1701 8818 c1 -29 2 -30 8 -9 9 34 31 39 31 7 0 -14 5 -26 11 -26 6
0 9 12 7 28 -2 21 -9 28 -30 30 -26 3 -28 1 -27 -30z"/>
<path d="M1792 8843 c9 -2 19 -16 21 -31 4 -24 4 -24 6 6 1 27 -2 32 -21 31
-16 -1 -18 -3 -6 -6z"/>
<path d="M2722 8843 c9 -2 19 -16 21 -31 4 -24 4 -24 6 6 1 27 -2 32 -21 31
-16 -1 -18 -3 -6 -6z"/>
<path d="M2803 8834 c-7 -19 7 -46 28 -52 12 -3 12 -2 0 6 -20 14 -25 52 -7
52 8 0 17 -6 19 -12 3 -8 6 -6 6 5 1 22 -37 23 -46 1z"/>
<path d="M2871 8818 c1 -30 2 -31 8 -8 4 14 13 25 21 25 8 0 17 -11 21 -25 4
-14 7 -18 8 -8 2 30 -11 48 -35 48 -21 0 -24 -5 -23 -32z"/>
<path d="M3042 8844 c20 -6 19 -45 -2 -52 -9 -3 -11 1 -7 12 4 9 2 16 -3 16
-13 0 -13 -27 -1 -34 5 -4 17 -3 26 0 24 9 16 58 -10 61 -15 1 -16 1 -3 -3z"/>
<path d="M3091 8818 c2 -28 2 -29 6 -8 3 14 10 28 17 32 7 5 5 8 -6 8 -14 0
-18 -8 -17 -32z"/>
<path d="M5138 8843 c7 -3 16 -2 19 1 4 3 -2 6 -13 5 -11 0 -14 -3 -6 -6z"/>
<path d="M5232 8820 c0 -19 2 -27 5 -17 2 9 2 25 0 35 -3 9 -5 1 -5 -18z"/>
<path d="M5260 8833 c0 -11 3 -14 8 -7 4 6 14 14 22 17 10 4 8 6 -7 6 -16 1
-23 -5 -23 -16z"/>
<path d="M5362 8820 c0 -19 2 -27 5 -17 2 9 2 25 0 35 -3 9 -5 1 -5 -18z"/>
<path d="M5397 8843 c-13 -12 -7 -51 9 -57 24 -9 31 -7 12 5 -10 5 -18 18 -18
29 0 10 8 21 18 23 14 4 14 5 1 6 -9 0 -19 -2 -22 -6z"/>
<path d="M5445 8840 c-3 -5 3 -15 15 -22 25 -16 25 -25 3 -31 -16 -4 -16 -5
-1 -6 28 -2 32 21 7 39 l-23 18 25 5 c22 4 22 4 2 6 -12 0 -25 -3 -28 -9z"/>
<path d="M9322 8820 c0 -19 2 -27 5 -17 2 9 2 25 0 35 -3 9 -5 1 -5 -18z"/>
<path d="M9431 8818 c2 -28 2 -29 6 -8 3 14 10 28 17 32 7 5 5 8 -6 8 -14 0
-18 -8 -17 -32z"/>
<path d="M9493 8843 c10 -3 17 -14 17 -29 0 -13 5 -24 10 -24 6 0 10 6 10 14
0 29 -13 46 -34 45 -16 -1 -17 -2 -3 -6z"/>
<path d="M9540 8818 c0 -15 5 -28 10 -28 6 0 10 11 10 25 0 36 25 31 41 -7 10
-24 10 -33 1 -36 -7 -2 -12 -8 -12 -13 0 -19 21 3 35 38 19 44 18 69 0 28
l-13 -30 -7 28 c-6 22 -12 27 -36 25 -25 -2 -29 -7 -29 -30z"/>
<path d="M13483 8834 c-7 -19 7 -46 28 -51 8 -3 7 0 -3 7 -21 13 -24 50 -4 50
8 0 17 -5 19 -10 3 -6 4 -5 3 2 -4 20 -35 22 -43 2z"/>
<path d="M13642 8820 c0 -19 2 -27 5 -17 2 9 2 25 0 35 -3 9 -5 1 -5 -18z"/>
<path d="M13671 8818 c2 -30 2 -31 6 -5 5 34 30 36 36 2 4 -23 4 -23 3 2 -1
21 -7 29 -23 31 -20 3 -23 -1 -22 -30z"/>
<path d="M13738 8809 c-2 -28 1 -44 12 -52 13 -10 13 -10 2 5 -9 11 -10 18 -2
23 6 3 8 11 5 16 -4 5 1 9 9 9 8 0 18 5 22 11 4 8 0 9 -15 4 -12 -3 -21 -2
-21 4 0 5 10 12 23 14 20 4 19 4 -4 6 -24 1 -27 -3 -31 -40z"/>
<path d="M13805 8840 c-3 -5 3 -15 15 -22 25 -16 25 -25 3 -31 -16 -4 -16 -5
-1 -6 28 -2 32 21 8 39 -22 17 -23 18 -4 23 15 4 16 5 2 6 -9 0 -20 -3 -23 -9z"/>
<path d="M5153 8810 c1 -11 5 -20 9 -20 4 0 8 9 8 20 0 11 -4 20 -9 20 -6 0
-9 -9 -8 -20z"/>
<path d="M1775 8810 c-8 -12 2 -30 17 -30 7 0 7 4 -1 13 -6 8 -8 17 -4 20 3 4
4 7 0 7 -3 0 -9 -4 -12 -10z"/>
<path d="M2705 8810 c-8 -12 2 -30 17 -30 7 0 7 4 -1 13 -6 8 -8 17 -4 20 3 4
4 7 0 7 -3 0 -9 -4 -12 -10z"/>
<path d="M5116 8811 c-3 -5 2 -15 12 -22 15 -12 16 -12 5 2 -7 9 -10 19 -6 22
3 4 4 7 0 7 -3 0 -8 -4 -11 -9z"/>
<path d="M5285 8808 c4 -11 0 -18 -12 -21 -15 -4 -16 -5 -1 -6 22 -1 33 18 19
32 -9 9 -11 8 -6 -5z"/>
<path d="M9475 8810 c-8 -12 2 -30 17 -30 7 0 7 4 -1 13 -6 8 -8 17 -4 20 3 4
4 7 0 7 -3 0 -9 -4 -12 -10z"/>
<path d="M13773 8775 c0 -8 4 -15 9 -15 4 0 8 7 8 15 0 8 -4 15 -8 15 -5 0 -9
-7 -9 -15z"/>
<path d="M7202 8183 c1 -48 1 -48 5 -8 3 22 10 43 16 47 8 5 6 8 -5 8 -15 0
-18 -8 -16 -47z"/>
<path d="M1357 8212 c6 -4 13 -25 16 -47 l4 -40 1 42 c2 30 7 43 20 46 9 3 1
5 -18 6 -19 0 -30 -3 -23 -7z"/>
<path d="M1597 8210 c-7 -16 -4 -67 5 -75 9 -10 14 29 8 60 -5 21 -9 25 -13
15z"/>
<path d="M1697 8214 c-4 -4 -6 -26 -5 -48 1 -41 1 -41 5 -6 l5 35 18 -35 19
-35 13 35 13 35 6 -35 c6 -33 6 -32 8 13 1 53 -9 55 -30 5 l-13 -31 -16 37
c-8 21 -19 34 -23 30z"/>
<path d="M1989 8203 c-1 -10 0 -28 1 -40 1 -15 -4 -23 -14 -23 -21 0 -30 18
-16 35 8 10 9 15 2 15 -16 0 -24 -18 -17 -40 4 -13 15 -20 31 -20 22 0 24 4
24 45 0 43 -9 64 -11 28z"/>
<path d="M2553 8213 c12 -3 17 -16 19 -46 l1 -42 4 40 c3 22 10 43 16 47 7 4
-4 7 -23 7 -19 -1 -27 -3 -17 -6z"/>
<path d="M2792 8175 c-1 -33 1 -45 7 -36 8 13 12 13 28 0 16 -13 17 -13 4 3
-7 10 -10 25 -7 34 5 14 4 15 -8 5 -12 -10 -15 -7 -19 16 -2 17 -5 8 -5 -22z"/>
<path d="M2891 8173 c2 -46 2 -46 8 -13 l7 35 8 -32 c9 -40 21 -42 34 -5 l10
27 1 -28 c1 -16 5 -26 11 -22 13 8 13 55 0 75 -9 14 -12 9 -32 -50 -3 -10 -11
-2 -21 23 -9 20 -18 37 -21 37 -4 0 -5 -21 -5 -47z"/>
<path d="M3189 8203 c-1 -10 -2 -27 -3 -38 -1 -26 -36 -34 -36 -8 0 11 6 25
13 32 10 10 8 11 -6 5 -12 -4 -17 -15 -15 -33 2 -20 9 -27 31 -29 26 -3 27 -2
27 42 0 44 -8 65 -11 29z"/>
<path d="M3748 8214 c-5 -4 -7 -26 -7 -48 1 -38 2 -39 8 -11 l7 30 16 -30 17
-30 13 35 13 35 6 -35 c6 -33 6 -32 8 13 1 52 -9 55 -29 7 l-13 -31 -16 36
c-9 20 -19 33 -23 29z"/>
<path d="M4040 8205 c0 -8 -3 -14 -7 -14 -20 3 -33 -2 -33 -12 0 -8 4 -9 13 0
16 13 27 5 27 -21 0 -20 -26 -25 -33 -5 -3 7 -6 5 -6 -5 -1 -13 7 -18 24 -18
23 0 25 4 25 45 0 25 -2 45 -5 45 -3 0 -5 -7 -5 -15z"/>
<path d="M4116 8204 c-31 -31 -9 -81 31 -71 15 4 14 5 -4 6 -23 1 -39 33 -28
52 4 6 17 14 29 19 16 7 17 9 4 9 -9 1 -24 -6 -32 -15z"/>
<path d="M4180 8175 c0 -27 2 -46 5 -43 8 8 9 77 2 85 -4 3 -7 -15 -7 -42z"/>
<path d="M4887 8181 c-19 -46 -22 -65 -6 -38 5 9 16 17 24 17 8 0 19 -8 25
-17 9 -15 10 -14 4 7 -3 14 -12 36 -19 49 -12 23 -12 23 -28 -18z m27 4 c3 -9
0 -15 -9 -15 -9 0 -12 6 -9 15 4 8 7 15 9 15 2 0 5 -7 9 -15z"/>
<path d="M5010 8175 c0 -27 2 -46 5 -43 8 8 9 77 2 85 -4 3 -7 -15 -7 -42z"/>
<path d="M6095 8196 c-21 -31 -5 -66 28 -65 l22 0 -22 9 c-16 6 -23 18 -23 35
0 17 7 29 23 35 16 6 18 9 5 9 -10 1 -25 -10 -33 -23z"/>
<path d="M6602 8208 c-29 -29 -7 -78 35 -78 18 0 23 6 23 25 0 14 -4 25 -9 25
-5 0 -7 -9 -4 -21 5 -17 2 -20 -18 -17 -19 2 -24 9 -24 33 0 23 6 31 25 36 21
6 22 7 5 8 -12 1 -26 -4 -33 -11z"/>
<path d="M6823 8175 c0 -27 2 -38 4 -22 2 15 2 37 0 50 -2 12 -4 0 -4 -28z"/>
<path d="M7234 8195 c-10 -20 -8 -27 9 -42 20 -17 20 -17 9 2 -6 12 -7 26 -1
37 5 9 6 19 1 22 -4 2 -12 -6 -18 -19z"/>
<path d="M7880 8210 c0 -5 -3 -9 -7 -9 -26 4 -34 -3 -31 -28 2 -20 9 -29 26
-31 20 -3 22 1 22 37 0 23 -2 41 -5 41 -3 0 -5 -4 -5 -10z m0 -41 c0 -10 -7
-19 -15 -19 -15 0 -21 31 -9 43 11 10 24 -3 24 -24z"/>
<path d="M8671 8173 c1 -37 3 -42 8 -23 l7 25 15 -22 c7 -13 18 -23 23 -23 4
0 4 6 -2 13 -6 7 -10 26 -9 43 2 23 -2 30 -20 32 -21 3 -23 0 -22 -45z m37 19
c2 -7 -3 -12 -12 -12 -9 0 -16 7 -16 16 0 17 22 14 28 -4z"/>
<path d="M9867 8213 c-4 -3 -7 -25 -6 -47 0 -38 1 -39 10 -16 l10 25 19 -25
c11 -14 20 -20 20 -13 0 6 -5 15 -10 18 -8 5 -7 11 1 21 19 24 -22 59 -44 37z
m41 -20 c2 -8 -5 -13 -17 -13 -12 0 -21 6 -21 16 0 18 31 15 38 -3z"/>
<path d="M10961 8206 c-7 -8 -11 -27 -9 -43 2 -23 8 -28 33 -30 28 -2 28 -1 5
5 -35 11 -41 58 -8 71 15 7 17 10 7 10 -9 1 -22 -5 -28 -13z"/>
<path d="M11986 8181 c-18 -46 -21 -65 -5 -38 5 9 16 17 24 17 8 0 19 -8 25
-17 11 -17 11 -17 6 0 -3 10 -6 21 -6 23 0 2 -9 4 -20 4 -14 0 -18 5 -13 16 5
13 7 13 14 2 5 -7 9 -8 9 -3 0 6 -4 16 -9 23 -6 10 -13 2 -25 -27z"/>
<path d="M12471 8206 c-8 -10 -8 -16 1 -23 26 -20 42 -24 18 -4 l-25 20 25 10
c15 6 19 10 9 10 -9 1 -22 -5 -28 -13z"/>
<path d="M13201 8173 c1 -27 3 -40 6 -30 2 9 8 17 13 17 5 0 16 7 25 16 19 19
4 44 -26 44 -16 0 -19 -7 -18 -47z m37 20 c-4 -22 -22 -20 -26 1 -2 10 3 16
13 16 10 0 15 -7 13 -17z"/>
<path d="M13633 8203 c-4 -11 1 -22 15 -31 28 -18 28 -29 0 -35 -20 -5 -20 -5
2 -4 32 2 41 36 11 44 -25 7 -28 30 -3 36 16 4 16 5 -1 6 -10 0 -21 -7 -24
-16z"/>
<path d="M14613 8203 c-4 -11 1 -22 15 -31 28 -18 28 -29 0 -35 -20 -5 -20 -5
2 -4 32 2 41 36 11 44 -25 7 -28 30 -3 36 16 4 16 5 -1 6 -10 0 -21 -7 -24
-16z"/>
<path d="M6352 8173 c-2 -35 1 -43 16 -43 11 0 13 3 5 8 -6 4 -13 23 -16 42
-4 33 -4 33 -5 -7z"/>
<path d="M7281 8196 c-19 -23 -9 -51 19 -53 l25 -3 -25 12 -25 11 23 5 c15 2
22 9 20 19 -4 22 -23 27 -37 9z m24 -6 c3 -5 -1 -10 -10 -10 -9 0 -13 5 -10
10 3 6 8 10 10 10 2 0 7 -4 10 -10z"/>
<path d="M7350 8195 c-17 -20 -8 -49 15 -52 16 -1 16 -1 3 3 -22 7 -24 44 -3
44 8 0 15 5 15 10 0 15 -16 12 -30 -5z"/>
<path d="M7413 8203 c-18 -7 -16 -53 3 -60 8 -3 22 1 30 9 24 24 -1 62 -33 51z
m27 -34 c0 -10 -7 -19 -15 -19 -15 0 -21 31 -9 43 11 10 24 -3 24 -24z"/>
<path d="M7488 8202 c-13 -3 -18 -12 -17 -35 2 -30 2 -31 6 -4 2 15 11 27 19
27 8 0 14 -11 15 -27 l1 -28 7 25 c4 14 13 25 21 25 8 0 17 -11 21 -25 l7 -25
1 27 c1 37 -27 51 -81 40z"/>
<path d="M7600 8202 c-5 -2 -9 -18 -9 -35 l1 -32 7 29 c3 17 11 30 16 30 6 0
13 -13 16 -30 l6 -29 4 28 c5 37 22 38 31 1 6 -28 6 -27 5 6 -2 32 -4 35 -34
35 -18 0 -37 -1 -43 -3z"/>
<path d="M7706 8195 c-9 -9 -16 -20 -16 -24 0 -15 29 -33 42 -28 8 4 7 6 -4 6
-25 1 -23 21 2 21 23 0 26 13 6 29 -11 9 -18 8 -30 -4z m29 -5 c3 -5 -1 -10
-10 -10 -9 0 -13 5 -10 10 3 6 8 10 10 10 2 0 7 -4 10 -10z"/>
<path d="M7783 8203 c-7 -2 -12 -19 -12 -36 l1 -32 7 29 c3 17 11 30 16 30 6
0 13 -13 17 -30 6 -28 6 -28 5 5 -2 35 -11 44 -34 34z"/>
<path d="M7924 8199 c-4 -7 -3 -9 4 -5 6 3 13 2 16 -3 3 -5 -4 -11 -15 -14
-27 -7 -20 -31 10 -35 20 -3 22 0 19 29 -3 34 -21 49 -34 28z m26 -39 c0 -5
-7 -10 -16 -10 -8 0 -12 5 -9 10 3 6 10 10 16 10 5 0 9 -4 9 -10z"/>
<path d="M7982 8178 c2 -17 9 -33 16 -36 11 -3 11 0 1 16 -10 17 -10 23 0 36
11 14 11 16 -3 16 -13 0 -17 -7 -14 -32z"/>
<path d="M8061 8191 c-14 -26 -4 -51 20 -51 24 0 36 27 22 48 -15 24 -31 25
-42 3z m39 -22 c0 -20 -24 -26 -35 -9 -8 13 14 42 26 34 5 -3 9 -14 9 -25z"/>
<path d="M10207 8203 c-6 -11 4 -73 12 -73 4 0 5 18 3 40 -4 40 -7 46 -15 33z"/>
<path d="M12602 8174 c2 -23 9 -39 18 -41 12 -4 13 -3 1 5 -9 6 -11 19 -7 35
3 15 1 29 -5 32 -7 5 -9 -6 -7 -31z"/>
<path d="M13812 8173 c-2 -35 1 -43 16 -43 11 0 13 3 5 8 -6 4 -13 23 -16 42
-4 33 -4 33 -5 -7z"/>
<path d="M1499 8186 c9 -11 7 -15 -9 -19 -25 -6 -27 -37 -2 -36 10 0 12 3 5 6
-18 7 -16 23 1 23 8 0 17 -8 19 -17 3 -10 5 -4 6 13 1 21 -5 34 -15 38 -14 5
-15 4 -5 -8z"/>
<path d="M1546 8184 c-20 -19 -5 -55 22 -53 16 1 16 2 0 6 -21 5 -24 33 -6 51
7 7 9 12 6 12 -4 0 -14 -7 -22 -16z"/>
<path d="M1811 8191 c-19 -12 -9 -55 13 -59 19 -4 36 13 36 35 0 17 -33 33
-49 24z m35 -40 c-11 -18 -36 -13 -36 7 0 10 3 22 7 26 10 10 37 -20 29 -33z"/>
<path d="M1908 8190 c19 -21 15 -52 -5 -48 -11 2 -18 12 -17 26 0 14 -3 19 -9
13 -17 -17 -3 -46 23 -46 31 0 39 35 13 55 -15 12 -16 12 -5 0z"/>
<path d="M2633 8193 c-7 -2 -12 -19 -12 -36 2 -28 2 -29 6 -7 3 14 10 31 15
38 11 13 10 13 -9 5z"/>
<path d="M2696 8187 c3 -9 -3 -17 -16 -20 -27 -7 -21 -31 8 -35 18 -3 22 2 22
27 0 16 -4 33 -10 36 -5 3 -7 0 -4 -8z m4 -37 c0 -5 -7 -10 -16 -10 -8 0 -12
5 -9 10 3 6 10 10 16 10 5 0 9 -4 9 -10z"/>
<path d="M2740 8185 c-17 -20 -8 -49 15 -53 18 -2 19 -2 3 8 -10 6 -18 17 -18
25 0 8 8 19 18 24 9 6 12 11 6 11 -6 0 -17 -7 -24 -15z"/>
<path d="M3005 8186 c-25 -18 -11 -58 18 -54 15 2 23 11 25 29 4 31 -18 44
-43 25z m35 -27 c0 -20 -24 -26 -35 -9 -8 13 14 42 26 34 5 -3 9 -14 9 -25z"/>
<path d="M3083 8193 c-18 -7 -16 -53 3 -60 8 -3 22 1 30 9 24 24 -1 62 -33 51z
m33 -42 c-11 -18 -36 -13 -36 7 0 10 3 22 7 26 10 10 37 -20 29 -33z"/>
<path d="M3860 8185 c-17 -21 -8 -50 17 -53 23 -3 42 33 26 49 -6 6 -9 1 -9
-13 1 -14 -6 -24 -16 -26 -21 -4 -25 27 -6 46 7 7 9 12 6 12 -3 0 -11 -7 -18
-15z"/>
<path d="M3958 8190 c19 -21 15 -52 -5 -48 -11 2 -18 12 -17 26 0 14 -3 19 -9
13 -16 -16 3 -52 26 -49 28 4 34 40 10 58 -15 12 -16 12 -5 0z"/>
<path d="M4218 8170 c2 -17 8 -33 13 -36 14 -9 10 42 -4 55 -11 8 -13 5 -9
-19z"/>
<path d="M4264 8188 c-4 -6 -3 -8 4 -4 6 3 13 2 16 -3 3 -5 -3 -11 -14 -14
-30 -8 -25 -37 5 -37 21 0 25 5 25 29 0 30 -24 49 -36 29z m26 -38 c0 -5 -7
-10 -15 -10 -8 0 -15 5 -15 10 0 6 7 10 15 10 8 0 15 -4 15 -10z"/>
<path d="M4372 8168 c2 -17 10 -34 18 -36 13 -5 13 -3 2 11 -8 9 -11 25 -7 37
4 12 2 20 -5 20 -7 0 -10 -13 -8 -32z"/>
<path d="M4960 8185 c-17 -20 -8 -49 15 -53 18 -2 19 -2 3 8 -10 6 -18 17 -18
25 0 8 8 19 18 24 9 6 12 11 6 11 -6 0 -17 -7 -24 -15z"/>
<path d="M5045 8192 c4 -8 11 -26 15 -40 7 -22 8 -23 9 -6 1 11 -6 29 -15 40
-8 10 -12 13 -9 6z"/>
<path d="M5126 8185 c-9 -9 -16 -20 -16 -24 0 -15 29 -33 42 -28 8 4 7 6 -4 6
-25 1 -23 21 2 21 23 0 26 13 6 29 -11 9 -18 8 -30 -4z m29 -5 c3 -5 -1 -10
-10 -10 -9 0 -13 5 -10 10 3 6 8 10 10 10 2 0 7 -4 10 -10z"/>
<path d="M5279 8188 c12 -16 11 -18 -3 -18 -9 0 -16 5 -16 12 0 9 -3 9 -11 1
-17 -17 -1 -53 24 -52 21 0 21 1 -3 12 l-25 11 28 4 c31 4 34 14 10 33 -16 13
-17 12 -4 -3z"/>
<path d="M5346 8189 c3 -6 10 -23 14 -37 l8 -27 1 31 c1 20 -5 34 -15 38 -9 3
-12 2 -8 -5z"/>
<path d="M5387 8190 c6 -8 13 -26 16 -40 l4 -25 2 26 c0 15 -7 33 -16 40 -16
12 -17 12 -6 -1z"/>
<path d="M5436 8185 c-9 -9 -16 -20 -16 -24 0 -15 29 -33 42 -28 8 4 7 6 -4 6
-25 1 -23 21 2 21 23 0 26 13 6 29 -11 9 -18 8 -30 -4z m29 -5 c3 -5 -1 -10
-10 -10 -9 0 -13 5 -10 10 3 6 8 10 10 10 2 0 7 -4 10 -10z"/>
<path d="M5528 8188 c5 -7 12 -24 15 -38 4 -22 4 -21 6 6 1 21 -5 34 -15 38
-13 5 -14 3 -6 -6z"/>
<path d="M5570 8165 c0 -27 4 -35 18 -35 13 0 14 2 3 9 -9 6 -11 18 -7 35 4
15 2 26 -4 26 -5 0 -10 -16 -10 -35z"/>
<path d="M6180 8190 c-8 -5 -12 -12 -9 -15 4 -3 12 1 19 10 14 17 11 19 -10 5z"/>
<path d="M6220 8185 c-18 -22 -8 -50 20 -52 l25 -3 -25 12 c-25 11 -25 11 -2
15 12 3 22 10 22 18 0 19 -27 26 -40 10z m25 -5 c3 -5 -1 -10 -10 -10 -9 0
-13 5 -10 10 3 6 8 10 10 10 2 0 7 -4 10 -10z"/>
<path d="M6309 8186 c9 -11 7 -15 -9 -19 -29 -8 -26 -37 5 -37 21 0 25 5 25
29 0 18 -6 31 -16 35 -14 5 -15 4 -5 -8z m6 -36 c-3 -5 -10 -10 -16 -10 -5 0
-9 5 -9 10 0 6 7 10 16 10 8 0 12 -4 9 -10z"/>
<path d="M6400 8185 c-17 -20 -8 -50 15 -51 15 -1 16 0 3 3 -24 6 -23 23 2 23
11 0 20 6 20 14 0 20 -27 27 -40 11z m25 -5 c3 -5 -1 -10 -10 -10 -9 0 -13 5
-10 10 3 6 8 10 10 10 2 0 7 -4 10 -10z"/>
<path d="M6504 8188 c-4 -6 -3 -8 4 -4 6 3 13 2 16 -3 3 -5 -3 -11 -14 -14
-30 -8 -25 -37 5 -37 21 0 25 5 25 29 0 30 -24 49 -36 29z m21 -38 c-3 -5 -10
-10 -16 -10 -5 0 -9 5 -9 10 0 6 7 10 16 10 8 0 12 -4 9 -10z"/>
<path d="M6686 8184 c-18 -18 -6 -54 19 -54 25 0 37 36 19 54 -8 9 -17 16 -19
16 -2 0 -11 -7 -19 -16z m37 -30 c-8 -20 -33 -17 -33 4 0 10 3 22 7 25 10 11
32 -13 26 -29z"/>
<path d="M6764 8188 c-4 -6 -3 -8 4 -4 6 3 13 2 16 -3 3 -5 -3 -11 -14 -14
-25 -6 -27 -37 -2 -36 10 0 12 3 5 6 -18 7 -16 23 1 23 8 0 17 -8 19 -17 3
-10 5 -4 6 13 1 33 -22 53 -35 32z"/>
<path d="M8032 8170 c0 -19 2 -27 5 -17 2 9 2 25 0 35 -3 9 -5 1 -5 -18z"/>
<path d="M8751 8190 c-20 -12 -9 -55 14 -56 15 -1 16 0 3 3 -24 6 -23 23 2 23
11 0 20 6 20 14 0 17 -23 27 -39 16z m24 -10 c3 -5 -1 -10 -10 -10 -9 0 -13 5
-10 10 3 6 8 10 10 10 2 0 7 -4 10 -10z"/>
<path d="M8822 8191 c-21 -13 -11 -55 13 -58 16 -1 16 -1 3 3 -21 6 -24 34 -6
52 14 14 9 15 -10 3z"/>
<path d="M8876 8185 c-19 -20 -5 -56 22 -54 16 1 16 2 0 6 -24 6 -23 23 2 23
23 0 26 13 6 29 -11 9 -18 8 -30 -4z m29 -5 c3 -5 -1 -10 -10 -10 -9 0 -13 5
-10 10 3 6 8 10 10 10 2 0 7 -4 10 -10z"/>
<path d="M8968 8188 c5 -7 12 -24 15 -38 4 -22 4 -21 6 6 1 21 -5 34 -15 38
-13 5 -14 3 -6 -6z"/>
<path d="M9014 8171 c0 -21 7 -36 16 -38 10 -3 11 -2 3 4 -6 4 -13 22 -16 38
-4 27 -5 27 -3 -4z"/>
<path d="M9944 8185 c-15 -11 -17 -17 -8 -32 6 -10 20 -19 30 -20 16 -2 16 -1
2 3 -24 7 -23 24 2 24 23 0 26 13 7 29 -10 8 -19 7 -33 -4z m31 -5 c3 -5 -1
-10 -10 -10 -9 0 -13 5 -10 10 3 6 8 10 10 10 2 0 7 -4 10 -10z"/>
<path d="M10016 8187 c-25 -19 -17 -51 14 -54 25 -3 25 -3 3 7 -27 11 -29 28
-5 46 22 17 11 18 -12 1z"/>
<path d="M10070 8185 c-17 -20 -8 -50 15 -51 15 -1 16 0 3 3 -24 6 -23 23 2
23 11 0 20 6 20 14 0 20 -27 27 -40 11z m25 -5 c3 -5 -1 -10 -10 -10 -9 0 -13
5 -10 10 3 6 8 10 10 10 2 0 7 -4 10 -10z"/>
<path d="M10168 8165 c2 -19 8 -35 13 -35 14 0 11 46 -4 58 -10 9 -12 4 -9
-23z"/>
<path d="M11056 8187 c3 -9 -3 -17 -16 -20 -27 -7 -21 -31 8 -35 18 -3 22 2
22 27 0 16 -4 33 -10 36 -5 3 -7 0 -4 -8z m4 -37 c0 -5 -7 -10 -16 -10 -8 0
-12 5 -9 10 3 6 10 10 16 10 5 0 9 -4 9 -10z"/>
<path d="M11092 8168 c2 -17 8 -33 14 -35 6 -2 8 10 6 32 -5 44 -24 47 -20 3z"/>
<path d="M11146 8185 c-9 -9 -16 -20 -16 -24 0 -15 29 -33 42 -28 8 4 7 6 -4
6 -25 1 -23 21 2 21 23 0 26 13 6 29 -11 9 -18 8 -30 -4z m29 -5 c3 -5 -1 -10
-10 -10 -9 0 -13 5 -10 10 3 6 8 10 10 10 2 0 7 -4 10 -10z"/>
<path d="M11213 8187 c-4 -7 -8 -27 -9 -45 -1 -39 20 -53 44 -29 14 15 14 17
-8 25 -19 7 -20 10 -7 15 10 4 17 13 17 21 0 18 -27 28 -37 13z m24 -23 c-9
-9 -28 6 -21 18 4 6 10 6 17 -1 6 -6 8 -13 4 -17z m8 -44 c-3 -5 -13 -10 -21
-10 -8 0 -14 5 -14 10 0 6 9 10 21 10 11 0 17 -4 14 -10z"/>
<path d="M11280 8185 c-17 -21 -8 -50 17 -53 23 -3 42 33 26 49 -6 6 -9 1 -9
-13 1 -14 -6 -24 -16 -26 -21 -4 -25 27 -6 46 7 7 9 12 6 12 -3 0 -11 -7 -18
-15z"/>
<path d="M11361 8191 c-7 -5 -12 -14 -10 -20 2 -6 10 -2 17 9 14 22 13 23 -7
11z"/>
<path d="M11430 8185 c-18 -22 -8 -50 20 -52 l25 -3 -25 12 c-25 11 -25 11 -2
15 12 3 22 10 22 18 0 19 -27 26 -40 10z m25 -5 c3 -5 -1 -10 -10 -10 -9 0
-13 5 -10 10 3 6 8 10 10 10 2 0 7 -4 10 -10z"/>
<path d="M11500 8190 c-13 -9 -13 -12 3 -24 9 -7 17 -16 17 -19 0 -3 -8 -8
-17 -10 -14 -4 -12 -5 5 -6 25 -1 31 26 7 35 -12 5 -13 10 -4 20 13 16 10 18
-11 4z"/>
<path d="M12060 8185 c-17 -20 -8 -49 15 -52 16 -1 16 -1 3 3 -21 6 -24 34 -6
52 7 7 9 12 6 12 -3 0 -11 -7 -18 -15z"/>
<path d="M12122 8191 c-21 -13 -11 -55 13 -58 17 -2 17 -1 2 3 -21 7 -20 51 1
46 8 -1 11 2 7 8 -7 12 -7 12 -23 1z"/>
<path d="M12175 8184 c-19 -19 -19 -28 0 -44 21 -17 45 -5 45 24 0 29 -24 40
-45 20z m35 -25 c0 -20 -24 -26 -35 -9 -8 13 14 42 26 34 5 -3 9 -14 9 -25z"/>
<path d="M12333 8193 c-7 -3 -12 -19 -12 -36 l1 -32 7 29 c3 17 11 30 16 30 6
0 13 -13 16 -30 l7 -29 1 31 c1 32 -12 45 -36 37z"/>
<path d="M12392 8168 c2 -17 10 -33 18 -35 12 -4 13 -3 1 5 -9 7 -11 19 -7 36
4 16 2 26 -4 26 -7 0 -10 -14 -8 -32z"/>
<path d="M12540 8185 c-17 -20 -8 -50 15 -51 15 -1 16 0 3 3 -24 6 -23 23 2
23 11 0 20 6 20 14 0 20 -27 27 -40 11z m25 -5 c3 -5 -1 -10 -10 -10 -9 0 -13
5 -10 10 3 6 8 10 10 10 2 0 7 -4 10 -10z"/>
<path d="M12642 8168 c2 -17 10 -33 18 -35 12 -4 13 -3 1 5 -9 7 -11 19 -7 36
4 16 2 26 -4 26 -7 0 -10 -14 -8 -32z"/>
<path d="M12733 8193 c-7 -3 -12 -19 -12 -36 l1 -32 7 29 c3 17 11 30 16 30 6
0 13 -13 16 -30 l7 -29 1 31 c1 32 -12 45 -36 37z"/>
<path d="M12818 8187 c7 -8 9 -17 5 -20 -11 -12 -21 -8 -26 11 -2 9 -4 2 -4
-15 0 -25 4 -33 19 -33 10 0 18 -5 18 -11 0 -7 -10 -9 -27 -4 -21 5 -25 4 -17
-5 16 -16 48 -8 52 13 3 12 -3 17 -19 17 l-23 0 22 16 c26 18 28 30 6 38 -13
5 -14 4 -6 -7z"/>
<path d="M12861 8186 c-10 -12 -8 -17 11 -27 22 -12 22 -12 3 -20 -16 -6 -17
-8 -3 -8 25 -1 33 18 12 33 -9 7 -14 18 -10 24 10 17 1 15 -13 -2z"/>
<path d="M13439 8186 c9 -11 7 -15 -9 -19 -29 -8 -26 -37 5 -37 21 0 25 5 25
29 0 18 -6 31 -16 35 -14 5 -15 4 -5 -8z m11 -36 c0 -5 -7 -10 -15 -10 -8 0
-15 5 -15 10 0 6 7 10 15 10 8 0 15 -4 15 -10z"/>
<path d="M13492 8191 c-21 -13 -11 -55 13 -58 16 -1 16 -1 3 3 -21 6 -24 34
-6 52 14 14 9 15 -10 3z"/>
<path d="M13711 8191 c-20 -13 -10 -55 14 -58 16 -1 16 -1 3 3 -24 7 -23 24 2
24 11 0 20 4 20 9 0 16 -25 30 -39 22z m24 -11 c3 -5 -1 -10 -10 -10 -9 0 -13
5 -10 10 3 6 8 10 10 10 2 0 7 -4 10 -10z"/>
<path d="M13764 8184 c3 -9 6 -24 6 -35 0 -10 4 -19 8 -19 4 0 6 16 4 35 -2
19 -9 35 -14 35 -6 0 -7 -7 -4 -16z"/>
<path d="M13917 8190 c6 -8 13 -26 16 -40 l4 -25 2 26 c0 15 -7 33 -16 40 -16
12 -17 12 -6 -1z"/>
<path d="M13964 8188 c-4 -6 -8 -28 -8 -47 -1 -32 2 -36 23 -36 31 0 40 25 12
32 -20 5 -20 7 -5 18 9 6 14 18 11 26 -4 10 -6 9 -6 -3 -1 -18 -12 -23 -24
-11 -4 3 -2 12 4 20 6 7 9 13 6 13 -3 0 -9 -5 -13 -12z m36 -68 c0 -5 -9 -10
-20 -10 -11 0 -20 5 -20 10 0 6 9 10 20 10 11 0 20 -4 20 -10z"/>
<path d="M14686 8185 c-19 -20 -5 -56 22 -54 16 1 16 2 0 6 -24 6 -23 23 2 23
23 0 26 13 6 29 -11 9 -18 8 -30 -4z m29 -5 c3 -5 -1 -10 -10 -10 -9 0 -13 5
-10 10 3 6 8 10 10 10 2 0 7 -4 10 -10z"/>
<path d="M14756 8187 c-25 -18 -13 -57 17 -56 l22 0 -22 9 c-27 11 -29 28 -5
46 22 17 11 18 -12 1z"/>
<path d="M14893 8193 c-7 -2 -12 -19 -12 -36 2 -28 2 -29 6 -7 3 14 10 31 15
38 11 13 10 13 -9 5z"/>
<path d="M14959 8196 c-12 -13 3 -66 20 -66 11 0 12 3 4 8 -6 4 -13 20 -15 35
-1 16 -6 26 -9 23z"/>
<path d="M1421 8158 c2 -28 2 -29 6 -8 3 14 10 28 17 32 7 5 5 8 -6 8 -14 0
-18 -8 -17 -32z"/>
<path d="M1620 8179 c0 -5 5 -7 10 -4 6 3 10 8 10 11 0 2 -4 4 -10 4 -5 0 -10
-5 -10 -11z"/>
<path d="M4321 8158 c2 -28 2 -29 6 -8 3 14 10 28 17 32 7 5 5 8 -6 8 -14 0
-18 -8 -17 -32z"/>
<path d="M5092 8165 c0 -16 2 -22 5 -12 2 9 2 23 0 30 -3 6 -5 -1 -5 -18z"/>
<path d="M5181 8188 c-1 -4 4 -19 10 -35 10 -27 11 -27 25 -9 8 11 14 27 14
35 -1 11 -5 8 -14 -7 l-12 -23 -12 23 c-6 13 -11 20 -11 16z"/>
<path d="M5310 8158 c0 -36 4 -35 14 5 4 16 2 27 -4 27 -5 0 -10 -14 -10 -32z"/>
<path d="M5490 8159 c0 -17 4 -28 10 -24 6 3 10 17 10 31 0 13 -4 24 -10 24
-5 0 -10 -14 -10 -31z"/>
<path d="M5610 8180 c0 -6 7 -13 15 -16 20 -8 19 -21 -2 -27 -14 -4 -12 -5 5
-6 27 -1 29 19 2 42 -11 9 -20 12 -20 7z"/>
<path d="M8941 8174 c0 -11 3 -14 6 -6 3 7 2 16 -1 19 -3 4 -6 -2 -5 -13z"/>
<path d="M10130 8160 c0 -16 2 -30 4 -30 2 0 6 14 8 30 3 17 1 30 -4 30 -4 0
-8 -13 -8 -30z"/>
<path d="M11392 8160 c0 -19 2 -27 5 -17 2 9 2 25 0 35 -3 9 -5 1 -5 -18z"/>
<path d="M12244 8160 c1 -20 7 -26 29 -28 24 -3 27 0 27 27 0 17 -4 31 -10 31
-5 0 -10 -11 -10 -25 0 -32 -27 -34 -33 -2 -3 19 -4 19 -3 -3z"/>
<path d="M12692 8160 c0 -19 2 -27 5 -17 2 9 2 25 0 35 -3 9 -5 1 -5 -18z"/>
<path d="M13271 8158 c1 -22 3 -26 6 -13 3 11 10 26 15 33 8 9 6 12 -6 12 -12
0 -16 -9 -15 -32z"/>
<path d="M13322 8160 c0 -19 2 -27 5 -17 2 9 2 25 0 35 -3 9 -5 1 -5 -18z"/>
<path d="M13356 8165 c3 -16 8 -32 10 -35 6 -5 24 21 24 35 0 6 -5 3 -10 -5
-7 -12 -11 -10 -20 10 -10 24 -10 23 -4 -5z"/>
<path d="M13542 8157 c10 -32 9 -40 -3 -48 -12 -9 -12 -10 0 -7 8 2 23 24 33
49 13 32 14 39 3 25 -15 -20 -15 -20 -30 0 -13 17 -13 15 -3 -19z"/>
<path d="M13852 8160 c0 -19 2 -27 5 -17 2 9 2 25 0 35 -3 9 -5 1 -5 -18z"/>
<path d="M13880 8160 c0 -16 2 -30 4 -30 2 0 6 14 8 30 3 17 1 30 -4 30 -4 0
-8 -13 -8 -30z"/>
<path d="M14020 8180 c0 -6 7 -13 15 -16 20 -8 19 -21 -2 -27 -14 -4 -12 -5 5
-6 27 -1 29 19 2 42 -11 9 -20 12 -20 7z"/>
<path d="M14803 8165 c2 -25 7 -31 30 -33 25 -3 27 -1 26 30 -1 30 -2 31 -8 8
-4 -14 -13 -25 -21 -25 -8 0 -17 11 -22 25 -6 23 -7 23 -5 -5z"/>
<path d="M14932 8160 c0 -19 2 -27 5 -17 2 9 2 25 0 35 -3 9 -5 1 -5 -18z"/>
<path d="M15000 8171 c7 -13 10 -34 7 -48 -4 -20 -2 -22 8 -11 16 17 37 81 25
73 -6 -4 -10 -14 -10 -23 0 -13 -5 -12 -21 8 -20 24 -20 25 -9 1z"/>
<path d="M1620 8151 c0 -5 5 -13 10 -16 6 -3 10 -2 10 4 0 5 -4 13 -10 16 -5
3 -10 2 -10 -4z"/>
<path d="M12480 8140 l-25 -8 28 -1 c15 -1 27 4 27 9 0 6 -1 10 -2 9 -2 -1
-14 -5 -28 -9z"/>
<path d="M7613 8033 c-7 -2 -12 -19 -12 -36 l1 -32 7 29 c8 39 29 44 34 9 l4
-28 -1 29 c-1 30 -11 38 -33 29z"/>
<path d="M7674 8028 c-4 -6 0 -16 9 -23 22 -16 21 -22 0 -28 -14 -4 -12 -5 5
-6 25 -1 31 26 7 35 -20 8 -19 21 3 27 15 4 15 5 0 6 -9 0 -20 -4 -24 -11z"/>
<path d="M1473 7525 c0 -27 2 -38 4 -22 2 15 2 37 0 50 -2 12 -4 0 -4 -28z"/>
<path d="M1762 7553 c-5 -10 -5 -31 -1 -48 l7 -30 2 30 c1 17 2 34 1 39 -1 5
4 13 11 17 9 6 10 9 1 9 -7 0 -16 -8 -21 -17z"/>
<path d="M1280 7520 c0 -45 16 -58 50 -40 16 9 20 19 18 43 -3 28 -7 32 -35
35 -32 3 -33 2 -33 -38z m58 1 c3 -21 -11 -40 -30 -41 -5 0 -8 16 -8 36 0 28
3 35 18 32 9 -2 19 -14 20 -27z"/>
<path d="M1594 7548 c-4 -6 2 -18 13 -27 11 -9 22 -23 26 -31 4 -12 6 -11 6 2
1 10 -8 22 -19 28 -26 14 -25 28 3 33 22 4 22 4 0 6 -12 0 -25 -4 -29 -11z"/>
<path d="M1733 7520 c0 -25 2 -35 4 -22 2 12 2 32 0 45 -2 12 -4 2 -4 -23z"/>
<path d="M1842 7548 c-18 -18 -14 -56 7 -68 30 -16 38 -12 13 6 -30 21 -26 56
8 65 21 6 22 7 5 8 -12 1 -26 -4 -33 -11z"/>
<path d="M1393 7534 c21 -7 20 -45 -2 -52 -10 -3 -12 0 -8 12 4 9 2 16 -3 16
-13 0 -13 -27 -1 -34 5 -4 17 -3 26 0 24 9 16 58 -10 61 -17 2 -17 1 -2 -3z"/>
<path d="M1442 7510 c0 -19 2 -27 5 -17 2 9 2 25 0 35 -3 9 -5 1 -5 -18z"/>
<path d="M1495 7524 c5 -10 9 -31 9 -46 1 -16 4 -28 7 -28 9 0 40 83 33 89 -2
3 -7 -5 -11 -17 -6 -25 -23 -30 -23 -8 0 8 -5 18 -12 22 -8 5 -9 2 -3 -12z"/>
<path d="M1667 7534 c-13 -13 -7 -52 9 -58 24 -9 31 -7 12 5 -21 12 -24 49 -4
49 8 0 17 -5 19 -10 3 -6 4 -5 3 2 -3 15 -28 22 -39 12z"/>
<path d="M1922 7533 c9 -2 19 -16 21 -31 4 -24 4 -24 6 6 1 27 -2 32 -21 31
-16 -1 -18 -3 -6 -6z"/>
<path d="M1982 7528 c-7 -7 -12 -21 -11 -32 0 -19 1 -18 10 4 6 13 15 28 22
32 7 4 8 8 2 8 -6 0 -16 -5 -23 -12z"/>
<path d="M2025 7520 c-8 -24 10 -50 34 -49 11 0 9 3 -6 9 -15 6 -20 15 -16 29
6 23 19 28 26 9 2 -7 8 -10 12 -6 11 10 -4 28 -25 28 -10 0 -22 -9 -25 -20z"/>
<path d="M1905 7500 c-8 -12 2 -30 17 -30 7 0 7 4 -1 13 -6 8 -8 17 -4 20 3 4
4 7 0 7 -3 0 -9 -4 -12 -10z"/>
<path d="M10773 5365 c0 -27 2 -38 4 -22 2 15 2 37 0 50 -2 12 -4 0 -4 -28z"/>
<path d="M11150 5405 c-8 -27 -7 -76 1 -81 5 -3 9 2 9 10 0 8 9 18 20 21 19 6
29 45 11 45 -5 0 -8 -7 -7 -16 2 -30 -22 -26 -27 3 -2 15 -5 24 -7 18z"/>
<path d="M10581 5395 c0 -6 6 -26 13 -45 l13 -35 15 35 15 35 7 -32 c8 -33 26
-46 26 -18 0 8 -4 15 -8 15 -5 0 -13 12 -19 28 l-10 27 -13 -30 c-11 -26 -14
-27 -18 -10 -4 21 -23 46 -21 30z"/>
<path d="M10670 5380 c0 -11 2 -20 4 -20 2 0 6 9 9 20 3 11 1 20 -4 20 -5 0
-9 -9 -9 -20z"/>
<path d="M10710 5375 c-17 -20 -8 -50 15 -51 15 -1 16 0 3 3 -24 6 -23 23 2
23 11 0 20 6 20 14 0 20 -27 27 -40 11z m25 -5 c3 -5 -1 -10 -10 -10 -9 0 -13
5 -10 10 3 6 8 10 10 10 2 0 7 -4 10 -10z"/>
<path d="M10802 5353 c2 -18 9 -28 21 -29 12 -1 13 -1 2 3 -21 6 -19 40 3 46
12 3 11 5 -6 6 -20 1 -23 -3 -20 -26z"/>
<path d="M10856 5365 c-9 -25 5 -46 28 -43 15 2 22 11 24 31 3 23 0 27 -21 27
-14 0 -27 -7 -31 -15z m44 -15 c0 -23 -25 -27 -33 -6 -7 16 1 26 20 26 7 0 13
-9 13 -20z"/>
<path d="M10931 5348 c2 -31 2 -31 6 -5 2 15 10 27 18 27 8 0 16 -12 18 -27
l4 -28 2 28 c0 16 7 27 15 27 8 0 17 -12 19 -27 4 -26 4 -26 6 5 1 32 0 32
-44 32 -44 0 -45 0 -44 -32z"/>
<path d="M11044 5365 c-10 -24 4 -45 28 -44 l23 2 -22 4 c-28 5 -30 23 -3 23
11 0 20 7 20 15 0 8 -9 15 -20 15 -11 0 -23 -7 -26 -15z m33 -1 c-3 -3 -12 -4
-19 -1 -8 3 -5 6 6 6 11 1 17 -2 13 -5z"/>
<path d="M11235 5371 c19 -8 19 -8 -3 -15 -28 -9 -24 -30 6 -34 19 -3 22 1 22
27 0 26 -4 31 -22 30 -22 0 -22 -1 -3 -8z m15 -31 c0 -5 -7 -10 -16 -10 -8 0
-12 5 -9 10 3 6 10 10 16 10 5 0 9 -4 9 -10z"/>
<path d="M11283 5335 c0 -40 3 -45 23 -45 30 0 40 29 12 39 -18 7 -19 9 -5 14
18 7 24 37 7 37 -5 0 -7 -7 -4 -15 4 -10 0 -15 -11 -15 -11 0 -15 5 -11 15 3
8 2 15 -3 15 -4 0 -8 -20 -8 -45z m42 -25 c-3 -5 -13 -10 -21 -10 -8 0 -14 5
-14 10 0 6 9 10 21 10 11 0 17 -4 14 -10z"/>
<path d="M11352 5353 c2 -22 9 -28 28 -30 22 -1 22 -1 3 4 -28 6 -30 23 -3 23
11 0 20 7 20 15 0 9 -10 15 -26 15 -22 0 -25 -4 -22 -27z m35 11 c-3 -3 -12
-4 -19 -1 -8 3 -5 6 6 6 11 1 17 -2 13 -5z"/>
<path d="M10614 4710 c1 -40 4 -45 26 -47 22 -2 23 -2 5 6 -13 5 -22 21 -26
47 l-7 39 2 -45z"/>
<path d="M10940 4748 c0 -3 -7 -22 -15 -42 -8 -20 -13 -36 -10 -36 9 0 37 71
31 78 -3 3 -6 3 -6 0z"/>
<path d="M10964 4738 c-4 -6 2 -19 14 -29 27 -21 28 -36 5 -42 -17 -4 -17 -5
0 -6 28 -2 33 30 9 50 -28 22 -27 27 1 32 22 4 22 4 0 6 -12 0 -25 -4 -29 -11z"/>
<path d="M11231 4719 c-1 -43 21 -69 47 -52 11 6 18 25 18 49 l2 39 -7 -40
c-7 -46 -37 -62 -45 -23 -3 13 -7 32 -9 43 -3 11 -5 4 -6 -16z"/>
<path d="M10677 4724 c-12 -12 -8 -41 8 -54 20 -17 47 5 43 34 -3 21 -37 34
-51 20z m40 -20 c8 -21 -13 -42 -28 -27 -13 13 -5 43 11 43 6 0 13 -7 17 -16z"/>
<path d="M10749 4728 c-1 -2 -2 -22 -3 -45 -2 -44 8 -62 11 -21 1 13 7 24 13
26 5 2 15 12 20 23 9 16 7 19 -15 19 -14 0 -25 -1 -26 -2z m31 -18 c0 -5 -7
-10 -15 -10 -8 0 -15 5 -15 10 0 6 7 10 15 10 8 0 15 -4 15 -10z"/>
<path d="M10812 4700 c0 -19 2 -27 5 -17 2 9 2 25 0 35 -3 9 -5 1 -5 -18z"/>
<path d="M10847 4724 c-4 -4 -7 -19 -6 -33 l1 -26 7 25 c10 35 38 38 44 5 4
-24 4 -24 3 2 -1 20 -7 29 -21 31 -12 2 -24 0 -28 -4z"/>
<path d="M11032 4700 c0 -19 2 -27 5 -17 2 9 2 25 0 35 -3 9 -5 1 -5 -18z"/>
<path d="M11058 4689 c-2 -22 1 -43 7 -46 5 -4 7 -3 3 2 -4 4 -3 14 3 22 6 7
8 13 3 14 -5 0 0 4 10 8 29 11 29 41 1 41 -20 0 -23 -6 -27 -41z m32 21 c0 -5
-4 -10 -10 -10 -5 0 -10 5 -10 10 0 6 5 10 10 10 6 0 10 -4 10 -10z"/>
<path d="M11131 4698 c2 -31 2 -31 6 -5 2 15 10 27 18 27 8 0 16 -12 18 -27 4
-26 4 -26 6 5 1 28 -2 32 -24 32 -22 0 -25 -4 -24 -32z"/>
<path d="M11320 4683 c0 -34 3 -44 10 -33 5 8 7 25 4 36 -7 25 13 41 29 25 9
-9 8 -17 -2 -34 -13 -20 -13 -21 3 -8 26 22 16 55 -16 59 -27 3 -28 2 -28 -45z"/>
<path d="M10783 4655 c0 -8 4 -12 9 -9 4 3 8 9 8 15 0 5 -4 9 -8 9 -5 0 -9 -7
-9 -15z"/>
<path d="M11093 4655 c0 -8 4 -15 9 -15 4 0 8 7 8 15 0 8 -4 15 -8 15 -5 0 -9
-7 -9 -15z"/>
<path d="M10670 4086 c-28 -35 11 -93 48 -70 35 22 22 84 -18 84 -10 0 -23 -7
-30 -14z m55 -31 c0 -21 -5 -31 -19 -33 -26 -5 -40 12 -32 43 5 20 12 26 29
23 17 -2 22 -10 22 -33z"/>
<path d="M10830 4056 c0 -46 1 -47 28 -44 32 4 42 37 16 59 -16 13 -16 12 -3
-8 10 -17 11 -25 2 -34 -17 -17 -32 -2 -31 31 1 17 -2 33 -5 37 -4 3 -7 -15
-7 -41z"/>
<path d="M11140 4085 c0 -8 -6 -12 -13 -9 -20 7 -40 -21 -32 -46 4 -13 15 -20
31 -20 22 0 24 4 24 45 0 25 -2 45 -5 45 -3 0 -5 -7 -5 -15z m-2 -43 c2 -14
-2 -22 -12 -22 -19 0 -29 17 -22 36 8 22 30 12 34 -14z"/>
<path d="M10773 4073 c-7 -2 -12 -19 -12 -36 l1 -32 7 29 c8 39 29 44 34 9 l4
-28 -1 29 c-1 30 -11 38 -33 29z"/>
<path d="M10909 4064 c-16 -20 0 -49 27 -49 35 0 28 64 -7 65 -4 0 -12 -7 -20
-16z m39 -22 c2 -14 -2 -22 -12 -22 -19 0 -28 14 -20 35 9 21 28 14 32 -13z"/>
<path d="M11009 4066 c9 -11 7 -15 -9 -19 -29 -8 -26 -37 5 -37 21 0 25 5 25
29 0 18 -6 31 -16 35 -14 5 -15 4 -5 -8z m6 -36 c-3 -5 -10 -10 -16 -10 -5 0
-9 5 -9 10 0 6 7 10 16 10 8 0 12 -4 9 -10z"/>
<path d="M11063 4073 c-7 -2 -12 -19 -12 -36 2 -28 2 -29 6 -7 3 14 10 31 15
38 11 13 10 13 -9 5z"/>
<path d="M11237 4070 c6 -8 13 -26 16 -40 l4 -25 2 26 c0 15 -7 33 -16 40 -16
12 -17 12 -6 -1z"/>
<path d="M11284 4069 c-10 -17 -12 -79 -2 -85 12 -8 48 5 48 18 0 5 -9 12 -20
15 -11 3 -18 9 -15 13 3 5 1 11 -5 15 -11 7 -4 25 10 25 5 0 11 -8 13 -17 4
-14 5 -12 6 5 1 23 -22 31 -35 11z m31 -69 c-3 -5 -13 -10 -21 -10 -8 0 -14 5
-14 10 0 6 9 10 21 10 11 0 17 -4 14 -10z"/>
<path d="M11172 4040 c0 -19 2 -27 5 -17 2 9 2 25 0 35 -3 9 -5 1 -5 -18z"/>
<path d="M11200 4040 c0 -16 2 -30 4 -30 2 0 6 14 8 30 3 17 1 30 -4 30 -4 0
-8 -13 -8 -30z"/>
<path d="M9103 3405 c0 -27 2 -38 4 -22 2 15 2 37 0 50 -2 12 -4 0 -4 -28z"/>
<path d="M9320 3436 c0 -8 -10 -16 -22 -18 -24 -3 -36 -34 -20 -50 6 -6 8 0 4
17 -4 22 -2 26 14 23 13 -3 18 -11 17 -26 -2 -12 2 -22 7 -22 6 0 10 20 10 45
0 25 -2 45 -5 45 -3 0 -5 -6 -5 -14z"/>
<path d="M13891 3408 c0 -27 3 -48 8 -48 4 0 6 11 3 25 -3 19 0 25 13 25 13 0
16 -6 13 -25 -3 -14 -1 -25 3 -25 5 0 9 14 9 30 0 23 -5 30 -19 30 -11 0 -22
8 -24 18 -3 9 -5 -4 -6 -30z"/>
<path d="M5418 3385 c-2 -46 -1 -53 10 -38 14 20 16 79 3 87 -5 4 -11 -19 -13
-49z"/>
<path d="M5803 3400 c0 -25 2 -35 4 -22 2 12 2 32 0 45 -2 12 -4 2 -4 -23z"/>
<path d="M8962 3428 c-22 -22 -7 -68 21 -68 5 0 1 7 -7 16 -9 8 -16 19 -16 24
0 5 7 16 16 24 8 9 12 16 7 16 -5 0 -14 -5 -21 -12z"/>
<path d="M11350 3425 c0 -8 9 -19 21 -25 12 -7 18 -18 15 -26 -3 -8 -1 -14 4
-14 19 0 10 39 -11 45 -12 4 -18 12 -15 21 3 8 1 14 -4 14 -6 0 -10 -7 -10
-15z"/>
<path d="M13790 3400 c0 -37 2 -40 28 -39 16 1 20 3 10 6 -13 3 -18 15 -18 39
0 19 -4 34 -10 34 -5 0 -10 -18 -10 -40z"/>
<path d="M16754 3429 c-4 -7 3 -19 16 -29 13 -10 20 -22 16 -29 -4 -6 -2 -11
3 -11 20 0 11 39 -10 45 -12 4 -18 12 -15 21 6 17 0 19 -10 3z"/>
<path d="M11418 3425 c-6 -7 3 -65 11 -65 7 0 7 58 -1 65 -2 3 -7 3 -10 0z"/>
<path d="M11528 3424 c-7 -7 4 -64 12 -64 5 0 6 9 3 21 -3 12 0 24 6 29 10 5
9 9 -2 13 -8 3 -17 4 -19 1z"/>
<path d="M11660 3395 c0 -19 4 -35 9 -35 5 0 7 9 4 21 -3 12 0 24 6 29 10 5 9
9 -3 13 -13 5 -16 -1 -16 -28z"/>
<path d="M16888 3424 c-7 -7 4 -64 12 -64 5 0 6 9 3 21 -3 12 0 24 6 29 10 5
9 9 -2 13 -8 3 -17 4 -19 1z"/>
<path d="M16930 3400 c0 -16 4 -31 9 -34 5 -4 7 3 4 15 -3 12 0 24 6 29 10 5
9 9 -3 13 -12 5 -16 0 -16 -23z"/>
<path d="M5454 3406 c-8 -21 2 -46 18 -46 10 0 9 3 -1 9 -18 11 -7 41 15 41
12 0 15 -7 11 -26 -3 -16 -1 -22 5 -16 6 6 8 18 6 28 -4 24 -46 31 -54 10z"/>
<path d="M5530 3390 c0 -16 4 -30 8 -30 5 0 7 14 4 30 -2 17 -6 30 -8 30 -2 0
-4 -13 -4 -30z"/>
<path d="M5568 3390 c-3 -16 -1 -30 4 -30 4 0 8 14 8 30 0 17 -2 30 -4 30 -2
0 -6 -13 -8 -30z"/>
<path d="M5601 3388 c1 -21 3 -26 6 -13 3 11 12 26 21 33 14 11 13 12 -6 12
-18 0 -22 -5 -21 -32z"/>
<path d="M5651 3388 c1 -30 2 -31 8 -8 10 35 38 38 44 5 4 -24 4 -24 3 2 -1
23 -6 29 -28 31 -26 3 -28 1 -27 -30z"/>
<path d="M5743 3413 c14 -4 18 -12 14 -29 -2 -13 0 -24 4 -24 5 0 9 14 9 30 0
25 -4 30 -22 29 -19 -1 -20 -2 -5 -6z"/>
<path d="M9051 3412 c9 -4 15 -17 14 -29 -1 -13 2 -23 7 -23 4 0 8 14 8 30 0
25 -4 30 -22 29 -18 0 -19 -2 -7 -7z"/>
<path d="M9137 3414 c-10 -11 -9 -42 3 -49 6 -3 7 1 4 9 -4 12 0 16 16 16 13
0 20 5 18 13 -5 14 -31 21 -41 11z m30 -10 c-3 -3 -12 -4 -19 -1 -8 3 -5 6 6
6 11 1 17 -2 13 -5z"/>
<path d="M9201 3388 c2 -31 2 -31 6 -5 2 15 10 27 18 27 8 0 16 -12 18 -27 4
-26 4 -26 6 5 1 28 -2 32 -24 32 -22 0 -25 -4 -24 -32z"/>
<path d="M9347 3406 c-7 -19 1 -46 14 -46 4 0 6 7 3 15 -4 11 0 15 16 15 13 0
20 5 18 13 -7 18 -45 20 -51 3z"/>
<path d="M9419 3388 c5 -30 6 -31 9 -8 2 14 9 28 16 32 7 5 3 8 -10 8 -18 0
-20 -5 -15 -32z"/>
<path d="M11481 3412 c9 -4 15 -17 14 -29 -1 -13 2 -23 7 -23 4 0 8 14 8 30 0
25 -4 30 -22 29 -18 0 -19 -2 -7 -7z"/>
<path d="M11572 3390 c0 -19 2 -27 5 -17 2 9 2 25 0 35 -3 9 -5 1 -5 -18z"/>
<path d="M11600 3410 c0 -5 9 -19 20 -30 14 -14 20 -16 20 -6 0 8 -8 17 -17
21 -17 7 -16 8 2 15 19 8 19 9 -2 9 -13 1 -23 -3 -23 -9z"/>
<path d="M11702 3390 c0 -19 2 -27 5 -17 2 9 2 25 0 35 -3 9 -5 1 -5 -18z"/>
<path d="M11734 3405 c-9 -23 3 -45 23 -44 17 1 17 2 1 6 -25 6 -22 32 5 43
l22 9 -23 0 c-12 1 -25 -6 -28 -14z"/>
<path d="M11790 3410 c0 -5 9 -19 20 -30 14 -14 20 -16 20 -6 0 8 -8 17 -17
21 -17 7 -16 8 2 15 19 8 19 9 -2 9 -13 1 -23 -3 -23 -9z"/>
<path d="M13862 3390 c0 -19 2 -27 5 -17 2 9 2 25 0 35 -3 9 -5 1 -5 -18z"/>
<path d="M13961 3388 c1 -21 3 -26 6 -13 3 11 12 26 21 33 14 11 13 12 -6 12
-18 0 -22 -5 -21 -32z"/>
<path d="M14031 3412 c9 -4 15 -17 14 -29 -1 -13 2 -23 7 -23 4 0 8 14 8 30 0
25 -4 30 -22 29 -18 0 -19 -2 -7 -7z"/>
<path d="M14081 3388 c2 -28 2 -29 6 -8 3 14 10 28 17 32 7 5 5 8 -6 8 -14 0
-18 -8 -17 -32z"/>
<path d="M14133 3384 c9 -29 8 -37 -4 -45 -9 -6 -10 -9 -2 -9 13 0 27 21 43
67 l10 28 -20 -25 c-15 -20 -20 -21 -20 -8 0 9 -4 19 -9 22 -5 4 -4 -10 2 -30z"/>
<path d="M16827 3413 c-10 -10 -8 -41 3 -48 6 -3 7 1 4 9 -4 11 0 16 15 16 12
0 21 6 21 15 0 15 -31 21 -43 8z m30 -9 c-3 -3 -12 -4 -19 -1 -8 3 -5 6 6 6
11 1 17 -2 13 -5z"/>
<path d="M16970 3390 c0 -16 2 -30 4 -30 2 0 6 14 8 30 3 17 1 30 -4 30 -4 0
-8 -13 -8 -30z"/>
<path d="M17011 3403 c0 -11 3 -13 6 -5 9 22 32 13 36 -15 4 -26 4 -26 6 5 1
28 -2 32 -24 32 -17 0 -25 -5 -24 -17z"/>
<path d="M17078 3379 c-2 -22 0 -43 4 -45 5 -3 7 0 6 7 -2 7 6 15 16 17 14 3
17 0 13 -12 -4 -9 -2 -16 3 -16 19 0 10 31 -12 40 -16 6 -18 9 -7 9 9 1 19 10
22 21 4 16 0 20 -18 20 -20 0 -23 -6 -27 -41z m32 21 c0 -5 -4 -10 -10 -10 -5
0 -10 5 -10 10 0 6 5 10 10 10 6 0 10 -4 10 -10z"/>
<path d="M17145 3411 c-3 -6 4 -15 15 -21 11 -6 17 -16 14 -22 -5 -7 -2 -8 6
-3 10 6 8 12 -9 26 -19 16 -20 18 -4 22 16 4 16 5 1 6 -9 0 -19 -3 -23 -8z"/>
<path d="M5725 3381 c-3 -5 -2 -12 3 -15 5 -3 9 1 9 9 0 17 -3 19 -12 6z"/>
<path d="M9030 3375 c0 -8 4 -15 10 -15 5 0 7 7 4 15 -4 8 -8 15 -10 15 -2 0
-4 -7 -4 -15z"/>
<path d="M11460 3375 c0 -8 4 -15 10 -15 5 0 7 7 4 15 -4 8 -8 15 -10 15 -2 0
-4 -7 -4 -15z"/>
<path d="M14010 3375 c0 -8 4 -15 10 -15 5 0 7 7 4 15 -4 8 -8 15 -10 15 -2 0
-4 -7 -4 -15z"/>
<path d="M12331 2753 c1 -27 4 -38 6 -25 2 12 8 22 12 22 5 0 16 -10 24 -22 9
-13 16 -18 16 -11 1 6 -4 15 -9 18 -7 4 -7 13 0 26 14 25 5 39 -26 39 -22 0
-24 -3 -23 -47z m42 22 c1 -5 -6 -11 -15 -13 -11 -2 -18 3 -18 13 0 17 30 18
33 0z"/>
<path d="M12731 2778 c-16 -43 -22 -68 -18 -68 3 0 12 20 20 45 16 45 14 65
-2 23z"/>
<path d="M12761 2753 c1 -27 4 -38 6 -25 2 12 8 22 12 22 5 0 16 -10 24 -22 9
-13 16 -18 16 -11 1 6 -4 15 -9 18 -7 4 -7 13 0 26 14 25 5 39 -26 39 -22 0
-24 -3 -23 -47z m42 22 c1 -5 -6 -11 -15 -13 -11 -2 -18 3 -18 13 0 17 30 18
33 0z"/>
<path d="M15133 2750 c0 -30 1 -47 4 -37 5 18 5 18 25 0 21 -18 21 -18 9 5 -7
12 -9 28 -5 35 6 8 3 8 -8 -1 -15 -12 -17 -9 -21 20 -2 20 -4 11 -4 -22z"/>
<path d="M17303 2750 c0 -30 2 -43 4 -27 2 15 2 39 0 55 -2 15 -4 2 -4 -28z"/>
<path d="M4084 2763 c-9 -33 6 -57 37 -60 24 -2 24 -2 -1 5 -19 6 -25 15 -25
37 0 23 6 31 25 36 l25 7 -27 1 c-22 1 -29 -5 -34 -26z"/>
<path d="M4482 2748 c3 -38 6 -43 28 -45 14 -1 18 0 8 3 -10 3 -18 12 -18 19
0 7 8 16 18 18 16 4 16 5 0 6 -10 0 -18 7 -18 15 0 8 8 17 18 19 10 3 6 5 -11
6 -27 1 -28 -1 -25 -41z"/>
<path d="M5354 2776 c-3 -8 -4 -27 -2 -43 2 -22 9 -28 28 -30 14 -1 18 0 8 3
-10 3 -18 12 -18 19 0 7 8 16 18 18 16 4 16 5 0 6 -10 0 -18 7 -18 15 0 8 8
17 18 19 12 4 11 5 -6 6 -12 0 -25 -5 -28 -13z"/>
<path d="M5462 2784 c-1 -7 -11 -14 -22 -17 -25 -6 -28 -55 -4 -64 24 -9 36
11 31 53 -2 22 -4 34 -5 28z m-2 -49 c0 -16 -6 -25 -15 -25 -9 0 -15 9 -15 25
0 16 6 25 15 25 9 0 15 -9 15 -25z"/>
<path d="M5600 2745 c0 -43 1 -45 28 -44 23 2 24 2 5 6 -13 2 -23 11 -23 19 0
8 10 14 23 15 l22 0 -22 9 c-13 5 -23 14 -23 19 0 5 10 12 23 14 19 4 18 4 -5
6 -27 1 -28 -1 -28 -44z"/>
<path d="M6471 2748 c1 -24 3 -35 6 -26 2 9 12 19 21 21 15 4 15 5 0 6 -10 0
-18 7 -18 15 0 8 8 17 18 19 13 4 11 5 -5 6 -21 1 -23 -3 -22 -41z"/>
<path d="M6563 2745 c0 -27 2 -38 4 -22 2 15 2 37 0 50 -2 12 -4 0 -4 -28z"/>
<path d="M6782 2748 c3 -38 6 -43 28 -45 25 -3 25 -3 3 7 -13 5 -23 14 -23 20
0 5 10 10 23 11 l22 0 -22 9 c-13 5 -23 14 -23 19 0 5 10 12 23 14 18 4 18 4
-6 6 -27 1 -28 -1 -25 -41z"/>
<path d="M7670 2774 c-20 -23 -1 -68 30 -71 25 -3 25 -3 2 7 -44 19 -37 64 11
73 19 4 18 4 -4 6 -15 0 -32 -6 -39 -15z"/>
<path d="M8070 2745 c0 -43 1 -45 28 -44 23 2 24 2 5 6 -27 5 -31 33 -5 33 16
1 16 1 0 11 -24 14 -22 27 5 32 19 4 18 4 -5 6 -27 1 -28 -1 -28 -44z"/>
<path d="M8892 2748 c2 -35 7 -43 23 -44 15 -1 16 0 3 3 -26 6 -22 33 5 34
l22 0 -22 9 c-13 5 -23 14 -23 19 0 5 10 12 23 14 18 4 18 4 -6 6 -27 1 -28
-1 -25 -41z"/>
<path d="M9000 2780 c0 -5 -7 -10 -15 -10 -21 0 -35 -31 -24 -52 5 -10 14 -18
20 -18 6 0 4 7 -5 15 -17 17 -11 45 9 45 8 0 15 -14 18 -32 3 -25 4 -22 5 15
1 26 0 47 -3 47 -3 0 -5 -4 -5 -10z"/>
<path d="M9140 2745 c0 -43 1 -45 28 -44 23 2 24 2 5 6 -27 5 -31 30 -5 36 16
4 16 5 0 6 -26 2 -22 29 5 34 19 4 18 4 -5 6 -27 1 -28 -1 -28 -44z"/>
<path d="M10051 2743 c0 -33 3 -42 8 -29 4 11 16 23 27 27 17 7 17 8 -3 8 -13
1 -23 6 -23 11 0 6 10 15 23 20 21 8 21 9 -5 9 -27 1 -28 -1 -27 -46z"/>
<path d="M10370 2745 c0 -43 1 -45 28 -44 23 2 24 2 5 6 -27 5 -31 33 -5 33
16 1 16 1 0 11 -24 14 -22 27 5 32 19 4 18 4 -5 6 -27 1 -28 -1 -28 -44z"/>
<path d="M11220 2774 c-20 -23 -1 -68 30 -71 24 -3 24 -2 4 6 -12 5 -25 14
-29 20 -11 19 5 50 28 54 22 4 22 4 1 6 -12 0 -27 -6 -34 -15z"/>
<path d="M11640 2786 c0 -2 -7 -21 -16 -42 -11 -27 -12 -35 -3 -26 16 15 49
16 49 0 0 -6 2 -9 5 -6 6 5 -22 78 -30 78 -3 0 -5 -2 -5 -4z m14 -31 c3 -8 1
-15 -4 -15 -6 0 -10 7 -10 15 0 8 2 15 4 15 2 0 6 -7 10 -15z"/>
<path d="M11730 2770 c-6 -12 -8 -30 -5 -40 7 -23 52 -37 67 -22 13 13 3 42
-14 41 -10 0 -10 -2 0 -6 19 -8 14 -33 -8 -33 -46 0 -42 62 5 73 15 4 13 5 -7
6 -18 1 -31 -6 -38 -19z"/>
<path d="M11963 2750 c0 -25 2 -35 4 -22 2 12 2 32 0 45 -2 12 -4 2 -4 -23z"/>
<path d="M13702 2778 c-28 -28 -7 -79 33 -77 17 1 16 2 -5 8 -19 5 -25 13 -25
36 0 23 6 31 25 36 21 6 22 7 5 8 -12 1 -26 -4 -33 -11z"/>
<path d="M15042 2748 c-2 -44 0 -48 21 -47 16 1 17 3 5 6 -12 3 -18 17 -21 46
l-4 42 -1 -47z"/>
<path d="M15310 2781 c0 -5 -10 -11 -22 -13 -18 -2 -23 -10 -23 -33 0 -26 4
-30 28 -31 25 -1 27 1 27 42 0 24 -2 44 -5 44 -3 0 -5 -4 -5 -9z m-3 -37 c1
-5 -2 -16 -7 -24 -12 -20 -35 2 -26 25 6 17 27 16 33 -1z"/>
<path d="M15922 2753 c-6 -20 -9 -39 -7 -42 3 -2 5 1 5 7 0 18 37 14 44 -4 4
-9 9 -15 11 -12 6 6 -26 88 -35 88 -4 0 -12 -17 -18 -37z m24 -10 c-10 -10
-19 5 -10 18 6 11 8 11 12 0 2 -7 1 -15 -2 -18z"/>
<path d="M16407 2783 c-13 -13 -7 -32 13 -38 27 -9 25 -33 -2 -38 l-23 -4 23
-2 c32 -2 41 29 14 47 -28 18 -28 29 1 35 20 4 20 4 1 6 -11 0 -24 -2 -27 -6z"/>
<path d="M17142 2750 c0 -25 2 -37 5 -27 7 26 51 22 56 -5 2 -13 4 0 4 27 0
28 -2 40 -4 28 -3 -15 -12 -23 -24 -23 -11 0 -24 10 -29 23 -7 18 -9 13 -8
-23z"/>
<path d="M17445 2779 c-4 -6 -4 -13 -1 -16 3 -3 1 -12 -5 -19 -20 -24 -3 -44
34 -42 26 2 33 7 29 20 -2 10 -9 16 -16 15 -6 -1 -10 9 -8 26 3 28 -20 39 -33
16z m25 -9 c0 -5 -4 -10 -10 -10 -5 0 -10 5 -10 10 0 6 5 10 10 10 6 0 10 -4
10 -10z m5 -39 c7 -12 -12 -24 -25 -16 -11 7 -4 25 10 25 5 0 11 -4 15 -9z"/>
<path d="M17554 2778 c-4 -6 5 -21 21 -34 l29 -23 -24 -10 c-16 -6 -19 -10 -9
-10 9 -1 22 5 29 13 9 12 7 18 -9 33 -26 21 -26 30 -3 36 13 4 12 5 -5 6 -12
0 -25 -4 -29 -11z"/>
<path d="M4342 2744 c2 -23 9 -39 18 -41 12 -4 13 -3 1 5 -8 6 -12 20 -9 36 3
15 1 29 -4 32 -5 4 -8 -10 -6 -32z"/>
<path d="M4629 2775 c-7 -6 2 -75 10 -75 3 0 6 16 5 35 -1 35 -6 49 -15 40z"/>
<path d="M5529 2775 c-7 -6 2 -75 10 -75 3 0 6 16 5 35 -1 35 -6 49 -15 40z"/>
<path d="M5742 2743 c2 -22 9 -38 18 -41 12 -4 13 -2 3 9 -16 17 -17 46 -1 51
7 3 5 7 -6 11 -15 6 -17 2 -14 -30z"/>
<path d="M6592 2744 c2 -23 9 -39 18 -41 12 -4 13 -3 1 5 -8 6 -12 20 -9 36 3
15 1 29 -4 32 -5 4 -8 -10 -6 -32z"/>
<path d="M7929 2774 c-3 -20 3 -59 9 -66 4 -4 7 9 6 28 -1 31 -12 60 -15 38z"/>
<path d="M8212 2743 c2 -20 9 -38 16 -39 7 -1 8 0 2 3 -14 7 -13 50 2 55 7 3
5 7 -6 11 -15 6 -17 2 -14 -30z"/>
<path d="M9064 2766 c-7 -18 3 -66 14 -66 8 0 8 68 -1 77 -4 3 -9 -2 -13 -11z"/>
<path d="M9282 2744 c2 -23 9 -39 18 -41 12 -4 13 -3 1 5 -8 6 -12 20 -9 36 3
15 1 29 -4 32 -5 4 -8 -10 -6 -32z"/>
<path d="M10179 2775 c-7 -6 2 -75 10 -75 3 0 6 16 5 35 -1 35 -6 49 -15 40z"/>
<path d="M10512 2744 c2 -23 9 -39 18 -41 12 -4 13 -3 1 5 -8 6 -12 20 -9 36
3 15 1 29 -4 32 -5 4 -8 -10 -6 -32z"/>
<path d="M11479 2775 c-7 -6 2 -75 10 -75 3 0 6 16 5 35 -1 35 -6 49 -15 40z"/>
<path d="M12409 2764 c-16 -19 -1 -48 27 -51 13 -2 11 1 -6 8 -18 8 -21 13
-10 16 44 13 43 13 30 28 -16 19 -24 19 -41 -1z m31 -4 c0 -5 -4 -10 -10 -10
-5 0 -10 5 -10 10 0 6 5 10 10 10 6 0 10 -4 10 -10z"/>
<path d="M12479 2764 c-16 -19 -1 -48 27 -51 15 -2 14 -1 -3 7 -27 11 -30 35
-5 49 9 6 12 11 6 11 -6 0 -17 -7 -25 -16z"/>
<path d="M12534 2766 c-11 -28 0 -51 26 -53 l25 -3 -25 12 -25 11 23 5 c15 2
22 9 20 20 -4 22 -36 28 -44 8z m36 -6 c0 -5 -7 -10 -15 -10 -8 0 -15 5 -15
10 0 6 7 10 15 10 8 0 15 -4 15 -10z"/>
<path d="M12613 2773 c-7 -2 -12 -19 -12 -36 l1 -32 7 29 c8 38 31 47 31 12 0
-14 5 -26 10 -26 14 0 13 33 -2 48 -13 13 -16 13 -35 5z"/>
<path d="M12672 2748 c2 -17 9 -33 16 -36 11 -3 11 0 1 16 -10 17 -10 23 0 36
11 14 11 16 -3 16 -13 0 -17 -7 -14 -32z"/>
<path d="M12841 2761 c-13 -22 9 -57 30 -48 10 4 9 6 -3 6 -25 1 -23 21 2 21
23 0 26 10 8 28 -17 17 -26 15 -37 -7z m34 -1 c3 -5 -1 -10 -9 -10 -9 0 -16 5
-16 10 0 6 4 10 9 10 6 0 13 -4 16 -10z"/>
<path d="M12909 2764 c-16 -19 -1 -48 27 -51 15 -2 14 -1 -3 7 -27 11 -30 35
-5 49 9 6 12 11 6 11 -6 0 -17 -7 -25 -16z"/>
<path d="M12973 2773 c-19 -7 -16 -50 4 -57 24 -10 51 20 37 41 -12 19 -23 24
-41 16z m34 -19 c8 -21 -13 -42 -28 -27 -13 13 -5 43 11 43 6 0 13 -7 17 -16z"/>
<path d="M13067 2769 c6 -8 13 -25 16 -39 4 -17 5 -15 4 9 -1 21 -8 36 -17 39
-12 4 -13 2 -3 -9z"/>
<path d="M13107 2769 c6 -8 13 -25 16 -39 4 -17 5 -15 4 9 -1 21 -8 36 -17 39
-12 4 -13 2 -3 -9z"/>
<path d="M13177 2773 c6 -4 13 -22 16 -38 4 -27 5 -27 3 4 0 21 -7 36 -16 38
-10 3 -11 2 -3 -4z"/>
<path d="M13217 2773 c6 -4 13 -22 16 -38 4 -27 5 -27 3 4 0 21 -7 36 -16 38
-10 3 -11 2 -3 -4z"/>
<path d="M13837 2773 c-6 -11 4 -73 12 -73 7 0 6 68 -2 76 -3 3 -7 2 -10 -3z"/>
<path d="M16329 2774 c-3 -20 3 -59 9 -66 4 -4 7 9 6 28 -1 31 -12 60 -15 38z"/>
<path d="M16539 2775 c-7 -6 2 -75 10 -75 3 0 6 16 5 35 -1 35 -6 49 -15 40z"/>
<path d="M16582 2743 c2 -20 9 -38 16 -39 7 -1 8 0 2 3 -14 7 -13 50 2 55 7 3
5 7 -6 11 -15 6 -17 2 -14 -30z"/>
<path d="M17972 2744 c2 -23 9 -39 18 -41 12 -4 13 -3 1 5 -8 6 -12 20 -9 36
3 15 1 29 -4 32 -5 4 -8 -10 -6 -32z"/>
<path d="M4164 2756 c-3 -8 -4 -23 -1 -33 3 -12 5 -9 6 9 0 14 7 29 14 31 9 4
9 6 -1 6 -7 1 -15 -5 -18 -13z"/>
<path d="M4209 2754 c-16 -19 -1 -48 27 -51 13 -2 11 1 -6 8 l-25 12 23 6 c13
3 23 9 23 14 -1 4 -1 12 -1 17 0 16 -26 12 -41 -6z m31 -4 c0 -5 -7 -10 -16
-10 -8 0 -12 5 -9 10 3 6 10 10 16 10 5 0 9 -4 9 -10z"/>
<path d="M4293 2764 c19 -6 23 -39 6 -49 -17 -11 -25 5 -9 16 13 9 13 10 0 6
-24 -6 -17 -32 8 -33 20 -1 23 3 20 30 -2 22 -8 31 -23 33 -16 1 -16 1 -2 -3z"/>
<path d="M4383 2754 c-8 -22 9 -48 33 -51 13 -2 11 1 -6 8 -18 8 -21 13 -10
16 44 13 43 13 30 28 -16 20 -39 19 -47 -1z m37 -4 c0 -5 -7 -10 -16 -10 -8 0
-12 5 -9 10 3 6 10 10 16 10 5 0 9 -4 9 -10z"/>
<path d="M4551 2730 c1 -34 1 -34 8 -6 8 38 31 47 31 12 0 -14 5 -26 10 -26
12 0 13 30 2 47 -4 7 -18 11 -30 10 -18 -1 -22 -7 -21 -37z"/>
<path d="M4671 2731 c1 -28 3 -30 6 -11 3 14 9 30 14 36 5 7 3 11 -6 11 -11 0
-15 -11 -14 -36z"/>
<path d="M4711 2769 c-1 -3 4 -20 10 -38 8 -24 8 -35 -1 -46 -11 -13 -10 -14
3 -9 9 3 20 19 26 36 14 39 13 62 0 28 l-11 -25 -13 30 c-7 17 -14 27 -14 24z"/>
<path d="M5672 2740 c0 -19 2 -27 5 -17 2 9 2 25 0 35 -3 9 -5 1 -5 -18z"/>
<path d="M5697 2763 c6 -4 13 -22 16 -38 4 -27 5 -27 3 4 0 21 -7 36 -16 38
-10 3 -11 2 -3 -4z"/>
<path d="M5793 2763 c-15 -6 -18 -53 -3 -53 6 0 10 11 10 24 0 13 6 27 13 29
6 3 8 5 2 5 -5 0 -16 -2 -22 -5z"/>
<path d="M6533 2735 c0 -22 2 -30 4 -17 2 12 2 30 0 40 -3 9 -5 -1 -4 -23z"/>
<path d="M6633 2754 c-8 -22 9 -48 33 -51 13 -2 11 1 -6 9 l-25 11 23 5 c15 2
22 9 20 20 -4 23 -37 27 -45 6z m37 -4 c0 -5 -7 -10 -16 -10 -8 0 -12 5 -9 10
3 6 10 10 16 10 5 0 9 -4 9 -10z"/>
<path d="M6701 2730 c1 -27 3 -29 6 -10 2 14 11 30 20 37 13 10 13 12 -6 10
-17 -1 -21 -7 -20 -37z"/>
<path d="M6852 2740 c0 -19 2 -27 5 -17 2 9 2 25 0 35 -3 9 -5 1 -5 -18z"/>
<path d="M6876 2762 c7 -4 14 -18 17 -32 4 -21 4 -20 6 8 1 24 -3 32 -16 32
-12 0 -14 -3 -7 -8z"/>
<path d="M6920 2751 c0 -28 10 -51 23 -51 7 0 7 4 -1 12 -16 16 -15 45 1 51 7
3 5 6 -5 6 -11 1 -18 -6 -18 -18z"/>
<path d="M7022 2740 c0 -19 2 -27 5 -17 2 9 2 25 0 35 -3 9 -5 1 -5 -18z"/>
<path d="M7050 2755 c-16 -19 -3 -49 21 -51 9 -1 10 0 2 3 -20 7 -15 20 8 26
12 3 19 12 17 19 -7 20 -33 21 -48 3z m35 -5 c3 -5 -1 -10 -9 -10 -9 0 -16 5
-16 10 0 6 4 10 9 10 6 0 13 -4 16 -10z"/>
<path d="M7114 2759 c-4 -7 1 -16 10 -21 21 -12 20 -25 -1 -31 -14 -4 -13 -5
4 -6 32 -2 39 19 13 39 -22 17 -23 18 -4 23 15 4 16 5 2 6 -9 0 -20 -4 -24
-10z"/>
<path d="M7741 2730 c1 -27 3 -29 6 -10 2 14 11 30 20 37 13 10 13 12 -6 10
-17 -1 -21 -7 -20 -37z"/>
<path d="M7794 2756 c-11 -28 0 -51 26 -53 l25 -3 -25 12 -25 11 23 5 c15 2
22 9 20 20 -4 22 -36 28 -44 8z m36 -6 c0 -5 -7 -10 -15 -10 -8 0 -15 5 -15
10 0 6 7 10 15 10 8 0 15 -4 15 -10z"/>
<path d="M7882 2764 c20 -6 19 -45 -2 -52 -9 -3 -11 1 -7 12 4 9 2 16 -3 16
-6 0 -10 -9 -10 -20 0 -21 16 -26 38 -11 21 13 11 55 -13 58 -15 1 -16 1 -3
-3z"/>
<path d="M7974 2756 c-9 -23 0 -51 16 -52 9 0 10 1 3 3 -21 7 -15 23 8 23 14
0 19 5 17 17 -4 23 -36 29 -44 9z m36 -6 c0 -5 -7 -10 -15 -10 -8 0 -15 5 -15
10 0 6 7 10 15 10 8 0 15 -4 15 -10z"/>
<path d="M8141 2738 c2 -30 2 -31 6 -5 5 34 30 36 36 2 4 -23 4 -23 3 2 -1 21
-7 29 -23 31 -20 3 -23 -1 -22 -30z"/>
<path d="M8263 2763 c-7 -2 -13 -17 -12 -31 l1 -27 10 28 c13 35 32 34 48 -3
10 -25 10 -33 -1 -47 -10 -12 -10 -15 -1 -9 13 8 43 71 41 90 0 6 -6 -2 -13
-17 l-12 -28 -12 26 c-11 24 -23 29 -49 18z"/>
<path d="M9033 2735 c0 -22 2 -30 4 -17 2 12 2 30 0 40 -3 9 -5 -1 -4 -23z"/>
<path d="M9212 2758 c-14 -14 -16 -48 -2 -48 6 0 10 11 10 25 0 38 28 31 33
-7 l5 -33 -2 35 c-1 37 -22 50 -44 28z"/>
<path d="M9333 2763 c-7 -2 -13 -17 -12 -31 l0 -27 10 25 c6 13 15 28 22 32
13 8 -1 9 -20 1z"/>
<path d="M9403 2754 c-8 -22 9 -48 33 -51 13 -2 11 1 -6 9 l-25 11 23 5 c15 2
22 9 20 20 -4 23 -37 27 -45 6z m37 -4 c0 -5 -7 -10 -15 -10 -8 0 -15 5 -15
10 0 6 7 10 15 10 8 0 15 -4 15 -10z"/>
<path d="M9474 2758 c-4 -6 0 -16 9 -23 22 -16 21 -22 0 -28 -16 -4 -16 -5 -1
-6 24 -2 34 20 15 34 -22 16 -21 22 1 28 15 4 15 5 0 6 -9 0 -20 -4 -24 -11z"/>
<path d="M10224 2756 c-9 -23 0 -51 16 -52 9 0 10 1 3 3 -21 7 -15 23 8 23 14
0 19 5 17 17 -4 23 -36 29 -44 9z m36 -6 c0 -5 -7 -10 -15 -10 -8 0 -15 5 -15
10 0 6 7 10 15 10 8 0 15 -4 15 -10z"/>
<path d="M10443 2735 c0 -22 2 -30 4 -17 2 12 2 30 0 40 -3 9 -5 -1 -4 -23z"/>
<path d="M10467 2763 c6 -4 13 -22 16 -38 4 -27 5 -27 3 4 0 21 -7 36 -16 38
-10 3 -11 2 -3 -4z"/>
<path d="M10563 2763 c-7 -2 -12 -17 -12 -31 1 -21 2 -22 6 -7 3 11 12 26 21
33 16 12 8 15 -15 5z"/>
<path d="M10637 2764 c-13 -13 -7 -52 9 -58 28 -11 40 -5 14 6 l-25 11 23 5
c15 2 22 9 20 20 -3 18 -29 27 -41 16z m33 -14 c0 -5 -7 -10 -15 -10 -8 0 -15
5 -15 10 0 6 7 10 15 10 8 0 15 -4 15 -10z"/>
<path d="M10704 2758 c-4 -6 0 -16 9 -23 22 -16 21 -22 0 -28 -16 -4 -16 -5
-1 -6 24 -2 34 20 15 34 -22 16 -21 22 1 28 15 4 15 5 0 6 -9 0 -20 -4 -24
-11z"/>
<path d="M11303 2763 c-7 -2 -12 -17 -12 -31 1 -21 2 -22 6 -7 3 11 12 26 21
33 16 12 8 15 -15 5z"/>
<path d="M11344 2756 c-11 -28 0 -51 26 -53 25 -3 25 -3 3 7 -26 11 -32 50 -8
50 18 0 20 -16 3 -23 -8 -3 -5 -6 5 -6 12 -1 17 5 15 16 -4 23 -36 29 -44 9z"/>
<path d="M11428 2763 c14 -5 17 -53 3 -53 -15 0 -23 18 -11 23 6 3 5 4 -2 3
-18 -4 -16 -30 2 -33 8 -2 21 1 29 6 19 13 6 61 -17 60 -10 0 -12 -3 -4 -6z"/>
<path d="M11524 2756 c-10 -25 0 -51 21 -54 20 -4 20 -4 0 12 -20 15 -20 15 3
16 17 0 23 5 20 17 -4 23 -36 29 -44 9z m36 -6 c0 -5 -7 -10 -15 -10 -8 0 -15
5 -15 10 0 6 7 10 15 10 8 0 15 -4 15 -10z"/>
<path d="M11820 2755 c-17 -21 -2 -50 26 -50 14 0 19 7 19 30 0 34 -24 45 -45
20z m40 -14 c0 -11 -5 -23 -11 -27 -15 -9 -33 12 -26 30 9 23 37 20 37 -3z"/>
<path d="M11912 2764 c20 -6 19 -45 -2 -52 -9 -3 -11 1 -7 12 4 9 2 16 -3 16
-6 0 -10 -9 -10 -20 0 -21 16 -26 38 -11 21 13 11 55 -13 58 -15 1 -16 1 -3
-3z"/>
<path d="M13042 2745 c0 -16 2 -22 5 -12 2 9 2 23 0 30 -3 6 -5 -1 -5 -18z"/>
<path d="M13152 2740 c0 -19 2 -27 5 -17 2 9 2 25 0 35 -3 9 -5 1 -5 -18z"/>
<path d="M13788 2763 c15 -6 16 -53 1 -53 -6 0 -8 7 -5 16 4 10 1 14 -6 12
-18 -6 -16 -32 2 -35 8 -2 21 1 29 6 19 13 6 61 -17 60 -10 0 -12 -3 -4 -6z"/>
<path d="M13881 2752 c-13 -23 8 -58 30 -49 10 4 9 6 -3 6 -25 1 -22 21 3 21
14 0 19 5 17 17 -5 25 -35 28 -47 5z m39 -2 c0 -5 -7 -10 -15 -10 -8 0 -15 5
-15 10 0 6 7 10 15 10 8 0 15 -4 15 -10z"/>
<path d="M13949 2768 c-1 -2 -2 -23 -3 -47 -2 -47 13 -63 39 -41 21 17 19 30
-5 30 -11 0 -20 7 -20 15 0 8 0 18 -1 22 0 4 5 9 12 12 8 2 10 -2 6 -13 -4 -9
-2 -16 3 -16 6 0 10 9 10 20 0 13 -7 20 -20 20 -11 0 -20 -1 -21 -2z m36 -78
c-3 -5 -13 -10 -21 -10 -8 0 -14 5 -14 10 0 6 9 10 21 10 11 0 17 -4 14 -10z"/>
<path d="M14017 2763 c-13 -13 -7 -51 10 -57 23 -9 47 17 38 43 -6 20 -34 28
-48 14z m40 -19 c8 -21 -13 -42 -28 -27 -13 13 -5 43 11 43 6 0 13 -7 17 -16z"/>
<path d="M14169 2754 c-16 -19 -1 -48 27 -51 13 -2 11 1 -6 8 -18 8 -21 13
-10 16 44 13 43 13 30 28 -16 19 -24 19 -41 -1z m31 -4 c0 -5 -7 -10 -16 -10
-8 0 -12 5 -9 10 3 6 10 10 16 10 5 0 9 -4 9 -10z"/>
<path d="M14234 2758 c-4 -6 0 -16 9 -23 22 -16 21 -22 0 -28 -14 -4 -13 -5 4
-6 32 -2 39 19 13 39 -22 17 -23 18 -4 23 15 4 16 5 2 6 -9 0 -20 -4 -24 -11z"/>
<path d="M15103 2735 c0 -22 2 -30 4 -17 2 12 2 30 0 40 -3 9 -5 -1 -4 -23z"/>
<path d="M15197 2763 c-13 -12 -7 -51 9 -57 27 -10 40 -5 14 6 -18 7 -21 12
-10 15 44 13 43 13 30 28 -13 16 -32 19 -43 8z m33 -13 c0 -5 -7 -10 -16 -10
-8 0 -12 5 -9 10 3 6 10 10 16 10 5 0 9 -4 9 -10z"/>
<path d="M15994 2756 c-9 -23 0 -51 16 -52 9 0 10 1 3 3 -20 7 -16 51 5 56 16
4 16 5 -1 6 -10 0 -20 -5 -23 -13z"/>
<path d="M16049 2754 c-15 -18 -2 -48 22 -50 9 -1 10 0 2 3 -20 7 -16 51 5 56
14 4 14 5 1 6 -9 0 -22 -6 -30 -15z"/>
<path d="M16103 2754 c-8 -22 9 -49 33 -49 30 0 27 59 -4 63 -14 2 -25 -3 -29
-14z m44 -10 c8 -21 -13 -42 -28 -27 -13 13 -5 43 11 43 6 0 13 -7 17 -16z"/>
<path d="M16183 2738 c1 -26 7 -33 25 -34 19 -1 22 3 21 35 -1 35 -2 35 -8 7
-8 -40 -28 -44 -35 -7 l-6 31 3 -32z"/>
<path d="M16251 2731 c1 -36 1 -36 8 -6 8 36 32 39 43 5 6 -23 7 -23 5 5 -2
25 -6 30 -29 31 -26 1 -28 -2 -27 -35z"/>
<path d="M16471 2752 c-13 -23 8 -58 30 -49 10 4 9 6 -3 6 -25 1 -22 21 3 21
14 0 19 5 17 17 -5 25 -35 28 -47 5z m39 -2 c0 -5 -7 -10 -15 -10 -8 0 -15 5
-15 10 0 6 7 10 15 10 8 0 15 -4 15 -10z"/>
<path d="M16663 2763 c-7 -2 -13 -17 -12 -31 l1 -27 7 25 c4 14 13 25 21 25 8
0 17 -11 22 -25 6 -23 7 -23 5 5 -2 29 -18 40 -44 28z"/>
<path d="M16730 2760 c0 -5 6 -7 14 -4 9 3 16 -2 18 -13 3 -15 5 -15 10 5 5
18 2 22 -18 22 -13 0 -24 -4 -24 -10z"/>
<path d="M16794 2758 c-4 -6 0 -16 9 -23 22 -16 21 -22 0 -28 -14 -4 -12 -5 5
-6 27 -1 31 33 5 44 -17 7 -16 8 2 15 16 7 17 9 3 9 -9 1 -20 -4 -24 -11z"/>
<path d="M17234 2756 c-11 -28 0 -51 26 -53 l25 -3 -25 12 -25 11 23 5 c15 2
22 9 20 20 -4 22 -36 28 -44 8z m36 -6 c0 -5 -7 -10 -15 -10 -8 0 -15 5 -15
10 0 6 7 10 15 10 8 0 15 -4 15 -10z"/>
<path d="M17331 2716 c1 -28 4 -41 6 -29 2 13 10 20 17 17 17 -7 39 21 34 43
-2 12 -13 18 -31 19 -26 1 -27 -1 -26 -50z m46 28 c8 -21 -13 -42 -28 -27 -13
13 -5 43 11 43 6 0 13 -7 17 -16z"/>
<path d="M17621 2743 c-1 -36 10 -47 39 -38 14 4 20 15 19 33 l-1 27 -7 -25
c-10 -34 -34 -31 -42 5 l-7 30 -1 -32z"/>
<path d="M17700 2723 c0 -26 4 -43 8 -37 4 6 15 13 25 17 27 10 19 61 -10 65
-21 3 -23 -1 -23 -45z m40 12 c0 -16 -6 -25 -15 -25 -9 0 -15 9 -15 25 0 16 6
25 15 25 9 0 15 -9 15 -25z"/>
<path d="M17783 2763 c-8 -3 -13 -22 -12 -46 0 -23 3 -36 6 -29 2 6 13 12 24
12 11 0 21 9 25 24 9 39 -7 54 -43 39z m34 -19 c8 -21 -13 -42 -28 -27 -13 13
-5 43 11 43 6 0 13 -7 17 -16z"/>
<path d="M17852 2758 c-6 -6 -12 -17 -12 -22 0 -6 5 -3 11 7 15 25 41 22 37
-5 -2 -15 -9 -22 -22 -21 -12 1 -15 -2 -8 -9 19 -19 44 0 40 29 -3 30 -26 41
-46 21z"/>
<path d="M17933 2763 c-7 -2 -12 -19 -12 -36 2 -28 2 -29 6 -7 3 14 10 31 15
38 11 13 10 13 -9 5z"/>
<path d="M5490 2735 c0 -14 5 -25 10 -25 6 0 10 11 10 25 0 14 -4 25 -10 25
-5 0 -10 -11 -10 -25z"/>
<path d="M5830 2758 c0 -4 5 -18 11 -32 10 -20 9 -29 -2 -43 -11 -13 -11 -15
0 -9 14 9 45 75 37 83 -2 2 -7 -6 -11 -18 l-7 -22 -14 24 c-7 13 -13 21 -14
17z"/>
<path d="M6972 2730 c0 -19 2 -27 5 -17 2 9 2 25 0 35 -3 9 -5 1 -5 -18z"/>
<path d="M9372 2735 c0 -16 2 -22 5 -12 2 9 2 23 0 30 -3 6 -5 -1 -5 -18z"/>
<path d="M10112 2735 c0 -16 2 -22 5 -12 2 9 2 23 0 30 -3 6 -5 -1 -5 -18z"/>
<path d="M10292 2735 c0 -16 2 -22 5 -12 2 9 2 23 0 30 -3 6 -5 -1 -5 -18z"/>
<path d="M10602 2735 c0 -16 2 -22 5 -12 2 9 2 23 0 30 -3 6 -5 -1 -5 -18z"/>
<path d="M14092 2735 c0 -16 2 -22 5 -12 2 9 2 23 0 30 -3 6 -5 -1 -5 -18z"/>
<path d="M16622 2735 c0 -16 2 -22 5 -12 2 9 2 23 0 30 -3 6 -5 -1 -5 -18z"/>
<path d="M16728 2715 c-8 -36 3 -49 31 -40 26 8 28 35 2 35 -11 0 -21 8 -23
18 -3 11 -6 7 -10 -13z m34 -27 c-9 -9 -15 -9 -24 0 -9 9 -7 12 12 12 19 0 21
-3 12 -12z"/>
<path d="M12700 2622 c0 -4 -10 -12 -22 -17 -27 -13 -32 -26 -15 -48 21 -30
47 -11 47 34 0 21 -2 39 -5 39 -3 0 -5 -3 -5 -8z m0 -41 c0 -11 -5 -23 -11
-27 -14 -8 -29 14 -22 33 8 20 33 16 33 -6z"/>
<path d="M12799 2612 c-3 -18 4 -58 11 -65 4 -5 5 4 2 18 -3 16 0 30 7 35 9 5
9 9 -3 13 -9 4 -16 3 -17 -1z"/>
<path d="M12513 2594 c-7 -19 7 -46 28 -52 8 -2 5 2 -5 10 -18 14 -18 15 4 21
12 3 20 11 18 19 -7 20 -37 22 -45 2z m37 -4 c0 -5 -4 -10 -10 -10 -5 0 -10 5
-10 10 0 6 5 10 10 10 6 0 10 -4 10 -10z"/>
<path d="M12581 2578 c1 -30 2 -31 8 -8 4 14 13 25 21 25 8 0 17 -11 22 -25 6
-23 7 -23 5 5 -2 25 -7 31 -29 33 -26 3 -28 1 -27 -30z"/>
<path d="M12750 2602 c19 -9 20 -44 1 -50 -10 -3 -12 0 -8 12 4 9 2 16 -3 16
-13 0 -13 -27 -1 -34 5 -4 17 -3 26 0 24 9 16 58 -10 61 -15 2 -16 1 -5 -5z"/>
<path d="M12842 2580 c0 -19 2 -27 5 -17 2 9 2 25 0 35 -3 9 -5 1 -5 -18z"/>
<path d="M12877 2603 c-12 -11 -7 -40 9 -53 21 -18 49 9 39 39 -6 20 -34 28
-48 14z m38 -28 c0 -28 -29 -25 -33 3 -3 19 0 23 15 20 10 -2 18 -12 18 -23z"/>
<path d="M12951 2578 c2 -30 2 -31 6 -5 5 34 30 36 36 2 4 -23 4 -23 3 2 -1
21 -7 29 -23 31 -20 3 -23 -1 -22 -30z"/>
<path d="M13020 2595 c0 -7 8 -19 18 -24 15 -9 15 -12 2 -21 -11 -7 -11 -10
-2 -10 22 0 27 32 6 43 -17 10 -17 11 1 18 19 7 18 8 -2 8 -14 1 -23 -5 -23
-14z"/>
<path d="M3953 2123 c-4 -11 1 -22 15 -31 28 -18 28 -29 0 -35 -20 -5 -20 -5
2 -4 31 2 39 33 11 42 -26 8 -27 32 -3 38 16 4 16 5 -1 6 -10 0 -21 -7 -24
-16z"/>
<path d="M4118 2123 c-2 -10 -1 -31 3 -48 l7 -30 2 30 c1 17 2 34 1 39 -1 5 4
13 11 17 10 7 9 9 -3 9 -9 0 -19 -8 -21 -17z"/>
<path d="M4201 2126 c-7 -8 -11 -27 -9 -43 2 -23 8 -28 33 -30 28 -2 28 -1 5
5 -35 11 -41 58 -8 71 15 7 17 10 7 10 -9 1 -22 -5 -28 -13z"/>
<path d="M4487 2133 c-4 -3 -6 -25 -6 -47 1 -23 3 -33 6 -23 2 9 10 17 18 17
7 0 18 7 25 15 20 24 -21 61 -43 38z m39 -14 c10 -17 -13 -36 -27 -22 -12 12
-4 33 11 33 5 0 12 -5 16 -11z"/>
<path d="M4026 2105 c-9 -9 -16 -20 -16 -24 0 -15 29 -33 42 -28 8 4 7 6 -4 6
-25 1 -23 21 2 21 23 0 26 13 6 29 -11 9 -18 8 -30 -4z m29 -5 c3 -5 -1 -10
-10 -10 -9 0 -13 5 -10 10 3 6 8 10 10 10 2 0 7 -4 10 -10z"/>
<path d="M4390 2105 c-17 -20 -8 -50 15 -51 15 -1 16 0 3 3 -24 6 -23 23 2 23
11 0 20 6 20 14 0 20 -27 27 -40 11z m25 -5 c3 -5 -1 -10 -10 -10 -9 0 -13 5
-10 10 3 6 8 10 10 10 2 0 7 -4 10 -10z"/>
<path d="M4568 2112 c-19 -4 -26 -62 -8 -62 6 0 10 11 10 24 0 13 6 26 13 29
17 6 5 14 -15 9z"/>
<path d="M4615 2107 c-25 -19 -12 -59 18 -55 26 4 35 39 14 56 -10 9 -18 8
-32 -1z m35 -28 c0 -23 -28 -26 -37 -3 -6 16 15 37 29 28 4 -3 8 -14 8 -25z"/>
<path d="M4693 2113 c-7 -3 -12 -19 -12 -36 l1 -32 7 29 c3 17 11 30 16 30 6
0 12 -13 16 -30 l5 -29 5 32 c5 32 -9 45 -38 36z"/>
<path d="M4860 2101 c0 -24 10 -51 19 -51 4 0 5 16 3 35 -4 37 -22 49 -22 16z"/>
<path d="M4294 2101 c3 -5 -3 -11 -14 -14 -30 -8 -25 -37 5 -37 21 0 25 5 25
30 0 17 -5 30 -11 30 -5 0 -8 -4 -5 -9z m6 -31 c0 -5 -7 -10 -15 -10 -8 0 -15
5 -15 10 0 6 7 10 15 10 8 0 15 -4 15 -10z"/>
<path d="M4331 2078 c2 -28 2 -29 6 -8 3 14 10 28 17 32 7 5 5 8 -6 8 -14 0
-18 -8 -17 -32z"/>
<path d="M4758 2080 c2 -16 6 -30 8 -30 2 0 4 14 4 30 0 17 -4 30 -8 30 -5 0
-7 -13 -4 -30z"/>
<path d="M4791 2063 c1 -27 3 -40 6 -31 2 9 14 18 26 20 26 4 31 49 7 55 -12
4 -13 3 -1 -5 18 -13 7 -42 -15 -42 -12 0 -15 7 -12 25 3 14 1 25 -3 25 -5 0
-8 -21 -8 -47z"/>
</g>
</svg>
