<?xml version="1.0" standalone="no"?>
<!DOCTYPE svg PUBLIC "-//W3C//DTD SVG 20010904//EN"
 "http://www.w3.org/TR/2001/REC-SVG-20010904/DTD/svg10.dtd">
<svg version="1.0" xmlns="http://www.w3.org/2000/svg"
 width="700.000000pt" height="358.000000pt" viewBox="0 0 700.000000 358.000000"
 preserveAspectRatio="xMidYMid meet">

<g transform="translate(0.000000,358.000000) scale(0.100000,-0.100000)"
fill="#000000" stroke="none">
<path d="M652 3433 l3 -98 54 0 c46 1 57 5 77 29 31 36 33 102 3 140 -18 23
-28 26 -80 26 l-60 0 3 -97z m113 63 c13 -9 18 -26 18 -59 0 -59 -15 -77 -64
-77 l-39 0 0 75 0 75 33 0 c18 0 42 -6 52 -14z"/>
<path d="M1110 3520 c0 -5 4 -10 9 -10 6 0 13 5 16 10 3 6 -1 10 -9 10 -9 0
-16 -4 -16 -10z"/>
<path d="M1500 3520 c0 -5 16 -10 35 -10 l35 0 0 -90 c0 -53 4 -90 10 -90 6 0
10 37 10 90 l0 90 35 0 c19 0 35 5 35 10 0 6 -33 10 -80 10 -47 0 -80 -4 -80
-10z"/>
<path d="M1672 3435 c3 -103 21 -131 26 -41 2 46 7 56 24 62 30 9 48 -20 48
-79 0 -29 4 -46 10 -42 15 9 12 108 -3 129 -10 14 -23 17 -45 14 -30 -4 -32
-2 -32 24 0 18 -5 28 -15 28 -13 0 -15 -15 -13 -95z"/>
<path d="M1820 3520 c0 -5 5 -10 10 -10 6 0 10 5 10 10 0 6 -4 10 -10 10 -5 0
-10 -4 -10 -10z"/>
<path d="M2020 3435 c0 -57 4 -95 10 -95 6 0 10 13 10 29 0 46 17 46 45 1 14
-22 30 -40 35 -40 16 0 12 12 -15 52 -30 45 -31 50 -5 73 11 10 18 21 15 23
-3 3 -21 -10 -40 -28 l-35 -34 0 57 c0 31 -4 57 -10 57 -6 0 -10 -38 -10 -95z"/>
<path d="M2140 3520 c0 -5 7 -10 15 -10 8 0 15 5 15 10 0 6 -7 10 -15 10 -8 0
-15 -4 -15 -10z"/>
<path d="M2572 3518 c-17 -17 -15 -58 2 -58 10 0 14 10 13 35 -1 19 -2 35 -2
35 -1 0 -6 -5 -13 -12z"/>
<path d="M2632 3433 l3 -98 54 0 c46 1 57 5 77 29 31 36 33 102 3 140 -18 23
-28 26 -80 26 l-60 0 3 -97z m106 55 c15 -15 16 -72 2 -99 -7 -12 -21 -19 -40
-19 l-30 0 0 65 c0 65 0 65 28 65 15 0 33 -5 40 -12z"/>
<path d="M3132 3433 l3 -97 46 -3 c34 -2 50 2 61 14 22 26 28 60 16 93 -11 32
-37 45 -74 36 -21 -6 -24 -3 -24 24 0 20 -5 30 -15 30 -13 0 -15 -15 -13 -97z
m91 -5 c8 -12 8 -24 -1 -42 -15 -32 -39 -33 -53 -2 -22 48 27 88 54 44z"/>
<path d="M3292 3433 c2 -66 7 -98 16 -101 9 -3 12 21 12 97 0 84 -3 101 -15
101 -13 0 -15 -15 -13 -97z"/>
<path d="M3572 3433 l3 -98 41 -3 c59 -4 93 12 110 54 20 47 10 108 -19 129
-13 9 -44 15 -80 15 l-58 0 3 -97z m121 31 c14 -47 -9 -88 -51 -92 l-32 -3 0
66 0 66 37 -3 c32 -3 39 -7 46 -34z"/>
<path d="M3760 3514 c0 -9 7 -14 17 -12 25 5 28 28 4 28 -12 0 -21 -6 -21 -16z"/>
<path d="M4620 3501 c0 -28 -2 -29 -33 -24 -24 3 -39 0 -50 -12 -57 -57 -5
-162 62 -125 14 7 21 7 21 0 0 -5 7 -10 15 -10 12 0 15 18 15 100 0 82 -3 100
-15 100 -10 0 -15 -10 -15 -29z m-10 -71 c21 -39 -15 -85 -46 -59 -27 22 -11
79 23 79 7 0 17 -9 23 -20z"/>
<path d="M4680 3516 c0 -8 6 -16 13 -19 9 -3 9 -7 -2 -20 -17 -21 -8 -22 13
-1 23 22 20 54 -4 54 -11 0 -20 -6 -20 -14z"/>
<path d="M4830 3430 c0 -60 4 -100 10 -100 6 0 10 20 10 45 l0 45 43 0 c50 0
77 22 77 61 0 38 -19 49 -82 49 l-58 0 0 -100z m111 64 c21 -25 -1 -49 -50
-52 -41 -3 -41 -3 -41 32 0 35 1 36 39 36 23 0 44 -6 52 -16z"/>
<path d="M5822 3435 c4 -115 22 -132 26 -25 l4 75 26 -75 c15 -41 32 -75 37
-75 6 0 21 34 35 75 l25 75 3 -70 c2 -38 7 -74 13 -79 10 -11 10 -13 12 107 2
81 1 87 -17 85 -13 -2 -25 -21 -40 -68 -12 -36 -25 -67 -31 -69 -5 -1 -20 29
-33 68 -19 56 -28 71 -43 71 -18 0 -20 -6 -17 -95z"/>
<path d="M6270 3503 c0 -26 -3 -28 -37 -28 -31 0 -40 -5 -51 -28 -17 -36 -8
-93 17 -107 10 -5 36 -8 57 -6 l39 4 3 96 c2 81 0 96 -13 96 -10 0 -15 -9 -15
-27z m0 -68 c18 -48 -22 -103 -55 -75 -18 15 -20 71 -3 88 20 20 48 14 58 -13z"/>
<path d="M6470 3436 c0 -53 4 -98 10 -101 6 -4 10 30 10 94 0 61 -4 101 -10
101 -6 0 -10 -38 -10 -94z"/>
<path d="M857 3462 c-29 -31 -31 -74 -7 -105 26 -33 62 -35 91 -6 25 25 17 39
-9 16 -22 -20 -43 -22 -60 -5 -26 26 -13 38 38 38 46 0 50 2 50 23 0 50 -70
76 -103 39z m73 -22 c10 -18 8 -20 -30 -20 -41 0 -49 7 -28 28 18 18 46 14 58
-8z"/>
<path d="M992 3468 c-16 -16 -15 -45 1 -55 6 -4 25 -12 41 -18 39 -13 44 -33
10 -41 -20 -5 -31 -2 -40 11 -19 26 -37 14 -19 -13 36 -50 130 -7 97 45 -4 6
-22 15 -41 20 -19 5 -36 14 -39 21 -6 18 28 27 50 13 25 -15 35 -7 18 14 -15
18 -61 20 -78 3z"/>
<path d="M1112 3408 c2 -40 8 -73 13 -73 6 0 11 33 13 73 2 60 0 72 -13 72
-13 0 -15 -12 -13 -72z"/>
<path d="M1177 3462 c-29 -33 -25 -96 7 -117 20 -13 29 -14 46 -5 19 10 21 9
18 -12 -4 -27 -40 -37 -64 -17 -19 16 -30 4 -14 -16 16 -19 60 -19 86 -1 16
12 20 29 22 98 l4 84 -45 2 c-31 1 -49 -4 -60 -16z m73 -27 c6 -16 6 -34 0
-51 -8 -20 -16 -25 -38 -22 -23 2 -28 8 -30 36 -6 59 49 88 68 37z"/>
<path d="M1310 3410 c0 -40 4 -70 10 -70 6 0 10 19 10 43 0 50 18 81 46 75 16
-3 20 -13 22 -58 2 -30 8 -59 13 -65 7 -7 9 15 7 65 -3 74 -3 75 -31 78 -16 2
-35 -2 -43 -9 -10 -8 -14 -8 -14 0 0 6 -4 11 -10 11 -6 0 -10 -30 -10 -70z"/>
<path d="M1820 3411 c0 -39 5 -73 10 -76 6 -4 10 22 10 69 0 44 -4 76 -10 76
-6 0 -10 -30 -10 -69z"/>
<path d="M1870 3408 c0 -37 5 -70 10 -73 6 -4 10 13 10 42 0 56 17 87 46 81
15 -2 20 -14 24 -61 3 -31 10 -58 15 -60 14 -3 18 83 6 116 -10 25 -15 27 -61
25 l-50 -2 0 -68z"/>
<path d="M2142 3408 c2 -40 8 -73 13 -73 6 0 11 33 13 73 2 60 0 72 -13 72
-13 0 -15 -12 -13 -72z"/>
<path d="M2200 3410 c0 -40 4 -70 10 -70 6 0 10 19 10 43 0 50 18 81 46 75 16
-3 20 -13 22 -58 2 -30 8 -59 13 -65 7 -7 9 15 7 65 -3 74 -3 75 -31 78 -16 2
-35 -2 -43 -9 -10 -8 -14 -8 -14 0 0 6 -4 11 -10 11 -6 0 -10 -30 -10 -70z"/>
<path d="M2356 3464 c-36 -35 -31 -93 9 -120 19 -12 28 -13 45 -4 19 10 21 9
18 -12 -4 -27 -40 -37 -64 -17 -19 16 -30 4 -14 -16 16 -20 64 -19 84 1 12 11
16 36 16 97 l0 82 -39 3 c-25 1 -45 -3 -55 -14z m62 -13 c8 -5 12 -23 10 -47
-3 -36 -5 -39 -33 -39 -24 0 -31 5 -33 24 -8 57 18 86 56 62z"/>
<path d="M2825 3460 c-11 -12 -19 -36 -19 -55 0 -45 28 -75 70 -75 39 0 74 38
74 80 0 59 -86 93 -125 50z m73 -22 c30 -30 -2 -93 -36 -71 -21 13 -27 50 -12
69 15 17 32 18 48 2z"/>
<path d="M2970 3424 c0 -30 5 -64 10 -75 11 -20 54 -26 65 -9 5 8 11 7 20 0
25 -21 35 0 35 71 0 62 -2 69 -20 69 -18 0 -20 -7 -20 -54 0 -40 -4 -55 -16
-60 -27 -10 -34 3 -34 60 0 47 -2 54 -20 54 -18 0 -20 -7 -20 -56z"/>
<path d="M3370 3460 c-12 -12 -20 -33 -20 -55 0 -67 74 -101 116 -53 l19 21
-35 -5 c-42 -6 -60 -1 -60 18 0 10 14 14 51 14 48 0 50 1 43 23 -17 57 -75 76
-114 37z m70 -25 c11 -13 8 -15 -19 -15 -30 0 -39 9 -24 23 11 11 30 8 43 -8z"/>
<path d="M3762 3408 c2 -57 6 -73 18 -73 12 0 15 14 15 70 0 59 -3 70 -18 73
-16 3 -18 -4 -15 -70z"/>
<path d="M3842 3468 c-7 -7 -12 -18 -12 -25 0 -16 22 -17 37 -2 13 13 43 5 43
-11 0 -5 -10 -10 -23 -10 -50 0 -84 -49 -55 -78 15 -15 50 -16 65 -1 8 8 13 8
17 0 4 -6 14 -11 22 -11 21 0 20 113 -2 134 -18 19 -75 21 -92 4z m68 -82 c0
-18 -30 -30 -43 -17 -5 5 -6 14 -3 20 10 16 46 13 46 -3z"/>
<path d="M3972 3407 c2 -56 6 -72 18 -72 11 0 16 14 18 53 2 37 8 55 19 59 22
8 33 -15 33 -69 0 -36 4 -48 15 -48 11 0 15 12 15 48 0 54 11 77 33 69 11 -4
17 -22 19 -59 2 -39 7 -53 18 -53 19 0 26 94 10 125 -12 22 -49 27 -68 8 -8
-8 -15 -8 -24 0 -7 5 -35 10 -61 10 l-48 0 3 -71z"/>
<path d="M4216 3458 c-38 -54 -6 -128 54 -128 41 0 70 31 70 75 0 46 -29 75
-74 75 -25 0 -39 -7 -50 -22z m82 -49 c3 -38 -13 -54 -43 -43 -38 15 -22 88
18 82 17 -2 23 -11 25 -39z"/>
<path d="M4362 3406 c2 -55 6 -71 18 -71 11 0 16 13 18 47 3 47 25 79 42 62 5
-5 10 -31 12 -59 2 -38 7 -51 21 -53 15 -3 17 5 17 61 0 40 -5 68 -12 75 -7 5
-37 10 -66 10 l-53 0 3 -72z"/>
<path d="M4990 3409 c0 -37 5 -71 10 -74 6 -4 10 12 10 40 0 52 14 85 35 85 8
0 15 4 15 9 0 5 -16 9 -35 8 l-35 -1 0 -67z"/>
<path d="M5086 3458 c-22 -31 -20 -91 2 -111 64 -58 153 52 92 113 -27 27 -75
26 -94 -2z m82 -41 c4 -44 -12 -69 -42 -65 -28 4 -43 49 -28 83 10 21 18 26
40 23 23 -3 27 -8 30 -41z"/>
<path d="M5230 3460 c-24 -24 -26 -77 -4 -108 19 -28 65 -29 89 -2 23 26 11
39 -14 16 -41 -37 -84 9 -62 67 12 30 41 36 61 12 14 -17 30 -20 30 -6 0 18
-32 41 -56 41 -13 0 -33 -9 -44 -20z"/>
<path d="M5374 3472 c-42 -27 -41 -115 1 -134 30 -14 72 -3 85 22 9 16 8 20
-5 20 -8 0 -15 -4 -15 -9 0 -16 -40 -23 -55 -11 -30 25 -17 40 35 40 41 0 50
3 50 18 0 46 -59 79 -96 54z m64 -34 c3 -15 -4 -18 -32 -18 -24 0 -36 5 -36
14 0 30 63 33 68 4z"/>
<path d="M5500 3459 c-17 -30 -6 -46 40 -60 28 -9 40 -17 38 -28 -4 -22 -42
-26 -61 -7 -18 18 -27 20 -27 7 0 -19 32 -41 59 -41 58 0 70 66 16 83 -38 12
-56 27 -49 38 8 13 52 11 56 -2 2 -7 10 -10 17 -8 23 8 -17 39 -49 39 -19 0
-33 -7 -40 -21z"/>
<path d="M5630 3465 c-6 -8 -10 -22 -8 -31 3 -17 12 -24 62 -43 23 -10 26 -14
16 -26 -16 -20 -39 -19 -62 2 -24 22 -32 13 -12 -15 19 -28 65 -29 90 -1 23
26 10 50 -37 65 -18 6 -35 16 -37 23 -6 17 28 26 50 12 25 -15 35 -7 18 14
-16 19 -64 20 -80 0z"/>
<path d="M6050 3460 c-43 -43 -13 -130 45 -130 55 0 85 77 49 128 -19 28 -67
29 -94 2z m80 -21 c15 -28 3 -77 -21 -84 -38 -13 -67 33 -50 79 13 33 55 36
71 5z"/>
<path d="M6354 3472 c-18 -11 -34 -48 -34 -76 0 -33 33 -66 65 -66 28 0 77 41
57 48 -7 2 -19 -4 -28 -12 -8 -9 -19 -16 -24 -16 -22 0 -40 14 -40 31 0 16 8
19 50 19 41 0 50 3 50 18 0 46 -59 79 -96 54z m66 -32 c10 -18 8 -20 -30 -20
-28 0 -40 4 -40 14 0 30 55 34 70 6z"/>
<path d="M1955 2918 c-16 -6 -43 -20 -60 -31 -16 -11 -337 -326 -712 -701
l-682 -680 -120 118 c-114 112 -122 118 -153 112 -17 -3 -34 -9 -37 -11 -3 -3
50 -61 117 -128 67 -67 122 -127 122 -132 0 -5 -55 -65 -123 -133 -98 -98
-119 -124 -107 -132 39 -25 62 -11 182 107 l118 117 693 -691 c380 -380 708
-699 727 -709 20 -9 67 -19 108 -22 135 -9 91 -45 807 668 677 674 662 660
751 660 75 -1 101 -23 739 -662 498 -498 630 -626 670 -644 65 -31 161 -32
225 -3 35 15 203 178 732 707 l687 686 114 -112 c115 -113 139 -127 177 -102
12 8 -9 34 -107 132 -68 68 -123 128 -123 133 0 5 55 65 123 133 98 98 119
124 107 132 -38 25 -62 11 -177 -102 l-114 -112 -687 686 c-378 377 -703 694
-722 704 -49 26 -191 26 -240 0 -19 -10 -316 -299 -660 -642 -644 -642 -668
-663 -744 -664 -89 0 -74 -14 -751 660 -580 577 -645 639 -689 654 -55 18
-146 20 -191 4z m181 -83 c37 -19 195 -171 664 -641 354 -354 632 -625 655
-637 54 -29 192 -31 245 -3 19 10 319 301 665 647 438 436 641 633 667 644 48
19 108 19 156 0 26 -11 242 -221 715 -693 372 -372 677 -681 677 -687 0 -6
-305 -315 -677 -687 -473 -472 -689 -682 -715 -693 -48 -19 -108 -19 -156 0
-26 11 -230 208 -667 644 -430 429 -643 634 -670 646 -22 11 -68 21 -103 23
-124 8 -88 38 -792 -664 -440 -439 -646 -638 -672 -649 -48 -19 -108 -19 -156
0 -26 11 -243 221 -719 698 l-683 682 678 678 c460 462 690 685 717 698 55 26
111 24 171 -6z"/>
<path d="M1030 1475 c0 -41 2 -45 23 -45 33 0 64 36 51 57 -6 9 -17 19 -25 22
-9 3 -8 -1 4 -13 21 -21 7 -56 -23 -56 -16 0 -20 7 -20 34 0 19 6 37 13 39 7
3 5 6 -5 6 -15 1 -18 -8 -18 -44z"/>
<path d="M5460 1475 c0 -40 2 -45 23 -45 35 0 59 22 55 50 -1 13 -9 25 -16 28
-11 3 -11 1 0 -17 11 -17 10 -23 -4 -37 -9 -9 -24 -14 -32 -11 -21 8 -20 54 2
66 15 9 15 10 -5 11 -21 0 -23 -5 -23 -45z"/>
<path d="M1133 1470 c0 -25 2 -35 4 -22 2 12 2 32 0 45 -2 12 -4 2 -4 -23z"/>
<path d="M1170 1490 c0 -11 4 -20 8 -20 4 0 8 9 8 20 0 11 -4 20 -8 20 -4 0
-8 -9 -8 -20z"/>
<path d="M1250 1490 c-10 -19 1 -60 16 -60 2 0 0 9 -6 19 -14 27 -3 49 28 54
l27 4 -27 2 c-18 0 -31 -6 -38 -19z"/>
<path d="M1344 1496 c-9 -24 0 -59 16 -64 12 -4 13 -2 3 9 -18 19 -16 46 5 58
16 10 16 10 -1 11 -10 0 -20 -6 -23 -14z"/>
<path d="M1403 1499 c20 -12 22 -40 5 -57 -9 -9 -9 -12 0 -12 17 0 26 48 12
65 -7 8 -18 15 -24 15 -6 0 -3 -5 7 -11z"/>
<path d="M1450 1506 c0 -9 31 -76 35 -76 7 0 35 58 35 72 -1 7 -8 -3 -17 -22
l-15 -35 -14 33 c-12 27 -24 42 -24 28z"/>
<path d="M1550 1470 c0 -22 4 -40 9 -40 4 0 7 15 4 34 -3 29 0 35 19 39 20 4
19 4 -4 6 -26 1 -28 -2 -28 -39z"/>
<path d="M1640 1501 c0 -4 12 -6 26 -3 20 4 25 1 22 -9 -3 -8 -15 -14 -27 -13
-11 0 -21 -5 -21 -12 0 -6 8 -11 18 -10 21 1 46 32 37 46 -8 12 -55 13 -55 1z"/>
<path d="M5571 1468 c1 -24 3 -35 6 -26 2 9 12 19 21 21 15 4 15 5 0 6 -26 2
-22 29 5 34 19 4 18 4 -5 6 -27 1 -28 -1 -27 -41z"/>
<path d="M5650 1470 c0 -22 3 -40 8 -40 4 0 6 18 4 40 -2 22 -6 40 -8 40 -2 0
-4 -18 -4 -40z"/>
<path d="M5723 1470 c0 -25 2 -35 4 -22 2 12 2 32 0 45 -2 12 -4 2 -4 -23z"/>
<path d="M5760 1505 c0 -15 30 -75 37 -75 10 0 37 69 30 76 -3 3 -10 -10 -17
-28 l-12 -33 -14 33 c-13 28 -24 41 -24 27z"/>
<path d="M5860 1470 c0 -22 4 -40 10 -40 5 0 7 7 4 15 -4 10 0 15 12 15 18 1
18 1 2 11 -24 14 -22 27 5 32 19 4 18 4 -5 6 -26 1 -28 -2 -28 -39z"/>
<path d="M5951 1468 c1 -24 3 -35 6 -25 2 9 7 17 10 17 3 0 12 -8 20 -17 14
-17 14 -17 8 1 -3 11 0 23 6 27 20 12 2 39 -26 39 -23 0 -25 -3 -24 -42z m42
17 c1 -5 -6 -11 -15 -13 -11 -2 -18 3 -18 13 0 17 30 18 33 0z"/>
<path d="M1207 1449 c4 -13 8 -18 11 -10 2 7 -1 18 -6 23 -8 8 -9 4 -5 -13z"/>
</g>
</svg>
