<?xml version="1.0" standalone="no"?>
<!DOCTYPE svg PUBLIC "-//W3C//DTD SVG 20010904//EN"
 "http://www.w3.org/TR/2001/REC-SVG-20010904/DTD/svg10.dtd">
<svg version="1.0" xmlns="http://www.w3.org/2000/svg"
 width="1676.000000pt" height="698.000000pt" viewBox="0 0 1676.000000 698.000000"
 preserveAspectRatio="xMidYMid meet">

<g transform="translate(0.000000,698.000000) scale(0.100000,-0.100000)"
fill="#000000" stroke="none">
<path d="M8908 6232 c-23 -5 -23 -15 0 -36 18 -15 20 -15 35 2 10 10 17 21 17
24 0 8 -32 15 -52 10z"/>
<path d="M12113 6233 c-18 -7 -16 -28 3 -43 13 -11 19 -10 36 8 12 12 20 23
17 25 -9 9 -45 15 -56 10z"/>
<path d="M15318 6232 c-23 -5 -23 -15 0 -36 18 -15 20 -15 35 2 10 10 17 21
17 24 0 8 -32 15 -52 10z"/>
<path d="M9440 6210 c0 -16 7 -20 30 -20 23 0 30 4 30 20 0 16 -7 20 -30 20
-23 0 -30 -4 -30 -20z"/>
<path d="M12650 6210 c0 -16 7 -20 30 -20 23 0 30 4 30 20 0 16 -7 20 -30 20
-23 0 -30 -4 -30 -20z"/>
<path d="M15850 6210 c0 -16 7 -20 30 -20 23 0 30 4 30 20 0 16 -7 20 -30 20
-23 0 -30 -4 -30 -20z"/>
<path d="M9069 6184 c-12 -14 -11 -16 5 -13 11 2 21 10 24 17 5 17 -13 15 -29
-4z"/>
<path d="M12280 6185 c-10 -12 -10 -15 4 -15 9 0 16 7 16 15 0 8 -2 15 -4 15
-2 0 -9 -7 -16 -15z"/>
<path d="M15479 6184 c-12 -14 -11 -16 5 -13 11 2 21 10 24 17 5 17 -13 15
-29 -4z"/>
<path d="M2813 6073 c15 -2 37 -2 50 0 12 2 0 4 -28 4 -27 0 -38 -2 -22 -4z"/>
<path d="M3070 6070 c0 -5 5 -10 10 -10 6 0 10 5 10 10 0 6 -4 10 -10 10 -5 0
-10 -4 -10 -10z"/>
<path d="M5986 6072 c-2 -4 12 -6 32 -4 62 6 69 10 20 11 -26 0 -49 -3 -52 -7z"/>
<path d="M6270 6070 c0 -5 5 -10 10 -10 6 0 10 5 10 10 0 6 -4 10 -10 10 -5 0
-10 -4 -10 -10z"/>
<path d="M804 6052 c-17 -13 -21 -24 -17 -49 5 -31 8 -33 48 -33 40 0 43 2 47
30 3 21 -1 35 -17 50 -26 24 -34 25 -61 2z m54 -4 c7 -7 12 -25 12 -40 0 -25
-3 -28 -35 -28 -32 0 -35 3 -35 28 0 29 16 52 35 52 6 0 16 -5 23 -12z"/>
<path d="M1100 6051 c-5 -11 -10 -31 -10 -45 0 -23 4 -26 35 -26 32 0 35 2 35
30 0 25 -4 30 -25 30 -29 0 -34 16 -7 23 16 4 16 5 0 6 -10 0 -22 -8 -28 -18z"/>
<path d="M4005 6045 c-16 -13 -24 -24 -17 -25 6 0 12 -12 12 -26 0 -23 3 -25
42 -22 35 3 43 7 49 28 4 18 0 32 -14 48 -26 28 -35 28 -72 -3z m63 3 c7 -7
12 -25 12 -40 0 -25 -3 -28 -35 -28 -32 0 -35 3 -35 28 0 29 16 52 35 52 6 0
16 -5 23 -12z"/>
<path d="M6082 6023 l-2 -43 -44 0 c-44 0 -45 1 -49 35 l-4 35 1 -37 1 -38 48
-3 c53 -3 61 5 54 60 -3 30 -4 29 -5 -9z"/>
<path d="M4305 6042 c-3 -3 -5 -18 -5 -34 0 -25 3 -28 35 -28 32 0 35 3 35 29
0 24 -5 29 -30 33 -17 3 -32 2 -35 0z"/>
<path d="M3070 6025 c0 -8 5 -15 10 -15 6 0 10 7 10 15 0 8 -4 15 -10 15 -5 0
-10 -7 -10 -15z"/>
<path d="M6270 6025 c0 -8 5 -15 10 -15 6 0 10 7 10 15 0 8 -4 15 -10 15 -5 0
-10 -7 -10 -15z"/>
<path d="M4961 6014 c0 -11 3 -14 6 -6 3 7 2 16 -1 19 -3 4 -6 -2 -5 -13z"/>
<path d="M5091 6014 c0 -11 3 -14 6 -6 3 7 2 16 -1 19 -3 4 -6 -2 -5 -13z"/>
<path d="M2789 5977 c5 -5 28 -7 52 -5 l44 3 -52 5 c-29 3 -48 1 -44 -3z"/>
<path d="M3070 5980 c0 -5 5 -10 10 -10 6 0 10 5 10 10 0 6 -4 10 -10 10 -5 0
-10 -4 -10 -10z"/>
<path d="M6270 5980 c0 -5 5 -10 10 -10 6 0 10 5 10 10 0 6 -4 10 -10 10 -5 0
-10 -4 -10 -10z"/>
<path d="M9196 5932 c-2 -4 12 -6 32 -4 62 6 69 10 20 11 -26 0 -49 -3 -52 -7z"/>
<path d="M9480 5930 c0 -5 5 -10 10 -10 6 0 10 5 10 10 0 6 -4 10 -10 10 -5 0
-10 -4 -10 -10z"/>
<path d="M12433 5933 c15 -2 37 -2 50 0 12 2 0 4 -28 4 -27 0 -38 -2 -22 -4z"/>
<path d="M12690 5930 c0 -5 5 -10 10 -10 6 0 10 5 10 10 0 6 -4 10 -10 10 -5
0 -10 -4 -10 -10z"/>
<path d="M15606 5932 c-2 -4 12 -6 32 -4 62 6 69 10 20 11 -26 0 -49 -3 -52
-7z"/>
<path d="M15890 5930 c0 -5 5 -10 10 -10 6 0 10 5 10 10 0 6 -4 10 -10 10 -5
0 -10 -4 -10 -10z"/>
<path d="M7215 5905 c-16 -13 -24 -24 -17 -25 6 0 12 -12 12 -26 0 -23 3 -25
42 -22 35 3 43 7 49 28 4 18 0 32 -14 48 -26 28 -35 28 -72 -3z m63 3 c7 -7
12 -25 12 -40 0 -25 -3 -28 -35 -28 -32 0 -35 3 -35 28 0 29 16 52 35 52 6 0
16 -5 23 -12z"/>
<path d="M10424 5912 c-17 -13 -21 -24 -17 -49 5 -31 8 -33 48 -33 40 0 43 2
47 30 3 21 -1 35 -17 50 -26 24 -34 25 -61 2z m54 -4 c7 -7 12 -25 12 -40 0
-25 -3 -28 -35 -28 -32 0 -35 3 -35 28 0 29 16 52 35 52 6 0 16 -5 23 -12z"/>
<path d="M10720 5911 c-5 -11 -10 -31 -10 -45 0 -23 4 -26 35 -26 32 0 35 2
35 30 0 25 -4 30 -25 30 -29 0 -34 16 -7 23 16 4 16 5 0 6 -10 0 -22 -8 -28
-18z"/>
<path d="M13625 5905 c-16 -13 -24 -24 -17 -25 6 0 12 -12 12 -26 0 -23 3 -25
42 -22 35 3 43 7 49 28 4 18 0 32 -14 48 -26 28 -35 28 -72 -3z m63 3 c7 -7
12 -25 12 -40 0 -25 -3 -28 -35 -28 -32 0 -35 3 -35 28 0 29 16 52 35 52 6 0
16 -5 23 -12z"/>
<path d="M13930 5911 c-5 -11 -10 -31 -10 -45 0 -23 4 -26 35 -26 32 0 35 2
35 30 0 25 -4 30 -25 30 -26 0 -34 15 -12 23 9 4 9 6 0 6 -7 1 -17 -8 -23 -18z"/>
<path d="M9292 5883 l-2 -43 -44 0 c-44 0 -45 1 -49 35 l-4 35 1 -37 1 -38 48
-3 c53 -3 61 5 54 60 -3 30 -4 29 -5 -9z"/>
<path d="M15702 5883 l-2 -43 -44 0 c-44 0 -45 1 -49 35 l-4 35 1 -37 1 -38
48 -3 c53 -3 61 5 54 60 -3 30 -4 29 -5 -9z"/>
<path d="M7515 5902 c-3 -3 -5 -18 -5 -34 0 -25 3 -28 35 -28 32 0 35 3 35 29
0 24 -5 29 -30 33 -17 3 -32 2 -35 0z"/>
<path d="M9480 5885 c0 -8 5 -15 10 -15 6 0 10 7 10 15 0 8 -4 15 -10 15 -5 0
-10 -7 -10 -15z"/>
<path d="M12690 5885 c0 -8 5 -15 10 -15 6 0 10 7 10 15 0 8 -4 15 -10 15 -5
0 -10 -7 -10 -15z"/>
<path d="M15890 5885 c0 -8 5 -15 10 -15 6 0 10 7 10 15 0 8 -4 15 -10 15 -5
0 -10 -7 -10 -15z"/>
<path d="M8171 5874 c0 -11 3 -14 6 -6 3 7 2 16 -1 19 -3 4 -6 -2 -5 -13z"/>
<path d="M8301 5874 c0 -11 3 -14 6 -6 3 7 2 16 -1 19 -3 4 -6 -2 -5 -13z"/>
<path d="M14581 5874 c0 -11 3 -14 6 -6 3 7 2 16 -1 19 -3 4 -6 -2 -5 -13z"/>
<path d="M14711 5874 c0 -11 3 -14 6 -6 3 7 2 16 -1 19 -3 4 -6 -2 -5 -13z"/>
<path d="M9480 5840 c0 -5 5 -10 10 -10 6 0 10 5 10 10 0 6 -4 10 -10 10 -5 0
-10 -4 -10 -10z"/>
<path d="M12409 5837 c5 -5 28 -7 52 -5 l44 3 -52 5 c-29 3 -48 1 -44 -3z"/>
<path d="M12690 5840 c0 -5 5 -10 10 -10 6 0 10 5 10 10 0 6 -4 10 -10 10 -5
0 -10 -4 -10 -10z"/>
<path d="M15890 5840 c0 -5 5 -10 10 -10 6 0 10 5 10 10 0 6 -4 10 -10 10 -5
0 -10 -4 -10 -10z"/>
<path d="M7336 5519 c-13 -26 -13 -29 -1 -19 8 7 15 18 15 26 0 8 16 14 43 17
l42 4 -42 1 c-37 2 -43 -1 -57 -29z"/>
<path d="M7709 5533 c-13 -16 -12 -17 4 -4 11 9 30 12 55 8 25 -5 32 -3 22 3
-24 15 -66 11 -81 -7z"/>
<path d="M8403 5543 c-23 -9 -14 -20 12 -15 20 3 25 0 25 -15 0 -11 -11 -30
-25 -43 -35 -33 -31 -40 18 -39 30 2 34 3 14 6 l-27 4 20 29 c23 32 25 51 8
68 -13 13 -24 14 -45 5z"/>
<path d="M8508 5539 c-23 -13 -24 -81 -3 -103 16 -15 44 -11 57 8 13 19 8 74
-8 90 -18 19 -23 19 -46 5z m37 -54 c0 -45 -20 -57 -36 -22 -8 18 -8 30 1 46
17 32 35 20 35 -24z"/>
<path d="M8610 5540 c-12 -8 -11 -10 8 -10 34 0 38 -27 8 -59 -34 -36 -33 -41
12 -40 23 1 28 3 15 6 -28 5 -28 8 -3 40 25 32 25 49 1 63 -24 12 -22 12 -41
0z"/>
<path d="M8713 5543 c-23 -9 -14 -20 12 -15 20 3 25 0 25 -15 0 -11 -11 -30
-25 -43 -35 -33 -31 -40 18 -39 29 2 34 3 15 6 -33 5 -35 14 -8 38 41 37 12
88 -37 68z"/>
<path d="M9340 5540 c-11 -7 -6 -8 17 -4 21 4 39 2 50 -7 16 -13 17 -12 4 4
-15 19 -48 22 -71 7z"/>
<path d="M8000 5495 c0 -31 -5 -47 -17 -55 -16 -9 -15 -10 7 -8 23 3 25 8 28
56 2 31 -1 52 -7 52 -6 0 -11 -20 -11 -45z"/>
<path d="M10564 5532 c3 -3 19 -6 36 -7 17 -1 28 1 24 4 -3 3 -19 6 -35 7 -17
1 -28 -1 -25 -4z"/>
<path d="M10948 5533 c7 -3 16 -2 19 1 4 3 -2 6 -13 5 -11 0 -14 -3 -6 -6z"/>
<path d="M13800 5530 c-8 -5 -10 -10 -5 -10 6 0 17 5 25 10 8 5 11 10 5 10 -5
0 -17 -5 -25 -10z"/>
<path d="M14158 5533 c7 -3 16 -2 19 1 4 3 -2 6 -13 5 -11 0 -14 -3 -6 -6z"/>
<path d="M10909 5513 c-13 -16 -12 -17 4 -4 9 7 17 15 17 17 0 8 -8 3 -21 -13z"/>
<path d="M11212 5495 c-1 -22 -9 -51 -18 -63 -14 -20 -14 -22 1 -22 21 0 27
19 22 76 -3 46 -3 47 -5 9z"/>
<path d="M11594 5519 c-3 -6 1 -10 12 -9 54 6 57 -8 12 -59 -31 -35 -31 -36
-10 -39 12 -2 32 -1 45 1 l22 4 -22 8 c-28 9 -28 9 -1 45 17 24 19 32 8 45
-14 17 -56 20 -66 4z"/>
<path d="M11701 5511 c-36 -67 24 -138 65 -76 24 37 8 89 -28 93 -18 2 -30 -3
-37 -17z m59 -41 c0 -34 -21 -55 -38 -38 -16 16 -15 75 1 81 19 7 37 -13 37
-43z"/>
<path d="M11805 5520 c-5 -9 -1 -10 12 -6 12 4 25 1 32 -8 10 -11 6 -21 -19
-49 -16 -19 -30 -37 -30 -41 0 -3 18 -6 41 -6 24 0 38 4 34 10 -3 6 -16 10
-27 10 -21 0 -21 0 1 24 31 33 25 70 -11 74 -14 2 -29 -2 -33 -8z"/>
<path d="M11904 5518 c-5 -7 -1 -9 13 -6 29 8 51 -7 38 -25 -56 -78 -56 -81
-3 -74 30 4 31 5 11 12 -28 9 -28 9 -1 45 17 24 19 32 8 45 -15 18 -56 20 -66
3z"/>
<path d="M13742 5502 c-11 -25 -11 -25 4 -10 9 9 15 21 13 27 -2 6 -10 -2 -17
-17z"/>
<path d="M14190 5526 c0 -2 8 -10 18 -17 15 -13 16 -12 3 4 -13 16 -21 21 -21
13z"/>
<path d="M14410 5484 c0 -33 -5 -51 -17 -60 -15 -11 -16 -13 -2 -14 8 0 20 5
27 12 14 14 16 108 2 108 -5 0 -10 -21 -10 -46z"/>
<path d="M14805 5521 c-4 -7 3 -10 17 -8 33 3 35 -33 3 -63 -34 -32 -32 -40
16 -40 24 0 38 4 34 10 -3 6 -15 10 -26 10 -19 0 -19 1 2 29 27 37 22 65 -13
69 -14 2 -29 -2 -33 -7z"/>
<path d="M14912 5518 c-7 -7 -12 -28 -12 -48 0 -56 47 -84 70 -41 23 44 7 101
-30 101 -9 0 -21 -5 -28 -12z m46 -46 c3 -36 0 -42 -16 -42 -24 0 -37 42 -22
71 17 31 35 17 38 -29z"/>
<path d="M15005 5519 c-4 -6 4 -9 21 -7 38 4 42 -19 9 -54 -34 -37 -32 -48 11
-48 21 0 33 4 29 10 -3 6 -13 10 -21 10 -19 0 -18 10 7 36 29 31 18 64 -21 64
-16 0 -32 -5 -35 -11z"/>
<path d="M15115 5521 c-4 -7 3 -10 17 -8 33 3 35 -33 3 -63 -34 -32 -32 -40
10 -40 19 0 35 5 35 10 0 6 -9 10 -20 10 -20 0 -20 0 1 29 27 37 22 65 -13 69
-14 2 -29 -2 -33 -7z"/>
<path d="M10531 5497 c-13 -21 -12 -21 5 -5 10 10 16 20 13 22 -3 3 -11 -5
-18 -17z"/>
<path d="M7366 5501 c-3 -4 6 -6 19 -3 14 2 25 6 25 8 0 8 -39 4 -44 -5z"/>
<path d="M8051 5473 c-1 -44 8 -52 46 -45 19 4 23 11 23 44 0 23 -4 37 -10 33
-5 -3 -10 -20 -10 -36 0 -45 -33 -35 -41 11 l-6 35 -2 -42z"/>
<path d="M8151 5465 c1 -37 2 -38 8 -10 9 42 41 47 41 6 0 -17 5 -31 11 -31 6
0 9 16 7 38 -3 34 -5 37 -35 37 -32 1 -33 -1 -32 -40z"/>
<path d="M8256 5494 c-17 -17 -20 -33 -8 -50 11 -17 45 -25 62 -14 12 8 9 10
-12 10 -15 0 -30 5 -33 10 -4 6 7 10 24 10 32 0 41 16 19 38 -16 16 -33 15
-52 -4z m42 -12 c2 -7 -6 -12 -17 -12 -21 0 -27 11 -14 24 9 9 26 2 31 -12z"/>
<path d="M10578 5493 c7 -3 16 -2 19 1 4 3 -2 6 -13 5 -11 0 -14 -3 -6 -6z"/>
<path d="M13776 5491 c-4 -5 3 -7 14 -4 23 6 26 13 6 13 -8 0 -17 -4 -20 -9z"/>
<path d="M11252 5453 c3 -35 5 -38 36 -39 31 -1 32 0 31 40 -1 28 -3 33 -6 16
-10 -55 -43 -62 -43 -9 0 16 -5 29 -11 29 -6 0 -9 -16 -7 -37z"/>
<path d="M11350 5450 c0 -48 17 -54 22 -7 4 45 31 43 39 -3 4 -27 7 -31 13
-17 5 9 5 28 2 42 -5 21 -12 25 -41 25 -34 0 -35 -1 -35 -40z"/>
<path d="M11457 5484 c-11 -11 -8 -49 5 -62 14 -14 44 -16 52 -4 3 5 -4 8 -16
8 -12 -1 -23 5 -25 12 -3 7 5 12 22 12 20 0 26 4 23 18 -3 17 -48 29 -61 16z
m53 -14 c0 -5 -12 -10 -26 -10 -14 0 -23 4 -19 10 3 6 15 10 26 10 10 0 19 -4
19 -10z"/>
<path d="M14154 5479 c-3 -6 -2 -15 3 -20 5 -5 9 -1 9 11 0 23 -2 24 -12 9z"/>
<path d="M14463 5455 c2 -38 4 -40 35 -42 31 -1 32 0 32 38 0 47 -17 52 -22 7
-4 -45 -31 -44 -40 2 l-6 35 1 -40z"/>
<path d="M14561 5448 c2 -43 2 -43 8 -8 8 46 41 56 41 11 0 -16 5 -33 11 -36
7 -5 9 6 7 31 -3 36 -6 39 -35 42 -33 3 -33 3 -32 -40z"/>
<path d="M14660 5475 c-27 -32 32 -87 62 -57 8 8 3 11 -17 9 -15 -1 -30 4 -32
11 -3 8 6 12 27 12 25 0 31 3 26 16 -3 9 -6 18 -6 20 0 11 -49 2 -60 -11z m55
-5 c4 -6 -5 -10 -20 -10 -15 0 -24 4 -20 10 3 6 12 10 20 10 8 0 17 -4 20 -10z"/>
<path d="M7336 5451 c9 -17 23 -30 32 -30 15 1 15 2 0 6 -10 2 -18 10 -18 18
0 7 -7 18 -15 25 -12 10 -12 7 1 -19z"/>
<path d="M7368 5468 c6 -6 18 -8 28 -6 14 3 12 5 -9 10 -19 3 -25 2 -19 -4z"/>
<path d="M7690 5463 c0 -6 8 -17 18 -24 16 -13 16 -13 2 6 -8 11 -16 22 -17
24 -2 2 -3 0 -3 -6z"/>
<path d="M9411 5454 c0 -11 3 -14 6 -6 3 7 2 16 -1 19 -3 4 -6 -2 -5 -13z"/>
<path d="M9337 5449 c7 -7 15 -10 18 -7 3 3 -2 9 -12 12 -14 6 -15 5 -6 -5z"/>
<path d="M7785 5441 c-6 -5 -21 -11 -35 -14 l-25 -4 26 -2 c15 0 32 6 39 14
14 16 10 21 -5 6z"/>
<path d="M9375 5440 c-3 -6 1 -7 9 -4 18 7 21 14 7 14 -6 0 -13 -4 -16 -10z"/>
<path d="M12615 5440 c-3 -5 -1 -10 4 -10 6 0 11 5 11 10 0 6 -2 10 -4 10 -3
0 -8 -4 -11 -10z"/>
<path d="M15815 5440 c-3 -5 -1 -10 4 -10 6 0 11 5 11 10 0 6 -2 10 -4 10 -3
0 -8 -4 -11 -10z"/>
<path d="M10540 5434 c0 -21 25 -30 60 -23 l35 7 -38 -1 c-24 -1 -41 4 -47 13
-5 8 -10 10 -10 4z"/>
<path d="M10912 5424 c10 -10 20 -16 22 -13 3 3 -5 11 -17 18 -21 13 -21 12
-5 -5z"/>
<path d="M13750 5434 c0 -20 24 -32 45 -23 18 9 18 9 -3 5 -13 -3 -26 2 -32
12 -5 10 -10 12 -10 6z"/>
<path d="M14190 5424 c-17 -9 -20 -14 -9 -14 9 0 22 7 29 15 15 18 13 18 -20
-1z"/>
<path d="M15758 5428 c6 -6 18 -8 28 -6 14 3 12 5 -9 10 -19 3 -25 2 -19 -4z"/>
<path d="M7398 5423 c7 -3 16 -2 19 1 4 3 -2 6 -13 5 -11 0 -14 -3 -6 -6z"/>
<path d="M12568 5423 c6 -2 18 -2 25 0 6 3 1 5 -13 5 -14 0 -19 -2 -12 -5z"/>
<path d="M13800 4971 c16 -4 25 -14 25 -26 0 -12 -9 -22 -25 -26 -22 -6 -23
-7 -4 -8 28 -1 47 23 39 49 -4 14 -14 20 -33 19 l-27 -1 25 -7z"/>
<path d="M14261 4943 c1 -21 3 -30 6 -20 5 19 14 22 29 7 6 -6 11 0 12 20 2
26 -1 30 -23 30 -22 0 -25 -4 -24 -37z m39 17 c0 -5 -7 -10 -15 -10 -8 0 -15
5 -15 10 0 6 7 10 15 10 8 0 15 -4 15 -10z"/>
<path d="M15786 4954 c-10 -7 -25 -10 -34 -7 -14 4 -15 3 -2 -5 8 -6 18 -8 24
-5 5 4 23 9 40 13 26 5 28 7 10 12 -11 3 -29 -1 -38 -8z"/>
<path d="M13868 4953 c7 -3 16 -2 19 1 4 3 -2 6 -13 5 -11 0 -14 -3 -6 -6z"/>
<path d="M13970 4951 c0 -6 5 -13 12 -17 6 -4 8 -3 4 4 -3 5 0 13 6 15 8 3 6
6 -4 6 -10 1 -18 -3 -18 -8z"/>
<path d="M14052 4935 c0 -16 2 -22 5 -12 2 9 2 23 0 30 -3 6 -5 -1 -5 -18z"/>
<path d="M14081 4933 c1 -23 2 -24 6 -6 2 12 12 24 21 26 12 3 10 5 -5 6 -19
1 -23 -4 -22 -26z"/>
<path d="M14188 4953 c6 -2 10 -8 8 -12 -3 -4 -1 -13 5 -21 6 -11 9 -8 9 13 0
19 -5 27 -17 26 -11 0 -13 -3 -5 -6z"/>
<path d="M14333 4944 c-3 -8 -1 -20 5 -26 8 -8 9 -5 6 10 -4 14 0 22 13 25 17
4 17 5 0 6 -10 0 -20 -6 -24 -15z"/>
<path d="M14431 4933 c7 -10 14 -20 15 -21 1 -2 8 7 15 20 11 21 11 22 -4 9
-11 -9 -17 -10 -17 -2 0 6 -5 11 -11 11 -8 0 -7 -6 2 -17z"/>
<path d="M13933 4932 c-7 -4 -9 -13 -4 -21 6 -9 10 -7 14 8 3 12 4 21 4 21 -1
0 -7 -4 -14 -8z"/>
<path d="M14400 4920 c0 -5 5 -10 10 -10 6 0 10 5 10 10 0 6 -4 10 -10 10 -5
0 -10 -4 -10 -10z"/>
<path d="M15750 4910 c-12 -7 -11 -9 5 -9 11 0 36 -3 55 -5 34 -5 34 -5 4 3
-17 4 -35 10 -40 14 -6 3 -16 2 -24 -3z"/>
<path d="M13767 4762 c-10 -10 -17 -35 -17 -55 l0 -36 -52 -4 -53 -3 53 -2 52
-2 0 -39 c0 -55 25 -71 113 -71 59 0 71 3 92 25 16 15 25 36 25 54 l0 30 93 4
92 3 -92 2 -93 2 0 29 c0 15 -9 40 -21 55 -19 24 -26 26 -98 26 -63 0 -81 -4
-94 -18z m133 -97 c-39 -40 -50 -43 -75 -15 -21 23 -9 27 15 5 15 -13 20 -11
50 20 18 19 36 32 39 30 2 -3 -11 -21 -29 -40z"/>
<path d="M9365 4759 c-10 -15 1 -23 20 -15 9 3 13 10 10 16 -8 13 -22 13 -30
-1z"/>
<path d="M9417 4764 c-13 -13 -7 -24 14 -24 11 0 19 5 17 12 -5 14 -22 21 -31
12z"/>
<path d="M9465 4760 c-3 -6 1 -13 10 -16 19 -8 30 0 20 15 -8 14 -22 14 -30 1z"/>
<path d="M14252 4683 c12 -13 15 -23 8 -31 -7 -9 -7 -9 2 -2 8 7 18 4 32 -8
21 -17 21 -17 4 4 -17 19 -17 21 0 39 16 18 16 18 -1 5 -16 -12 -22 -12 -40 0
-21 12 -21 12 -5 -7z"/>
<path d="M15665 4670 c0 -16 5 -30 11 -30 6 0 9 13 6 30 -2 17 -7 30 -11 30
-3 0 -6 -13 -6 -30z"/>
<path d="M14680 4670 c0 -5 5 -10 10 -10 6 0 10 5 10 10 0 6 -4 10 -10 10 -5
0 -10 -4 -10 -10z"/>
<path d="M14438 4663 c29 -2 74 -2 100 0 26 2 2 3 -53 3 -55 0 -76 -1 -47 -3z"/>
<path d="M14853 4663 c26 -2 68 -2 95 0 26 2 4 3 -48 3 -52 0 -74 -1 -47 -3z"/>
<path d="M15293 4663 c37 -2 97 -2 135 0 37 2 6 3 -68 3 -74 0 -105 -1 -67 -3z"/>
<path d="M9154 4644 c-19 -15 -19 -15 1 -6 11 5 27 12 35 15 13 5 13 6 -1 6
-8 1 -24 -6 -35 -15z"/>
<path d="M7493 4630 c-82 -50 -85 -175 -6 -234 61 -45 163 -25 203 39 59 95
-8 215 -120 215 -27 0 -58 -8 -77 -20z m106 4 c64 -13 109 -91 90 -158 -15
-54 -60 -86 -121 -86 -44 0 -54 4 -84 34 -62 62 -43 168 35 200 43 18 41 18
80 10z"/>
<path d="M7502 4553 c4 -20 18 -26 37 -14 18 12 5 31 -20 31 -14 0 -19 -6 -17
-17z"/>
<path d="M7594 4559 c-7 -12 15 -31 31 -26 6 2 11 11 13 20 4 19 -32 24 -44 6z"/>
<path d="M7530 4490 c0 -18 39 -31 60 -20 11 6 20 15 20 20 0 14 -14 12 -28
-2 -9 -9 -15 -9 -24 0 -14 14 -28 16 -28 2z"/>
<path d="M8473 4633 c15 -2 39 -2 55 0 15 2 2 4 -28 4 -30 0 -43 -2 -27 -4z"/>
<path d="M8114 4614 c-18 -14 -18 -15 4 -4 12 6 33 8 45 5 17 -5 19 -4 7 4
-21 15 -33 14 -56 -5z"/>
<path d="M8742 4614 c7 -7 169 -7 176 1 3 3 -37 5 -88 5 -51 0 -91 -3 -88 -6z"/>
<path d="M9210 4616 c0 -2 7 -7 16 -10 8 -3 12 -2 9 4 -6 10 -25 14 -25 6z"/>
<path d="M8450 4590 c0 -5 5 -10 11 -10 5 0 7 5 4 10 -3 6 -8 10 -11 10 -2 0
-4 -4 -4 -10z"/>
<path d="M8401 4574 c0 -11 3 -14 6 -6 3 7 2 16 -1 19 -3 4 -6 -2 -5 -13z"/>
<path d="M8575 4570 c-3 -5 -1 -10 4 -10 6 0 11 5 11 10 0 6 -2 10 -4 10 -3 0
-8 -4 -11 -10z"/>
<path d="M8520 4540 c-18 -12 -2 -12 25 0 13 6 15 9 5 9 -8 0 -22 -4 -30 -9z"/>
<path d="M8109 4528 c7 -10 23 -17 35 -17 20 1 20 2 1 6 -11 3 -27 10 -35 17
-13 10 -13 9 -1 -6z"/>
<path d="M8793 4533 c32 -2 81 -2 110 0 29 2 3 3 -58 3 -60 0 -84 -1 -52 -3z"/>
<path d="M11523 4525 c-94 -40 -94 -179 0 -226 72 -37 156 2 177 82 14 51 -9
103 -59 136 -39 26 -72 28 -118 8z m120 -35 c52 -41 44 -136 -14 -165 -74 -39
-149 6 -149 88 0 38 5 49 31 71 38 33 95 35 132 6z"/>
<path d="M11575 4420 c-19 -8 -19 -9 3 -9 12 -1 22 4 22 9 0 6 -1 10 -2 9 -2
0 -12 -4 -23 -9z"/>
<path d="M8408 4493 c6 -2 18 -2 25 0 6 3 1 5 -13 5 -14 0 -19 -2 -12 -5z"/>
<path d="M8558 4493 c6 -2 18 -2 25 0 6 3 1 5 -13 5 -14 0 -19 -2 -12 -5z"/>
<path d="M9157 4488 c5 -10 64 -10 80 0 6 4 -10 7 -37 7 -26 0 -46 -3 -43 -7z"/>
<path d="M14232 4475 c0 -16 2 -22 5 -12 2 9 2 23 0 30 -3 6 -5 -1 -5 -18z"/>
<path d="M14707 4469 c4 -13 8 -18 11 -10 2 7 -1 18 -6 23 -8 8 -9 4 -5 -13z"/>
<path d="M12228 4415 c2 -19 6 -35 8 -35 2 0 4 16 4 35 0 19 -4 35 -8 35 -4 0
-6 -16 -4 -35z"/>
<path d="M11935 4420 c-3 -5 -1 -10 4 -10 6 0 11 5 11 10 0 6 -2 10 -4 10 -3
0 -8 -4 -11 -10z"/>
<path d="M8493 4373 c9 -2 25 -2 35 0 9 3 1 5 -18 5 -19 0 -27 -2 -17 -5z"/>
<path d="M8113 4355 c1 0 9 -6 17 -12 11 -9 19 -8 32 1 14 10 12 12 -17 12
-19 0 -33 0 -32 -1z"/>
<path d="M8473 4342 c-39 -6 -25 -17 21 -17 24 0 42 3 40 6 -6 10 -36 15 -61
11z"/>
<path d="M8051 4314 c0 -11 3 -14 6 -6 3 7 2 16 -1 19 -3 4 -6 -2 -5 -13z"/>
<path d="M8429 4293 c-13 -16 -12 -17 3 -5 11 9 37 13 72 10 30 -1 52 0 49 5
-2 4 -28 7 -57 7 -39 0 -57 -5 -67 -17z"/>
<path d="M8179 4233 l-24 -28 28 24 c15 14 27 26 27 28 0 8 -8 1 -31 -24z"/>
<path d="M7491 4192 c0 -16 3 -21 6 -12 3 8 10 18 15 21 5 3 3 9 -6 12 -12 5
-16 0 -15 -21z"/>
<path d="M8127 4209 c7 -7 15 -10 18 -7 3 3 -2 9 -12 12 -14 6 -15 5 -6 -5z"/>
<path d="M7542 4190 c0 -14 2 -19 5 -12 2 6 2 18 0 25 -3 6 -5 1 -5 -13z"/>
<path d="M7571 4184 c0 -11 3 -14 6 -6 3 7 2 16 -1 19 -3 4 -6 -2 -5 -13z"/>
<path d="M8457 4193 c18 -2 50 -2 70 0 21 2 7 4 -32 4 -38 0 -55 -2 -38 -4z"/>
<path d="M10495 4100 c-3 -5 -1 -10 4 -10 6 0 11 5 11 10 0 6 -2 10 -4 10 -3
0 -8 -4 -11 -10z"/>
<path d="M10570 4103 c8 -3 19 -11 23 -17 6 -7 7 -6 4 4 -2 8 -12 16 -23 17
-13 2 -15 1 -4 -4z"/>
<path d="M10849 4073 c-4 -38 -2 -43 16 -43 12 0 16 3 8 8 -6 4 -13 23 -15 42
l-3 35 -6 -42z"/>
<path d="M10908 4103 c6 -2 18 -2 25 0 6 3 1 5 -13 5 -14 0 -19 -2 -12 -5z"/>
<path d="M11541 4110 c-1 -3 -3 -22 -4 -43 -2 -31 1 -37 18 -37 13 0 16 3 8 8
-6 4 -13 23 -16 42 -2 19 -5 33 -6 30z"/>
<path d="M11590 4090 c0 -14 6 -20 23 -19 16 1 18 2 5 6 -10 2 -18 8 -18 13 0
5 8 11 18 13 13 4 11 5 -5 6 -17 1 -23 -5 -23 -19z"/>
<path d="M11958 4103 c7 -3 16 -2 19 1 4 3 -2 6 -13 5 -11 0 -14 -3 -6 -6z"/>
<path d="M12231 4110 c-1 -3 -3 -22 -4 -43 -2 -31 1 -37 18 -37 13 0 16 3 8 8
-6 4 -13 23 -16 42 -2 19 -5 33 -6 30z"/>
<path d="M12293 4103 c9 -2 23 -2 30 0 6 3 -1 5 -18 5 -16 0 -22 -2 -12 -5z"/>
<path d="M12624 4099 c-3 -6 -1 -16 5 -22 9 -9 11 -8 6 5 -5 12 0 18 17 21 22
4 22 4 1 6 -12 0 -25 -4 -29 -10z"/>
<path d="M11931 4064 c0 -11 3 -14 6 -6 3 7 2 16 -1 19 -3 4 -6 -2 -5 -13z"/>
<path d="M15555 4060 c-3 -6 1 -7 9 -4 18 7 21 14 7 14 -6 0 -13 -4 -16 -10z"/>
<path d="M10560 4045 c-11 -13 -8 -15 16 -14 17 1 22 3 11 6 -9 2 -15 9 -12
14 10 15 -1 10 -15 -6z"/>
<path d="M11255 4050 c27 -12 35 -12 35 0 0 6 -12 10 -27 9 -25 0 -26 -1 -8
-9z"/>
<path d="M12623 4050 c2 -8 12 -16 23 -17 13 -2 15 -1 4 4 -8 3 -19 11 -23 17
-6 7 -7 6 -4 -4z"/>
<path d="M10498 4033 c6 -2 18 -2 25 0 6 3 1 5 -13 5 -14 0 -19 -2 -12 -5z"/>
<path d="M10908 4033 c6 -2 18 -2 25 0 6 3 1 5 -13 5 -14 0 -19 -2 -12 -5z"/>
<path d="M11188 4033 c6 -2 18 -2 25 0 6 3 1 5 -13 5 -14 0 -19 -2 -12 -5z"/>
<path d="M11608 4033 c7 -3 16 -2 19 1 4 3 -2 6 -13 5 -11 0 -14 -3 -6 -6z"/>
<path d="M11878 4033 c6 -2 18 -2 25 0 6 3 1 5 -13 5 -14 0 -19 -2 -12 -5z"/>
<path d="M12568 4033 c6 -2 18 -2 25 0 6 3 1 5 -13 5 -14 0 -19 -2 -12 -5z"/>
<path d="M15545 4030 c-4 -6 3 -10 14 -10 25 0 27 6 6 13 -8 4 -17 2 -20 -3z"/>
<path d="M15493 4013 c9 -2 23 -2 30 0 6 3 -1 5 -18 5 -16 0 -22 -2 -12 -5z"/>
<path d="M13751 3980 c1 -19 3 -27 6 -17 4 14 8 16 19 6 11 -9 17 -9 28 0 12
10 15 8 19 -11 2 -14 5 -7 5 17 l1 40 -19 -24 -20 -23 -20 23 -19 24 0 -35z"/>
<path d="M14076 4001 c-3 -4 6 -6 19 -3 14 2 25 6 25 8 0 8 -39 4 -44 -5z"/>
<path d="M15722 3998 c5 -15 28 -18 29 -3 0 6 -7 12 -17 13 -10 3 -15 -1 -12
-10z"/>
<path d="M15773 3998 c2 -7 10 -13 17 -13 7 0 15 6 18 13 2 7 -5 12 -18 12
-13 0 -20 -5 -17 -12z"/>
<path d="M15825 4001 c-3 -5 -1 -12 5 -16 12 -7 30 2 30 16 0 12 -27 12 -35 0z"/>
<path d="M14288 3992 c-23 -3 -28 -8 -27 -30 2 -24 2 -24 6 -4 6 29 43 31 43
2 0 -11 4 -20 8 -20 8 0 9 48 1 53 -2 1 -16 1 -31 -1z"/>
<path d="M13850 3981 c0 -6 7 -8 15 -5 9 4 15 0 15 -9 0 -9 -7 -18 -15 -20
-11 -4 -10 -4 2 -3 23 2 24 40 1 44 -10 2 -18 -1 -18 -7z"/>
<path d="M13909 3973 c-13 -16 -12 -17 3 -5 9 8 23 10 29 6 8 -4 9 -3 5 4 -10
17 -21 15 -37 -5z"/>
<path d="M13977 3983 c-3 -5 6 -9 19 -9 13 -1 24 2 24 7 0 11 -37 12 -43 2z"/>
<path d="M14140 3980 c0 -5 6 -7 14 -4 9 4 16 -3 19 -18 4 -21 4 -20 6 5 1 21
-4 27 -19 27 -11 0 -20 -4 -20 -10z"/>
<path d="M14212 3984 c9 -3 19 -15 22 -27 4 -18 4 -18 3 3 -1 17 -8 25 -22 27
-14 1 -15 0 -3 -3z"/>
<path d="M15486 3979 c2 -4 12 -7 22 -7 9 0 26 -3 37 -6 l20 -8 -20 14 c-21
13 -67 19 -59 7z"/>
<path d="M13970 3950 c0 -5 5 -10 11 -10 5 0 7 5 4 10 -3 6 -8 10 -11 10 -2 0
-4 -4 -4 -10z"/>
<path d="M14078 3948 c6 -6 18 -8 28 -6 14 3 12 5 -9 10 -19 3 -25 2 -19 -4z"/>
<path d="M13918 3943 c6 -2 18 -2 25 0 6 3 1 5 -13 5 -14 0 -19 -2 -12 -5z"/>
<path d="M15558 3933 c6 -2 18 -2 25 0 6 3 1 5 -13 5 -14 0 -19 -2 -12 -5z"/>
<path d="M10478 3828 c-50 -29 -75 -90 -58 -142 14 -43 59 -83 104 -91 68 -13
146 54 146 127 0 60 -69 128 -130 128 -14 0 -42 -10 -62 -22z m131 -34 c26
-22 31 -33 31 -71 0 -36 -6 -50 -29 -74 -71 -70 -186 -5 -167 95 14 74 105
101 165 50z"/>
<path d="M10591 3745 c-8 -33 -7 -55 1 -47 6 6 8 20 5 33 -2 13 -5 20 -6 14z"/>
<path d="M11175 3832 c-39 -24 -54 -43 -65 -81 -29 -101 83 -191 177 -142 95
48 94 187 -2 227 -46 19 -74 18 -110 -4z m124 -38 c27 -22 31 -32 31 -74 0
-42 -4 -52 -31 -74 -76 -64 -183 0 -165 98 14 74 105 101 165 50z"/>
<path d="M11211 3744 c0 -11 3 -14 6 -6 3 7 2 16 -1 19 -3 4 -6 -2 -5 -13z"/>
<path d="M11901 3744 c0 -11 3 -14 6 -6 3 7 2 16 -1 19 -3 4 -6 -2 -5 -13z"/>
<path d="M12310 3755 c-1 -5 -1 -19 0 -29 1 -13 -3 -17 -14 -13 -9 4 -16 3
-16 -2 0 -11 39 -22 43 -13 2 4 0 21 -4 37 -3 17 -8 26 -9 20z"/>
<path d="M12591 3744 c0 -11 3 -14 6 -6 3 7 2 16 -1 19 -3 4 -6 -2 -5 -13z"/>
<path d="M11950 3726 c0 -2 7 -7 16 -10 8 -3 12 -2 9 4 -6 10 -25 14 -25 6z"/>
<path d="M10500 3413 c8 -3 19 -11 23 -17 6 -7 7 -6 4 4 -2 8 -12 16 -23 17
-13 2 -15 1 -4 -4z"/>
<path d="M10568 3413 c6 -2 18 -2 25 0 6 3 1 5 -13 5 -14 0 -19 -2 -12 -5z"/>
<path d="M10838 3413 c6 -2 18 -2 25 0 6 3 1 5 -13 5 -14 0 -19 -2 -12 -5z"/>
<path d="M10913 3413 c9 -2 23 -2 30 0 6 3 -1 5 -18 5 -16 0 -22 -2 -12 -5z"/>
<path d="M11192 3413 c9 -2 19 -12 21 -21 3 -12 5 -10 6 6 1 17 -4 22 -21 21
-16 -1 -18 -3 -6 -6z"/>
<path d="M11250 3416 c0 -2 9 -6 20 -9 11 -3 18 -1 14 4 -5 9 -34 13 -34 5z"/>
<path d="M11528 3413 c6 -2 18 -2 25 0 6 3 1 5 -13 5 -14 0 -19 -2 -12 -5z"/>
<path d="M11598 3413 c6 -2 18 -2 25 0 6 3 1 5 -13 5 -14 0 -19 -2 -12 -5z"/>
<path d="M11883 3413 c11 -3 16 -11 13 -19 -3 -7 -2 -15 2 -18 4 -2 9 6 10 20
1 19 -3 24 -21 23 -18 -1 -18 -2 -4 -6z"/>
<path d="M11940 3416 c0 -2 9 -6 20 -9 11 -3 18 -1 14 4 -5 9 -34 13 -34 5z"/>
<path d="M11932 3380 c0 -14 2 -19 5 -12 2 6 2 18 0 25 -3 6 -5 1 -5 -13z"/>
<path d="M10570 3386 c0 -2 7 -7 16 -10 8 -3 12 -2 9 4 -6 10 -25 14 -25 6z"/>
<path d="M10502 3368 c-18 -18 -14 -28 11 -27 17 1 18 2 4 6 -14 4 -16 8 -6
19 14 17 8 19 -9 2z"/>
<path d="M11187 3363 c-14 -13 -7 -23 16 -22 17 1 18 2 4 6 -9 2 -15 9 -12 14
7 10 1 12 -8 2z"/>
<path d="M10580 3350 c-9 -6 -10 -10 -3 -10 6 0 15 5 18 10 8 12 4 12 -15 0z"/>
<path d="M10834 3349 c-3 -5 6 -9 20 -9 31 0 34 6 6 13 -11 3 -23 1 -26 -4z"/>
<path d="M11248 3348 c5 -5 16 -8 23 -6 8 3 3 7 -10 11 -17 4 -21 3 -13 -5z"/>
<path d="M11524 3349 c-3 -5 6 -9 20 -9 31 0 34 6 6 13 -11 3 -23 1 -26 -4z"/>
<path d="M11885 3350 c-16 -7 -17 -9 -3 -9 9 -1 20 4 23 9 7 11 7 11 -20 0z"/>
<path d="M11960 3350 c-9 -6 -10 -10 -3 -10 6 0 15 5 18 10 8 12 4 12 -15 0z"/>
<path d="M11598 3343 c7 -3 16 -2 19 1 4 3 -2 6 -13 5 -11 0 -14 -3 -6 -6z"/>
<path d="M13762 2924 c-51 -35 -8 -117 50 -95 42 16 50 59 18 91 -24 24 -38
25 -68 4z"/>
<path d="M10447 2734 c-4 -4 -7 -22 -7 -41 l0 -33 171 0 170 0 -3 38 -3 37
-161 3 c-88 1 -163 -1 -167 -4z"/>
<path d="M13777 2213 c-4 -3 -7 -11 -7 -17 0 -6 5 -5 12 2 6 6 9 14 7 17 -3 3
-9 2 -12 -2z"/>
<path d="M13882 2185 c0 -23 3 -30 5 -17 2 12 11 22 18 22 7 0 16 -10 18 -22
l4 -23 2 23 c0 13 -6 25 -16 29 -10 4 -21 11 -25 17 -4 6 -7 -7 -6 -29z"/>
<path d="M15725 2210 c-11 -17 5 -32 21 -19 7 6 11 15 8 20 -7 12 -21 11 -29
-1z"/>
<path d="M15777 2214 c-13 -13 -7 -24 14 -24 11 0 19 5 17 12 -5 14 -22 21
-31 12z"/>
<path d="M15826 2211 c-3 -5 1 -14 8 -20 16 -13 32 2 21 19 -8 12 -22 13 -29
1z"/>
<path d="M14356 2202 c-4 -8 11 -52 18 -52 3 0 3 7 -1 16 -3 9 0 19 6 24 10 5
9 9 -3 13 -8 3 -17 3 -20 -1z"/>
<path d="M13833 2184 c-3 -8 -1 -20 5 -26 8 -8 9 -5 6 10 -4 14 0 22 13 25 17
4 17 5 0 6 -10 0 -20 -6 -24 -15z"/>
<path d="M13973 2184 c-3 -8 -1 -20 5 -26 7 -7 10 -5 8 8 -2 11 4 22 13 26 14
6 14 7 -2 7 -10 1 -20 -6 -24 -15z"/>
<path d="M14098 2193 c7 -3 16 -2 19 1 4 3 -2 6 -13 5 -11 0 -14 -3 -6 -6z"/>
<path d="M14150 2190 c0 -5 6 -7 14 -4 9 4 16 -3 19 -18 l4 -23 2 23 c0 12 5
22 10 22 5 0 12 -10 14 -22 4 -20 4 -19 6 5 1 25 -2 27 -34 27 -19 0 -35 -4
-35 -10z"/>
<path d="M14300 2190 c0 -5 6 -7 14 -4 9 4 16 -3 19 -18 4 -21 4 -20 6 5 1 21
-4 27 -19 27 -11 0 -20 -4 -20 -10z"/>
<path d="M14405 2191 c-3 -5 0 -13 6 -17 7 -4 9 -3 5 4 -3 6 2 13 11 15 16 4
16 5 1 6 -9 0 -19 -3 -23 -8z"/>
<path d="M13755 2169 c-11 -17 1 -21 15 -4 8 9 8 15 2 15 -6 0 -14 -5 -17 -11z"/>
<path d="M13795 2170 c3 -5 8 -10 11 -10 2 0 4 5 4 10 0 6 -5 10 -11 10 -5 0
-7 -4 -4 -10z"/>
<path d="M14040 2160 c0 -5 5 -10 10 -10 6 0 10 5 10 10 0 6 -4 10 -10 10 -5
0 -10 -4 -10 -10z"/>
<path d="M15503 2073 c15 -2 37 -2 50 0 12 2 0 4 -28 4 -27 0 -38 -2 -22 -4z"/>
<path d="M15434 2054 c-18 -14 -18 -14 6 -3 31 14 36 19 24 19 -6 0 -19 -7
-30 -16z"/>
<path d="M15580 2066 c0 -2 9 -6 20 -9 11 -3 18 -1 14 4 -5 9 -34 13 -34 5z"/>
<path d="M15384 2018 l-19 -23 23 19 c21 18 27 26 19 26 -2 0 -12 -10 -23 -22z"/>
<path d="M15548 1963 c-19 -5 -25 -48 -8 -58 6 -3 10 -2 10 4 0 5 10 12 23 14
19 4 18 4 -5 6 -34 1 -36 14 -5 29 23 11 16 13 -15 5z"/>
<path d="M15463 1923 c9 -2 23 -2 30 0 6 3 -1 5 -18 5 -16 0 -22 -2 -12 -5z"/>
<path d="M15722 1880 c0 -14 2 -19 5 -12 2 6 2 18 0 25 -3 6 -5 1 -5 -13z"/>
<path d="M15490 1839 c0 -5 11 -9 25 -9 14 0 25 2 25 4 0 2 -11 6 -25 8 -14 3
-25 1 -25 -3z"/>
<path d="M15570 1808 c0 -5 9 -8 19 -8 11 0 22 3 24 8 3 4 -6 7 -19 7 -13 0
-24 -3 -24 -7z"/>
<path d="M15468 1803 c12 -2 32 -2 45 0 12 2 2 4 -23 4 -25 0 -35 -2 -22 -4z"/>
<path d="M15615 1714 c-22 -13 -35 -24 -30 -24 12 0 75 38 75 45 0 6 2 7 -45
-21z"/>
<path d="M15427 1709 c7 -7 15 -10 18 -7 3 3 -2 9 -12 12 -14 6 -15 5 -6 -5z"/>
<path d="M15508 1683 c12 -2 30 -2 40 0 9 3 -1 5 -23 4 -22 0 -30 -2 -17 -4z"/>
<path d="M15553 1143 c9 -2 23 -2 30 0 6 3 -1 5 -18 5 -16 0 -22 -2 -12 -5z"/>
<path d="M15490 1136 c0 -9 30 -14 35 -6 4 6 -3 10 -14 10 -12 0 -21 -2 -21
-4z"/>
<path d="M13751 1098 c1 -18 3 -25 6 -15 5 18 23 24 23 7 0 -5 5 -10 10 -10
12 0 -21 49 -32 50 -5 0 -7 -15 -7 -32z"/>
<path d="M13806 1115 c-3 -8 -1 -15 4 -15 5 0 11 -8 13 -17 3 -10 5 -3 6 15 1
33 -12 44 -23 17z"/>
<path d="M15722 1118 c5 -15 28 -18 29 -3 0 6 -7 12 -17 13 -10 3 -15 -1 -12
-10z"/>
<path d="M15775 1121 c-7 -12 12 -24 25 -16 11 7 4 25 -10 25 -5 0 -11 -4 -15
-9z"/>
<path d="M15825 1121 c-3 -5 -1 -12 5 -16 12 -7 30 2 30 16 0 12 -27 12 -35 0z"/>
<path d="M14320 1110 c0 -5 5 -10 10 -10 6 0 10 5 10 10 0 6 -4 10 -10 10 -5
0 -10 -4 -10 -10z"/>
<path d="M13878 1088 c4 -18 2 -20 -14 -14 -14 5 -16 4 -7 -5 6 -6 16 -8 22
-5 13 9 15 46 2 46 -5 0 -7 -10 -3 -22z"/>
<path d="M13904 1099 c-10 -17 23 -46 37 -32 8 8 6 11 -7 10 -12 -1 -19 4 -18
16 2 20 -2 22 -12 6z"/>
<path d="M13970 1091 c0 -26 16 -35 37 -21 15 9 14 10 -6 4 -21 -5 -23 -3 -18
15 3 11 1 21 -4 21 -5 0 -9 -9 -9 -19z"/>
<path d="M14134 1095 c-8 -19 4 -35 24 -34 14 1 14 2 -1 6 -13 3 -17 11 -14
24 6 22 -1 26 -9 4z"/>
<path d="M14166 1097 c3 -10 9 -15 12 -12 3 3 0 11 -7 18 -10 9 -11 8 -5 -6z"/>
<path d="M14227 1089 c-3 -12 -10 -18 -16 -14 -6 3 -11 2 -11 -4 0 -5 9 -9 20
-8 14 1 20 8 20 24 0 29 -6 30 -13 2z"/>
<path d="M14262 1090 c0 -14 2 -19 5 -12 2 6 2 18 0 25 -3 6 -5 1 -5 -13z"/>
<path d="M15500 1100 c-12 -7 -11 -9 5 -9 11 0 36 -3 55 -5 34 -5 34 -5 4 3
-17 4 -35 10 -40 14 -6 3 -16 2 -24 -3z"/>
<path d="M14075 1070 c3 -5 14 -10 23 -10 15 0 15 2 2 10 -20 13 -33 13 -25 0z"/>
<path d="M14330 1070 c0 -5 5 -10 11 -10 5 0 7 5 4 10 -3 6 -8 10 -11 10 -2 0
-4 -4 -4 -10z"/>
<path d="M8182 1000 c14 -144 178 -222 304 -145 59 37 97 103 92 161 l-3 39
-14 -45 c-19 -65 -85 -126 -146 -136 -95 -14 -191 46 -214 134 -16 57 -25 53
-19 -8z"/>
<path d="M11384 1003 c11 -86 71 -151 158 -174 119 -32 248 72 248 199 0 12
-4 22 -10 22 -5 0 -10 -10 -10 -22 0 -33 -46 -104 -83 -127 -106 -65 -248 -12
-279 105 -16 58 -32 57 -24 -3z"/>
<path d="M13806 944 c-23 -23 -29 -59 -15 -86 16 -31 28 -38 66 -38 34 0 73
37 73 70 0 10 -9 29 -21 44 -24 30 -78 36 -103 10z m34 -34 c0 -5 -7 -10 -15
-10 -8 0 -15 5 -15 10 0 6 7 10 15 10 8 0 15 -4 15 -10z m52 -2 c-9 -9 -15 -9
-24 0 -9 9 -7 12 12 12 19 0 21 -3 12 -12z m-21 -37 c-8 -5 -20 -7 -28 -4 -21
8 -15 13 15 13 20 0 23 -3 13 -9z"/>
</g>
</svg>
