<svg xmlns="http://www.w3.org/2000/svg" xmlns:xlink="http://www.w3.org/1999/xlink" width="40" zoomAndPan="magnify" viewBox="0 0 30 30.000001" height="40" preserveAspectRatio="xMidYMid meet" version="1.0"><defs><clipPath id="d71e8ae19e"><path d="M 6.789062 6.304688 L 23.484375 6.304688 L 23.484375 23 L 6.789062 23 Z M 6.789062 6.304688 " clip-rule="nonzero"/></clipPath></defs><g clip-path="url(#d71e8ae19e)"><path fill="#ffffff" d="M 15.144531 6.304688 C 10.523438 6.304688 6.789062 10.066406 6.789062 14.722656 C 6.789062 18.441406 9.183594 21.589844 12.503906 22.707031 C 12.917969 22.789062 13.070312 22.523438 13.070312 22.300781 C 13.070312 22.105469 13.054688 21.4375 13.054688 20.742188 C 10.730469 21.242188 10.246094 19.738281 10.246094 19.738281 C 9.875 18.761719 9.320312 18.511719 9.320312 18.511719 C 8.5625 17.996094 9.375 17.996094 9.375 17.996094 C 10.21875 18.050781 10.664062 18.859375 10.664062 18.859375 C 11.410156 20.140625 12.613281 19.78125 13.097656 19.558594 C 13.167969 19.011719 13.386719 18.636719 13.621094 18.429688 C 11.769531 18.234375 9.820312 17.507812 9.820312 14.277344 C 9.820312 13.355469 10.152344 12.605469 10.675781 12.019531 C 10.59375 11.808594 10.304688 10.945312 10.757812 9.789062 C 10.757812 9.789062 11.464844 9.566406 13.054688 10.652344 C 13.738281 10.46875 14.433594 10.375 15.144531 10.375 C 15.847656 10.375 16.566406 10.472656 17.230469 10.652344 C 18.824219 9.566406 19.527344 9.789062 19.527344 9.789062 C 19.984375 10.945312 19.695312 11.808594 19.609375 12.019531 C 20.152344 12.605469 20.46875 13.355469 20.46875 14.277344 C 20.46875 17.507812 18.519531 18.21875 16.652344 18.429688 C 16.957031 18.691406 17.21875 19.195312 17.21875 19.988281 C 17.21875 21.117188 17.203125 22.023438 17.203125 22.300781 C 17.203125 22.523438 17.355469 22.789062 17.773438 22.707031 C 21.089844 21.589844 23.484375 18.441406 23.484375 14.722656 C 23.496094 10.066406 19.75 6.304688 15.144531 6.304688 Z M 15.144531 6.304688 " fill-opacity="1" fill-rule="evenodd"/></g></svg>