<svg xmlns="http://www.w3.org/2000/svg" xmlns:xlink="http://www.w3.org/1999/xlink" width="40" zoomAndPan="magnify" viewBox="0 0 30 30.000001" height="40" preserveAspectRatio="xMidYMid meet" version="1.0"><defs><clipPath id="2a3893a470"><path d="M 6.789062 6.304688 L 23.484375 6.304688 L 23.484375 23 L 6.789062 23 Z M 6.789062 6.304688 " clip-rule="nonzero"/></clipPath></defs><path fill="#ffffff" d="M 15.136719 12.804688 C 14.117188 12.804688 13.285156 13.632812 13.285156 14.652344 C 13.285156 15.671875 14.117188 16.503906 15.136719 16.503906 C 16.15625 16.503906 16.988281 15.671875 16.988281 14.652344 C 16.988281 13.632812 16.15625 12.804688 15.136719 12.804688 Z M 15.136719 12.804688 " fill-opacity="1" fill-rule="nonzero"/><path fill="#ffffff" d="M 17.621094 10.113281 L 12.652344 10.113281 C 11.523438 10.113281 10.597656 11.03125 10.597656 12.167969 L 10.597656 17.140625 C 10.597656 18.265625 11.515625 19.191406 12.652344 19.191406 L 17.621094 19.191406 C 18.75 19.191406 19.675781 18.273438 19.675781 17.140625 L 19.675781 12.167969 C 19.667969 11.03125 18.75 10.113281 17.621094 10.113281 Z M 15.136719 17.433594 C 13.597656 17.433594 12.347656 16.183594 12.347656 14.644531 C 12.347656 13.105469 13.597656 11.855469 15.136719 11.855469 C 16.675781 11.855469 17.925781 13.105469 17.925781 14.644531 C 17.917969 16.183594 16.667969 17.433594 15.136719 17.433594 Z M 18.121094 12.328125 C 17.753906 12.328125 17.449219 12.023438 17.449219 11.652344 C 17.449219 11.285156 17.753906 10.980469 18.121094 10.980469 C 18.488281 10.980469 18.792969 11.285156 18.792969 11.652344 C 18.792969 12.03125 18.496094 12.328125 18.121094 12.328125 Z M 18.121094 12.328125 " fill-opacity="1" fill-rule="nonzero"/><g clip-path="url(#2a3893a470)"><path fill="#ffffff" d="M 15.136719 6.304688 C 10.527344 6.304688 6.789062 10.042969 6.789062 14.652344 C 6.789062 19.265625 10.527344 23 15.136719 23 C 19.746094 23 23.484375 19.265625 23.484375 14.652344 C 23.476562 10.042969 19.742188 6.304688 15.136719 6.304688 Z M 20.609375 17.140625 C 20.609375 18.785156 19.261719 20.132812 17.617188 20.132812 L 12.652344 20.132812 C 11.003906 20.132812 9.660156 18.785156 9.660156 17.140625 L 9.660156 12.167969 C 9.660156 10.519531 11.003906 9.175781 12.652344 9.175781 L 17.621094 9.175781 C 19.269531 9.175781 20.613281 10.519531 20.613281 12.167969 L 20.613281 17.140625 Z M 20.609375 17.140625 " fill-opacity="1" fill-rule="nonzero"/></g></svg>