<svg xmlns="http://www.w3.org/2000/svg" xmlns:xlink="http://www.w3.org/1999/xlink" width="500" zoomAndPan="magnify" viewBox="0 0 375 374.999991" height="500" preserveAspectRatio="xMidYMid meet" version="1.0"><defs><g/><clipPath id="3b892e5f4a"><path d="M 20.160156 166.308594 L 354.660156 166.308594 L 354.660156 206.808594 L 20.160156 206.808594 Z M 20.160156 166.308594 " clip-rule="nonzero"/></clipPath></defs><g fill="#222222" fill-opacity="1"><g transform="translate(35.988667, 257.971747)"><g><path d="M 126.074219 -18.710938 L 72.394531 -88.480469 L 105.09375 -122.230469 C 111.386719 -128.523438 115.933594 -133.070312 124.675781 -139.890625 L 115.585938 -139.890625 C 111.039062 -133.070312 106.839844 -128.699219 99.847656 -121.703125 L 43.539062 -64.175781 L 43.539062 -102.46875 C 43.539062 -118.730469 44.066406 -126.601562 45.464844 -139.890625 L 12.242188 -139.890625 C 13.640625 -126.601562 14.164062 -118.730469 14.164062 -102.46875 L 14.164062 -37.421875 C 14.164062 -21.160156 13.640625 -13.289062 12.242188 0 L 45.464844 0 C 44.066406 -13.289062 43.539062 -21.160156 43.539062 -37.421875 L 43.539062 -58.929688 L 51.234375 -66.796875 L 88.832031 -18.710938 C 95.476562 -9.792969 97.921875 -6.820312 101.246094 0 L 144.609375 0 C 136.042969 -6.644531 132.019531 -11.015625 126.074219 -18.710938 Z M 126.074219 -18.710938 "/></g></g></g><g fill="#222222" fill-opacity="1"><g transform="translate(177.096493, 257.971747)"><g><path d="M 158.425781 -66.796875 L 158.425781 -70.46875 L 82.183594 -70.46875 L 92.328125 -56.480469 C 106.667969 -65.222656 121.003906 -66.796875 130.796875 -66.796875 L 138.664062 -66.796875 C 136.742188 -29.203125 119.605469 -5.59375 90.753906 -5.59375 C 58.578125 -5.59375 42.316406 -36.023438 42.316406 -73.617188 C 42.316406 -110.164062 57.179688 -139.714844 84.109375 -139.714844 C 104.21875 -139.714844 114.359375 -120.480469 118.382812 -96.875 L 146.011719 -104.566406 C 133.945312 -127.648438 114.011719 -143.386719 84.109375 -143.386719 C 43.539062 -143.386719 10.492188 -116.109375 10.492188 -71.695312 C 10.492188 -27.277344 39.34375 3.496094 81.660156 3.496094 C 114.535156 3.496094 131.847656 -15.386719 138.664062 -44.765625 L 138.664062 -38.820312 C 138.664062 -25.703125 138.140625 -14.164062 136.394531 0 L 146.535156 0 C 144.785156 -14.164062 144.261719 -25.703125 144.261719 -38.820312 L 144.261719 -66.796875 Z M 158.425781 -66.796875 "/></g></g></g><g clip-path="url(#3b892e5f4a)"><path fill="#ffffff" d="M 20.175781 166.308594 L 354.640625 166.308594 L 354.640625 206.808594 L 20.175781 206.808594 L 20.175781 166.308594 " fill-opacity="1" fill-rule="nonzero"/></g><g fill="#ffadcd" fill-opacity="1"><g transform="translate(51.100877, 191.290607)"><g><path d="M 6.921875 0 L 4.078125 -3.828125 L 2.609375 -2.203125 L 2.609375 0 L 1.140625 0 L 1.140625 -8.671875 L 2.609375 -8.671875 L 2.609375 -4.1875 L 6.734375 -8.671875 L 8.46875 -8.671875 L 5.109375 -4.96875 L 8.6875 0 Z M 6.921875 0 "/></g></g></g><g fill="#ffadcd" fill-opacity="1"><g transform="translate(69.917575, 191.290607)"><g><path d="M 7.328125 -7.359375 L 2.609375 -7.359375 L 2.609375 -5.015625 L 6.84375 -5.015625 L 6.84375 -3.703125 L 2.609375 -3.703125 L 2.609375 -1.3125 L 7.484375 -1.3125 L 7.484375 0 L 1.140625 0 L 1.140625 -8.671875 L 7.328125 -8.671875 Z M 7.328125 -7.359375 "/></g></g></g><g fill="#ffadcd" fill-opacity="1"><g transform="translate(87.966294, 191.290607)"><g><path d="M 7.328125 -7.359375 L 2.609375 -7.359375 L 2.609375 -5.015625 L 6.84375 -5.015625 L 6.84375 -3.703125 L 2.609375 -3.703125 L 2.609375 -1.3125 L 7.484375 -1.3125 L 7.484375 0 L 1.140625 0 L 1.140625 -8.671875 L 7.328125 -8.671875 Z M 7.328125 -7.359375 "/></g></g></g><g fill="#ffadcd" fill-opacity="1"><g transform="translate(106.015016, 191.290607)"><g><path d="M 7.078125 -4.265625 L 8.34375 -4.265625 L 8.34375 -1.0625 C 7.90625 -0.726562 7.378906 -0.457031 6.765625 -0.25 C 6.160156 -0.0390625 5.566406 0.0625 4.984375 0.0625 C 3.703125 0.0625 2.617188 -0.359375 1.734375 -1.203125 C 0.859375 -2.054688 0.421875 -3.097656 0.421875 -4.328125 C 0.421875 -5.566406 0.863281 -6.601562 1.75 -7.4375 C 2.644531 -8.28125 3.75 -8.703125 5.0625 -8.703125 C 5.675781 -8.703125 6.273438 -8.59375 6.859375 -8.375 C 7.453125 -8.15625 7.96875 -7.863281 8.40625 -7.5 L 7.578125 -6.421875 C 6.859375 -7.078125 6.019531 -7.40625 5.0625 -7.40625 C 4.175781 -7.40625 3.425781 -7.109375 2.8125 -6.515625 C 2.207031 -5.921875 1.90625 -5.195312 1.90625 -4.34375 C 1.90625 -3.46875 2.210938 -2.734375 2.828125 -2.140625 C 3.441406 -1.546875 4.191406 -1.25 5.078125 -1.25 C 5.742188 -1.25 6.410156 -1.445312 7.078125 -1.84375 Z M 7.078125 -4.265625 "/></g></g></g><g fill="#ffadcd" fill-opacity="1"><g transform="translate(125.215706, 191.290607)"><g><path d="M 6.734375 -1.953125 L 2.359375 -1.953125 L 1.53125 0 L 0.015625 0 L 3.84375 -8.671875 L 5.34375 -8.671875 L 9.125 0 L 7.578125 0 Z M 6.1875 -3.265625 L 4.546875 -7.109375 L 2.90625 -3.265625 Z M 6.1875 -3.265625 "/></g></g></g><g fill="#ffadcd" fill-opacity="1"><g transform="translate(144.280142, 191.290607)"><g><path d="M 8.65625 0 L 7.21875 0 L 2.609375 -6.21875 L 2.609375 0 L 1.140625 0 L 1.140625 -8.671875 L 2.578125 -8.671875 L 7.21875 -2.4375 L 7.21875 -8.671875 L 8.65625 -8.671875 Z M 8.65625 0 "/></g></g></g><g fill="#ffadcd" fill-opacity="1"><g transform="translate(164.013463, 191.290607)"><g/></g></g><g fill="#ffadcd" fill-opacity="1"><g transform="translate(177.132236, 191.290607)"><g><path d="M 7.078125 -4.265625 L 8.34375 -4.265625 L 8.34375 -1.0625 C 7.90625 -0.726562 7.378906 -0.457031 6.765625 -0.25 C 6.160156 -0.0390625 5.566406 0.0625 4.984375 0.0625 C 3.703125 0.0625 2.617188 -0.359375 1.734375 -1.203125 C 0.859375 -2.054688 0.421875 -3.097656 0.421875 -4.328125 C 0.421875 -5.566406 0.863281 -6.601562 1.75 -7.4375 C 2.644531 -8.28125 3.75 -8.703125 5.0625 -8.703125 C 5.675781 -8.703125 6.273438 -8.59375 6.859375 -8.375 C 7.453125 -8.15625 7.96875 -7.863281 8.40625 -7.5 L 7.578125 -6.421875 C 6.859375 -7.078125 6.019531 -7.40625 5.0625 -7.40625 C 4.175781 -7.40625 3.425781 -7.109375 2.8125 -6.515625 C 2.207031 -5.921875 1.90625 -5.195312 1.90625 -4.34375 C 1.90625 -3.46875 2.210938 -2.734375 2.828125 -2.140625 C 3.441406 -1.546875 4.191406 -1.25 5.078125 -1.25 C 5.742188 -1.25 6.410156 -1.445312 7.078125 -1.84375 Z M 7.078125 -4.265625 "/></g></g></g><g fill="#ffadcd" fill-opacity="1"><g transform="translate(196.332927, 191.290607)"><g><path d="M 8.515625 -8.671875 L 8.515625 -3.59375 C 8.515625 -2.457031 8.175781 -1.5625 7.5 -0.90625 C 6.832031 -0.257812 5.910156 0.0625 4.734375 0.0625 C 3.566406 0.0625 2.644531 -0.257812 1.96875 -0.90625 C 1.300781 -1.5625 0.96875 -2.457031 0.96875 -3.59375 L 0.96875 -8.671875 L 2.421875 -8.671875 L 2.421875 -3.59375 C 2.421875 -2.863281 2.628906 -2.289062 3.046875 -1.875 C 3.472656 -1.457031 4.046875 -1.25 4.765625 -1.25 C 5.472656 -1.25 6.03125 -1.453125 6.4375 -1.859375 C 6.84375 -2.273438 7.046875 -2.851562 7.046875 -3.59375 L 7.046875 -8.671875 Z M 8.515625 -8.671875 "/></g></g></g><g fill="#ffadcd" fill-opacity="1"><g transform="translate(215.719423, 191.290607)"><g><path d="M 2.609375 0 L 1.140625 0 L 1.140625 -8.671875 L 2.609375 -8.671875 Z M 2.609375 0 "/></g></g></g><g fill="#ffadcd" fill-opacity="1"><g transform="translate(229.38321, 191.290607)"><g><path d="M 1.140625 -8.671875 L 4.703125 -8.671875 C 5.992188 -8.671875 7.0625 -8.257812 7.90625 -7.4375 C 8.757812 -6.625 9.1875 -5.585938 9.1875 -4.328125 C 9.1875 -3.078125 8.757812 -2.039062 7.90625 -1.21875 C 7.050781 -0.40625 5.96875 0 4.65625 0 L 1.140625 0 Z M 2.609375 -7.359375 L 2.609375 -1.3125 L 4.734375 -1.3125 C 5.585938 -1.3125 6.296875 -1.59375 6.859375 -2.15625 C 7.421875 -2.726562 7.703125 -3.453125 7.703125 -4.328125 C 7.703125 -5.203125 7.410156 -5.925781 6.828125 -6.5 C 6.242188 -7.070312 5.523438 -7.359375 4.671875 -7.359375 Z M 2.609375 -7.359375 "/></g></g></g><g fill="#ffadcd" fill-opacity="1"><g transform="translate(248.905971, 191.290607)"><g><path d="M 1.75 -7.4375 C 2.632812 -8.28125 3.722656 -8.703125 5.015625 -8.703125 C 6.316406 -8.703125 7.40625 -8.28125 8.28125 -7.4375 C 9.164062 -6.601562 9.609375 -5.566406 9.609375 -4.328125 C 9.609375 -3.097656 9.164062 -2.054688 8.28125 -1.203125 C 7.40625 -0.359375 6.316406 0.0625 5.015625 0.0625 C 3.722656 0.0625 2.632812 -0.359375 1.75 -1.203125 C 0.863281 -2.054688 0.421875 -3.097656 0.421875 -4.328125 C 0.421875 -5.566406 0.863281 -6.601562 1.75 -7.4375 Z M 5.03125 -7.390625 C 4.164062 -7.390625 3.425781 -7.09375 2.8125 -6.5 C 2.207031 -5.914062 1.90625 -5.191406 1.90625 -4.328125 C 1.90625 -3.472656 2.210938 -2.742188 2.828125 -2.140625 C 3.441406 -1.546875 4.175781 -1.25 5.03125 -1.25 C 5.882812 -1.25 6.609375 -1.546875 7.203125 -2.140625 C 7.804688 -2.742188 8.109375 -3.472656 8.109375 -4.328125 C 8.109375 -5.191406 7.804688 -5.914062 7.203125 -6.5 C 6.609375 -7.09375 5.882812 -7.390625 5.03125 -7.390625 Z M 5.03125 -7.390625 "/></g></g></g><g fill="#ffadcd" fill-opacity="1"><g transform="translate(268.862268, 191.290607)"><g><path d="M 7.0625 -7.359375 L 4.3125 -7.359375 L 4.3125 0 L 2.84375 0 L 2.84375 -7.359375 L 0.109375 -7.359375 L 0.109375 -8.671875 L 7.0625 -8.671875 Z M 7.0625 -7.359375 "/></g></g></g><g fill="#ffadcd" fill-opacity="1"><g transform="translate(285.957199, 191.290607)"><g><path d="M 7.0625 -7.359375 L 4.3125 -7.359375 L 4.3125 0 L 2.84375 0 L 2.84375 -7.359375 L 0.109375 -7.359375 L 0.109375 -8.671875 L 7.0625 -8.671875 Z M 7.0625 -7.359375 "/></g></g></g><g fill="#ffadcd" fill-opacity="1"><g transform="translate(303.05213, 191.290607)"><g><path d="M 7.0625 -7.359375 L 4.3125 -7.359375 L 4.3125 0 L 2.84375 0 L 2.84375 -7.359375 L 0.109375 -7.359375 L 0.109375 -8.671875 L 7.0625 -8.671875 Z M 7.0625 -7.359375 "/></g></g></g><g fill="#ffadcd" fill-opacity="1"><g transform="translate(320.147062, 191.290607)"><g><path d="M 2.609375 0 L 1.140625 0 L 1.140625 -8.671875 L 2.609375 -8.671875 Z M 2.609375 0 "/></g></g></g></svg>