<svg xmlns="http://www.w3.org/2000/svg" xmlns:xlink="http://www.w3.org/1999/xlink" width="40" zoomAndPan="magnify" viewBox="0 0 30 30.000001" height="40" preserveAspectRatio="xMidYMid meet" version="1.0"><defs><clipPath id="161cc13be9"><path d="M 0.484375 0 L 29.515625 0 L 29.515625 29.03125 L 0.484375 29.03125 Z M 0.484375 0 " clip-rule="nonzero"/></clipPath><clipPath id="658222b5cb"><path d="M 6.789062 6.304688 L 23.484375 6.304688 L 23.484375 23 L 6.789062 23 Z M 6.789062 6.304688 " clip-rule="nonzero"/></clipPath></defs><g clip-path="url(#161cc13be9)"><path fill="#ffffff" d="M 0.484375 0 L 29.515625 0 L 29.515625 36.289062 L 0.484375 36.289062 Z M 0.484375 0 " fill-opacity="1" fill-rule="nonzero"/><path fill="#ffffff" d="M 0.484375 0 L 29.515625 0 L 29.515625 29.03125 L 0.484375 29.03125 Z M 0.484375 0 " fill-opacity="1" fill-rule="nonzero"/><path fill="#ffffff" d="M 0.484375 0 L 29.515625 0 L 29.515625 29.03125 L 0.484375 29.03125 Z M 0.484375 0 " fill-opacity="1" fill-rule="nonzero"/></g><g clip-path="url(#658222b5cb)"><path fill="#ffadcd" d="M 15.136719 6.304688 C 10.527344 6.304688 6.789062 10.042969 6.789062 14.652344 C 6.789062 19.265625 10.527344 23 15.136719 23 C 19.746094 23 23.484375 19.265625 23.484375 14.652344 C 23.476562 10.042969 19.742188 6.304688 15.136719 6.304688 Z M 12.6875 19.097656 L 10.730469 19.097656 L 10.730469 12.78125 L 12.6875 12.78125 Z M 11.710938 11.941406 C 11.082031 11.941406 10.570312 11.429688 10.570312 10.800781 C 10.570312 10.171875 11.082031 9.660156 11.710938 9.660156 C 12.339844 9.660156 12.851562 10.171875 12.851562 10.800781 C 12.851562 11.429688 12.339844 11.941406 11.710938 11.941406 Z M 20.042969 19.097656 L 18.085938 19.097656 L 18.085938 15.941406 C 18.085938 15.492188 18.085938 14.378906 17.089844 14.378906 C 15.953125 14.378906 15.882812 15.527344 15.882812 15.527344 L 15.882812 19.097656 L 13.929688 19.097656 L 13.929688 12.78125 L 15.886719 12.78125 L 15.886719 13.648438 C 16.351562 12.710938 17.304688 12.636719 17.925781 12.636719 C 18.632812 12.636719 19.269531 12.910156 19.632812 13.519531 C 19.941406 14.03125 20.042969 14.777344 20.042969 15.941406 Z M 20.042969 19.097656 " fill-opacity="1" fill-rule="nonzero"/></g></svg>