<?xml version="1.0" encoding="UTF-8" standalone="no"?>
<svg
   width="627.54401"
   zoomAndPan="magnify"
   viewBox="0 0 470.658 132.58649"
   height="176.782"
   preserveAspectRatio="xMidYMid"
   version="1.0"
   id="svg799"
   xmlns="http://www.w3.org/2000/svg"
   xmlns:svg="http://www.w3.org/2000/svg">
  <defs
     id="defs553">
    <g
       id="g551" />
  </defs>
  <g
     fill="#302e2a"
     fill-opacity="1"
     id="g561"
     transform="translate(-363.03616,-98.730839)">
    <g
       transform="translate(365.44241,163.68787)"
       id="g559">
      <g
         id="g557">
        <path
           d="m 34.949219,5.570312 c 6.332031,0 12.535156,-3.164062 13.925781,-4.050781 0.253906,-0.125 0.382812,-0.378906 0.382812,-0.632812 0,-0.378907 -0.382812,-0.761719 -0.761718,-0.761719 -0.125,0 -0.253906,0.128906 -0.378906,0.128906 -1.394532,0.886719 -7.089844,3.796875 -13.167969,3.796875 -6.207031,0 -7.976563,-6.203125 -9.878907,-12.660156 -1.011718,-3.417969 -2.023437,-6.839844 -3.925781,-9.246094 9.878907,-2.53125 25.199219,-8.355469 32.921875,-16.460937 0.128906,-0.25 0.128906,-0.378906 0.128906,-0.503906 0,-0.507813 -0.253906,-0.761719 -0.632812,-0.761719 -0.253906,0 -0.507812,0 -0.632812,0.253906 -7.726563,8.105469 -23.300782,14.054687 -32.921876,16.335937 -0.632812,-0.632812 -1.394531,-1.140624 -2.28125,-1.394531 6.457032,-7.34375 13.675782,-14.5625 20.007813,-19.878906 0.125,-0.128906 0.253906,-0.378906 0.253906,-0.632813 0,-0.382812 -0.253906,-0.632812 -0.761719,-0.632812 -0.125,0 -0.253906,0 -0.378906,0.125 -6.585937,5.570312 -14.183594,13.167969 -20.894531,20.765625 -3.289063,0 -6.078125,0.761719 -6.078125,2.40625 0,1.011719 1.140625,1.519531 2.535156,1.648437 C 5.570312,-8.609375 0,-1.140625 -2.277344,3.417969 -2.40625,3.546875 -2.40625,3.546875 -2.40625,3.796875 c 0,0.382813 0.378906,0.636719 0.761719,0.636719 0.25,0 0.503906,-0.128906 0.632812,-0.382813 2.40625,-4.558593 8.230469,-12.40625 15.320313,-20.636719 1.394531,-0.128906 3.292968,-0.382812 5.316406,-0.886718 1.902344,2.023437 2.914062,5.445312 4.054688,9.242187 1.773437,6.457031 3.925781,13.800781 11.269531,13.800781 z m -21.78125,-23.550781 c -0.632813,0 -1.898438,0 -1.898438,-0.253906 0,-0.378906 1.644531,-0.757813 3.417969,-0.886719 l -1.011719,1.015625 c -0.128906,0.125 -0.253906,0.125 -0.507812,0.125 z m 2.40625,-0.125 1.011719,-1.015625 c 0.382812,0 0.636718,0.128906 1.015624,0.253906 0.378907,0.125 0.378907,0.253907 0,0.378907 z m 0,0"
           id="path555" />
      </g>
    </g>
  </g>
  <g
     fill="#302e2a"
     fill-opacity="1"
     id="g569"
     transform="translate(-363.03616,-98.730839)">
    <g
       transform="translate(407.4813,163.68787)"
       id="g567">
      <g
         id="g565">
        <path
           d="m 4.179688,0.378906 c 3.925781,0 16.207031,-3.542968 25.070312,-10.128906 0.253906,-0.125 0.378906,-0.378906 0.378906,-0.632812 0,-0.378907 -0.378906,-0.632813 -0.757812,-0.632813 -0.128906,0 -0.253906,0 -0.378906,0.125 -8.738282,6.332031 -20.640626,9.75 -24.3125,9.75 -2.914063,0 -4.433594,-0.757813 -4.433594,-2.40625 0,-1.644531 1.265625,-3.671875 2.914062,-5.445313 0.757813,0.382813 1.773438,0.507813 3.164063,0.507813 2.28125,0 5.191406,-1.898437 5.191406,-3.542969 0,-1.269531 -0.886719,-2.027344 -2.277344,-2.027344 -4.179687,0 -10.511719,6.332032 -10.511719,10.507813 0,2.535156 2.28125,3.925781 5.953126,3.925781 z M 5.824219,-9.875 c -0.886719,0 -1.519531,-0.128906 -2.027344,-0.253906 1.648437,-1.394532 3.421875,-2.40625 4.941406,-2.40625 0.632813,0 0.886719,0.125 0.886719,0.507812 0,0.757813 -2.40625,2.152344 -3.800781,2.152344 z m 0,0"
           id="path563" />
      </g>
    </g>
  </g>
  <g
     fill="#302e2a"
     fill-opacity="1"
     id="g577"
     transform="translate(-363.03616,-98.730839)">
    <g
       transform="translate(433.43904,163.68787)"
       id="g575">
      <g
         id="g573">
        <path
           d="m 4.179688,0.378906 c 3.925781,0 16.207031,-3.542968 25.070312,-10.128906 0.253906,-0.125 0.378906,-0.378906 0.378906,-0.632812 0,-0.378907 -0.378906,-0.632813 -0.757812,-0.632813 -0.128906,0 -0.253906,0 -0.378906,0.125 -8.738282,6.332031 -20.640626,9.75 -24.3125,9.75 -2.914063,0 -4.433594,-0.757813 -4.433594,-2.40625 0,-1.644531 1.265625,-3.671875 2.914062,-5.445313 0.757813,0.382813 1.773438,0.507813 3.164063,0.507813 2.28125,0 5.191406,-1.898437 5.191406,-3.542969 0,-1.269531 -0.886719,-2.027344 -2.277344,-2.027344 -4.179687,0 -10.511719,6.332032 -10.511719,10.507813 0,2.535156 2.28125,3.925781 5.953126,3.925781 z M 5.824219,-9.875 c -0.886719,0 -1.519531,-0.128906 -2.027344,-0.253906 1.648437,-1.394532 3.421875,-2.40625 4.941406,-2.40625 0.632813,0 0.886719,0.125 0.886719,0.507812 0,0.757813 -2.40625,2.152344 -3.800781,2.152344 z m 0,0"
           id="path571" />
      </g>
    </g>
  </g>
  <g
     fill="#302e2a"
     fill-opacity="1"
     id="g585"
     transform="translate(-363.03616,-98.730839)">
    <g
       transform="translate(459.39679,163.68787)"
       id="g583">
      <g
         id="g581">
        <path
           d="m -48.371094,51.789062 c 4.8125,0 12.664063,-5.699218 24.058594,-17.222656 6.585938,-6.710937 12.15625,-12.40625 16.714844,-17.34375 C -2.53125,13.800781 3.164062,10.128906 9.242188,6.203125 20.640625,-1.011719 29.882812,-7.089844 32.921875,-9.496094 33.175781,-9.625 33.175781,-9.875 33.175781,-10.128906 c 0,-0.378906 -0.253906,-0.632813 -0.632812,-0.632813 -0.253907,0 -0.378907,0 -0.507813,0.125 -3.039062,2.40625 -12.28125,8.359375 -23.550781,15.574219 l -12.15625,7.976562 c 7.976563,-8.863281 12.535156,-14.6875 15.699219,-18.738281 3.167968,-4.179687 3.925781,-5.320312 3.925781,-6.585937 0,-1.265625 -1.390625,-1.898438 -3.164063,-1.898438 -6.710937,0 -19.375,7.851563 -19.375,12.03125 0,1.390625 0.761719,2.152344 2.152344,2.152344 2.027344,0 6.460938,-2.152344 13.929688,-6.710938 2.027344,-1.269531 2.152344,-1.015624 1.394531,0.125 -3.671875,4.558594 -9.117187,11.648438 -19.5,22.792969 -30.644531,20.003907 -42.800781,29.25 -42.800781,32.792969 0,1.773438 1.265625,2.914062 3.039062,2.914062 z m 43.9375,-53.308593 c -0.503906,0 -0.632812,-0.253907 -0.632812,-0.757813 0,-3.167968 12.15625,-10.511718 17.855468,-10.511718 1.011719,0 1.644532,0.253906 1.644532,0.378906 0,0.253906 0,0.382812 -0.125,0.632812 l -0.378906,0.382813 c -1.015626,0.632812 -2.660157,1.769531 -5.191407,3.289062 -7.21875,4.308594 -11.652343,6.585938 -13.171875,6.585938 z m -43.9375,51.789062 c -1.011718,0 -1.644531,-0.507812 -1.644531,-1.394531 0,-2.53125 11.140625,-11.140625 37.226563,-28.363281 -3.671876,3.925781 -7.851563,8.230469 -12.535157,13.042969 -11.144531,11.144531 -18.867187,16.714843 -23.046875,16.714843 z m 0,0"
           id="path579" />
      </g>
    </g>
  </g>
  <g
     fill="#302e2a"
     fill-opacity="1"
     id="g593"
     transform="translate(-363.03616,-98.730839)">
    <g
       transform="translate(489.27984,163.68787)"
       id="g591">
      <g
         id="g589">
        <path
           d="m 17.09375,0.125 c 4.433594,0 16.082031,-4.808594 23.171875,-9.875 0.128906,-0.125 0.253906,-0.378906 0.253906,-0.632812 0,-0.378907 -0.253906,-0.632813 -0.632812,-0.632813 -0.253907,0 -0.378907,0 -0.507813,0.125 -7.089844,5.320313 -18.359375,9.496094 -22.285156,9.496094 -2.152344,0 -3.164062,-0.632813 -3.164062,-2.277344 0,-2.40625 2.023437,-5.445313 3.542968,-7.597656 0.886719,-1.265625 1.394532,-2.027344 1.394532,-2.53125 0,-0.507813 -0.378907,-0.886719 -0.886719,-0.886719 -0.632813,0 -2.152344,1.011719 -4.8125,3.039062 -0.757813,-1.394531 -1.644531,-1.898437 -3.542969,-1.898437 -4.308594,0 -15.703125,7.089844 -15.703125,11.394531 0,1.265625 0.886719,2.027344 2.28125,2.027344 3.542969,0 11.394531,-5.828125 16.710937,-9.625 1.015626,-0.757812 1.902344,-1.394531 2.535157,-1.773438 0.253906,-0.253906 0.632812,-0.125 0.253906,0.253907 -1.519531,2.277343 -3.167969,5.066406 -3.167969,7.597656 0,2.53125 1.519532,3.796875 4.558594,3.796875 z M -3.796875,-1.644531 c -0.636719,0 -0.886719,-0.128907 -0.886719,-0.507813 0,-3.039062 10,-10.003906 14.308594,-10.003906 1.390625,0 1.769531,0.253906 2.277344,1.265625 -5.191406,3.925781 -12.660156,9.246094 -15.699219,9.246094 z m 0,0"
           id="path587" />
      </g>
    </g>
  </g>
  <g
     fill="#302e2a"
     fill-opacity="1"
     id="g601"
     transform="translate(-363.03616,-98.730839)">
    <g
       transform="translate(526.2538,163.68787)"
       id="g599">
      <g
         id="g597">
        <path
           d="m -3.546875,0 c 0.507813,0 1.648437,-1.011719 3.167969,-2.027344 4.9375,-3.542968 14.941406,-10.886718 18.992187,-10.886718 0.507813,0 0.632813,0.378906 0.632813,0.632812 0,0.632812 -0.503906,2.65625 -1.011719,4.429688 -0.378906,1.648437 -0.761719,3.292968 -0.761719,4.054687 0,1.519531 1.140625,2.402344 2.914063,2.402344 4.558593,0 12.535156,-3.289063 20.257812,-8.355469 0.253907,-0.125 0.382813,-0.378906 0.382813,-0.632812 0,-0.378907 -0.382813,-0.632813 -0.761719,-0.632813 h -0.378906 c -7.597657,5.0625 -15.320313,8.230469 -19.5,8.230469 -1.011719,0 -1.394531,-0.378906 -1.394531,-1.011719 0,-0.636719 0.253906,-2.027344 0.761718,-3.675781 0.378906,-1.898438 0.886719,-3.921875 0.886719,-5.0625 0,-1.140625 -0.761719,-1.773438 -2.027344,-1.773438 -3.292969,0 -9.242187,3.417969 -19.246093,10.636719 -0.632813,0.378906 -0.761719,-0.125 -0.507813,-0.507813 2.785156,-3.925781 8.230469,-10.253906 13.296875,-14.054687 0.125,-0.125 0.253906,-0.378906 0.253906,-0.632813 0,-0.378906 -0.253906,-0.632812 -0.632812,-0.632812 -0.253906,0 -0.382813,0 -0.507813,0.125 C 3.925781,-13.800781 -4.179688,-3.039062 -4.558594,-1.394531 -4.683594,-0.632812 -4.304688,0 -3.546875,0 Z m 0,0"
           id="path595" />
      </g>
    </g>
  </g>
  <g
     fill="#302e2a"
     fill-opacity="1"
     id="g607">
    <g
       transform="translate(563.60761,163.68787)"
       id="g605">
      <g
         id="g603" />
    </g>
  </g>
  <g
     fill="#302e2a"
     fill-opacity="1"
     id="g615"
     transform="translate(-363.03616,-98.730839)">
    <g
       transform="translate(591.59134,163.68787)"
       id="g613">
      <g
         id="g611">
        <path
           d="m -1.773438,28.109375 c 8.992188,0 23.171876,-12.28125 33.808594,-25.832031 10.636719,-5.316406 20.386719,-10 23.550782,-12.027344 0.253906,-0.125 0.382812,-0.378906 0.382812,-0.632812 0,-0.378907 -0.382812,-0.632813 -0.761719,-0.632813 h -0.378906 c -2.28125,1.519531 -7.851563,4.304687 -14.816406,7.722656 l -6.078125,3.039063 c 3.167968,-4.179688 5.828125,-8.484375 7.980468,-12.535156 0.125,-0.378907 0.125,-0.757813 -0.253906,-1.011719 -0.378906,-0.382813 -0.632812,-0.382813 -1.015625,-0.128907 -1.390625,0.761719 -2.785156,1.773438 -4.304687,2.914063 -7.976563,5.316406 -18.992188,12.789063 -28.109375,12.789063 -4.8125,0 -6.710938,-2.152344 -5.953125,-6.332032 2.15625,-12.027344 23.933594,-36.722656 41.40625,-36.722656 3.925781,0 5.953125,1.519531 5.953125,4.8125 0,2.660156 -2.027344,5.699219 -6.332031,10.003906 -0.125,0.128906 -0.253907,0.378906 -0.253907,0.507813 0,0.378906 0.382813,0.757812 0.761719,0.757812 0.125,0 0.378906,-0.125 0.503906,-0.253906 4.6875,-4.558594 6.714844,-7.976563 6.714844,-11.015625 0,-4.050781 -2.660156,-6.328125 -7.347656,-6.328125 -18.105469,0 -40.644532,25.574219 -42.925782,37.984375 -0.882812,5.191406 1.773438,7.976562 7.472657,7.976562 9.625,0 20.894531,-7.597656 28.871093,-13.039062 l 1.265626,-0.886719 c 0.378906,-0.253906 0.757812,0 0.507812,0.503907 -2.152344,3.800781 -4.941406,7.597656 -7.726562,11.398437 -25.703126,13.042969 -36.59375,19.753906 -36.59375,23.929687 0,1.648438 1.265624,3.039063 3.671874,3.039063 z m 0,-1.390625 c -1.644531,0 -2.152343,-0.761719 -2.152343,-1.648438 0,-3.039062 9.878906,-9.367187 32.796875,-21.144531 C 18.742188,16.082031 6.203125,26.71875 -1.773438,26.71875 Z m 0,0"
           id="path609" />
      </g>
    </g>
  </g>
  <g
     fill="#302e2a"
     fill-opacity="1"
     id="g623"
     transform="translate(-363.03616,-98.730839)">
    <g
       transform="translate(644.01331,163.68787)"
       id="g621">
      <g
         id="g619">
        <path
           d="M 14.941406,0 C 19.375,0 31.65625,-5.445312 38.113281,-9.875 c 0.128907,-0.128906 0.253907,-0.253906 0.253907,-0.507812 0,-0.378907 -0.253907,-0.761719 -0.632813,-0.761719 -0.253906,0 -0.378906,0 -0.507813,0.128906 -6.582031,4.558594 -18.359374,9.621094 -22.285156,9.621094 -2.277344,0 -3.164062,-0.757813 -3.164062,-2.402344 0,-2.40625 2.785156,-5.574219 4.683594,-7.726563 1.394531,-1.644531 2.53125,-3.292968 0.761718,-3.292968 -0.761718,0 -2.40625,1.394531 -6.460937,4.6875 C 4.304688,-4.9375 0.632812,-2.40625 -0.886719,-2.40625 c -0.253906,0 -0.378906,-0.253906 -0.378906,-0.632812 0,-1.644532 2.53125,-5.066407 6.835937,-8.863282 0.128907,-0.125 0.253907,-0.253906 0.253907,-0.507812 0,-0.378906 -0.378907,-0.757813 -0.757813,-0.757813 -0.253906,0 -0.382812,0.125 -0.507812,0.253907 -4.683594,4.175781 -7.34375,7.722656 -7.34375,10 0,1.140624 0.757812,1.902343 1.898437,1.902343 2.027344,0 5.699219,-2.40625 12.535157,-7.980469 1.519531,-1.136718 1.394531,-0.882812 0.507812,0.382813 -1.011719,1.644531 -1.773438,3.292969 -1.773438,4.8125 0,2.53125 1.519532,3.796875 4.558594,3.796875 z m 0,0"
           id="path617" />
      </g>
    </g>
  </g>
  <g
     fill="#302e2a"
     fill-opacity="1"
     id="g631"
     transform="translate(-363.03616,-98.730839)">
    <g
       transform="translate(678.83469,163.68787)"
       id="g629">
      <g
         id="g627">
        <path
           d="m 9.117188,-16.335938 c 0.253906,0 0.378906,0 0.507812,-0.25 l 0.503906,-0.507812 c 0.378906,-0.632812 0.886719,-1.265625 1.140625,-1.519531 0.125,-0.128907 0.125,-0.378907 0.125,-0.507813 0,-0.378906 -0.25,-0.757812 -0.632812,-0.757812 -0.253907,0 -0.503907,0.125 -0.632813,0.253906 -0.253906,0.378906 -0.757812,1.136719 -1.136718,1.644531 l -0.507813,0.507813 c -0.128906,0.125 -0.128906,0.25 -0.128906,0.503906 0,0.382812 0.382812,0.632812 0.761719,0.632812 z M 1.011719,0.757812 c 4.304687,0 17.601562,-6.203124 24.441406,-10.507812 0.125,-0.125 0.25,-0.378906 0.25,-0.632812 0,-0.378907 -0.25,-0.632813 -0.757813,-0.632813 H 24.566406 C 17.980469,-6.710938 4.9375,-0.757812 1.011719,-0.757812 c -1.390625,0 -2.023438,-0.507813 -2.023438,-1.773438 0,-1.773438 3.039063,-6.078125 7.34375,-10.511719 0.125,-0.125 0.253907,-0.253906 0.253907,-0.503906 0,-0.382813 -0.382813,-0.636719 -0.761719,-0.636719 -0.253907,0 -0.378907,0 -0.507813,0.128906 -4.683594,4.8125 -7.722656,9.117188 -7.722656,11.523438 0,2.023438 1.265625,3.289062 3.417969,3.289062 z m 0,0"
           id="path625" />
      </g>
    </g>
  </g>
  <g
     fill="#302e2a"
     fill-opacity="1"
     id="g639"
     transform="translate(-363.03616,-98.730839)">
    <g
       transform="translate(700.99375,163.68787)"
       id="g637">
      <g
         id="g635">
        <path
           d="m 12.789062,0.125 c 4.8125,0 16.082032,-3.921875 24.691407,-9.875 0.253906,-0.125 0.378906,-0.378906 0.378906,-0.632812 0,-0.378907 -0.253906,-0.761719 -0.757813,-0.761719 -0.128906,0 -0.253906,0.128906 -0.378906,0.128906 -8.359375,5.824219 -19.375,9.621094 -23.933594,9.621094 -2.152343,0 -3.164062,-0.632813 -3.164062,-2.277344 0,-1.140625 1.265625,-3.417969 3.164062,-6.585937 0,0 0,0 0,0.128906 0,0.378906 0.378907,0.757812 0.757813,0.757812 0.382813,0 0.636719,-0.253906 0.761719,-0.632812 0,-0.757813 -0.125,-1.390625 -0.378906,-1.898438 l 2.40625,-3.546875 c 18.867187,-17.472656 44.824218,-44.570312 44.824218,-47.863281 0,-1.011719 -0.632812,-1.644531 -1.773437,-1.644531 -4.558594,0 -30.644531,29.753906 -43.683594,48.117187 -1.269531,1.136719 -2.40625,2.152344 -3.546875,3.292969 -0.507812,-0.382813 -1.265625,-0.507813 -2.027344,-0.507813 -5.695312,0 -14.5625,7.46875 -14.5625,12.15625 0,1.140626 0.761719,1.773438 1.648438,1.773438 2.152344,0 6.835937,-4.054688 13.421875,-10.132812 0.507812,-0.378907 0.757812,-0.125 0.378906,0.382812 -1.773437,2.910156 -2.785156,5.0625 -2.785156,6.203125 0,2.53125 1.644531,3.796875 4.558593,3.796875 z m 8.609376,-22.410156 c 13.675781,-17.855469 34.570312,-41.28125 37.988281,-41.28125 0.378906,0 0.378906,0.128906 0.378906,0.253906 0,2.40625 -20.765625,24.058594 -38.367187,41.027344 z M -2.53125,-1.644531 c -0.128906,0 -0.382812,0 -0.382812,-0.382813 0,-3.796875 8.230468,-10.507812 13.042968,-10.507812 h 0.886719 C 3.925781,-5.953125 -1.265625,-1.644531 -2.53125,-1.644531 Z m 0,0"
           id="path633" />
      </g>
    </g>
  </g>
  <g
     fill="#302e2a"
     fill-opacity="1"
     id="g647"
     transform="translate(-363.03616,-98.730839)">
    <g
       transform="translate(735.30862,163.68787)"
       id="g645">
      <g
         id="g643">
        <path
           d="m -0.757812,1.011719 c 4.050781,0 7.976562,-6.835938 7.214843,-11.773438 0,-0.253906 0.128907,-0.507812 0.378907,-0.253906 7.347656,4.558594 17.097656,5.0625 23.679687,1.265625 0.253906,-0.125 0.507813,-0.378906 0.507813,-0.632812 0,-0.378907 -0.378907,-0.632813 -0.761719,-0.632813 h -0.378907 c -6.078124,3.542969 -14.941406,3.039063 -21.777343,-1.011719 -0.253907,-0.128906 -0.253907,-0.253906 0,-0.382812 0.125,-0.125 0.378906,-0.125 0.503906,-0.253906 0.382813,0 0.507813,-0.25 0.507813,-0.632813 0,-0.378906 -0.253907,-0.757813 -0.632813,-0.757813 -0.128906,0 -0.253906,0 -0.253906,0.125 -0.632813,0.128907 -1.265625,0.382813 -1.773438,0.632813 -0.253906,0.128906 -0.253906,0.128906 -0.503906,0 -0.507813,-0.125 -1.015625,0.253906 -1.269531,0.761719 0,0.125 -0.125,0.125 -0.125,0.253906 -4.433594,2.65625 -7.722656,6.835938 -7.722656,10.382812 0,1.773438 0.886718,2.910157 2.40625,2.910157 z m 0,-1.390625 c -0.636719,0 -1.015626,-0.507813 -1.015626,-1.519532 0,-2.914062 2.914063,-6.585937 6.839844,-8.992187 0.632813,4.054687 -2.789062,10.511719 -5.824218,10.511719 z m 0,0"
           id="path641" />
      </g>
    </g>
  </g>
  <g
     fill="#302e2a"
     fill-opacity="1"
     id="g655"
     transform="translate(-363.03616,-98.730839)">
    <g
       transform="translate(762.65919,163.68787)"
       id="g653">
      <g
         id="g651">
        <path
           d="m -26.71875,32.164062 c 0.632812,0 1.394531,-1.015624 2.027344,-2.027343 0.253906,-0.378907 0.253906,-0.761719 0,-0.886719 12.027344,-18.867188 27.351562,-38.621094 43.050781,-56.980469 11.015625,-0.507812 22.285156,-0.507812 33.050781,-0.125 0.503906,0 0.757813,-0.253906 0.757813,-0.636719 0,-0.378906 -0.253907,-0.757812 -0.632813,-0.757812 -10.507812,-0.378906 -21.273437,-0.378906 -31.78125,0 6.835938,-7.976562 13.675782,-15.703125 20.511719,-23.046875 0.128906,-0.125 0.128906,-0.378906 0.128906,-0.503906 0,-0.382813 -0.253906,-0.761719 -0.761719,-0.761719 -0.125,0 -0.378906,0.128906 -0.507812,0.253906 -7.089844,7.722656 -14.308594,15.828125 -21.398438,24.183594 -11.394531,0.382812 -22.410156,1.269531 -32.289062,2.535156 -0.378906,0.125 -0.632812,0.378906 -0.632812,0.757813 0,0.378906 0.378906,0.761719 0.761718,0.761719 h 0.125 c 9.371094,-1.265626 19.878906,-2.152344 30.769532,-2.660157 -15.953126,18.738281 -31.277344,38.621094 -43.433594,57.742188 -0.125,0.25 -0.25,0.503906 -0.378906,0.757812 l -0.125,0.125 c -0.253907,0.761719 -0.128907,1.269531 0.757812,1.269531 z m 0,0"
           id="path649" />
      </g>
    </g>
  </g>
  <g
     fill="#302e2a"
     fill-opacity="1"
     id="g663"
     transform="translate(-363.03616,-98.730839)">
    <g
       transform="translate(781.52605,163.68787)"
       id="g661">
      <g
         id="g659">
        <path
           d="m -26.71875,32.164062 c 0.632812,0 1.394531,-1.015624 2.027344,-2.027343 0.253906,-0.378907 0.253906,-0.761719 0,-0.886719 12.027344,-18.867188 27.351562,-38.621094 43.050781,-56.980469 11.015625,-0.507812 22.285156,-0.507812 33.050781,-0.125 0.503906,0 0.757813,-0.253906 0.757813,-0.636719 0,-0.378906 -0.253907,-0.757812 -0.632813,-0.757812 -10.507812,-0.378906 -21.273437,-0.378906 -31.78125,0 6.835938,-7.976562 13.675782,-15.703125 20.511719,-23.046875 0.128906,-0.125 0.128906,-0.378906 0.128906,-0.503906 0,-0.382813 -0.253906,-0.761719 -0.761719,-0.761719 -0.125,0 -0.378906,0.128906 -0.507812,0.253906 -7.089844,7.722656 -14.308594,15.828125 -21.398438,24.183594 -11.394531,0.382812 -22.410156,1.269531 -32.289062,2.535156 -0.378906,0.125 -0.632812,0.378906 -0.632812,0.757813 0,0.378906 0.378906,0.761719 0.761718,0.761719 h 0.125 c 9.371094,-1.265626 19.878906,-2.152344 30.769532,-2.660157 -15.953126,18.738281 -31.277344,38.621094 -43.433594,57.742188 -0.125,0.25 -0.25,0.503906 -0.378906,0.757812 l -0.125,0.125 c -0.253907,0.761719 -0.128907,1.269531 0.757812,1.269531 z m 0,0"
           id="path657" />
      </g>
    </g>
  </g>
  <g
     fill="#302e2a"
     fill-opacity="1"
     id="g671"
     transform="translate(-363.03616,-98.730839)">
    <g
       transform="translate(800.39291,163.68787)"
       id="g669">
      <g
         id="g667">
        <path
           d="m 9.117188,-16.335938 c 0.253906,0 0.378906,0 0.507812,-0.25 l 0.503906,-0.507812 c 0.378906,-0.632812 0.886719,-1.265625 1.140625,-1.519531 0.125,-0.128907 0.125,-0.378907 0.125,-0.507813 0,-0.378906 -0.25,-0.757812 -0.632812,-0.757812 -0.253907,0 -0.503907,0.125 -0.632813,0.253906 -0.253906,0.378906 -0.757812,1.136719 -1.136718,1.644531 l -0.507813,0.507813 c -0.128906,0.125 -0.128906,0.25 -0.128906,0.503906 0,0.382812 0.382812,0.632812 0.761719,0.632812 z M 1.011719,0.757812 c 4.304687,0 17.601562,-6.203124 24.441406,-10.507812 0.125,-0.125 0.25,-0.378906 0.25,-0.632812 0,-0.378907 -0.25,-0.632813 -0.757813,-0.632813 H 24.566406 C 17.980469,-6.710938 4.9375,-0.757812 1.011719,-0.757812 c -1.390625,0 -2.023438,-0.507813 -2.023438,-1.773438 0,-1.773438 3.039063,-6.078125 7.34375,-10.511719 0.125,-0.125 0.253907,-0.253906 0.253907,-0.503906 0,-0.382813 -0.382813,-0.636719 -0.761719,-0.636719 -0.253907,0 -0.378907,0 -0.507813,0.128906 -4.683594,4.8125 -7.722656,9.117188 -7.722656,11.523438 0,2.023438 1.265625,3.289062 3.417969,3.289062 z m 0,0"
           id="path665" />
      </g>
    </g>
  </g>
  <g
     fill="#302e2a"
     fill-opacity="1"
     id="g679"
     transform="translate(-363.03616,-98.730839)">
    <g
       transform="translate(428.16759,229.59889)"
       id="g677">
      <g
         id="g675">
        <path
           d="M 10.078125,-10.265625 V -4.25 c 0,1.335938 -0.398437,2.390625 -1.1875,3.171875 -0.792969,0.773437 -1.886719,1.15625 -3.28125,1.15625 -1.386719,0 -2.480469,-0.382813 -3.28125,-1.15625 -0.792969,-0.78125 -1.1875,-1.835937 -1.1875,-3.171875 v -6.015625 H 2.875 V -4.25 c 0,0.855469 0.242188,1.53125 0.734375,2.03125 0.5,0.492188 1.175781,0.734375 2.03125,0.734375 0.832031,0 1.488281,-0.242187 1.96875,-0.734375 C 8.097656,-2.707031 8.34375,-3.382812 8.34375,-4.25 v -6.015625 z m 0,0"
           id="path673" />
      </g>
    </g>
  </g>
  <g
     fill="#302e2a"
     fill-opacity="1"
     id="g687"
     transform="translate(-363.03616,-98.730839)">
    <g
       transform="translate(451.10312,229.59889)"
       id="g685">
      <g
         id="g683">
        <path
           d="M 6.109375,-5.34375 9.84375,0 H 7.78125 L 5,-3.875 2.25,0 H 0.21875 l 3.75,-5.265625 -3.484375,-5 H 2.5 l 2.5,3.5625 2.53125,-3.5625 h 2.015625 z m 0,0"
           id="path681" />
      </g>
    </g>
  </g>
  <g
     fill="#302e2a"
     fill-opacity="1"
     id="g695"
     transform="translate(-363.03616,-98.730839)">
    <g
       transform="translate(472.98295,229.59889)"
       id="g693">
      <g
         id="g691">
        <path
           d="m 1.125,1.71875 h -1.4375 l 4.65625,-13.6875 h 1.4375 z m 0,0"
           id="path689" />
      </g>
    </g>
  </g>
  <g
     fill="#302e2a"
     fill-opacity="1"
     id="g703"
     transform="translate(-363.03616,-98.730839)">
    <g
       transform="translate(489.56976,229.59889)"
       id="g701">
      <g
         id="g699">
        <path
           d="M 11.90625,0 H 10.140625 L 7.703125,-8.015625 5.234375,0 H 3.453125 L 0.046875,-10.265625 H 1.90625 l 2.5,8.34375 L 6.875,-10.25 l 1.703125,-0.01563 2.5,8.34375 2.484375,-8.34375 h 1.78125 z m 0,0"
           id="path697" />
      </g>
    </g>
  </g>
  <g
     fill="#302e2a"
     fill-opacity="1"
     id="g711"
     transform="translate(-363.03616,-98.730839)">
    <g
       transform="translate(516.49339,229.59889)"
       id="g709">
      <g
         id="g707">
        <path
           d="M 8.6875,-8.71875 H 3.078125 V -5.9375 H 8.09375 v 1.546875 H 3.078125 V -1.5625 h 5.78125 V 0 H 1.34375 V -10.265625 H 8.6875 Z m 0,0"
           id="path705" />
      </g>
    </g>
  </g>
  <g
     fill="#302e2a"
     fill-opacity="1"
     id="g719"
     transform="translate(-363.03616,-98.730839)">
    <g
       transform="translate(537.8454,229.59889)"
       id="g717">
      <g
         id="g715">
        <path
           d="M 1.34375,-10.265625 H 5.8125 c 1.0625,0 1.898438,0.230469 2.515625,0.6875 0.625,0.449219 0.9375,1.074219 0.9375,1.875 0,0.574219 -0.164063,1.0625 -0.484375,1.46875 -0.324219,0.40625 -0.765625,0.683594 -1.328125,0.828125 0.6875,0.117188 1.222656,0.402344 1.609375,0.859375 0.394531,0.460937 0.59375,1.039063 0.59375,1.734375 0,0.875 -0.335938,1.5625 -1,2.0625 C 7.988281,-0.25 7.070312,0 5.90625,0 h -4.5625 z m 1.734375,1.53125 v 2.71875 H 5.71875 c 0.550781,0 0.984375,-0.117187 1.296875,-0.359375 0.3125,-0.25 0.46875,-0.585938 0.46875,-1.015625 0,-0.4375 -0.15625,-0.769531 -0.46875,-1 C 6.710938,-8.617188 6.28125,-8.734375 5.71875,-8.734375 Z m 0,4.25 v 2.9375 H 5.71875 c 0.6875,0 1.21875,-0.125 1.59375,-0.375 0.375,-0.257813 0.5625,-0.628906 0.5625,-1.109375 0,-0.457031 -0.195312,-0.8125 -0.578125,-1.0625 -0.375,-0.257812 -0.902344,-0.390625 -1.578125,-0.390625 z m 0,0"
           id="path713" />
      </g>
    </g>
  </g>
  <g
     fill="#302e2a"
     fill-opacity="1"
     id="g725">
    <g
       transform="translate(559.93051,229.59889)"
       id="g723">
      <g
         id="g721" />
    </g>
  </g>
  <g
     fill="#302e2a"
     fill-opacity="1"
     id="g733"
     transform="translate(-363.03616,-98.730839)">
    <g
       transform="translate(575.44697,229.59889)"
       id="g731">
      <g
         id="g729">
        <path
           d="M 1.34375,-10.265625 H 5.5625 c 1.53125,0 2.796875,0.484375 3.796875,1.453125 1.007813,0.96875 1.515625,2.199219 1.515625,3.6875 0,1.480469 -0.507812,2.703125 -1.515625,3.671875 C 8.347656,-0.484375 7.066406,0 5.515625,0 H 1.34375 Z m 1.734375,1.546875 v 7.15625 h 2.53125 c 1,0 1.832031,-0.332031 2.5,-1 C 8.785156,-3.226562 9.125,-4.078125 9.125,-5.109375 9.125,-6.148438 8.78125,-7.007812 8.09375,-7.6875 7.40625,-8.375 6.550781,-8.71875 5.53125,-8.71875 Z m 0,0"
           id="path727" />
      </g>
    </g>
  </g>
  <g
     fill="#302e2a"
     fill-opacity="1"
     id="g741"
     transform="translate(-363.03616,-98.730839)">
    <g
       transform="translate(598.54377,229.59889)"
       id="g739">
      <g
         id="g737">
        <path
           d="M 8.6875,-8.71875 H 3.078125 V -5.9375 H 8.09375 v 1.546875 H 3.078125 V -1.5625 h 5.78125 V 0 H 1.34375 V -10.265625 H 8.6875 Z m 0,0"
           id="path735" />
      </g>
    </g>
  </g>
  <g
     fill="#302e2a"
     fill-opacity="1"
     id="g749"
     transform="translate(-363.03616,-98.730839)">
    <g
       transform="translate(619.89578,229.59889)"
       id="g747">
      <g
         id="g745">
        <path
           d="M 5.921875,0 H 4.140625 L 0.046875,-10.265625 H 1.90625 l 3.171875,8.34375 3.203125,-8.34375 h 1.796875 z m 0,0"
           id="path743" />
      </g>
    </g>
  </g>
  <g
     fill="#302e2a"
     fill-opacity="1"
     id="g757"
     transform="translate(-363.03616,-98.730839)">
    <g
       transform="translate(641.7463,229.59889)"
       id="g755">
      <g
         id="g753">
        <path
           d="M 8.6875,-8.71875 H 3.078125 V -5.9375 H 8.09375 v 1.546875 H 3.078125 V -1.5625 h 5.78125 V 0 H 1.34375 V -10.265625 H 8.6875 Z m 0,0"
           id="path751" />
      </g>
    </g>
  </g>
  <g
     fill="#302e2a"
     fill-opacity="1"
     id="g765"
     transform="translate(-363.03616,-98.730839)">
    <g
       transform="translate(663.09832,229.59889)"
       id="g763">
      <g
         id="g761">
        <path
           d="M 3.078125,-1.5625 H 7.53125 V 0 h -6.1875 v -10.265625 h 1.734375 z m 0,0"
           id="path759" />
      </g>
    </g>
  </g>
  <g
     fill="#302e2a"
     fill-opacity="1"
     id="g773"
     transform="translate(-363.03616,-98.730839)">
    <g
       transform="translate(682.66154,229.59889)"
       id="g771">
      <g
         id="g769">
        <path
           d="m 2.0625,-8.8125 c 1.050781,-1 2.34375,-1.5 3.875,-1.5 1.539062,0 2.832031,0.5 3.875,1.5 1.050781,0.992188 1.578125,2.21875 1.578125,3.6875 0,1.460938 -0.527344,2.695312 -1.578125,3.703125 -1.042969,1 -2.335938,1.5 -3.875,1.5 -1.53125,0 -2.824219,-0.5 -3.875,-1.5 C 1.019531,-2.429688 0.5,-3.664062 0.5,-5.125 c 0,-1.46875 0.519531,-2.695312 1.5625,-3.6875 z m 3.890625,0.046875 c -1.011719,0 -1.882813,0.355469 -2.609375,1.0625 C 2.625,-7.003906 2.265625,-6.144531 2.265625,-5.125 c 0,1.011719 0.363281,1.871094 1.09375,2.578125 0.726563,0.710937 1.59375,1.0625 2.59375,1.0625 1.007813,0 1.867187,-0.351563 2.578125,-1.0625 C 9.25,-3.253906 9.609375,-4.113281 9.609375,-5.125 9.609375,-6.144531 9.25,-7.003906 8.53125,-7.703125 7.820312,-8.410156 6.960938,-8.765625 5.953125,-8.765625 Z m 0,0"
           id="path767" />
      </g>
    </g>
  </g>
  <g
     fill="#302e2a"
     fill-opacity="1"
     id="g781"
     transform="translate(-363.03616,-98.730839)">
    <g
       transform="translate(706.27153,229.59889)"
       id="g779">
      <g
         id="g777">
        <path
           d="M 1.34375,-10.265625 H 5.4375 c 1.289062,0 2.289062,0.308594 3,0.921875 0.707031,0.605469 1.0625,1.464844 1.0625,2.578125 0,1.167969 -0.355469,2.074219 -1.0625,2.71875 -0.710938,0.636719 -1.710938,0.953125 -3,0.953125 H 3.078125 V 0 H 1.34375 Z m 1.734375,1.546875 v 4.0625 H 5.375 c 1.644531,0 2.46875,-0.6875 2.46875,-2.0625 0,-1.332031 -0.824219,-2 -2.46875,-2 z m 0,0"
           id="path775" />
      </g>
    </g>
  </g>
  <g
     fill="#302e2a"
     fill-opacity="1"
     id="g789"
     transform="translate(-363.03616,-98.730839)">
    <g
       transform="translate(727.87279,229.59889)"
       id="g787">
      <g
         id="g785">
        <path
           d="M 8.6875,-8.71875 H 3.078125 V -5.9375 H 8.09375 v 1.546875 H 3.078125 V -1.5625 h 5.78125 V 0 H 1.34375 V -10.265625 H 8.6875 Z m 0,0"
           id="path783" />
      </g>
    </g>
  </g>
  <g
     fill="#302e2a"
     fill-opacity="1"
     id="g797"
     transform="translate(-363.03616,-98.730839)">
    <g
       transform="translate(749.22481,229.59889)"
       id="g795">
      <g
         id="g793">
        <path
           d="m 7.859375,0 -1.875,-3.109375 c -0.09375,0.011719 -0.25,0.015625 -0.46875,0.015625 h -2.4375 V 0 H 1.34375 v -10.265625 h 4.171875 c 1.3125,0 2.328125,0.308594 3.046875,0.921875 0.726562,0.605469 1.09375,1.464844 1.09375,2.578125 0,0.824219 -0.1875,1.523437 -0.5625,2.09375 -0.367188,0.5625 -0.886719,0.976563 -1.5625,1.234375 L 9.828125,0 Z m -4.78125,-4.65625 h 2.4375 c 1.664063,0 2.5,-0.6875 2.5,-2.0625 0,-1.332031 -0.835937,-2 -2.5,-2 h -2.4375 z m 0,0"
           id="path791" />
      </g>
    </g>
  </g>
</svg>
